<svg width="230" height="80" viewBox="0 0 230 80" fill="none" xmlns="http://www.w3.org/2000/svg">
<rect x="36" width="194" height="74" rx="12" fill="#FFFD00"/>
<path d="M46.7585 19V10.2727H50.2528C50.8949 10.2727 51.4304 10.3679 51.8594 10.5582C52.2884 10.7486 52.6108 11.0128 52.8267 11.3509C53.0426 11.6861 53.1506 12.0724 53.1506 12.5099C53.1506 12.8509 53.0824 13.1506 52.946 13.4091C52.8097 13.6648 52.6222 13.875 52.3835 14.0398C52.1477 14.2017 51.8778 14.3168 51.5739 14.3849V14.4702C51.9063 14.4844 52.2173 14.5781 52.5071 14.7514C52.7997 14.9247 53.0369 15.1676 53.2188 15.4801C53.4006 15.7898 53.4915 16.1591 53.4915 16.5881C53.4915 17.0511 53.3764 17.4645 53.1463 17.8281C52.919 18.1889 52.5824 18.4744 52.1364 18.6847C51.6903 18.8949 51.1406 19 50.4872 19H46.7585ZM48.6037 17.4915H50.108C50.6222 17.4915 50.9972 17.3935 51.233 17.1974C51.4688 16.9986 51.5866 16.7344 51.5866 16.4048C51.5866 16.1634 51.5284 15.9503 51.4119 15.7656C51.2955 15.581 51.1293 15.4361 50.9134 15.331C50.7003 15.2259 50.446 15.1733 50.1506 15.1733H48.6037V17.4915ZM48.6037 13.9247H49.9716C50.2244 13.9247 50.4489 13.8807 50.6449 13.7926C50.8438 13.7017 51 13.5739 51.1136 13.4091C51.2301 13.2443 51.2884 13.0469 51.2884 12.8168C51.2884 12.5014 51.1761 12.2472 50.9517 12.054C50.7301 11.8608 50.4148 11.7642 50.0057 11.7642H48.6037V13.9247ZM57.3342 19.1278C56.7319 19.1278 56.212 19.0199 55.7745 18.804C55.337 18.5881 55.0004 18.2955 54.7646 17.9261C54.5316 17.554 54.4151 17.1392 54.4151 16.6818C54.4151 16.3409 54.4833 16.0384 54.6197 15.7741C54.756 15.5099 54.9464 15.267 55.1907 15.0455C55.435 14.821 55.7191 14.598 56.043 14.3764L57.7347 13.2642C57.9535 13.125 58.114 12.9787 58.2163 12.8253C58.3185 12.669 58.3697 12.5 58.3697 12.3182C58.3697 12.1449 58.3001 11.9844 58.1609 11.8366C58.0217 11.6889 57.8242 11.6165 57.5685 11.6193C57.3981 11.6193 57.2504 11.6577 57.1254 11.7344C57.0004 11.8082 56.9023 11.9062 56.8313 12.0284C56.7631 12.1477 56.729 12.2812 56.729 12.429C56.729 12.6108 56.7802 12.7955 56.8825 12.983C56.9847 13.1705 57.1211 13.3693 57.2915 13.5795C57.462 13.7869 57.6481 14.0114 57.8498 14.2528L61.9876 19H60.0955L56.6438 15.1562C56.4165 14.8977 56.1893 14.6278 55.962 14.3466C55.7376 14.0625 55.5501 13.7614 55.3995 13.4432C55.2489 13.1222 55.1737 12.7741 55.1737 12.3991C55.1737 11.9759 55.2717 11.5952 55.4677 11.2571C55.6665 10.919 55.945 10.652 56.3029 10.456C56.6609 10.2571 57.0785 10.1577 57.5558 10.1577C58.0217 10.1577 58.4237 10.2528 58.7617 10.4432C59.1026 10.6307 59.364 10.8807 59.5458 11.1932C59.7305 11.5028 59.8228 11.8437 59.8228 12.2159C59.8228 12.6278 59.7205 13.0014 59.516 13.3366C59.3143 13.669 59.0302 13.9673 58.6637 14.2315L56.8825 15.5142C56.641 15.6903 56.462 15.8707 56.3455 16.0554C56.2319 16.2372 56.1751 16.4119 56.1751 16.5795C56.1751 16.7869 56.2262 16.973 56.3285 17.1378C56.4308 17.3026 56.5756 17.4332 56.7631 17.5298C56.9506 17.6236 57.1708 17.6705 57.4237 17.6705C57.7305 17.6705 58.033 17.6009 58.3313 17.4616C58.6325 17.3196 58.9052 17.1193 59.1495 16.8608C59.3967 16.5994 59.5941 16.2898 59.7418 15.9318C59.8896 15.5739 59.9634 15.1776 59.9634 14.7429H61.4677C61.4677 15.277 61.4094 15.7585 61.293 16.1875C61.1765 16.6136 61.0146 16.9858 60.8072 17.304C60.5998 17.6193 60.3626 17.8778 60.0955 18.0795C60.0103 18.1335 59.9279 18.1847 59.8484 18.233C59.7688 18.2812 59.6864 18.3324 59.6012 18.3864C59.2773 18.6477 58.9151 18.8366 58.5146 18.9531C58.1168 19.0696 57.7234 19.1278 57.3342 19.1278ZM62.7781 19V10.2727H66.2724C66.9144 10.2727 67.4499 10.3679 67.8789 10.5582C68.3079 10.7486 68.6303 11.0128 68.8462 11.3509C69.0621 11.6861 69.1701 12.0724 69.1701 12.5099C69.1701 12.8509 69.1019 13.1506 68.9656 13.4091C68.8292 13.6648 68.6417 13.875 68.4031 14.0398C68.1673 14.2017 67.8974 14.3168 67.5934 14.3849V14.4702C67.9258 14.4844 68.2369 14.5781 68.5266 14.7514C68.8192 14.9247 69.0565 15.1676 69.2383 15.4801C69.4201 15.7898 69.511 16.1591 69.511 16.5881C69.511 17.0511 69.396 17.4645 69.1658 17.8281C68.9386 18.1889 68.6019 18.4744 68.1559 18.6847C67.7099 18.8949 67.1602 19 66.5067 19H62.7781ZM64.6232 17.4915H66.1275C66.6417 17.4915 67.0167 17.3935 67.2525 17.1974C67.4883 16.9986 67.6062 16.7344 67.6062 16.4048C67.6062 16.1634 67.5479 15.9503 67.4315 15.7656C67.315 15.581 67.1488 15.4361 66.9329 15.331C66.7198 15.2259 66.4656 15.1733 66.1701 15.1733H64.6232V17.4915ZM64.6232 13.9247H65.9911C66.244 13.9247 66.4684 13.8807 66.6644 13.7926C66.8633 13.7017 67.0195 13.5739 67.1332 13.4091C67.2496 13.2443 67.3079 13.0469 67.3079 12.8168C67.3079 12.5014 67.1957 12.2472 66.9712 12.054C66.7496 11.8608 66.4343 11.7642 66.0252 11.7642H64.6232V13.9247ZM84.7305 13.9162V15.3565H72.7305V13.9162H84.7305ZM93.674 10.0511L94.228 11.2358C94.0433 11.3892 93.8388 11.5028 93.6143 11.5767C93.3899 11.6477 93.1214 11.6946 92.8089 11.7173C92.4993 11.7401 92.1214 11.7557 91.6754 11.7642C91.1697 11.7699 90.7578 11.8509 90.4396 12.0071C90.1214 12.1634 89.88 12.4091 89.7152 12.7443C89.5504 13.0767 89.4425 13.5114 89.3913 14.0483H89.4553C89.6513 13.6477 89.9268 13.3381 90.282 13.1193C90.6399 12.9006 91.0817 12.7912 91.6072 12.7912C92.1641 12.7912 92.6513 12.9134 93.0689 13.1577C93.4893 13.402 93.8161 13.7528 94.049 14.2102C94.282 14.6676 94.3984 15.2159 94.3984 15.8551C94.3984 16.5199 94.2678 17.098 94.0064 17.5895C93.7479 18.0781 93.38 18.4574 92.9027 18.7273C92.4254 18.9943 91.8572 19.1278 91.1982 19.1278C90.5362 19.1278 89.9652 18.9886 89.4851 18.7102C89.0078 18.4318 88.6385 18.0213 88.3771 17.4787C88.1186 16.9361 87.9893 16.2685 87.9893 15.4759V14.9389C87.9893 13.3622 88.2962 12.1932 88.9098 11.4318C89.5234 10.6705 90.4254 10.2841 91.6158 10.2727C91.9396 10.267 92.2322 10.2656 92.4936 10.2685C92.755 10.2713 92.9837 10.2585 93.1797 10.2301C93.3786 10.2017 93.5433 10.142 93.674 10.0511ZM91.2067 17.7216C91.4851 17.7216 91.7237 17.6491 91.9226 17.5043C92.1243 17.3594 92.2791 17.152 92.3871 16.8821C92.4979 16.6122 92.5533 16.2898 92.5533 15.9148C92.5533 15.5426 92.4979 15.2273 92.3871 14.9688C92.2791 14.7074 92.1243 14.5085 91.9226 14.3722C91.7209 14.2358 91.4794 14.1676 91.1982 14.1676C90.9879 14.1676 90.799 14.206 90.6314 14.2827C90.4638 14.3594 90.3203 14.473 90.201 14.6236C90.0845 14.7713 89.9936 14.9545 89.9283 15.1733C89.8658 15.3892 89.8345 15.6364 89.8345 15.9148C89.8345 16.4744 89.9553 16.9162 90.1967 17.2401C90.4411 17.5611 90.7777 17.7216 91.2067 17.7216ZM95.6033 21.4545V12.4545H97.3931V13.554H97.4741C97.5536 13.3778 97.6687 13.1989 97.8192 13.017C97.9727 12.8324 98.1715 12.679 98.4158 12.5568C98.663 12.4318 98.9698 12.3693 99.3363 12.3693C99.8136 12.3693 100.254 12.4943 100.657 12.7443C101.061 12.9915 101.383 13.3651 101.625 13.8651C101.866 14.3622 101.987 14.9858 101.987 15.7358C101.987 16.4659 101.869 17.0824 101.633 17.5852C101.4 18.0852 101.082 18.4645 100.679 18.723C100.278 18.9787 99.8292 19.1065 99.332 19.1065C98.9798 19.1065 98.68 19.0483 98.4329 18.9318C98.1886 18.8153 97.9883 18.669 97.832 18.4929C97.6758 18.3139 97.5565 18.1335 97.4741 17.9517H97.4187V21.4545H95.6033ZM97.3803 15.7273C97.3803 16.1165 97.4343 16.456 97.5423 16.7457C97.6502 17.0355 97.8065 17.2614 98.011 17.4233C98.2156 17.5824 98.4641 17.6619 98.7567 17.6619C99.0522 17.6619 99.3022 17.581 99.5067 17.419C99.7113 17.2543 99.8661 17.027 99.9712 16.7372C100.079 16.4446 100.133 16.108 100.133 15.7273C100.133 15.3494 100.081 15.017 99.9755 14.7301C99.8704 14.4432 99.7156 14.2187 99.511 14.0568C99.3065 13.8949 99.055 13.8139 98.7567 13.8139C98.4613 13.8139 98.2113 13.892 98.0067 14.0483C97.805 14.2045 97.6502 14.4261 97.5423 14.7131C97.4343 15 97.3803 15.3381 97.3803 15.7273ZM106.18 19.1278C105.507 19.1278 104.927 18.9915 104.441 18.7188C103.958 18.4432 103.586 18.054 103.325 17.5511C103.064 17.0455 102.933 16.4474 102.933 15.7571C102.933 15.0838 103.064 14.4929 103.325 13.9844C103.586 13.4759 103.954 13.0795 104.429 12.7955C104.906 12.5114 105.466 12.3693 106.108 12.3693C106.539 12.3693 106.941 12.4389 107.314 12.5781C107.689 12.7145 108.015 12.9205 108.294 13.196C108.575 13.4716 108.794 13.8182 108.95 14.2358C109.106 14.6506 109.184 15.1364 109.184 15.6932V16.1918H103.657V15.0668H107.475C107.475 14.8054 107.419 14.5739 107.305 14.3722C107.191 14.1705 107.034 14.0128 106.832 13.8991C106.633 13.7827 106.402 13.7244 106.137 13.7244C105.862 13.7244 105.618 13.7884 105.404 13.9162C105.194 14.0412 105.029 14.2102 104.91 14.4233C104.791 14.6335 104.73 14.8679 104.727 15.1264V16.196C104.727 16.5199 104.787 16.7997 104.906 17.0355C105.028 17.2713 105.2 17.4531 105.422 17.581C105.643 17.7088 105.906 17.7727 106.21 17.7727C106.412 17.7727 106.596 17.7443 106.764 17.6875C106.931 17.6307 107.075 17.5455 107.194 17.4318C107.314 17.3182 107.404 17.179 107.467 17.0142L109.146 17.125C109.061 17.5284 108.886 17.8807 108.622 18.1818C108.36 18.4801 108.022 18.7131 107.608 18.8807C107.196 19.0455 106.72 19.1278 106.18 19.1278ZM114.924 15.0028V16.4304H111.507V15.0028H114.924ZM112.103 12.4545V19H110.369V12.4545H112.103ZM116.062 12.4545V19H114.341V12.4545H116.062ZM116.959 20.9176V17.5597H117.462C117.607 17.4687 117.723 17.3239 117.811 17.125C117.902 16.9261 117.976 16.6918 118.033 16.4219C118.093 16.152 118.138 15.8608 118.169 15.5483C118.203 15.233 118.233 14.9148 118.259 14.5938L118.429 12.4545H123.449V17.5597H124.463V20.9176H122.733V19H118.732V20.9176H116.959ZM119.269 17.5597H121.736V13.8523H119.972L119.904 14.5938C119.855 15.2926 119.786 15.8864 119.695 16.375C119.604 16.8608 119.462 17.2557 119.269 17.5597ZM129.419 21.4545C129.189 21.4545 128.973 21.4361 128.772 21.3991C128.573 21.3651 128.408 21.321 128.277 21.267L128.686 19.9119C128.9 19.9773 129.091 20.0128 129.262 20.0185C129.435 20.0241 129.584 19.9844 129.709 19.8991C129.837 19.8139 129.941 19.669 130.02 19.4645L130.127 19.1875L127.779 12.4545H129.688L131.043 17.2614H131.111L132.479 12.4545H134.401L131.857 19.7074C131.735 20.0597 131.569 20.3665 131.358 20.6278C131.151 20.892 130.888 21.0952 130.57 21.2372C130.252 21.3821 129.868 21.4545 129.419 21.4545ZM135.33 19V12.4545H137.145V14.9943H137.657L139.438 12.4545H141.569L139.255 15.7017L141.594 19H139.438L137.823 16.6776H137.145V19H135.33ZM142.361 21.4545V12.4545H144.151V13.554H144.232C144.311 13.3778 144.426 13.1989 144.577 13.017C144.73 12.8324 144.929 12.679 145.174 12.5568C145.421 12.4318 145.728 12.3693 146.094 12.3693C146.571 12.3693 147.012 12.4943 147.415 12.7443C147.819 12.9915 148.141 13.3651 148.382 13.8651C148.624 14.3622 148.745 14.9858 148.745 15.7358C148.745 16.4659 148.627 17.0824 148.391 17.5852C148.158 18.0852 147.84 18.4645 147.436 18.723C147.036 18.9787 146.587 19.1065 146.09 19.1065C145.738 19.1065 145.438 19.0483 145.191 18.9318C144.946 18.8153 144.746 18.669 144.59 18.4929C144.434 18.3139 144.314 18.1335 144.232 17.9517H144.176V21.4545H142.361ZM144.138 15.7273C144.138 16.1165 144.192 16.456 144.3 16.7457C144.408 17.0355 144.564 17.2614 144.769 17.4233C144.973 17.5824 145.222 17.6619 145.515 17.6619C145.81 17.6619 146.06 17.581 146.265 17.419C146.469 17.2543 146.624 17.027 146.729 16.7372C146.837 16.4446 146.891 16.108 146.891 15.7273C146.891 15.3494 146.838 15.017 146.733 14.7301C146.628 14.4432 146.473 14.2187 146.269 14.0568C146.064 13.8949 145.813 13.8139 145.515 13.8139C145.219 13.8139 144.969 13.892 144.765 14.0483C144.563 14.2045 144.408 14.4261 144.3 14.7131C144.192 15 144.138 15.3381 144.138 15.7273ZM151.821 19.1236C151.404 19.1236 151.032 19.0511 150.705 18.9062C150.378 18.7585 150.12 18.5412 149.929 18.2543C149.742 17.9645 149.648 17.6037 149.648 17.1719C149.648 16.8082 149.715 16.5028 149.848 16.2557C149.982 16.0085 150.164 15.8097 150.394 15.6591C150.624 15.5085 150.885 15.3949 151.178 15.3182C151.473 15.2415 151.783 15.1875 152.107 15.1562C152.488 15.1165 152.794 15.0795 153.027 15.0455C153.26 15.0085 153.429 14.9545 153.534 14.8835C153.64 14.8125 153.692 14.7074 153.692 14.5682V14.5426C153.692 14.2727 153.607 14.0639 153.436 13.9162C153.269 13.7685 153.03 13.6946 152.721 13.6946C152.394 13.6946 152.134 13.767 151.941 13.9119C151.748 14.054 151.62 14.233 151.557 14.4489L149.878 14.3125C149.963 13.9148 150.131 13.571 150.381 13.2812C150.631 12.9886 150.953 12.7642 151.348 12.608C151.746 12.4489 152.206 12.3693 152.729 12.3693C153.093 12.3693 153.441 12.4119 153.773 12.4972C154.108 12.5824 154.405 12.7145 154.664 12.8935C154.925 13.0724 155.131 13.3026 155.282 13.5838C155.432 13.8622 155.507 14.196 155.507 14.5852V19H153.786V18.0923H153.735C153.63 18.2969 153.489 18.4773 153.313 18.6335C153.137 18.7869 152.925 18.9077 152.678 18.9957C152.431 19.081 152.145 19.1236 151.821 19.1236ZM152.341 17.8707C152.608 17.8707 152.844 17.8182 153.049 17.7131C153.253 17.6051 153.414 17.4602 153.53 17.2784C153.647 17.0966 153.705 16.8906 153.705 16.6605V15.9659C153.648 16.0028 153.57 16.0369 153.471 16.0682C153.374 16.0966 153.265 16.1236 153.142 16.1491C153.02 16.1719 152.898 16.1932 152.776 16.2131C152.654 16.2301 152.543 16.2457 152.444 16.2599C152.23 16.2912 152.044 16.3409 151.885 16.4091C151.726 16.4773 151.603 16.5696 151.515 16.6861C151.426 16.7997 151.382 16.9418 151.382 17.1122C151.382 17.3594 151.472 17.5483 151.651 17.679C151.833 17.8068 152.063 17.8707 152.341 17.8707ZM156.916 12.4545H158.65V17.5597H160.495V12.4545H162.23V17.5597H164.075V12.4545H165.809V19H156.916V12.4545ZM170.2 19.1278C169.526 19.1278 168.947 18.9915 168.461 18.7188C167.978 18.4432 167.606 18.054 167.344 17.5511C167.083 17.0455 166.952 16.4474 166.952 15.7571C166.952 15.0838 167.083 14.4929 167.344 13.9844C167.606 13.4759 167.974 13.0795 168.448 12.7955C168.925 12.5114 169.485 12.3693 170.127 12.3693C170.559 12.3693 170.961 12.4389 171.333 12.5781C171.708 12.7145 172.035 12.9205 172.313 13.196C172.594 13.4716 172.813 13.8182 172.969 14.2358C173.126 14.6506 173.204 15.1364 173.204 15.6932V16.1918H167.677V15.0668H171.495C171.495 14.8054 171.438 14.5739 171.325 14.3722C171.211 14.1705 171.053 14.0128 170.852 13.8991C170.653 13.7827 170.421 13.7244 170.157 13.7244C169.881 13.7244 169.637 13.7884 169.424 13.9162C169.214 14.0412 169.049 14.2102 168.93 14.4233C168.81 14.6335 168.749 14.8679 168.746 15.1264V16.196C168.746 16.5199 168.806 16.7997 168.925 17.0355C169.048 17.2713 169.219 17.4531 169.441 17.581C169.663 17.7088 169.925 17.7727 170.229 17.7727C170.431 17.7727 170.616 17.7443 170.783 17.6875C170.951 17.6307 171.094 17.5455 171.214 17.4318C171.333 17.3182 171.424 17.179 171.487 17.0142L173.165 17.125C173.08 17.5284 172.906 17.8807 172.641 18.1818C172.38 18.4801 172.042 18.7131 171.627 18.8807C171.215 19.0455 170.739 19.1278 170.2 19.1278ZM178.944 15.0028V16.4304H175.526V15.0028H178.944ZM176.123 12.4545V19H174.388V12.4545H176.123ZM180.082 12.4545V19H178.36V12.4545H180.082ZM183.224 16.6051L185.581 12.4545H187.371V19H185.641V14.8366L183.293 19H181.49V12.4545H183.224V16.6051ZM190.56 16.6051L192.917 12.4545H194.707V19H192.977V14.8366L190.629 19H188.826V12.4545H190.56V16.6051ZM192.606 10.1705H193.871C193.869 10.6875 193.677 11.1037 193.296 11.419C192.918 11.7344 192.407 11.892 191.762 11.892C191.114 11.892 190.602 11.7344 190.224 11.419C189.846 11.1037 189.657 10.6875 189.657 10.1705H190.914C190.911 10.3665 190.974 10.5426 191.102 10.6989C191.232 10.8551 191.452 10.9332 191.762 10.9332C192.063 10.9332 192.279 10.8565 192.41 10.7031C192.54 10.5497 192.606 10.3722 192.606 10.1705ZM48.4588 31.6051L50.8153 27.4545H52.6051V34H50.875V29.8366L48.527 34H46.7244V27.4545H48.4588V31.6051ZM53.7237 32.1463H55.4837C55.4922 32.3622 55.5888 32.5327 55.7734 32.6577C55.9581 32.7827 56.1967 32.8452 56.4893 32.8452C56.7848 32.8452 57.0334 32.777 57.2351 32.6406C57.4368 32.5014 57.5376 32.3026 57.5376 32.044C57.5376 31.8849 57.4979 31.7472 57.4183 31.6307C57.3388 31.5114 57.228 31.4176 57.0859 31.3494C56.9439 31.2812 56.7791 31.2472 56.5916 31.2472H55.6499V30.0582H56.5916C56.8729 30.0582 57.0888 29.9929 57.2393 29.8622C57.3928 29.7315 57.4695 29.5682 57.4695 29.3722C57.4695 29.1506 57.3899 28.973 57.2308 28.8395C57.0746 28.7031 56.8629 28.6349 56.5959 28.6349C56.326 28.6349 56.1016 28.696 55.9226 28.8182C55.7464 28.9375 55.6555 29.0937 55.6499 29.2869H53.8984C53.9041 28.8949 54.022 28.5554 54.2521 28.2685C54.4851 27.9815 54.7976 27.7599 55.1896 27.6037C55.5845 27.4474 56.0263 27.3693 56.5149 27.3693C57.049 27.3693 57.5092 27.4446 57.8956 27.5952C58.2848 27.7429 58.5831 27.9545 58.7905 28.2301C59.0007 28.5057 59.1058 28.8338 59.1058 29.2145C59.1058 29.5611 58.9922 29.8509 58.7649 30.0838C58.5376 30.3168 58.2195 30.483 57.8104 30.5824V30.6506C58.0803 30.6676 58.3246 30.7401 58.5433 30.8679C58.7621 30.9957 58.9368 31.1719 59.0675 31.3963C59.1982 31.6179 59.2635 31.8807 59.2635 32.1847C59.2635 32.5909 59.1442 32.9389 58.9055 33.2287C58.6697 33.5185 58.343 33.7415 57.9254 33.8977C57.5107 34.0511 57.0348 34.1278 56.4979 34.1278C55.9751 34.1278 55.5064 34.0526 55.0916 33.902C54.6797 33.7486 54.3516 33.5241 54.1072 33.2287C53.8658 32.9332 53.7379 32.5724 53.7237 32.1463ZM63.1541 34V27.4545H64.9695V29.9943H65.4808L67.2621 27.4545H69.3928L67.0788 30.7017L69.4183 34H67.2621L65.647 31.6776H64.9695V34H63.1541ZM72.8988 34.1278C72.2255 34.1278 71.646 33.9915 71.1602 33.7188C70.6772 33.4432 70.305 33.054 70.0437 32.5511C69.7823 32.0455 69.6516 31.4474 69.6516 30.7571C69.6516 30.0838 69.7823 29.4929 70.0437 28.9844C70.305 28.4759 70.6729 28.0795 71.1474 27.7955C71.6246 27.5114 72.1843 27.3693 72.8263 27.3693C73.2582 27.3693 73.6602 27.4389 74.0323 27.5781C74.4073 27.7145 74.734 27.9205 75.0124 28.196C75.2937 28.4716 75.5124 28.8182 75.6687 29.2358C75.8249 29.6506 75.9031 30.1364 75.9031 30.6932V31.1918H70.3761V30.0668H74.1942C74.1942 29.8054 74.1374 29.5739 74.0238 29.3722C73.9102 29.1705 73.7525 29.0128 73.5508 28.8991C73.3519 28.7827 73.1204 28.7244 72.8562 28.7244C72.5806 28.7244 72.3363 28.7884 72.1232 28.9162C71.913 29.0412 71.7482 29.2102 71.6289 29.4233C71.5096 29.6335 71.4485 29.8679 71.4457 30.1264V31.196C71.4457 31.5199 71.5053 31.7997 71.6246 32.0355C71.7468 32.2713 71.9187 32.4531 72.1403 32.581C72.3619 32.7088 72.6246 32.7727 72.9286 32.7727C73.1303 32.7727 73.315 32.7443 73.4826 32.6875C73.6502 32.6307 73.7937 32.5455 73.913 32.4318C74.0323 32.3182 74.1232 32.179 74.1857 32.0142L75.8647 32.125C75.7795 32.5284 75.6048 32.8807 75.3406 33.1818C75.0792 33.4801 74.7411 33.7131 74.3263 33.8807C73.9144 34.0455 73.4386 34.1278 72.8988 34.1278ZM77.0877 36.4545V27.4545H78.8775V28.554H78.9585C79.038 28.3778 79.1531 28.1989 79.3036 28.017C79.457 27.8324 79.6559 27.679 79.9002 27.5568C80.1474 27.4318 80.4542 27.3693 80.8207 27.3693C81.2979 27.3693 81.7383 27.4943 82.1417 27.7443C82.5451 27.9915 82.8675 28.3651 83.109 28.8651C83.3505 29.3622 83.4712 29.9858 83.4712 30.7358C83.4712 31.4659 83.3533 32.0824 83.1175 32.5852C82.8846 33.0852 82.5664 33.4645 82.163 33.723C81.7624 33.9787 81.3136 34.1065 80.8164 34.1065C80.4641 34.1065 80.1644 34.0483 79.9173 33.9318C79.6729 33.8153 79.4727 33.669 79.3164 33.4929C79.1602 33.3139 79.0408 33.1335 78.9585 32.9517H78.9031V36.4545H77.0877ZM78.8647 30.7273C78.8647 31.1165 78.9187 31.456 79.0266 31.7457C79.1346 32.0355 79.2908 32.2614 79.4954 32.4233C79.6999 32.5824 79.9485 32.6619 80.2411 32.6619C80.5366 32.6619 80.7866 32.581 80.9911 32.419C81.1957 32.2543 81.3505 32.027 81.4556 31.7372C81.5636 31.4446 81.6175 31.108 81.6175 30.7273C81.6175 30.3494 81.565 30.017 81.4599 29.7301C81.3548 29.4432 81.1999 29.2187 80.9954 29.0568C80.7908 28.8949 80.5394 28.8139 80.2411 28.8139C79.9457 28.8139 79.6957 28.892 79.4911 29.0483C79.2894 29.2045 79.1346 29.4261 79.0266 29.7131C78.9187 30 78.8647 30.3381 78.8647 30.7273ZM86.5479 34.1236C86.1303 34.1236 85.7582 34.0511 85.4315 33.9062C85.1048 33.7585 84.8462 33.5412 84.6559 33.2543C84.4684 32.9645 84.3746 32.6037 84.3746 32.1719C84.3746 31.8082 84.4414 31.5028 84.5749 31.2557C84.7085 31.0085 84.8903 30.8097 85.1204 30.6591C85.3505 30.5085 85.6119 30.3949 85.9045 30.3182C86.1999 30.2415 86.5096 30.1875 86.8335 30.1562C87.2141 30.1165 87.521 30.0795 87.7539 30.0455C87.9869 30.0085 88.1559 29.9545 88.261 29.8835C88.3661 29.8125 88.4187 29.7074 88.4187 29.5682V29.5426C88.4187 29.2727 88.3335 29.0639 88.163 28.9162C87.9954 28.7685 87.7567 28.6946 87.4471 28.6946C87.1204 28.6946 86.8604 28.767 86.6673 28.9119C86.4741 29.054 86.3462 29.233 86.2837 29.4489L84.6048 29.3125C84.69 28.9148 84.8576 28.571 85.1076 28.2812C85.3576 27.9886 85.68 27.7642 86.0749 27.608C86.4727 27.4489 86.9329 27.3693 87.4556 27.3693C87.8192 27.3693 88.1673 27.4119 88.4996 27.4972C88.8349 27.5824 89.1317 27.7145 89.3903 27.8935C89.6516 28.0724 89.8576 28.3026 90.0082 28.5838C90.1587 28.8622 90.234 29.196 90.234 29.5852V34H88.5124V33.0923H88.4613C88.3562 33.2969 88.2156 33.4773 88.0394 33.6335C87.8633 33.7869 87.6516 33.9077 87.4045 33.9957C87.1573 34.081 86.8718 34.1236 86.5479 34.1236ZM87.0678 32.8707C87.3349 32.8707 87.5707 32.8182 87.7752 32.7131C87.9798 32.6051 88.1403 32.4602 88.2567 32.2784C88.3732 32.0966 88.4315 31.8906 88.4315 31.6605V30.9659C88.3746 31.0028 88.2965 31.0369 88.1971 31.0682C88.1005 31.0966 87.9911 31.1236 87.869 31.1491C87.7468 31.1719 87.6246 31.1932 87.5025 31.2131C87.3803 31.2301 87.2695 31.2457 87.1701 31.2599C86.957 31.2912 86.771 31.3409 86.6119 31.4091C86.4528 31.4773 86.3292 31.5696 86.2411 31.6861C86.1531 31.7997 86.109 31.9418 86.109 32.1122C86.109 32.3594 86.1985 32.5483 86.3775 32.679C86.5593 32.8068 86.7894 32.8707 87.0678 32.8707ZM95.5117 31.9929L97.2844 27.4545H98.6651L96.1126 34H94.9066L92.4137 27.4545H93.7901L95.5117 31.9929ZM93.3768 27.4545V34H91.6424V27.4545H93.3768ZM97.7362 34V27.4545H99.4492V34H97.7362ZM102.588 31.6051L104.944 27.4545H106.734V34H105.004V29.8366L102.656 34H100.853V27.4545H102.588V31.6051ZM113.87 27.4545V34H112.148V27.4545H113.87ZM113.03 30.3267V31.7585C112.891 31.821 112.718 31.8807 112.51 31.9375C112.303 31.9915 112.086 32.0355 111.858 32.0696C111.631 32.1037 111.418 32.1207 111.219 32.1207C110.279 32.1207 109.539 31.9276 108.999 31.5412C108.459 31.152 108.189 30.5312 108.189 29.679V27.446H109.902V29.679C109.902 29.9318 109.945 30.1321 110.03 30.2798C110.118 30.4276 110.257 30.5341 110.448 30.5994C110.641 30.6619 110.898 30.6932 111.219 30.6932C111.517 30.6932 111.81 30.6619 112.097 30.5994C112.384 30.5369 112.695 30.446 113.03 30.3267ZM118.262 34.1278C117.589 34.1278 117.009 33.9915 116.523 33.7188C116.04 33.4432 115.668 33.054 115.407 32.5511C115.146 32.0455 115.015 31.4474 115.015 30.7571C115.015 30.0838 115.146 29.4929 115.407 28.9844C115.668 28.4759 116.036 28.0795 116.511 27.7955C116.988 27.5114 117.548 27.3693 118.19 27.3693C118.621 27.3693 119.023 27.4389 119.396 27.5781C119.771 27.7145 120.097 27.9205 120.376 28.196C120.657 28.4716 120.876 28.8182 121.032 29.2358C121.188 29.6506 121.266 30.1364 121.266 30.6932V31.1918H115.739V30.0668H119.558C119.558 29.8054 119.501 29.5739 119.387 29.3722C119.273 29.1705 119.116 29.0128 118.914 28.8991C118.715 28.7827 118.484 28.7244 118.219 28.7244C117.944 28.7244 117.7 28.7884 117.487 28.9162C117.276 29.0412 117.112 29.2102 116.992 29.4233C116.873 29.6335 116.812 29.8679 116.809 30.1264V31.196C116.809 31.5199 116.869 31.7997 116.988 32.0355C117.11 32.2713 117.282 32.4531 117.504 32.581C117.725 32.7088 117.988 32.7727 118.292 32.7727C118.494 32.7727 118.678 32.7443 118.846 32.6875C119.013 32.6307 119.157 32.5455 119.276 32.4318C119.396 32.3182 119.487 32.179 119.549 32.0142L121.228 32.125C121.143 32.5284 120.968 32.8807 120.704 33.1818C120.442 33.4801 120.104 33.7131 119.69 33.8807C119.278 34.0455 118.802 34.1278 118.262 34.1278ZM125.408 34.1278C124.738 34.1278 124.161 33.9858 123.678 33.7017C123.198 33.4148 122.829 33.017 122.57 32.5085C122.315 32 122.187 31.4148 122.187 30.7528C122.187 30.0824 122.316 29.4943 122.575 28.9886C122.836 28.4801 123.207 28.0838 123.687 27.7997C124.167 27.5128 124.738 27.3693 125.4 27.3693C125.971 27.3693 126.471 27.473 126.9 27.6804C127.329 27.8878 127.668 28.179 127.918 28.554C128.168 28.929 128.306 29.3693 128.332 29.875H126.619C126.57 29.5483 126.442 29.2855 126.235 29.0866C126.031 28.8849 125.762 28.7841 125.43 28.7841C125.148 28.7841 124.903 28.8608 124.692 29.0142C124.485 29.1648 124.323 29.3849 124.207 29.6747C124.09 29.9645 124.032 30.3153 124.032 30.7273C124.032 31.1449 124.089 31.5 124.202 31.7926C124.319 32.0852 124.482 32.3082 124.692 32.4616C124.903 32.6151 125.148 32.6918 125.43 32.6918C125.637 32.6918 125.823 32.6491 125.988 32.5639C126.156 32.4787 126.293 32.3551 126.401 32.1932C126.512 32.0284 126.585 31.831 126.619 31.6009H128.332C128.303 32.1009 128.167 32.5412 127.923 32.9219C127.681 33.2997 127.347 33.5952 126.921 33.8082C126.495 34.0213 125.991 34.1278 125.408 34.1278ZM129.494 34V27.4545H131.309V29.9943H131.821L133.602 27.4545H135.733L133.419 30.7017L135.758 34H133.602L131.987 31.6776H131.309V34H129.494ZM138.26 31.6051L140.616 27.4545H142.406V34H140.676V29.8366L138.328 34H136.525V27.4545H138.26V31.6051ZM145.378 27.4545L146.58 29.7429L147.811 27.4545H149.674L147.777 30.7273L149.725 34H147.871L146.58 31.7372L145.31 34H143.435L145.378 30.7273L143.503 27.4545H145.378ZM156.487 34.1278C155.825 34.1278 155.252 33.9872 154.769 33.706C154.289 33.4219 153.918 33.027 153.657 32.5213C153.396 32.0128 153.265 31.4233 153.265 30.7528C153.265 30.0767 153.396 29.4858 153.657 28.9801C153.918 28.4716 154.289 28.0767 154.769 27.7955C155.252 27.5114 155.825 27.3693 156.487 27.3693C157.148 27.3693 157.719 27.5114 158.2 27.7955C158.683 28.0767 159.055 28.4716 159.316 28.9801C159.577 29.4858 159.708 30.0767 159.708 30.7528C159.708 31.4233 159.577 32.0128 159.316 32.5213C159.055 33.027 158.683 33.4219 158.2 33.706C157.719 33.9872 157.148 34.1278 156.487 34.1278ZM156.495 32.7216C156.796 32.7216 157.048 32.6364 157.249 32.4659C157.451 32.2926 157.603 32.0568 157.705 31.7585C157.81 31.4602 157.863 31.1207 157.863 30.7401C157.863 30.3594 157.81 30.0199 157.705 29.7216C157.603 29.4233 157.451 29.1875 157.249 29.0142C157.048 28.8409 156.796 28.7543 156.495 28.7543C156.191 28.7543 155.935 28.8409 155.728 29.0142C155.523 29.1875 155.369 29.4233 155.263 29.7216C155.161 30.0199 155.11 30.3594 155.11 30.7401C155.11 31.1207 155.161 31.4602 155.263 31.7585C155.369 32.0568 155.523 32.2926 155.728 32.4659C155.935 32.6364 156.191 32.7216 156.495 32.7216ZM163.846 34.1278C163.175 34.1278 162.599 33.9858 162.116 33.7017C161.636 33.4148 161.266 33.017 161.008 32.5085C160.752 32 160.624 31.4148 160.624 30.7528C160.624 30.0824 160.754 29.4943 161.012 28.9886C161.273 28.4801 161.644 28.0838 162.124 27.7997C162.604 27.5128 163.175 27.3693 163.837 27.3693C164.408 27.3693 164.908 27.473 165.337 27.6804C165.766 27.8878 166.106 28.179 166.356 28.554C166.606 28.929 166.744 29.3693 166.769 29.875H165.056C165.008 29.5483 164.88 29.2855 164.673 29.0866C164.468 28.8849 164.2 28.7841 163.867 28.7841C163.586 28.7841 163.34 28.8608 163.13 29.0142C162.923 29.1648 162.761 29.3849 162.644 29.6747C162.528 29.9645 162.469 30.3153 162.469 30.7273C162.469 31.1449 162.526 31.5 162.64 31.7926C162.756 32.0852 162.92 32.3082 163.13 32.4616C163.34 32.6151 163.586 32.6918 163.867 32.6918C164.075 32.6918 164.261 32.6491 164.425 32.5639C164.593 32.4787 164.731 32.3551 164.839 32.1932C164.95 32.0284 165.022 31.831 165.056 31.6009H166.769C166.741 32.1009 166.604 32.5412 166.36 32.9219C166.119 33.2997 165.785 33.5952 165.359 33.8082C164.933 34.0213 164.428 34.1278 163.846 34.1278ZM167.931 34V27.4545H169.747V29.9943H170.258L172.039 27.4545H174.17L171.856 30.7017L174.196 34H172.039L170.424 31.6776H169.747V34H167.931ZM177.651 34.1278C176.989 34.1278 176.416 33.9872 175.933 33.706C175.453 33.4219 175.082 33.027 174.821 32.5213C174.56 32.0128 174.429 31.4233 174.429 30.7528C174.429 30.0767 174.56 29.4858 174.821 28.9801C175.082 28.4716 175.453 28.0767 175.933 27.7955C176.416 27.5114 176.989 27.3693 177.651 27.3693C178.312 27.3693 178.884 27.5114 179.364 27.7955C179.847 28.0767 180.219 28.4716 180.48 28.9801C180.741 29.4858 180.872 30.0767 180.872 30.7528C180.872 31.4233 180.741 32.0128 180.48 32.5213C180.219 33.027 179.847 33.4219 179.364 33.706C178.884 33.9872 178.312 34.1278 177.651 34.1278ZM177.659 32.7216C177.96 32.7216 178.212 32.6364 178.413 32.4659C178.615 32.2926 178.767 32.0568 178.869 31.7585C178.974 31.4602 179.027 31.1207 179.027 30.7401C179.027 30.3594 178.974 30.0199 178.869 29.7216C178.767 29.4233 178.615 29.1875 178.413 29.0142C178.212 28.8409 177.96 28.7543 177.659 28.7543C177.355 28.7543 177.099 28.8409 176.892 29.0142C176.688 29.1875 176.533 29.4233 176.428 29.7216C176.325 30.0199 176.274 30.3594 176.274 30.7401C176.274 31.1207 176.325 31.4602 176.428 31.7585C176.533 32.0568 176.688 32.2926 176.892 32.4659C177.099 32.6364 177.355 32.7216 177.659 32.7216ZM181.669 34L181.661 32.5597H181.878C182.031 32.5597 182.163 32.5227 182.274 32.4489C182.388 32.3722 182.482 32.2486 182.555 32.0781C182.629 31.9077 182.688 31.6818 182.73 31.4006C182.773 31.1165 182.801 30.767 182.815 30.3523L182.922 27.4545H187.899V34H186.169V28.8821H184.554L184.452 30.8807C184.426 31.429 184.359 31.9006 184.251 32.2955C184.146 32.6903 184 33.0142 183.812 33.267C183.625 33.517 183.399 33.7017 183.135 33.821C182.871 33.9403 182.564 34 182.214 34H181.669ZM189.306 34V27.4545H191.122V29.9943H191.633L193.414 27.4545H195.545L193.231 30.7017L195.571 34H193.414L191.799 31.6776H191.122V34H189.306ZM199.026 34.1278C198.364 34.1278 197.791 33.9872 197.308 33.706C196.828 33.4219 196.457 33.027 196.196 32.5213C195.935 32.0128 195.804 31.4233 195.804 30.7528C195.804 30.0767 195.935 29.4858 196.196 28.9801C196.457 28.4716 196.828 28.0767 197.308 27.7955C197.791 27.5114 198.364 27.3693 199.026 27.3693C199.688 27.3693 200.259 27.5114 200.739 27.7955C201.222 28.0767 201.594 28.4716 201.855 28.9801C202.116 29.4858 202.247 30.0767 202.247 30.7528C202.247 31.4233 202.116 32.0128 201.855 32.5213C201.594 33.027 201.222 33.4219 200.739 33.706C200.259 33.9872 199.688 34.1278 199.026 34.1278ZM199.034 32.7216C199.335 32.7216 199.587 32.6364 199.788 32.4659C199.99 32.2926 200.142 32.0568 200.244 31.7585C200.349 31.4602 200.402 31.1207 200.402 30.7401C200.402 30.3594 200.349 30.0199 200.244 29.7216C200.142 29.4233 199.99 29.1875 199.788 29.0142C199.587 28.8409 199.335 28.7543 199.034 28.7543C198.73 28.7543 198.474 28.8409 198.267 29.0142C198.063 29.1875 197.908 29.4233 197.803 29.7216C197.7 30.0199 197.649 30.3594 197.649 30.7401C197.649 31.1207 197.7 31.4602 197.803 31.7585C197.908 32.0568 198.063 32.2926 198.267 32.4659C198.474 32.6364 198.73 32.7216 199.034 32.7216ZM203.428 34V27.4545H206.219C207.026 27.4545 207.663 27.608 208.132 27.9148C208.601 28.2216 208.835 28.6577 208.835 29.223C208.835 29.5781 208.703 29.8736 208.439 30.1094C208.175 30.3452 207.808 30.5043 207.339 30.5866C207.732 30.6151 208.065 30.7045 208.341 30.8551C208.619 31.0028 208.831 31.1946 208.976 31.4304C209.124 31.6662 209.197 31.9276 209.197 32.2145C209.197 32.5866 209.098 32.9062 208.899 33.1733C208.703 33.4403 208.415 33.6449 208.034 33.7869C207.656 33.929 207.195 34 206.649 34H203.428ZM205.119 32.6406H206.649C206.902 32.6406 207.099 32.581 207.241 32.4616C207.386 32.3395 207.459 32.1733 207.459 31.9631C207.459 31.7301 207.386 31.5469 207.241 31.4134C207.099 31.2798 206.902 31.2131 206.649 31.2131H205.119V32.6406ZM205.119 30.1477H206.257C206.439 30.1477 206.594 30.1222 206.722 30.071C206.852 30.017 206.952 29.9403 207.02 29.8409C207.091 29.7415 207.126 29.6236 207.126 29.4872C207.126 29.2855 207.045 29.1278 206.884 29.0142C206.722 28.9006 206.5 28.8438 206.219 28.8438H205.119V30.1477ZM46.8565 49V42.4545H48.1307V45.1989H48.7443L50.9048 42.4545H52.4815L49.946 45.6378L52.5114 49H50.9304L48.9574 46.3835H48.1307V49H46.8565ZM53.5011 51.4545V42.4545H54.7454V43.5156H54.8519C54.9258 43.3793 55.0323 43.2216 55.1715 43.0426C55.3107 42.8636 55.5039 42.7074 55.7511 42.5739C55.9982 42.4375 56.3249 42.3693 56.7312 42.3693C57.2596 42.3693 57.7312 42.5028 58.146 42.7699C58.5607 43.0369 58.886 43.4219 59.1218 43.9247C59.3604 44.4276 59.4798 45.0327 59.4798 45.7401C59.4798 46.4474 59.3619 47.054 59.1261 47.5597C58.8903 48.0625 58.5664 48.4503 58.1545 48.723C57.7425 48.9929 57.2724 49.1278 56.744 49.1278C56.3462 49.1278 56.021 49.0611 55.7681 48.9276C55.5181 48.794 55.3221 48.6378 55.18 48.4588C55.038 48.2798 54.9286 48.1207 54.8519 47.9815H54.7752V51.4545H53.5011ZM54.7496 45.7273C54.7496 46.1875 54.8164 46.5909 54.9499 46.9375C55.0835 47.2841 55.2766 47.5554 55.5295 47.7514C55.7823 47.9446 56.092 48.0412 56.4585 48.0412C56.8391 48.0412 57.1573 47.9403 57.413 47.7386C57.6687 47.5341 57.8619 47.2571 57.9925 46.9077C58.1261 46.5582 58.1928 46.1648 58.1928 45.7273C58.1928 45.2955 58.1275 44.9077 57.9968 44.5639C57.869 44.2202 57.6758 43.9489 57.4173 43.75C57.1616 43.5511 56.842 43.4517 56.4585 43.4517C56.0891 43.4517 55.7766 43.5469 55.521 43.7372C55.2681 43.9276 55.0763 44.1932 54.9457 44.5341C54.815 44.875 54.7496 45.2727 54.7496 45.7273ZM63.7283 49.1321C63.0835 49.1321 62.5281 48.9943 62.0621 48.7188C61.5991 48.4403 61.2411 48.0497 60.9883 47.5469C60.7383 47.0412 60.6133 46.4489 60.6133 45.7699C60.6133 45.0994 60.7383 44.5085 60.9883 43.9972C61.2411 43.4858 61.5934 43.0866 62.0451 42.7997C62.4996 42.5128 63.0309 42.3693 63.6388 42.3693C64.0082 42.3693 64.3661 42.4304 64.7127 42.5526C65.0593 42.6747 65.3704 42.8665 65.646 43.1278C65.9215 43.3892 66.1388 43.7287 66.2979 44.1463C66.457 44.5611 66.5366 45.0653 66.5366 45.6591V46.1108H61.3335V45.1562H65.288C65.288 44.821 65.2198 44.5241 65.0835 44.2656C64.9471 44.0043 64.7553 43.7983 64.5082 43.6477C64.2638 43.4972 63.9769 43.4219 63.6474 43.4219C63.2894 43.4219 62.9769 43.5099 62.7099 43.6861C62.4457 43.8594 62.2411 44.0866 62.0962 44.3679C61.9542 44.6463 61.8832 44.9489 61.8832 45.2756V46.0213C61.8832 46.4588 61.9599 46.831 62.1133 47.1378C62.2695 47.4446 62.4869 47.679 62.7653 47.8409C63.0437 48 63.369 48.0795 63.7411 48.0795C63.9826 48.0795 64.2028 48.0455 64.4016 47.9773C64.6005 47.9062 64.7724 47.8011 64.9173 47.6619C65.0621 47.5227 65.1729 47.3509 65.2496 47.1463L66.4556 47.3636C66.359 47.7187 66.1857 48.0298 65.9357 48.2969C65.6886 48.5611 65.3775 48.767 65.0025 48.9148C64.6303 49.0597 64.2056 49.1321 63.7283 49.1321ZM69.8551 49.1449C69.4403 49.1449 69.0653 49.0682 68.7301 48.9148C68.3949 48.7585 68.1293 48.5327 67.9332 48.2372C67.7401 47.9418 67.6435 47.5795 67.6435 47.1506C67.6435 46.7812 67.7145 46.4773 67.8565 46.2386C67.9986 46 68.1903 45.8111 68.4318 45.6719C68.6733 45.5327 68.9432 45.4276 69.2415 45.3565C69.5398 45.2855 69.8438 45.2315 70.1534 45.1946C70.5455 45.1491 70.8636 45.1122 71.108 45.0838C71.3523 45.0526 71.5298 45.0028 71.6406 44.9347C71.7514 44.8665 71.8068 44.7557 71.8068 44.6023V44.5724C71.8068 44.2003 71.7017 43.9119 71.4915 43.7074C71.2841 43.5028 70.9744 43.4006 70.5625 43.4006C70.1335 43.4006 69.7955 43.4957 69.5483 43.6861C69.304 43.8736 69.1349 44.0824 69.0412 44.3125L67.8438 44.0398C67.9858 43.642 68.1932 43.321 68.4659 43.0767C68.7415 42.8295 69.0582 42.6506 69.4162 42.5398C69.7741 42.4261 70.1506 42.3693 70.5455 42.3693C70.8068 42.3693 71.0838 42.4006 71.3764 42.4631C71.6719 42.5227 71.9474 42.6335 72.2031 42.7955C72.4616 42.9574 72.6733 43.1889 72.8381 43.4901C73.0028 43.7884 73.0852 44.1761 73.0852 44.6534V49H71.8409V48.1051H71.7898C71.7074 48.2699 71.5838 48.4318 71.419 48.5909C71.2543 48.75 71.0426 48.8821 70.7841 48.9872C70.5256 49.0923 70.2159 49.1449 69.8551 49.1449ZM70.1321 48.1222C70.4844 48.1222 70.7855 48.0526 71.0355 47.9134C71.2884 47.7741 71.4801 47.5923 71.6108 47.3679C71.7443 47.1406 71.8111 46.8977 71.8111 46.6392V45.7955C71.7656 45.8409 71.6776 45.8835 71.5469 45.9233C71.419 45.9602 71.2727 45.9929 71.108 46.0213C70.9432 46.0469 70.7827 46.071 70.6264 46.0938C70.4702 46.1136 70.3395 46.1307 70.2344 46.1449C69.9872 46.1761 69.7614 46.2287 69.5568 46.3026C69.3551 46.3764 69.1932 46.483 69.071 46.6222C68.9517 46.7585 68.892 46.9403 68.892 47.1676C68.892 47.483 69.0085 47.7216 69.2415 47.8835C69.4744 48.0426 69.7713 48.1222 70.1321 48.1222ZM73.9705 43.554V42.4545H79.4933V43.554H77.3583V49H76.114V43.554H73.9705ZM82.0895 47.2145L84.9744 42.4545H86.3466V49H85.098V44.2358L82.2259 49H80.8409V42.4545H82.0895V47.2145ZM88.0597 49V42.4545H90.7741C91.5128 42.4545 92.098 42.6122 92.5298 42.9276C92.9616 43.2401 93.1776 43.6648 93.1776 44.2017C93.1776 44.5852 93.0554 44.8892 92.8111 45.1136C92.5668 45.3381 92.2429 45.4886 91.8395 45.5653C92.1321 45.5994 92.4006 45.6875 92.6449 45.8295C92.8892 45.9687 93.0852 46.1562 93.233 46.392C93.3835 46.6278 93.4588 46.9091 93.4588 47.2358C93.4588 47.5824 93.3693 47.8892 93.1903 48.1562C93.0114 48.4205 92.7514 48.6278 92.4105 48.7784C92.0724 48.9261 91.6648 49 91.1875 49H88.0597ZM89.2571 47.9347H91.1875C91.5028 47.9347 91.75 47.8594 91.929 47.7088C92.108 47.5582 92.1974 47.3537 92.1974 47.0952C92.1974 46.7912 92.108 46.5526 91.929 46.3793C91.75 46.2031 91.5028 46.1151 91.1875 46.1151H89.2571V47.9347ZM89.2571 45.1818H90.7869C91.0256 45.1818 91.2301 45.1477 91.4006 45.0795C91.5739 45.0114 91.706 44.9148 91.7969 44.7898C91.8906 44.6619 91.9375 44.5114 91.9375 44.3381C91.9375 44.0852 91.8338 43.8878 91.6264 43.7457C91.419 43.6037 91.1349 43.5327 90.7741 43.5327H89.2571V45.1818ZM99.2926 45.1776V46.2812H95.7472V45.1776H99.2926ZM96.1051 42.4545V49H94.8565V42.4545H96.1051ZM100.183 42.4545V49H98.9389V42.4545H100.183ZM104.645 49.1321C104.031 49.1321 103.496 48.9915 103.038 48.7102C102.581 48.429 102.226 48.0355 101.973 47.5298C101.72 47.0241 101.594 46.4332 101.594 45.7571C101.594 45.0781 101.72 44.4844 101.973 43.9759C102.226 43.4673 102.581 43.0724 103.038 42.7912C103.496 42.5099 104.031 42.3693 104.645 42.3693C105.259 42.3693 105.794 42.5099 106.251 42.7912C106.709 43.0724 107.064 43.4673 107.317 43.9759C107.57 44.4844 107.696 45.0781 107.696 45.7571C107.696 46.4332 107.57 47.0241 107.317 47.5298C107.064 48.0355 106.709 48.429 106.251 48.7102C105.794 48.9915 105.259 49.1321 104.645 49.1321ZM104.649 48.0625C105.047 48.0625 105.376 47.9574 105.638 47.7472C105.899 47.5369 106.092 47.2571 106.217 46.9077C106.345 46.5582 106.409 46.1733 106.409 45.7528C106.409 45.3352 106.345 44.9517 106.217 44.6023C106.092 44.25 105.899 43.9673 105.638 43.7543C105.376 43.5412 105.047 43.4347 104.649 43.4347C104.249 43.4347 103.916 43.5412 103.652 43.7543C103.391 43.9673 103.196 44.25 103.068 44.6023C102.943 44.9517 102.881 45.3352 102.881 45.7528C102.881 46.1733 102.943 46.5582 103.068 46.9077C103.196 47.2571 103.391 47.5369 103.652 47.7472C103.916 47.9574 104.249 48.0625 104.649 48.0625ZM111.939 49.1321C111.294 49.1321 110.739 48.9943 110.273 48.7188C109.81 48.4403 109.452 48.0497 109.199 47.5469C108.949 47.0412 108.824 46.4489 108.824 45.7699C108.824 45.0994 108.949 44.5085 109.199 43.9972C109.452 43.4858 109.804 43.0866 110.256 42.7997C110.711 42.5128 111.242 42.3693 111.85 42.3693C112.219 42.3693 112.577 42.4304 112.924 42.5526C113.27 42.6747 113.581 42.8665 113.857 43.1278C114.132 43.3892 114.35 43.7287 114.509 44.1463C114.668 44.5611 114.748 45.0653 114.748 45.6591V46.1108H109.544V45.1562H113.499C113.499 44.821 113.431 44.5241 113.294 44.2656C113.158 44.0043 112.966 43.7983 112.719 43.6477C112.475 43.4972 112.188 43.4219 111.858 43.4219C111.5 43.4219 111.188 43.5099 110.921 43.6861C110.657 43.8594 110.452 44.0866 110.307 44.3679C110.165 44.6463 110.094 44.9489 110.094 45.2756V46.0213C110.094 46.4588 110.171 46.831 110.324 47.1378C110.48 47.4446 110.698 47.679 110.976 47.8409C111.255 48 111.58 48.0795 111.952 48.0795C112.194 48.0795 112.414 48.0455 112.613 47.9773C112.811 47.9062 112.983 47.8011 113.128 47.6619C113.273 47.5227 113.384 47.3509 113.461 47.1463L114.667 47.3636C114.57 47.7187 114.397 48.0298 114.147 48.2969C113.9 48.5611 113.588 48.767 113.213 48.9148C112.841 49.0597 112.417 49.1321 111.939 49.1321ZM119.337 49V42.4545H124.676V49H123.428V43.554H120.577V49H119.337ZM126.38 51.4545V42.4545H127.624V43.5156H127.731C127.805 43.3793 127.911 43.2216 128.05 43.0426C128.19 42.8636 128.383 42.7074 128.63 42.5739C128.877 42.4375 129.204 42.3693 129.61 42.3693C130.138 42.3693 130.61 42.5028 131.025 42.7699C131.44 43.0369 131.765 43.4219 132.001 43.9247C132.239 44.4276 132.359 45.0327 132.359 45.7401C132.359 46.4474 132.241 47.054 132.005 47.5597C131.769 48.0625 131.445 48.4503 131.033 48.723C130.621 48.9929 130.151 49.1278 129.623 49.1278C129.225 49.1278 128.9 49.0611 128.647 48.9276C128.397 48.794 128.201 48.6378 128.059 48.4588C127.917 48.2798 127.808 48.1207 127.731 47.9815H127.654V51.4545H126.38ZM127.629 45.7273C127.629 46.1875 127.695 46.5909 127.829 46.9375C127.962 47.2841 128.156 47.5554 128.408 47.7514C128.661 47.9446 128.971 48.0412 129.337 48.0412C129.718 48.0412 130.036 47.9403 130.292 47.7386C130.548 47.5341 130.741 47.2571 130.871 46.9077C131.005 46.5582 131.072 46.1648 131.072 45.7273C131.072 45.2955 131.006 44.9077 130.876 44.5639C130.748 44.2202 130.555 43.9489 130.296 43.75C130.04 43.5511 129.721 43.4517 129.337 43.4517C128.968 43.4517 128.656 43.5469 128.4 43.7372C128.147 43.9276 127.955 44.1932 127.825 44.5341C127.694 44.875 127.629 45.2727 127.629 45.7273ZM136.543 49.1321C135.93 49.1321 135.394 48.9915 134.937 48.7102C134.479 48.429 134.124 48.0355 133.871 47.5298C133.619 47.0241 133.492 46.4332 133.492 45.7571C133.492 45.0781 133.619 44.4844 133.871 43.9759C134.124 43.4673 134.479 43.0724 134.937 42.7912C135.394 42.5099 135.93 42.3693 136.543 42.3693C137.157 42.3693 137.692 42.5099 138.15 42.7912C138.607 43.0724 138.962 43.4673 139.215 43.9759C139.468 44.4844 139.594 45.0781 139.594 45.7571C139.594 46.4332 139.468 47.0241 139.215 47.5298C138.962 48.0355 138.607 48.429 138.15 48.7102C137.692 48.9915 137.157 49.1321 136.543 49.1321ZM136.548 48.0625C136.945 48.0625 137.275 47.9574 137.536 47.7472C137.798 47.5369 137.991 47.2571 138.116 46.9077C138.244 46.5582 138.308 46.1733 138.308 45.7528C138.308 45.3352 138.244 44.9517 138.116 44.6023C137.991 44.25 137.798 43.9673 137.536 43.7543C137.275 43.5412 136.945 43.4347 136.548 43.4347C136.147 43.4347 135.815 43.5412 135.55 43.7543C135.289 43.9673 135.094 44.25 134.967 44.6023C134.842 44.9517 134.779 45.3352 134.779 45.7528C134.779 46.1733 134.842 46.5582 134.967 46.9077C135.094 47.2571 135.289 47.5369 135.55 47.7472C135.815 47.9574 136.147 48.0625 136.548 48.0625ZM143.838 49.1321C143.193 49.1321 142.637 48.9943 142.172 48.7188C141.708 48.4403 141.35 48.0497 141.098 47.5469C140.848 47.0412 140.723 46.4489 140.723 45.7699C140.723 45.0994 140.848 44.5085 141.098 43.9972C141.35 43.4858 141.703 43.0866 142.154 42.7997C142.609 42.5128 143.14 42.3693 143.748 42.3693C144.118 42.3693 144.475 42.4304 144.822 42.5526C145.169 42.6747 145.48 42.8665 145.755 43.1278C146.031 43.3892 146.248 43.7287 146.407 44.1463C146.566 44.5611 146.646 45.0653 146.646 45.6591V46.1108H141.443V45.1562H145.397C145.397 44.821 145.329 44.5241 145.193 44.2656C145.056 44.0043 144.865 43.7983 144.618 43.6477C144.373 43.4972 144.086 43.4219 143.757 43.4219C143.399 43.4219 143.086 43.5099 142.819 43.6861C142.555 43.8594 142.35 44.0866 142.206 44.3679C142.064 44.6463 141.993 44.9489 141.993 45.2756V46.0213C141.993 46.4588 142.069 46.831 142.223 47.1378C142.379 47.4446 142.596 47.679 142.875 47.8409C143.153 48 143.478 48.0795 143.85 48.0795C144.092 48.0795 144.312 48.0455 144.511 47.9773C144.71 47.9062 144.882 47.8011 145.027 47.6619C145.172 47.5227 145.282 47.3509 145.359 47.1463L146.565 47.3636C146.468 47.7187 146.295 48.0298 146.045 48.2969C145.798 48.5611 145.487 48.767 145.112 48.9148C144.74 49.0597 144.315 49.1321 143.838 49.1321ZM148.06 49V42.4545H149.334V45.1989H149.947L152.108 42.4545H153.685L151.149 45.6378L153.714 49H152.134L150.161 46.3835H149.334V49H148.06ZM154.338 43.554V42.4545H159.86V43.554H157.725V49H156.481V43.554H154.338ZM162.457 47.2145L165.342 42.4545H166.714V49H165.465V44.2358L162.593 49H161.208V42.4545H162.457V47.2145ZM168.427 51.4545V42.4545H169.671V43.5156H169.778C169.852 43.3793 169.958 43.2216 170.097 43.0426C170.237 42.8636 170.43 42.7074 170.677 42.5739C170.924 42.4375 171.251 42.3693 171.657 42.3693C172.185 42.3693 172.657 42.5028 173.072 42.7699C173.487 43.0369 173.812 43.4219 174.048 43.9247C174.286 44.4276 174.406 45.0327 174.406 45.7401C174.406 46.4474 174.288 47.054 174.052 47.5597C173.816 48.0625 173.492 48.4503 173.08 48.723C172.668 48.9929 172.198 49.1278 171.67 49.1278C171.272 49.1278 170.947 49.0611 170.694 48.9276C170.444 48.794 170.248 48.6378 170.106 48.4588C169.964 48.2798 169.854 48.1207 169.778 47.9815H169.701V51.4545H168.427ZM169.675 45.7273C169.675 46.1875 169.742 46.5909 169.876 46.9375C170.009 47.2841 170.202 47.5554 170.455 47.7514C170.708 47.9446 171.018 48.0412 171.384 48.0412C171.765 48.0412 172.083 47.9403 172.339 47.7386C172.594 47.5341 172.788 47.2571 172.918 46.9077C173.052 46.5582 173.119 46.1648 173.119 45.7273C173.119 45.2955 173.053 44.9077 172.923 44.5639C172.795 44.2202 172.602 43.9489 172.343 43.75C172.087 43.5511 171.768 43.4517 171.384 43.4517C171.015 43.4517 170.702 43.5469 170.447 43.7372C170.194 43.9276 170.002 44.1932 169.871 44.5341C169.741 44.875 169.675 45.2727 169.675 45.7273ZM178.59 49.1321C177.977 49.1321 177.441 48.9915 176.984 48.7102C176.526 48.429 176.171 48.0355 175.918 47.5298C175.665 47.0241 175.539 46.4332 175.539 45.7571C175.539 45.0781 175.665 44.4844 175.918 43.9759C176.171 43.4673 176.526 43.0724 176.984 42.7912C177.441 42.5099 177.977 42.3693 178.59 42.3693C179.204 42.3693 179.739 42.5099 180.197 42.7912C180.654 43.0724 181.009 43.4673 181.262 43.9759C181.515 44.4844 181.641 45.0781 181.641 45.7571C181.641 46.4332 181.515 47.0241 181.262 47.5298C181.009 48.0355 180.654 48.429 180.197 48.7102C179.739 48.9915 179.204 49.1321 178.59 49.1321ZM178.594 48.0625C178.992 48.0625 179.322 47.9574 179.583 47.7472C179.844 47.5369 180.038 47.2571 180.163 46.9077C180.29 46.5582 180.354 46.1733 180.354 45.7528C180.354 45.3352 180.29 44.9517 180.163 44.6023C180.038 44.25 179.844 43.9673 179.583 43.7543C179.322 43.5412 178.992 43.4347 178.594 43.4347C178.194 43.4347 177.862 43.5412 177.597 43.7543C177.336 43.9673 177.141 44.25 177.013 44.6023C176.888 44.9517 176.826 45.3352 176.826 45.7528C176.826 46.1733 176.888 46.5582 177.013 46.9077C177.141 47.2571 177.336 47.5369 177.597 47.7472C177.862 47.9574 178.194 48.0625 178.594 48.0625ZM183.064 49V42.4545H185.778C186.517 42.4545 187.102 42.6122 187.534 42.9276C187.966 43.2401 188.181 43.6648 188.181 44.2017C188.181 44.5852 188.059 44.8892 187.815 45.1136C187.571 45.3381 187.247 45.4886 186.843 45.5653C187.136 45.5994 187.404 45.6875 187.649 45.8295C187.893 45.9687 188.089 46.1562 188.237 46.392C188.387 46.6278 188.463 46.9091 188.463 47.2358C188.463 47.5824 188.373 47.8892 188.194 48.1562C188.015 48.4205 187.755 48.6278 187.414 48.7784C187.076 48.9261 186.669 49 186.191 49H183.064ZM184.261 47.9347H186.191C186.507 47.9347 186.754 47.8594 186.933 47.7088C187.112 47.5582 187.201 47.3537 187.201 47.0952C187.201 46.7912 187.112 46.5526 186.933 46.3793C186.754 46.2031 186.507 46.1151 186.191 46.1151H184.261V47.9347ZM184.261 45.1818H185.791C186.029 45.1818 186.234 45.1477 186.404 45.0795C186.578 45.0114 186.71 44.9148 186.801 44.7898C186.895 44.6619 186.941 44.5114 186.941 44.3381C186.941 44.0852 186.838 43.8878 186.63 43.7457C186.423 43.6037 186.139 43.5327 185.778 43.5327H184.261V45.1818ZM191.765 49.1449C191.35 49.1449 190.975 49.0682 190.64 48.9148C190.305 48.7585 190.039 48.5327 189.843 48.2372C189.65 47.9418 189.554 47.5795 189.554 47.1506C189.554 46.7812 189.625 46.4773 189.767 46.2386C189.909 46 190.1 45.8111 190.342 45.6719C190.583 45.5327 190.853 45.4276 191.152 45.3565C191.45 45.2855 191.754 45.2315 192.064 45.1946C192.456 45.1491 192.774 45.1122 193.018 45.0838C193.262 45.0526 193.44 45.0028 193.551 44.9347C193.662 44.8665 193.717 44.7557 193.717 44.6023V44.5724C193.717 44.2003 193.612 43.9119 193.402 43.7074C193.194 43.5028 192.885 43.4006 192.473 43.4006C192.044 43.4006 191.706 43.4957 191.458 43.6861C191.214 43.8736 191.045 44.0824 190.951 44.3125L189.754 44.0398C189.896 43.642 190.103 43.321 190.376 43.0767C190.652 42.8295 190.968 42.6506 191.326 42.5398C191.684 42.4261 192.061 42.3693 192.456 42.3693C192.717 42.3693 192.994 42.4006 193.287 42.4631C193.582 42.5227 193.858 42.6335 194.113 42.7955C194.372 42.9574 194.583 43.1889 194.748 43.4901C194.913 43.7884 194.995 44.1761 194.995 44.6534V49H193.751V48.1051H193.7C193.618 48.2699 193.494 48.4318 193.329 48.5909C193.164 48.75 192.953 48.8821 192.694 48.9872C192.436 49.0923 192.126 49.1449 191.765 49.1449ZM192.042 48.1222C192.395 48.1222 192.696 48.0526 192.946 47.9134C193.199 47.7741 193.39 47.5923 193.521 47.3679C193.654 47.1406 193.721 46.8977 193.721 46.6392V45.7955C193.676 45.8409 193.588 45.8835 193.457 45.9233C193.329 45.9602 193.183 45.9929 193.018 46.0213C192.853 46.0469 192.693 46.071 192.537 46.0938C192.38 46.1136 192.25 46.1307 192.145 46.1449C191.897 46.1761 191.672 46.2287 191.467 46.3026C191.265 46.3764 191.103 46.483 190.981 46.6222C190.862 46.7585 190.802 46.9403 190.802 47.1676C190.802 47.483 190.919 47.7216 191.152 47.8835C191.385 48.0426 191.681 48.1222 192.042 48.1222ZM201.129 45.1776V46.2812H197.583V45.1776H201.129ZM197.941 42.4545V49H196.692V42.4545H197.941ZM202.019 42.4545V49H200.775V42.4545H202.019ZM204.972 47.2145L207.857 42.4545H209.229V49H207.981V44.2358L205.109 49H203.724V42.4545H204.972V47.2145ZM213.763 49.1321C213.119 49.1321 212.563 48.9943 212.097 48.7188C211.634 48.4403 211.276 48.0497 211.023 47.5469C210.773 47.0412 210.648 46.4489 210.648 45.7699C210.648 45.0994 210.773 44.5085 211.023 43.9972C211.276 43.4858 211.629 43.0866 212.08 42.7997C212.535 42.5128 213.066 42.3693 213.674 42.3693C214.043 42.3693 214.401 42.4304 214.748 42.5526C215.094 42.6747 215.406 42.8665 215.681 43.1278C215.957 43.3892 216.174 43.7287 216.333 44.1463C216.492 44.5611 216.572 45.0653 216.572 45.6591V46.1108H211.369V45.1562H215.323C215.323 44.821 215.255 44.5241 215.119 44.2656C214.982 44.0043 214.79 43.7983 214.543 43.6477C214.299 43.4972 214.012 43.4219 213.683 43.4219C213.325 43.4219 213.012 43.5099 212.745 43.6861C212.481 43.8594 212.276 44.0866 212.131 44.3679C211.989 44.6463 211.918 44.9489 211.918 45.2756V46.0213C211.918 46.4588 211.995 46.831 212.148 47.1378C212.305 47.4446 212.522 47.679 212.8 47.8409C213.079 48 213.404 48.0795 213.776 48.0795C214.018 48.0795 214.238 48.0455 214.437 47.9773C214.636 47.9062 214.808 47.8011 214.952 47.6619C215.097 47.5227 215.208 47.3509 215.285 47.1463L216.491 47.3636C216.394 47.7187 216.221 48.0298 215.971 48.2969C215.724 48.5611 215.413 48.767 215.038 48.9148C214.665 49.0597 214.241 49.1321 213.763 49.1321ZM46.8565 64V57.4545H52.196V64H50.9474V58.554H48.0966V64H46.8565ZM56.6566 64.1321C56.043 64.1321 55.5075 63.9915 55.0501 63.7102C54.5927 63.429 54.2376 63.0355 53.9847 62.5298C53.7319 62.0241 53.6055 61.4332 53.6055 60.7571C53.6055 60.0781 53.7319 59.4844 53.9847 58.9759C54.2376 58.4673 54.5927 58.0724 55.0501 57.7912C55.5075 57.5099 56.043 57.3693 56.6566 57.3693C57.2702 57.3693 57.8058 57.5099 58.2631 57.7912C58.7205 58.0724 59.0756 58.4673 59.3285 58.9759C59.5813 59.4844 59.7077 60.0781 59.7077 60.7571C59.7077 61.4332 59.5813 62.0241 59.3285 62.5298C59.0756 63.0355 58.7205 63.429 58.2631 63.7102C57.8058 63.9915 57.2702 64.1321 56.6566 64.1321ZM56.6609 63.0625C57.0586 63.0625 57.3881 62.9574 57.6495 62.7472C57.9109 62.5369 58.104 62.2571 58.229 61.9077C58.3569 61.5582 58.4208 61.1733 58.4208 60.7528C58.4208 60.3352 58.3569 59.9517 58.229 59.6023C58.104 59.25 57.9109 58.9673 57.6495 58.7543C57.3881 58.5412 57.0586 58.4347 56.6609 58.4347C56.2603 58.4347 55.9279 58.5412 55.6637 58.7543C55.4023 58.9673 55.2077 59.25 55.0799 59.6023C54.9549 59.9517 54.8924 60.3352 54.8924 60.7528C54.8924 61.1733 54.9549 61.5582 55.0799 61.9077C55.2077 62.2571 55.4023 62.5369 55.6637 62.7472C55.9279 62.9574 56.2603 63.0625 56.6609 63.0625ZM63.8871 64.1321C63.2536 64.1321 62.7081 63.9886 62.2507 63.7017C61.7962 63.4119 61.4467 63.0128 61.2024 62.5043C60.9581 61.9957 60.8359 61.4134 60.8359 60.7571C60.8359 60.0923 60.9609 59.5057 61.2109 58.9972C61.4609 58.4858 61.8132 58.0866 62.2678 57.7997C62.7223 57.5128 63.2578 57.3693 63.8743 57.3693C64.3714 57.3693 64.8146 57.4616 65.2038 57.6463C65.593 57.8281 65.907 58.0838 66.1456 58.4134C66.3871 58.7429 66.5305 59.1278 66.576 59.5682H65.3359C65.2678 59.2614 65.1115 58.9972 64.8672 58.7756C64.6257 58.554 64.3018 58.4432 63.8956 58.4432C63.5405 58.4432 63.2294 58.5369 62.9624 58.7244C62.6982 58.9091 62.4922 59.1733 62.3445 59.517C62.1967 59.858 62.1229 60.2614 62.1229 60.7273C62.1229 61.2045 62.1953 61.6165 62.3402 61.9631C62.4851 62.3097 62.6896 62.5781 62.9538 62.7685C63.2209 62.9588 63.5348 63.054 63.8956 63.054C64.1371 63.054 64.3558 63.0099 64.5518 62.9219C64.7507 62.831 64.9169 62.7017 65.0504 62.5341C65.1868 62.3665 65.282 62.1648 65.3359 61.929H66.576C66.5305 62.3523 66.3928 62.7301 66.1626 63.0625C65.9325 63.3949 65.6243 63.6562 65.2379 63.8466C64.8544 64.0369 64.4041 64.1321 63.8871 64.1321ZM67.4229 64L67.4187 62.8963H67.6531C67.8349 62.8963 67.9869 62.858 68.109 62.7812C68.234 62.7017 68.3363 62.5682 68.4158 62.3807C68.4954 62.1932 68.5565 61.9347 68.5991 61.6051C68.6417 61.2727 68.6729 60.8551 68.6928 60.3523L68.8079 57.4545H73.3761V64H72.1275V58.554H69.9883L69.886 60.7784C69.8604 61.3182 69.805 61.7898 69.7198 62.1932C69.6374 62.5966 69.5167 62.9332 69.3576 63.2031C69.1985 63.4702 68.994 63.6705 68.744 63.804C68.494 63.9347 68.19 64 67.832 64H67.4229ZM77.8963 64.1321C77.2514 64.1321 76.696 63.9943 76.2301 63.7188C75.767 63.4403 75.4091 63.0497 75.1562 62.5469C74.9062 62.0412 74.7812 61.4489 74.7812 60.7699C74.7812 60.0994 74.9062 59.5085 75.1562 58.9972C75.4091 58.4858 75.7614 58.0866 76.2131 57.7997C76.6676 57.5128 77.1989 57.3693 77.8068 57.3693C78.1761 57.3693 78.5341 57.4304 78.8807 57.5526C79.2273 57.6747 79.5384 57.8665 79.8139 58.1278C80.0895 58.3892 80.3068 58.7287 80.4659 59.1463C80.625 59.5611 80.7045 60.0653 80.7045 60.6591V61.1108H75.5014V60.1562H79.456C79.456 59.821 79.3878 59.5241 79.2514 59.2656C79.1151 59.0043 78.9233 58.7983 78.6761 58.6477C78.4318 58.4972 78.1449 58.4219 77.8153 58.4219C77.4574 58.4219 77.1449 58.5099 76.8778 58.6861C76.6136 58.8594 76.4091 59.0866 76.2642 59.3679C76.1222 59.6463 76.0511 59.9489 76.0511 60.2756V61.0213C76.0511 61.4588 76.1278 61.831 76.2812 62.1378C76.4375 62.4446 76.6548 62.679 76.9332 62.8409C77.2116 63 77.5369 63.0795 77.9091 63.0795C78.1506 63.0795 78.3707 63.0455 78.5696 62.9773C78.7685 62.9062 78.9403 62.8011 79.0852 62.6619C79.2301 62.5227 79.3409 62.3509 79.4176 62.1463L80.6236 62.3636C80.527 62.7187 80.3537 63.0298 80.1037 63.2969C79.8565 63.5611 79.5455 63.767 79.1705 63.9148C78.7983 64.0597 78.3736 64.1321 77.8963 64.1321ZM81.479 65.8878V62.8963H82.0117C82.1481 62.7713 82.2631 62.6222 82.3569 62.4489C82.4535 62.2756 82.5344 62.0696 82.5998 61.831C82.668 61.5923 82.7248 61.3139 82.7702 60.9957C82.8157 60.6747 82.8555 60.3082 82.8896 59.8963L83.0941 57.4545H87.543V62.8963H88.5487V65.8878H87.3043V64H82.7404V65.8878H81.479ZM83.3754 62.8963H86.2987V58.5455H84.2362L84.0998 59.8963C84.0344 60.5838 83.9521 61.1804 83.8526 61.6861C83.7532 62.1889 83.5941 62.5923 83.3754 62.8963ZM94.2301 60.1776V61.2812H90.6847V60.1776H94.2301ZM91.0426 57.4545V64H89.794V57.4545H91.0426ZM95.1207 57.4545V64H93.8764V57.4545H95.1207ZM98.0739 62.2145L100.959 57.4545H102.331V64H101.082V59.2358L98.2102 64H96.8253V57.4545H98.0739V62.2145ZM105.293 62.2145L108.178 57.4545H109.55V64H108.301V59.2358L105.429 64H104.044V57.4545H105.293V62.2145ZM107.632 55.2386H108.68C108.68 55.7187 108.51 56.1094 108.169 56.4105C107.831 56.7088 107.374 56.858 106.797 56.858C106.223 56.858 105.767 56.7088 105.429 56.4105C105.091 56.1094 104.922 55.7187 104.922 55.2386H105.966C105.966 55.4517 106.028 55.6406 106.153 55.8054C106.278 55.9673 106.493 56.0483 106.797 56.0483C107.095 56.0483 107.308 55.9673 107.436 55.8054C107.567 55.6435 107.632 55.4545 107.632 55.2386ZM118.112 62.4233L120.225 57.4545H121.325L118.585 64H117.639L114.954 57.4545H116.041L118.112 62.4233ZM115.687 57.4545V64H114.439V57.4545H115.687ZM120.571 64V57.4545H121.811V64H120.571ZM126.266 64.1321C125.652 64.1321 125.117 63.9915 124.659 63.7102C124.202 63.429 123.847 63.0355 123.594 62.5298C123.341 62.0241 123.215 61.4332 123.215 60.7571C123.215 60.0781 123.341 59.4844 123.594 58.9759C123.847 58.4673 124.202 58.0724 124.659 57.7912C125.117 57.5099 125.652 57.3693 126.266 57.3693C126.88 57.3693 127.415 57.5099 127.873 57.7912C128.33 58.0724 128.685 58.4673 128.938 58.9759C129.191 59.4844 129.317 60.0781 129.317 60.7571C129.317 61.4332 129.191 62.0241 128.938 62.5298C128.685 63.0355 128.33 63.429 127.873 63.7102C127.415 63.9915 126.88 64.1321 126.266 64.1321ZM126.27 63.0625C126.668 63.0625 126.998 62.9574 127.259 62.7472C127.52 62.5369 127.713 62.2571 127.838 61.9077C127.966 61.5582 128.03 61.1733 128.03 60.7528C128.03 60.3352 127.966 59.9517 127.838 59.6023C127.713 59.25 127.52 58.9673 127.259 58.7543C126.998 58.5412 126.668 58.4347 126.27 58.4347C125.87 58.4347 125.537 58.5412 125.273 58.7543C125.012 58.9673 124.817 59.25 124.689 59.6023C124.564 59.9517 124.502 60.3352 124.502 60.7528C124.502 61.1733 124.564 61.5582 124.689 61.9077C124.817 62.2571 125.012 62.5369 125.273 62.7472C125.537 62.9574 125.87 63.0625 126.27 63.0625ZM130.1 65.8878V62.8963H130.633C130.769 62.7713 130.884 62.6222 130.978 62.4489C131.075 62.2756 131.156 62.0696 131.221 61.831C131.289 61.5923 131.346 61.3139 131.391 60.9957C131.437 60.6747 131.477 60.3082 131.511 59.8963L131.715 57.4545H136.164V62.8963H137.17V65.8878H135.925V64H131.362V65.8878H130.1ZM131.996 62.8963H134.92V58.5455H132.857L132.721 59.8963C132.656 60.5838 132.573 61.1804 132.474 61.6861C132.374 62.1889 132.215 62.5923 131.996 62.8963ZM139.221 66.4545C139.03 66.4545 138.857 66.4389 138.701 66.4077C138.544 66.3793 138.428 66.348 138.351 66.3139L138.658 65.2699C138.891 65.3324 139.098 65.3594 139.28 65.3509C139.462 65.3423 139.623 65.2741 139.762 65.1463C139.904 65.0185 140.029 64.8097 140.137 64.5199L140.294 64.0852L137.9 57.4545H139.263L140.921 62.5341H140.989L142.647 57.4545H144.015L141.317 64.8736C141.192 65.2145 141.033 65.5028 140.84 65.7386C140.647 65.9773 140.417 66.1563 140.15 66.2756C139.882 66.3949 139.573 66.4545 139.221 66.4545ZM144.157 64L144.153 62.8963H144.387C144.569 62.8963 144.721 62.858 144.843 62.7812C144.968 62.7017 145.071 62.5682 145.15 62.3807C145.23 62.1932 145.291 61.9347 145.333 61.6051C145.376 61.2727 145.407 60.8551 145.427 60.3523L145.542 57.4545H150.11V64H148.862V58.554H146.723L146.62 60.7784C146.595 61.3182 146.539 61.7898 146.454 62.1932C146.372 62.5966 146.251 62.9332 146.092 63.2031C145.933 63.4702 145.728 63.6705 145.478 63.804C145.228 63.9347 144.924 64 144.566 64H144.157ZM152.768 59.7045H154.669C155.47 59.7045 156.087 59.9034 156.518 60.3011C156.95 60.6989 157.166 61.2116 157.166 61.8395C157.166 62.2486 157.07 62.6165 156.876 62.9432C156.683 63.2699 156.401 63.5284 156.028 63.7188C155.656 63.9062 155.203 64 154.669 64H151.81V57.4545H153.058V62.9006H154.669C155.036 62.9006 155.337 62.8054 155.572 62.6151C155.808 62.4219 155.926 62.1761 155.926 61.8778C155.926 61.5625 155.808 61.3054 155.572 61.1065C155.337 60.9048 155.036 60.804 154.669 60.804H152.768V59.7045Z" fill="black"/>
<path d="M46 21.3864H94.7834V22.2045H46V21.3864ZM98.2401 21.3864H127.877V22.2045H98.2401V21.3864ZM130.935 21.3864H141.541V22.2045H130.935V21.3864ZM144.998 21.3864H195.438V22.2045H144.998V21.3864ZM46 36.3864H76.2678V37.2045H46V36.3864ZM79.7244 36.3864H209.617V37.2045H79.7244V36.3864Z" fill="black"/>
<path d="M42 46H11C5.47715 46 1 50.4772 1 56V80" stroke="#FFFD00" stroke-width="2"/>
</svg>
