<svg width="153" height="90" viewBox="0 0 153 90" fill="none" xmlns="http://www.w3.org/2000/svg">
<rect y="46" width="153" height="44" rx="12" fill="#FFFD00"/>
<path d="M10.7244 65V58.4545H13.5156C14.3224 58.4545 14.9602 58.608 15.429 58.9148C15.8977 59.2216 16.1321 59.6577 16.1321 60.223C16.1321 60.5781 16 60.8736 15.7358 61.1094C15.4716 61.3452 15.1051 61.5043 14.6364 61.5866C15.0284 61.6151 15.3622 61.7045 15.6378 61.8551C15.9162 62.0028 16.1278 62.1946 16.2727 62.4304C16.4205 62.6662 16.4943 62.9276 16.4943 63.2145C16.4943 63.5866 16.3949 63.9062 16.196 64.1733C16 64.4403 15.7116 64.6449 15.331 64.7869C14.9531 64.929 14.4915 65 13.946 65H10.7244ZM12.4162 63.6406H13.946C14.1989 63.6406 14.3963 63.581 14.5384 63.4616C14.6832 63.3395 14.7557 63.1733 14.7557 62.9631C14.7557 62.7301 14.6832 62.5469 14.5384 62.4134C14.3963 62.2798 14.1989 62.2131 13.946 62.2131H12.4162V63.6406ZM12.4162 61.1477H13.554C13.7358 61.1477 13.8906 61.1222 14.0185 61.071C14.1491 61.017 14.2486 60.9403 14.3168 60.8409C14.3878 60.7415 14.4233 60.6236 14.4233 60.4872C14.4233 60.2855 14.3423 60.1278 14.1804 60.0142C14.0185 59.9006 13.7969 59.8438 13.5156 59.8438H12.4162V61.1477ZM20.6214 65.1278C19.9482 65.1278 19.3686 64.9915 18.8828 64.7188C18.3999 64.4432 18.0277 64.054 17.7663 63.5511C17.505 63.0455 17.3743 62.4474 17.3743 61.7571C17.3743 61.0838 17.505 60.4929 17.7663 59.9844C18.0277 59.4759 18.3956 59.0795 18.87 58.7955C19.3473 58.5114 19.907 58.3693 20.549 58.3693C20.9808 58.3693 21.3828 58.4389 21.755 58.5781C22.13 58.7145 22.4567 58.9205 22.7351 59.196C23.0163 59.4716 23.2351 59.8182 23.3913 60.2358C23.5476 60.6506 23.6257 61.1364 23.6257 61.6932V62.1918H18.0987V61.0668H21.9169C21.9169 60.8054 21.8601 60.5739 21.7464 60.3722C21.6328 60.1705 21.4751 60.0128 21.2734 59.8991C21.0746 59.7827 20.843 59.7244 20.5788 59.7244C20.3033 59.7244 20.0589 59.7884 19.8459 59.9162C19.6357 60.0412 19.4709 60.2102 19.3516 60.4233C19.2322 60.6335 19.1712 60.8679 19.1683 61.1264V62.196C19.1683 62.5199 19.228 62.7997 19.3473 63.0355C19.4695 63.2713 19.6413 63.4531 19.8629 63.581C20.0845 63.7088 20.3473 63.7727 20.6513 63.7727C20.853 63.7727 21.0376 63.7443 21.2053 63.6875C21.3729 63.6307 21.5163 63.5455 21.6357 63.4318C21.755 63.3182 21.8459 63.179 21.9084 63.0142L23.5874 63.125C23.5021 63.5284 23.3274 63.8807 23.0632 64.1818C22.8018 64.4801 22.4638 64.7131 22.049 64.8807C21.6371 65.0455 21.1612 65.1278 20.6214 65.1278ZM30.2521 56.0511L30.8061 57.2358C30.6214 57.3892 30.4169 57.5028 30.1925 57.5767C29.968 57.6477 29.6996 57.6946 29.3871 57.7173C29.0774 57.7401 28.6996 57.7557 28.2536 57.7642C27.7479 57.7699 27.3359 57.8509 27.0178 58.0071C26.6996 58.1634 26.4581 58.4091 26.2933 58.7443C26.1286 59.0767 26.0206 59.5114 25.9695 60.0483H26.0334C26.2294 59.6477 26.505 59.3381 26.8601 59.1193C27.218 58.9006 27.6598 58.7912 28.1854 58.7912C28.7422 58.7912 29.2294 58.9134 29.647 59.1577C30.0675 59.402 30.3942 59.7528 30.6271 60.2102C30.8601 60.6676 30.9766 61.2159 30.9766 61.8551C30.9766 62.5199 30.8459 63.098 30.5845 63.5895C30.326 64.0781 29.9581 64.4574 29.4808 64.7273C29.0036 64.9943 28.4354 65.1278 27.7763 65.1278C27.1143 65.1278 26.5433 64.9886 26.0632 64.7102C25.5859 64.4318 25.2166 64.0213 24.9553 63.4787C24.6967 62.9361 24.5675 62.2685 24.5675 61.4759V60.9389C24.5675 59.3622 24.8743 58.1932 25.4879 57.4318C26.1016 56.6705 27.0036 56.2841 28.1939 56.2727C28.5178 56.267 28.8104 56.2656 29.0717 56.2685C29.3331 56.2713 29.5618 56.2585 29.7578 56.2301C29.9567 56.2017 30.1214 56.142 30.2521 56.0511ZM27.7848 63.7216C28.0632 63.7216 28.3018 63.6491 28.5007 63.5043C28.7024 63.3594 28.8572 63.152 28.9652 62.8821C29.076 62.6122 29.1314 62.2898 29.1314 61.9148C29.1314 61.5426 29.076 61.2273 28.9652 60.9688C28.8572 60.7074 28.7024 60.5085 28.5007 60.3722C28.299 60.2358 28.0575 60.1676 27.7763 60.1676C27.5661 60.1676 27.3771 60.206 27.2095 60.2827C27.0419 60.3594 26.8984 60.473 26.7791 60.6236C26.6626 60.7713 26.5717 60.9545 26.5064 61.1733C26.4439 61.3892 26.4126 61.6364 26.4126 61.9148C26.4126 62.4744 26.5334 62.9162 26.7749 63.2401C27.0192 63.5611 27.3558 63.7216 27.7848 63.7216ZM36.2596 60.696V62.1364H32.2795V60.696H36.2596ZM37.8065 65V58.4545H43.5295V65H41.7951V59.8821H39.5195V65H37.8065ZM44.5948 65L44.5863 63.5597H44.8036C44.957 63.5597 45.0891 63.5227 45.1999 63.4489C45.3136 63.3722 45.4073 63.2486 45.4812 63.0781C45.555 62.9077 45.6133 62.6818 45.6559 62.4006C45.6985 62.1165 45.7269 61.767 45.7411 61.3523L45.8477 58.4545H50.8249V65H49.0948V59.8821H47.4798L47.3775 61.8807C47.3519 62.429 47.2852 62.9006 47.1772 63.2955C47.0721 63.6903 46.9258 64.0142 46.7383 64.267C46.5508 64.517 46.3249 64.7017 46.0607 64.821C45.7965 64.9403 45.4897 65 45.1403 65H44.5948ZM54.0987 65.1236C53.6811 65.1236 53.3089 65.0511 52.9822 64.9062C52.6555 64.7585 52.397 64.5412 52.2067 64.2543C52.0192 63.9645 51.9254 63.6037 51.9254 63.1719C51.9254 62.8082 51.9922 62.5028 52.1257 62.2557C52.2592 62.0085 52.4411 61.8097 52.6712 61.6591C52.9013 61.5085 53.1626 61.3949 53.4553 61.3182C53.7507 61.2415 54.0604 61.1875 54.3842 61.1562C54.7649 61.1165 55.0717 61.0795 55.3047 61.0455C55.5376 61.0085 55.7067 60.9545 55.8118 60.8835C55.9169 60.8125 55.9695 60.7074 55.9695 60.5682V60.5426C55.9695 60.2727 55.8842 60.0639 55.7138 59.9162C55.5462 59.7685 55.3075 59.6946 54.9979 59.6946C54.6712 59.6946 54.4112 59.767 54.218 59.9119C54.0249 60.054 53.897 60.233 53.8345 60.4489L52.1555 60.3125C52.2408 59.9148 52.4084 59.571 52.6584 59.2812C52.9084 58.9886 53.2308 58.7642 53.6257 58.608C54.0234 58.4489 54.4837 58.3693 55.0064 58.3693C55.37 58.3693 55.718 58.4119 56.0504 58.4972C56.3857 58.5824 56.6825 58.7145 56.9411 58.8935C57.2024 59.0724 57.4084 59.3026 57.5589 59.5838C57.7095 59.8622 57.7848 60.196 57.7848 60.5852V65H56.0632V64.0923H56.0121C55.907 64.2969 55.7663 64.4773 55.5902 64.6335C55.4141 64.7869 55.2024 64.9077 54.9553 64.9957C54.7081 65.081 54.4226 65.1236 54.0987 65.1236ZM54.6186 63.8707C54.8857 63.8707 55.1214 63.8182 55.326 63.7131C55.5305 63.6051 55.6911 63.4602 55.8075 63.2784C55.924 63.0966 55.9822 62.8906 55.9822 62.6605V61.9659C55.9254 62.0028 55.8473 62.0369 55.7479 62.0682C55.6513 62.0966 55.5419 62.1236 55.4197 62.1491C55.2976 62.1719 55.1754 62.1932 55.0533 62.2131C54.9311 62.2301 54.8203 62.2457 54.7209 62.2599C54.5078 62.2912 54.3217 62.3409 54.1626 62.4091C54.0036 62.4773 53.88 62.5696 53.7919 62.6861C53.7038 62.7997 53.6598 62.9418 53.6598 63.1122C53.6598 63.3594 53.7493 63.5483 53.9283 63.679C54.1101 63.8068 54.3402 63.8707 54.6186 63.8707ZM59.1932 65V58.4545H61.0085V60.9943H61.5199L63.3011 58.4545H65.4318L63.1179 61.7017L65.4574 65H63.3011L61.6861 62.6776H61.0085V65H59.1932ZM68.0909 65.1236C67.6733 65.1236 67.3011 65.0511 66.9744 64.9062C66.6477 64.7585 66.3892 64.5412 66.1989 64.2543C66.0114 63.9645 65.9176 63.6037 65.9176 63.1719C65.9176 62.8082 65.9844 62.5028 66.1179 62.2557C66.2514 62.0085 66.4332 61.8097 66.6634 61.6591C66.8935 61.5085 67.1548 61.3949 67.4474 61.3182C67.7429 61.2415 68.0526 61.1875 68.3764 61.1562C68.7571 61.1165 69.0639 61.0795 69.2969 61.0455C69.5298 61.0085 69.6989 60.9545 69.804 60.8835C69.9091 60.8125 69.9616 60.7074 69.9616 60.5682V60.5426C69.9616 60.2727 69.8764 60.0639 69.706 59.9162C69.5384 59.7685 69.2997 59.6946 68.9901 59.6946C68.6634 59.6946 68.4034 59.767 68.2102 59.9119C68.017 60.054 67.8892 60.233 67.8267 60.4489L66.1477 60.3125C66.233 59.9148 66.4006 59.571 66.6506 59.2812C66.9006 58.9886 67.223 58.7642 67.6179 58.608C68.0156 58.4489 68.4759 58.3693 68.9986 58.3693C69.3622 58.3693 69.7102 58.4119 70.0426 58.4972C70.3778 58.5824 70.6747 58.7145 70.9332 58.8935C71.1946 59.0724 71.4006 59.3026 71.5511 59.5838C71.7017 59.8622 71.777 60.196 71.777 60.5852V65H70.0554V64.0923H70.0043C69.8991 64.2969 69.7585 64.4773 69.5824 64.6335C69.4062 64.7869 69.1946 64.9077 68.9474 64.9957C68.7003 65.081 68.4148 65.1236 68.0909 65.1236ZM68.6108 63.8707C68.8778 63.8707 69.1136 63.8182 69.3182 63.7131C69.5227 63.6051 69.6832 63.4602 69.7997 63.2784C69.9162 63.0966 69.9744 62.8906 69.9744 62.6605V61.9659C69.9176 62.0028 69.8395 62.0369 69.7401 62.0682C69.6435 62.0966 69.5341 62.1236 69.4119 62.1491C69.2898 62.1719 69.1676 62.1932 69.0455 62.2131C68.9233 62.2301 68.8125 62.2457 68.7131 62.2599C68.5 62.2912 68.3139 62.3409 68.1548 62.4091C67.9957 62.4773 67.8722 62.5696 67.7841 62.6861C67.696 62.7997 67.652 62.9418 67.652 63.1122C67.652 63.3594 67.7415 63.5483 67.9205 63.679C68.1023 63.8068 68.3324 63.8707 68.6108 63.8707ZM72.5281 59.8821V58.4545H78.4599V59.8821H76.3505V65H74.6204V59.8821H72.5281ZM82.3718 65V56.2727H84.217V60.1207H84.332L87.4727 56.2727H89.6843L86.4457 60.1804L89.7227 65H87.5153L85.1246 61.4119L84.217 62.5199V65H82.3718ZM92.4904 56.2727V65H90.6452V56.2727H92.4904ZM101.308 56.2727V65H99.7145L95.9176 59.5071H95.8537V65H94.0085V56.2727H95.6278L99.3949 61.7614H99.4716V56.2727H101.308ZM102.5 57.794V56.2727H109.668V57.794H106.996V65H105.172V57.794H102.5ZM115.583 58.7827C115.549 58.4389 115.402 58.1719 115.144 57.9815C114.885 57.7912 114.534 57.696 114.091 57.696C113.79 57.696 113.536 57.7386 113.328 57.8239C113.121 57.9062 112.962 58.0213 112.851 58.169C112.743 58.3168 112.689 58.4844 112.689 58.6719C112.684 58.8281 112.716 58.9645 112.787 59.081C112.861 59.1974 112.962 59.2983 113.09 59.3835C113.218 59.4659 113.365 59.5384 113.533 59.6009C113.701 59.6605 113.88 59.7116 114.07 59.7543L114.854 59.9418C115.235 60.027 115.584 60.1406 115.902 60.2827C116.221 60.4247 116.496 60.5994 116.729 60.8068C116.962 61.0142 117.142 61.2585 117.27 61.5398C117.401 61.821 117.468 62.1435 117.471 62.5071C117.468 63.0412 117.331 63.5043 117.061 63.8963C116.794 64.2855 116.408 64.5881 115.902 64.804C115.4 65.017 114.793 65.1236 114.083 65.1236C113.378 65.1236 112.765 65.0156 112.242 64.7997C111.722 64.5838 111.316 64.2642 111.023 63.8409C110.733 63.4148 110.581 62.8878 110.567 62.2599H112.353C112.373 62.5526 112.456 62.7969 112.604 62.9929C112.755 63.1861 112.955 63.3324 113.205 63.4318C113.458 63.5284 113.743 63.5767 114.061 63.5767C114.374 63.5767 114.645 63.5312 114.875 63.4403C115.108 63.3494 115.289 63.223 115.417 63.0611C115.544 62.8991 115.608 62.7131 115.608 62.5028C115.608 62.3068 115.55 62.142 115.434 62.0085C115.32 61.875 115.152 61.7614 114.931 61.6676C114.712 61.5739 114.444 61.4886 114.125 61.4119L113.175 61.1733C112.439 60.9943 111.858 60.7145 111.432 60.3338C111.006 59.9531 110.794 59.4403 110.797 58.7955C110.794 58.267 110.935 57.8054 111.219 57.4105C111.506 57.0156 111.9 56.7074 112.4 56.4858C112.9 56.2642 113.468 56.1534 114.104 56.1534C114.752 56.1534 115.317 56.2642 115.8 56.4858C116.286 56.7074 116.664 57.0156 116.934 57.4105C117.203 57.8054 117.343 58.2628 117.351 58.7827H115.583ZM124.102 56.2727H125.947V61.9403C125.947 62.5767 125.795 63.1335 125.491 63.6108C125.19 64.0881 124.768 64.4602 124.226 64.7273C123.683 64.9915 123.051 65.1236 122.33 65.1236C121.605 65.1236 120.972 64.9915 120.429 64.7273C119.886 64.4602 119.464 64.0881 119.163 63.6108C118.862 63.1335 118.712 62.5767 118.712 61.9403V56.2727H120.557V61.7827C120.557 62.1151 120.629 62.4105 120.774 62.669C120.922 62.9276 121.129 63.1307 121.396 63.2784C121.663 63.4261 121.974 63.5 122.33 63.5C122.688 63.5 122.999 63.4261 123.263 63.2784C123.53 63.1307 123.736 62.9276 123.881 62.669C124.028 62.4105 124.102 62.1151 124.102 61.7827V56.2727ZM133.252 59.0938C133.193 58.8864 133.109 58.7031 133.001 58.544C132.893 58.3821 132.761 58.2457 132.605 58.1349C132.451 58.0213 132.275 57.9347 132.076 57.875C131.88 57.8153 131.663 57.7855 131.424 57.7855C130.978 57.7855 130.586 57.8963 130.248 58.1179C129.913 58.3395 129.652 58.6619 129.464 59.0852C129.277 59.5057 129.183 60.0199 129.183 60.6278C129.183 61.2358 129.275 61.7528 129.46 62.179C129.645 62.6051 129.906 62.9304 130.244 63.1548C130.582 63.3764 130.981 63.4872 131.441 63.4872C131.859 63.4872 132.216 63.4134 132.511 63.2656C132.809 63.1151 133.037 62.9034 133.193 62.6307C133.352 62.358 133.431 62.0355 133.431 61.6634L133.806 61.7188H131.556V60.3295H135.208V61.429C135.208 62.196 135.047 62.8551 134.723 63.4062C134.399 63.9545 133.953 64.3778 133.385 64.6761C132.816 64.9716 132.166 65.1193 131.433 65.1193C130.615 65.1193 129.896 64.9389 129.277 64.5781C128.657 64.2145 128.174 63.6989 127.828 63.0312C127.484 62.3608 127.312 61.5653 127.312 60.6449C127.312 59.9375 127.414 59.3068 127.619 58.7528C127.826 58.196 128.116 57.7244 128.488 57.3381C128.86 56.9517 129.294 56.6577 129.788 56.456C130.282 56.2543 130.818 56.1534 131.395 56.1534C131.889 56.1534 132.349 56.2259 132.775 56.3707C133.201 56.5128 133.579 56.7145 133.909 56.9759C134.241 57.2372 134.512 57.5483 134.723 57.9091C134.933 58.267 135.068 58.6619 135.127 59.0938H133.252ZM138.44 56.2727V65H136.594V56.2727H138.44ZM12.7614 80.1449C12.3466 80.1449 11.9716 80.0682 11.6364 79.9148C11.3011 79.7585 11.0355 79.5327 10.8395 79.2372C10.6463 78.9418 10.5497 78.5795 10.5497 78.1506C10.5497 77.7812 10.6207 77.4773 10.7628 77.2386C10.9048 77 11.0966 76.8111 11.3381 76.6719C11.5795 76.5327 11.8494 76.4276 12.1477 76.3565C12.446 76.2855 12.75 76.2315 13.0597 76.1946C13.4517 76.1491 13.7699 76.1122 14.0142 76.0838C14.2585 76.0526 14.4361 76.0028 14.5469 75.9347C14.6577 75.8665 14.7131 75.7557 14.7131 75.6023V75.5724C14.7131 75.2003 14.608 74.9119 14.3977 74.7074C14.1903 74.5028 13.8807 74.4006 13.4688 74.4006C13.0398 74.4006 12.7017 74.4957 12.4545 74.6861C12.2102 74.8736 12.0412 75.0824 11.9474 75.3125L10.75 75.0398C10.892 74.642 11.0994 74.321 11.3722 74.0767C11.6477 73.8295 11.9645 73.6506 12.3224 73.5398C12.6804 73.4261 13.0568 73.3693 13.4517 73.3693C13.7131 73.3693 13.9901 73.4006 14.2827 73.4631C14.5781 73.5227 14.8537 73.6335 15.1094 73.7955C15.3679 73.9574 15.5795 74.1889 15.7443 74.4901C15.9091 74.7884 15.9915 75.1761 15.9915 75.6534V80H14.7472V79.1051H14.696C14.6136 79.2699 14.4901 79.4318 14.3253 79.5909C14.1605 79.75 13.9489 79.8821 13.6903 79.9872C13.4318 80.0923 13.1222 80.1449 12.7614 80.1449ZM13.0384 79.1222C13.3906 79.1222 13.6918 79.0526 13.9418 78.9134C14.1946 78.7741 14.3864 78.5923 14.517 78.3679C14.6506 78.1406 14.7173 77.8977 14.7173 77.6392V76.7955C14.6719 76.8409 14.5838 76.8835 14.4531 76.9233C14.3253 76.9602 14.179 76.9929 14.0142 77.0213C13.8494 77.0469 13.6889 77.071 13.5327 77.0938C13.3764 77.1136 13.2457 77.1307 13.1406 77.1449C12.8935 77.1761 12.6676 77.2287 12.4631 77.3026C12.2614 77.3764 12.0994 77.483 11.9773 77.6222C11.858 77.7585 11.7983 77.9403 11.7983 78.1676C11.7983 78.483 11.9148 78.7216 12.1477 78.8835C12.3807 79.0426 12.6776 79.1222 13.0384 79.1222ZM17.6886 82.4545V73.4545H18.9329V74.5156H19.0394C19.1133 74.3793 19.2198 74.2216 19.359 74.0426C19.4982 73.8636 19.6914 73.7074 19.9386 73.5739C20.1857 73.4375 20.5124 73.3693 20.9187 73.3693C21.4471 73.3693 21.9187 73.5028 22.3335 73.7699C22.7482 74.0369 23.0735 74.4219 23.3093 74.9247C23.5479 75.4276 23.6673 76.0327 23.6673 76.7401C23.6673 77.4474 23.5494 78.054 23.3136 78.5597C23.0778 79.0625 22.7539 79.4503 22.342 79.723C21.93 79.9929 21.4599 80.1278 20.9315 80.1278C20.5337 80.1278 20.2085 80.0611 19.9556 79.9276C19.7056 79.794 19.5096 79.6378 19.3675 79.4588C19.2255 79.2798 19.1161 79.1207 19.0394 78.9815H18.9627V82.4545H17.6886ZM18.9371 76.7273C18.9371 77.1875 19.0039 77.5909 19.1374 77.9375C19.271 78.2841 19.4641 78.5554 19.717 78.7514C19.9698 78.9446 20.2795 79.0412 20.646 79.0412C21.0266 79.0412 21.3448 78.9403 21.6005 78.7386C21.8562 78.5341 22.0494 78.2571 22.18 77.9077C22.3136 77.5582 22.3803 77.1648 22.3803 76.7273C22.3803 76.2955 22.315 75.9077 22.1843 75.5639C22.0565 75.2202 21.8633 74.9489 21.6048 74.75C21.3491 74.5511 21.0295 74.4517 20.646 74.4517C20.2766 74.4517 19.9641 74.5469 19.7085 74.7372C19.4556 74.9276 19.2638 75.1932 19.1332 75.5341C19.0025 75.875 18.9371 76.2727 18.9371 76.7273ZM24.3065 74.554V73.4545H29.8292V74.554H27.6942V80H26.4499V74.554H24.3065ZM34.3526 80V73.4545H39.6921V80H38.4435V74.554H35.5927V80H34.3526ZM41.3956 82.4545V73.4545H42.6399V74.5156H42.7464C42.8203 74.3793 42.9268 74.2216 43.0661 74.0426C43.2053 73.8636 43.3984 73.7074 43.6456 73.5739C43.8928 73.4375 44.2195 73.3693 44.6257 73.3693C45.1541 73.3693 45.6257 73.5028 46.0405 73.7699C46.4553 74.0369 46.7805 74.4219 47.0163 74.9247C47.255 75.4276 47.3743 76.0327 47.3743 76.7401C47.3743 77.4474 47.2564 78.054 47.0206 78.5597C46.7848 79.0625 46.4609 79.4503 46.049 79.723C45.6371 79.9929 45.1669 80.1278 44.6385 80.1278C44.2408 80.1278 43.9155 80.0611 43.6626 79.9276C43.4126 79.794 43.2166 79.6378 43.0746 79.4588C42.9325 79.2798 42.8232 79.1207 42.7464 78.9815H42.6697V82.4545H41.3956ZM42.6442 76.7273C42.6442 77.1875 42.7109 77.5909 42.8445 77.9375C42.978 78.2841 43.1712 78.5554 43.424 78.7514C43.6768 78.9446 43.9865 79.0412 44.353 79.0412C44.7337 79.0412 45.0518 78.9403 45.3075 78.7386C45.5632 78.5341 45.7564 78.2571 45.8871 77.9077C46.0206 77.5582 46.0874 77.1648 46.0874 76.7273C46.0874 76.2955 46.022 75.9077 45.8913 75.5639C45.7635 75.2202 45.5703 74.9489 45.3118 74.75C45.0561 74.5511 44.7365 74.4517 44.353 74.4517C43.9837 74.4517 43.6712 74.5469 43.4155 74.7372C43.1626 74.9276 42.9709 75.1932 42.8402 75.5341C42.7095 75.875 42.6442 76.2727 42.6442 76.7273ZM50.7067 80.1449C50.2919 80.1449 49.9169 80.0682 49.5817 79.9148C49.2464 79.7585 48.9808 79.5327 48.7848 79.2372C48.5916 78.9418 48.495 78.5795 48.495 78.1506C48.495 77.7812 48.5661 77.4773 48.7081 77.2386C48.8501 77 49.0419 76.8111 49.2834 76.6719C49.5249 76.5327 49.7947 76.4276 50.093 76.3565C50.3913 76.2855 50.6953 76.2315 51.005 76.1946C51.397 76.1491 51.7152 76.1122 51.9595 76.0838C52.2038 76.0526 52.3814 76.0028 52.4922 75.9347C52.603 75.8665 52.6584 75.7557 52.6584 75.6023V75.5724C52.6584 75.2003 52.5533 74.9119 52.343 74.7074C52.1357 74.5028 51.826 74.4006 51.4141 74.4006C50.9851 74.4006 50.647 74.4957 50.3999 74.6861C50.1555 74.8736 49.9865 75.0824 49.8928 75.3125L48.6953 75.0398C48.8374 74.642 49.0447 74.321 49.3175 74.0767C49.593 73.8295 49.9098 73.6506 50.2678 73.5398C50.6257 73.4261 51.0021 73.3693 51.397 73.3693C51.6584 73.3693 51.9354 73.4006 52.228 73.4631C52.5234 73.5227 52.799 73.6335 53.0547 73.7955C53.3132 73.9574 53.5249 74.1889 53.6896 74.4901C53.8544 74.7884 53.9368 75.1761 53.9368 75.6534V80H52.6925V79.1051H52.6413C52.5589 79.2699 52.4354 79.4318 52.2706 79.5909C52.1058 79.75 51.8942 79.8821 51.6357 79.9872C51.3771 80.0923 51.0675 80.1449 50.7067 80.1449ZM50.9837 79.1222C51.3359 79.1222 51.6371 79.0526 51.8871 78.9134C52.1399 78.7741 52.3317 78.5923 52.4624 78.3679C52.5959 78.1406 52.6626 77.8977 52.6626 77.6392V76.7955C52.6172 76.8409 52.5291 76.8835 52.3984 76.9233C52.2706 76.9602 52.1243 76.9929 51.9595 77.0213C51.7947 77.0469 51.6342 77.071 51.478 77.0938C51.3217 77.1136 51.1911 77.1307 51.0859 77.1449C50.8388 77.1761 50.6129 77.2287 50.4084 77.3026C50.2067 77.3764 50.0447 77.483 49.9226 77.6222C49.8033 77.7585 49.7436 77.9403 49.7436 78.1676C49.7436 78.483 49.8601 78.7216 50.093 78.8835C50.326 79.0426 50.6229 79.1222 50.9837 79.1222ZM55.6339 80V73.4545H56.908V76.1989H57.5217L59.6822 73.4545H61.2589L58.7234 76.6378L61.2887 80H59.7077L57.7347 77.3835H56.908V80H55.6339ZM61.9119 74.554V73.4545H67.4347V74.554H65.2997V80H64.0554V74.554H61.9119ZM70.0309 78.2145L72.9158 73.4545H74.288V80H73.0394V75.2358L70.1673 80H68.7823V73.4545H70.0309V78.2145ZM76.0011 80V73.4545H77.2752V76.1989H77.8888L80.0494 73.4545H81.6261L79.0906 76.6378L81.6559 80H80.0749L78.1019 77.3835H77.2752V80H76.0011ZM84.5504 80.1449C84.1357 80.1449 83.7607 80.0682 83.4254 79.9148C83.0902 79.7585 82.8246 79.5327 82.6286 79.2372C82.4354 78.9418 82.3388 78.5795 82.3388 78.1506C82.3388 77.7812 82.4098 77.4773 82.5518 77.2386C82.6939 77 82.8857 76.8111 83.1271 76.6719C83.3686 76.5327 83.6385 76.4276 83.9368 76.3565C84.2351 76.2855 84.5391 76.2315 84.8487 76.1946C85.2408 76.1491 85.5589 76.1122 85.8033 76.0838C86.0476 76.0526 86.2251 76.0028 86.3359 75.9347C86.4467 75.8665 86.5021 75.7557 86.5021 75.6023V75.5724C86.5021 75.2003 86.397 74.9119 86.1868 74.7074C85.9794 74.5028 85.6697 74.4006 85.2578 74.4006C84.8288 74.4006 84.4908 74.4957 84.2436 74.6861C83.9993 74.8736 83.8303 75.0824 83.7365 75.3125L82.5391 75.0398C82.6811 74.642 82.8885 74.321 83.1612 74.0767C83.4368 73.8295 83.7536 73.6506 84.1115 73.5398C84.4695 73.4261 84.8459 73.3693 85.2408 73.3693C85.5021 73.3693 85.7791 73.4006 86.0717 73.4631C86.3672 73.5227 86.6428 73.6335 86.8984 73.7955C87.157 73.9574 87.3686 74.1889 87.5334 74.4901C87.6982 74.7884 87.7805 75.1761 87.7805 75.6534V80H86.5362V79.1051H86.4851C86.4027 79.2699 86.2791 79.4318 86.1143 79.5909C85.9496 79.75 85.7379 79.8821 85.4794 79.9872C85.2209 80.0923 84.9112 80.1449 84.5504 80.1449ZM84.8274 79.1222C85.1797 79.1222 85.4808 79.0526 85.7308 78.9134C85.9837 78.7741 86.1754 78.5923 86.3061 78.3679C86.4396 78.1406 86.5064 77.8977 86.5064 77.6392V76.7955C86.4609 76.8409 86.3729 76.8835 86.2422 76.9233C86.1143 76.9602 85.968 76.9929 85.8033 77.0213C85.6385 77.0469 85.478 77.071 85.3217 77.0938C85.1655 77.1136 85.0348 77.1307 84.9297 77.1449C84.6825 77.1761 84.4567 77.2287 84.2521 77.3026C84.0504 77.3764 83.8885 77.483 83.7663 77.6222C83.647 77.7585 83.5874 77.9403 83.5874 78.1676C83.5874 78.483 83.7038 78.7216 83.9368 78.8835C84.1697 79.0426 84.4666 79.1222 84.8274 79.1222Z" fill="black"/>
<path d="M10 67.3864H139.199V68.2045H10V67.3864Z" fill="black"/>
<path d="M25 1H68C73.5228 1 78 5.47715 78 11V57" stroke="#FFFD00" stroke-width="2"/>
</svg>
