<svg width="281" height="99" viewBox="0 0 281 99" fill="none" xmlns="http://www.w3.org/2000/svg">
<rect y="70" width="171" height="29" rx="12" fill="#FFFD00"/>
<path d="M16.4048 82.4545V89H14.6832V82.4545H16.4048ZM15.5653 85.3267V86.7585C15.4261 86.821 15.2528 86.8807 15.0455 86.9375C14.8381 86.9915 14.6207 87.0355 14.3935 87.0696C14.1662 87.1037 13.9531 87.1207 13.7543 87.1207C12.8139 87.1207 12.0739 86.9276 11.5341 86.5412C10.9943 86.152 10.7244 85.5312 10.7244 84.679V82.446H12.4375V84.679C12.4375 84.9318 12.4801 85.1321 12.5653 85.2798C12.6534 85.4276 12.7926 85.5341 12.983 85.5994C13.1761 85.6619 13.4332 85.6932 13.7543 85.6932C14.0526 85.6932 14.3452 85.6619 14.6321 85.5994C14.919 85.5369 15.2301 85.446 15.5653 85.3267ZM19.5487 86.6051L21.9052 82.4545H23.695V89H21.9648V84.8366L19.6168 89H17.8143V82.4545H19.5487V86.6051ZM24.4929 83.8821V82.4545H30.4247V83.8821H28.3153V89H26.5852V83.8821H24.4929ZM33.1573 89.1236C32.7397 89.1236 32.3675 89.0511 32.0408 88.9062C31.7141 88.7585 31.4556 88.5412 31.2653 88.2543C31.0778 87.9645 30.984 87.6037 30.984 87.1719C30.984 86.8082 31.0508 86.5028 31.1843 86.2557C31.3178 86.0085 31.4996 85.8097 31.7298 85.6591C31.9599 85.5085 32.2212 85.3949 32.5138 85.3182C32.8093 85.2415 33.119 85.1875 33.4428 85.1562C33.8235 85.1165 34.1303 85.0795 34.3633 85.0455C34.5962 85.0085 34.7653 84.9545 34.8704 84.8835C34.9755 84.8125 35.0281 84.7074 35.0281 84.5682V84.5426C35.0281 84.2727 34.9428 84.0639 34.7724 83.9162C34.6048 83.7685 34.3661 83.6946 34.0565 83.6946C33.7298 83.6946 33.4698 83.767 33.2766 83.9119C33.0835 84.054 32.9556 84.233 32.8931 84.4489L31.2141 84.3125C31.2994 83.9148 31.467 83.571 31.717 83.2812C31.967 82.9886 32.2894 82.7642 32.6843 82.608C33.082 82.4489 33.5423 82.3693 34.065 82.3693C34.4286 82.3693 34.7766 82.4119 35.109 82.4972C35.4442 82.5824 35.7411 82.7145 35.9996 82.8935C36.261 83.0724 36.467 83.3026 36.6175 83.5838C36.7681 83.8622 36.8434 84.196 36.8434 84.5852V89H35.1218V88.0923H35.0707C34.9656 88.2969 34.8249 88.4773 34.6488 88.6335C34.4727 88.7869 34.261 88.9077 34.0138 88.9957C33.7667 89.081 33.4812 89.1236 33.1573 89.1236ZM33.6772 87.8707C33.9442 87.8707 34.18 87.8182 34.3846 87.7131C34.5891 87.6051 34.7496 87.4602 34.8661 87.2784C34.9826 87.0966 35.0408 86.8906 35.0408 86.6605V85.9659C34.984 86.0028 34.9059 86.0369 34.8065 86.0682C34.7099 86.0966 34.6005 86.1236 34.4783 86.1491C34.3562 86.1719 34.234 86.1932 34.1119 86.2131C33.9897 86.2301 33.8789 86.2457 33.7795 86.2599C33.5664 86.2912 33.3803 86.3409 33.2212 86.4091C33.0621 86.4773 32.9386 86.5696 32.8505 86.6861C32.7624 86.7997 32.7184 86.9418 32.7184 87.1122C32.7184 87.3594 32.8079 87.5483 32.9869 87.679C33.1687 87.8068 33.3988 87.8707 33.6772 87.8707ZM37.5945 83.8821V82.4545H43.5263V83.8821H41.4169V89H39.6868V83.8821H37.5945ZM45.7646 84.4659H47.7205C48.587 84.4659 49.2631 84.6733 49.7489 85.0881C50.2347 85.5 50.4776 86.0511 50.4776 86.7415C50.4776 87.1903 50.3683 87.5852 50.1495 87.9261C49.9308 88.2642 49.6154 88.5284 49.2035 88.7188C48.7915 88.9062 48.2972 89 47.7205 89H44.6268V82.4545H46.3612V87.5724H47.7205C48.0245 87.5724 48.2745 87.4957 48.4705 87.3423C48.6665 87.1889 48.766 86.9929 48.7688 86.7543C48.766 86.5014 48.6665 86.2955 48.4705 86.1364C48.2745 85.9744 48.0245 85.8935 47.7205 85.8935H45.7646V84.4659ZM54.0327 89L56.321 85.5952L54.0455 82.4545H56.1165L57.8168 85.0156H58.098V82.4545H59.9134V85.0156H60.1861L61.8864 82.4545H63.9574L61.6861 85.5952L63.9702 89H61.8523L60.169 86.4432H59.9134V89H58.098V86.4432H57.8423L56.1506 89H54.0327ZM66.1147 91.4545C65.8846 91.4545 65.6687 91.4361 65.467 91.3991C65.2681 91.3651 65.1033 91.321 64.9727 91.267L65.3817 89.9119C65.5948 89.9773 65.7866 90.0128 65.957 90.0185C66.1303 90.0241 66.2795 89.9844 66.4045 89.8991C66.5323 89.8139 66.636 89.669 66.7156 89.4645L66.8221 89.1875L64.4741 82.4545H66.3832L67.7383 87.2614H67.8065L69.1744 82.4545H71.0962L68.5522 89.7074C68.43 90.0597 68.2638 90.3665 68.0536 90.6278C67.8462 90.892 67.5835 91.0952 67.2653 91.2372C66.9471 91.3821 66.5636 91.4545 66.1147 91.4545ZM72.0252 91.4545V82.4545H73.815V83.554H73.896C73.9755 83.3778 74.0906 83.1989 74.2411 83.017C74.3945 82.8324 74.5934 82.679 74.8377 82.5568C75.0849 82.4318 75.3917 82.3693 75.7582 82.3693C76.2354 82.3693 76.6758 82.4943 77.0792 82.7443C77.4826 82.9915 77.805 83.3651 78.0465 83.8651C78.288 84.3622 78.4087 84.9858 78.4087 85.7358C78.4087 86.4659 78.2908 87.0824 78.055 87.5852C77.8221 88.0852 77.5039 88.4645 77.1005 88.723C76.6999 88.9787 76.2511 89.1065 75.7539 89.1065C75.4016 89.1065 75.1019 89.0483 74.8548 88.9318C74.6104 88.8153 74.4102 88.669 74.2539 88.4929C74.0977 88.3139 73.9783 88.1335 73.896 87.9517H73.8406V91.4545H72.0252ZM73.8022 85.7273C73.8022 86.1165 73.8562 86.456 73.9641 86.7457C74.0721 87.0355 74.2283 87.2614 74.4329 87.4233C74.6374 87.5824 74.886 87.6619 75.1786 87.6619C75.4741 87.6619 75.7241 87.581 75.9286 87.419C76.1332 87.2543 76.288 87.027 76.3931 86.7372C76.5011 86.4446 76.555 86.108 76.555 85.7273C76.555 85.3494 76.5025 85.017 76.3974 84.7301C76.2923 84.4432 76.1374 84.2187 75.9329 84.0568C75.7283 83.8949 75.4769 83.8139 75.1786 83.8139C74.8832 83.8139 74.6332 83.892 74.4286 84.0483C74.2269 84.2045 74.0721 84.4261 73.9641 84.7131C73.8562 85 73.8022 85.3381 73.8022 85.7273ZM84.1744 85.0028V86.4304H80.7567V85.0028H84.1744ZM81.3533 82.4545V89H79.619V82.4545H81.3533ZM85.3121 82.4545V89H83.5906V82.4545H85.3121ZM88.587 89.1236C88.1694 89.1236 87.7972 89.0511 87.4705 88.9062C87.1438 88.7585 86.8853 88.5412 86.695 88.2543C86.5075 87.9645 86.4137 87.6037 86.4137 87.1719C86.4137 86.8082 86.4805 86.5028 86.614 86.2557C86.7475 86.0085 86.9293 85.8097 87.1594 85.6591C87.3896 85.5085 87.6509 85.3949 87.9435 85.3182C88.239 85.2415 88.5487 85.1875 88.8725 85.1562C89.2532 85.1165 89.56 85.0795 89.793 85.0455C90.0259 85.0085 90.195 84.9545 90.3001 84.8835C90.4052 84.8125 90.4577 84.7074 90.4577 84.5682V84.5426C90.4577 84.2727 90.3725 84.0639 90.2021 83.9162C90.0344 83.7685 89.7958 83.6946 89.4862 83.6946C89.1594 83.6946 88.8995 83.767 88.7063 83.9119C88.5131 84.054 88.3853 84.233 88.3228 84.4489L86.6438 84.3125C86.729 83.9148 86.8967 83.571 87.1467 83.2812C87.3967 82.9886 87.7191 82.7642 88.114 82.608C88.5117 82.4489 88.9719 82.3693 89.4947 82.3693C89.8583 82.3693 90.2063 82.4119 90.5387 82.4972C90.8739 82.5824 91.1708 82.7145 91.4293 82.8935C91.6907 83.0724 91.8967 83.3026 92.0472 83.5838C92.1978 83.8622 92.2731 84.196 92.2731 84.5852V89H90.5515V88.0923H90.5004C90.3952 88.2969 90.2546 88.4773 90.0785 88.6335C89.9023 88.7869 89.6907 88.9077 89.4435 88.9957C89.1964 89.081 88.9109 89.1236 88.587 89.1236ZM89.1069 87.8707C89.3739 87.8707 89.6097 87.8182 89.8143 87.7131C90.0188 87.6051 90.1793 87.4602 90.2958 87.2784C90.4123 87.0966 90.4705 86.8906 90.4705 86.6605V85.9659C90.4137 86.0028 90.3356 86.0369 90.2362 86.0682C90.1396 86.0966 90.0302 86.1236 89.908 86.1491C89.7859 86.1719 89.6637 86.1932 89.5415 86.2131C89.4194 86.2301 89.3086 86.2457 89.2092 86.2599C88.9961 86.2912 88.81 86.3409 88.6509 86.4091C88.4918 86.4773 88.3683 86.5696 88.2802 86.6861C88.1921 86.7997 88.1481 86.9418 88.1481 87.1122C88.1481 87.3594 88.2376 87.5483 88.4165 87.679C88.5984 87.8068 88.8285 87.8707 89.1069 87.8707ZM93.2979 89L93.2894 87.5597H93.5067C93.6602 87.5597 93.7923 87.5227 93.9031 87.4489C94.0167 87.3722 94.1104 87.2486 94.1843 87.0781C94.2582 86.9077 94.3164 86.6818 94.359 86.4006C94.4016 86.1165 94.43 85.767 94.4442 85.3523L94.5508 82.4545H99.5281V89H97.7979V83.8821H96.1829L96.0806 85.8807C96.055 86.429 95.9883 86.9006 95.8803 87.2955C95.7752 87.6903 95.6289 88.0142 95.4414 88.267C95.2539 88.517 95.0281 88.7017 94.7638 88.821C94.4996 88.9403 94.1928 89 93.8434 89H93.2979ZM103.747 89V80.2727H105.592V84.1207H105.707L108.848 80.2727H111.059L107.821 84.1804L111.098 89H108.89L106.5 85.4119L105.592 86.5199V89H103.747ZM113.865 80.2727V89H112.02V80.2727H113.865ZM122.683 80.2727V89H121.089L117.293 83.5071H117.229V89H115.384V80.2727H117.003L120.77 85.7614H120.847V80.2727H122.683ZM123.875 81.794V80.2727H131.043V81.794H128.371V89H126.547V81.794H123.875ZM136.958 82.7827C136.924 82.4389 136.777 82.1719 136.519 81.9815C136.26 81.7912 135.909 81.696 135.466 81.696C135.165 81.696 134.911 81.7386 134.703 81.8239C134.496 81.9062 134.337 82.0213 134.226 82.169C134.118 82.3168 134.064 82.4844 134.064 82.6719C134.059 82.8281 134.091 82.9645 134.162 83.081C134.236 83.1974 134.337 83.2983 134.465 83.3835C134.593 83.4659 134.74 83.5384 134.908 83.6009C135.076 83.6605 135.255 83.7116 135.445 83.7543L136.229 83.9418C136.61 84.027 136.959 84.1406 137.277 84.2827C137.596 84.4247 137.871 84.5994 138.104 84.8068C138.337 85.0142 138.517 85.2585 138.645 85.5398C138.776 85.821 138.843 86.1435 138.846 86.5071C138.843 87.0412 138.706 87.5043 138.436 87.8963C138.169 88.2855 137.783 88.5881 137.277 88.804C136.775 89.017 136.168 89.1236 135.458 89.1236C134.753 89.1236 134.14 89.0156 133.617 88.7997C133.097 88.5838 132.691 88.2642 132.398 87.8409C132.108 87.4148 131.956 86.8878 131.942 86.2599H133.728C133.748 86.5526 133.831 86.7969 133.979 86.9929C134.13 87.1861 134.33 87.3324 134.58 87.4318C134.833 87.5284 135.118 87.5767 135.436 87.5767C135.749 87.5767 136.02 87.5312 136.25 87.4403C136.483 87.3494 136.664 87.223 136.792 87.0611C136.919 86.8991 136.983 86.7131 136.983 86.5028C136.983 86.3068 136.925 86.142 136.809 86.0085C136.695 85.875 136.527 85.7614 136.306 85.6676C136.087 85.5739 135.819 85.4886 135.5 85.4119L134.55 85.1733C133.814 84.9943 133.233 84.7145 132.807 84.3338C132.381 83.9531 132.169 83.4403 132.172 82.7955C132.169 82.267 132.31 81.8054 132.594 81.4105C132.881 81.0156 133.275 80.7074 133.775 80.4858C134.275 80.2642 134.843 80.1534 135.479 80.1534C136.127 80.1534 136.692 80.2642 137.175 80.4858C137.661 80.7074 138.039 81.0156 138.309 81.4105C138.578 81.8054 138.718 82.2628 138.726 82.7827H136.958ZM145.477 80.2727H147.322V85.9403C147.322 86.5767 147.17 87.1335 146.866 87.6108C146.565 88.0881 146.143 88.4602 145.601 88.7273C145.058 88.9915 144.426 89.1236 143.705 89.1236C142.98 89.1236 142.347 88.9915 141.804 88.7273C141.261 88.4602 140.839 88.0881 140.538 87.6108C140.237 87.1335 140.087 86.5767 140.087 85.9403V80.2727H141.932V85.7827C141.932 86.1151 142.004 86.4105 142.149 86.669C142.297 86.9276 142.504 87.1307 142.771 87.2784C143.038 87.4261 143.349 87.5 143.705 87.5C144.063 87.5 144.374 87.4261 144.638 87.2784C144.905 87.1307 145.111 86.9276 145.256 86.669C145.403 86.4105 145.477 86.1151 145.477 85.7827V80.2727ZM154.627 83.0938C154.568 82.8864 154.484 82.7031 154.376 82.544C154.268 82.3821 154.136 82.2457 153.98 82.1349C153.826 82.0213 153.65 81.9347 153.451 81.875C153.255 81.8153 153.038 81.7855 152.799 81.7855C152.353 81.7855 151.961 81.8963 151.623 82.1179C151.288 82.3395 151.027 82.6619 150.839 83.0852C150.652 83.5057 150.558 84.0199 150.558 84.6278C150.558 85.2358 150.65 85.7528 150.835 86.179C151.02 86.6051 151.281 86.9304 151.619 87.1548C151.957 87.3764 152.356 87.4872 152.816 87.4872C153.234 87.4872 153.591 87.4134 153.886 87.2656C154.184 87.1151 154.412 86.9034 154.568 86.6307C154.727 86.358 154.806 86.0355 154.806 85.6634L155.181 85.7188H152.931V84.3295H156.583V85.429C156.583 86.196 156.422 86.8551 156.098 87.4062C155.774 87.9545 155.328 88.3778 154.76 88.6761C154.191 88.9716 153.541 89.1193 152.808 89.1193C151.99 89.1193 151.271 88.9389 150.652 88.5781C150.032 88.2145 149.549 87.6989 149.203 87.0312C148.859 86.3608 148.687 85.5653 148.687 84.6449C148.687 83.9375 148.789 83.3068 148.994 82.7528C149.201 82.196 149.491 81.7244 149.863 81.3381C150.235 80.9517 150.669 80.6577 151.163 80.456C151.657 80.2543 152.193 80.1534 152.77 80.1534C153.264 80.1534 153.724 80.2259 154.15 80.3707C154.576 80.5128 154.954 80.7145 155.284 80.9759C155.616 81.2372 155.887 81.5483 156.098 81.9091C156.308 82.267 156.443 82.6619 156.502 83.0938H154.627ZM159.815 80.2727V89H157.969V80.2727H159.815Z" fill="black"/>
<path d="M10 91.3864H64.5724V92.2045H10V91.3864ZM67.6307 91.3864H71.2053V92.2045H67.6307V91.3864ZM74.6619 91.3864H160.577V92.2045H74.6619V91.3864Z" fill="black"/>
<path d="M281 1C277.854 1 238.923 1 212.851 1C207.328 1 202.855 5.47715 202.855 11V75C202.855 80.5228 198.378 85 192.855 85H171" stroke="#FFFD00" stroke-width="2"/>
</svg>
