<svg width="210" height="78" viewBox="0 0 210 78" fill="none" xmlns="http://www.w3.org/2000/svg">
<rect width="179" height="44" rx="12" fill="#FFFD00"/>
<path d="M10.8565 19V12.4545H16.196V19H14.9474V13.554H12.0966V19H10.8565ZM20.7205 19.1321C20.0756 19.1321 19.5202 18.9943 19.0543 18.7188C18.5913 18.4403 18.2333 18.0497 17.9805 17.5469C17.7305 17.0412 17.6055 16.4489 17.6055 15.7699C17.6055 15.0994 17.7305 14.5085 17.9805 13.9972C18.2333 13.4858 18.5856 13.0866 19.0373 12.7997C19.4918 12.5128 20.0231 12.3693 20.631 12.3693C21.0004 12.3693 21.3583 12.4304 21.7049 12.5526C22.0515 12.6747 22.3626 12.8665 22.6381 13.1278C22.9137 13.3892 23.131 13.7287 23.2901 14.1463C23.4492 14.5611 23.5288 15.0653 23.5288 15.6591V16.1108H18.3256V15.1562H22.2802C22.2802 14.821 22.212 14.5241 22.0756 14.2656C21.9393 14.0043 21.7475 13.7983 21.5004 13.6477C21.256 13.4972 20.9691 13.4219 20.6396 13.4219C20.2816 13.4219 19.9691 13.5099 19.7021 13.6861C19.4379 13.8594 19.2333 14.0866 19.0884 14.3679C18.9464 14.6463 18.8754 14.9489 18.8754 15.2756V16.0213C18.8754 16.4588 18.9521 16.831 19.1055 17.1378C19.2617 17.4446 19.479 17.679 19.7575 17.8409C20.0359 18 20.3612 18.0795 20.7333 18.0795C20.9748 18.0795 21.195 18.0455 21.3938 17.9773C21.5927 17.9062 21.7646 17.8011 21.9094 17.6619C22.0543 17.5227 22.1651 17.3509 22.2418 17.1463L23.4478 17.3636C23.3512 17.7187 23.1779 18.0298 22.9279 18.2969C22.6808 18.5611 22.3697 18.767 21.9947 18.9148C21.6225 19.0597 21.1978 19.1321 20.7205 19.1321ZM24.9425 21.4545V12.4545H26.1868V13.5156H26.2933C26.3672 13.3793 26.4737 13.2216 26.6129 13.0426C26.7521 12.8636 26.9453 12.7074 27.1925 12.5739C27.4396 12.4375 27.7663 12.3693 28.1726 12.3693C28.701 12.3693 29.1726 12.5028 29.5874 12.7699C30.0021 13.0369 30.3274 13.4219 30.5632 13.9247C30.8018 14.4276 30.9212 15.0327 30.9212 15.7401C30.9212 16.4474 30.8033 17.054 30.5675 17.5597C30.3317 18.0625 30.0078 18.4503 29.5959 18.723C29.1839 18.9929 28.7138 19.1278 28.1854 19.1278C27.7876 19.1278 27.4624 19.0611 27.2095 18.9276C26.9595 18.794 26.7635 18.6378 26.6214 18.4588C26.4794 18.2798 26.37 18.1207 26.2933 17.9815H26.2166V21.4545H24.9425ZM26.1911 15.7273C26.1911 16.1875 26.2578 16.5909 26.3913 16.9375C26.5249 17.2841 26.718 17.5554 26.9709 17.7514C27.2237 17.9446 27.5334 18.0412 27.8999 18.0412C28.2805 18.0412 28.5987 17.9403 28.8544 17.7386C29.1101 17.5341 29.3033 17.2571 29.4339 16.9077C29.5675 16.5582 29.6342 16.1648 29.6342 15.7273C29.6342 15.2955 29.5689 14.9077 29.4382 14.5639C29.3104 14.2202 29.1172 13.9489 28.8587 13.75C28.603 13.5511 28.2834 13.4517 27.8999 13.4517C27.5305 13.4517 27.218 13.5469 26.9624 13.7372C26.7095 13.9276 26.5178 14.1932 26.3871 14.5341C26.2564 14.875 26.1911 15.2727 26.1911 15.7273ZM32.3487 19V12.4545H35.0632C35.8018 12.4545 36.3871 12.6122 36.8189 12.9276C37.2507 13.2401 37.4666 13.6648 37.4666 14.2017C37.4666 14.5852 37.3445 14.8892 37.1001 15.1136C36.8558 15.3381 36.532 15.4886 36.1286 15.5653C36.4212 15.5994 36.6896 15.6875 36.9339 15.8295C37.1783 15.9687 37.3743 16.1562 37.522 16.392C37.6726 16.6278 37.7479 16.9091 37.7479 17.2358C37.7479 17.5824 37.6584 17.8892 37.4794 18.1562C37.3004 18.4205 37.0405 18.6278 36.6996 18.7784C36.3615 18.9261 35.9538 19 35.4766 19H32.3487ZM33.5462 17.9347H35.4766C35.7919 17.9347 36.0391 17.8594 36.218 17.7088C36.397 17.5582 36.4865 17.3537 36.4865 17.0952C36.4865 16.7912 36.397 16.5526 36.218 16.3793C36.0391 16.2031 35.7919 16.1151 35.4766 16.1151H33.5462V17.9347ZM33.5462 15.1818H35.076C35.3146 15.1818 35.5192 15.1477 35.6896 15.0795C35.8629 15.0114 35.995 14.9148 36.0859 14.7898C36.1797 14.6619 36.2266 14.5114 36.2266 14.3381C36.2266 14.0852 36.1229 13.8878 35.9155 13.7457C35.7081 13.6037 35.424 13.5327 35.0632 13.5327H33.5462V15.1818ZM40.1044 14.7045H42.005C42.8061 14.7045 43.4226 14.9034 43.8544 15.3011C44.2862 15.6989 44.5021 16.2116 44.5021 16.8395C44.5021 17.2486 44.4055 17.6165 44.2124 17.9432C44.0192 18.2699 43.7365 18.5284 43.3643 18.7188C42.9922 18.9062 42.5391 19 42.005 19H39.1456V12.4545H40.3942V17.9006H42.005C42.3714 17.9006 42.6726 17.8054 42.9084 17.6151C43.1442 17.4219 43.2621 17.1761 43.2621 16.8778C43.2621 16.5625 43.1442 16.3054 42.9084 16.1065C42.6726 15.9048 42.3714 15.804 42.005 15.804H40.1044V14.7045ZM45.4311 19V12.4545H46.7053V19H45.4311ZM49.6637 17.2145L52.5487 12.4545H53.9208V19H52.6722V14.2358L49.8001 19H48.4151V12.4545H49.6637V17.2145ZM52.0032 10.2386H53.0515C53.0515 10.7187 52.881 11.1094 52.5401 11.4105C52.2021 11.7088 51.7447 11.858 51.168 11.858C50.5941 11.858 50.1381 11.7088 49.8001 11.4105C49.462 11.1094 49.293 10.7187 49.293 10.2386H50.337C50.337 10.4517 50.3995 10.6406 50.5245 10.8054C50.6495 10.9673 50.864 11.0483 51.168 11.0483C51.4663 11.0483 51.6793 10.9673 51.8072 10.8054C51.9379 10.6435 52.0032 10.4545 52.0032 10.2386ZM58.8097 19V12.4545H64.1491V19H62.9006V13.554H60.0497V19H58.8097ZM65.8526 21.4545V12.4545H67.0969V13.5156H67.2035C67.2773 13.3793 67.3839 13.2216 67.5231 13.0426C67.6623 12.8636 67.8555 12.7074 68.1026 12.5739C68.3498 12.4375 68.6765 12.3693 69.0827 12.3693C69.6112 12.3693 70.0827 12.5028 70.4975 12.7699C70.9123 13.0369 71.2376 13.4219 71.4734 13.9247C71.712 14.4276 71.8313 15.0327 71.8313 15.7401C71.8313 16.4474 71.7134 17.054 71.4776 17.5597C71.2418 18.0625 70.918 18.4503 70.506 18.723C70.0941 18.9929 69.6239 19.1278 69.0955 19.1278C68.6978 19.1278 68.3725 19.0611 68.1197 18.9276C67.8697 18.794 67.6737 18.6378 67.5316 18.4588C67.3896 18.2798 67.2802 18.1207 67.2035 17.9815H67.1268V21.4545H65.8526ZM67.1012 15.7273C67.1012 16.1875 67.168 16.5909 67.3015 16.9375C67.435 17.2841 67.6282 17.5554 67.881 17.7514C68.1339 17.9446 68.4435 18.0412 68.81 18.0412C69.1907 18.0412 69.5089 17.9403 69.7646 17.7386C70.0202 17.5341 70.2134 17.2571 70.3441 16.9077C70.4776 16.5582 70.5444 16.1648 70.5444 15.7273C70.5444 15.2955 70.479 14.9077 70.3484 14.5639C70.2205 14.2202 70.0273 13.9489 69.7688 13.75C69.5131 13.5511 69.1935 13.4517 68.81 13.4517C68.4407 13.4517 68.1282 13.5469 67.8725 13.7372C67.6197 13.9276 67.4279 14.1932 67.2972 14.5341C67.1665 14.875 67.1012 15.2727 67.1012 15.7273ZM76.016 19.1321C75.4023 19.1321 74.8668 18.9915 74.4094 18.7102C73.9521 18.429 73.5969 18.0355 73.3441 17.5298C73.0913 17.0241 72.9648 16.4332 72.9648 15.7571C72.9648 15.0781 73.0913 14.4844 73.3441 13.9759C73.5969 13.4673 73.9521 13.0724 74.4094 12.7912C74.8668 12.5099 75.4023 12.3693 76.016 12.3693C76.6296 12.3693 77.1651 12.5099 77.6225 12.7912C78.0799 13.0724 78.435 13.4673 78.6879 13.9759C78.9407 14.4844 79.0671 15.0781 79.0671 15.7571C79.0671 16.4332 78.9407 17.0241 78.6879 17.5298C78.435 18.0355 78.0799 18.429 77.6225 18.7102C77.1651 18.9915 76.6296 19.1321 76.016 19.1321ZM76.0202 18.0625C76.418 18.0625 76.7475 17.9574 77.0089 17.7472C77.2702 17.5369 77.4634 17.2571 77.5884 16.9077C77.7163 16.5582 77.7802 16.1733 77.7802 15.7528C77.7802 15.3352 77.7163 14.9517 77.5884 14.6023C77.4634 14.25 77.2702 13.9673 77.0089 13.7543C76.7475 13.5412 76.418 13.4347 76.0202 13.4347C75.6197 13.4347 75.2873 13.5412 75.0231 13.7543C74.7617 13.9673 74.5671 14.25 74.4393 14.6023C74.3143 14.9517 74.2518 15.3352 74.2518 15.7528C74.2518 16.1733 74.3143 16.5582 74.4393 16.9077C74.5671 17.2571 74.7617 17.5369 75.0231 17.7472C75.2873 17.9574 75.6197 18.0625 76.0202 18.0625ZM83.3104 19.1321C82.6655 19.1321 82.1101 18.9943 81.6442 18.7188C81.1811 18.4403 80.8232 18.0497 80.5703 17.5469C80.3203 17.0412 80.1953 16.4489 80.1953 15.7699C80.1953 15.0994 80.3203 14.5085 80.5703 13.9972C80.8232 13.4858 81.1754 13.0866 81.6271 12.7997C82.0817 12.5128 82.6129 12.3693 83.2209 12.3693C83.5902 12.3693 83.9482 12.4304 84.2947 12.5526C84.6413 12.6747 84.9524 12.8665 85.228 13.1278C85.5036 13.3892 85.7209 13.7287 85.88 14.1463C86.0391 14.5611 86.1186 15.0653 86.1186 15.6591V16.1108H80.9155V15.1562H84.87C84.87 14.821 84.8018 14.5241 84.6655 14.2656C84.5291 14.0043 84.3374 13.7983 84.0902 13.6477C83.8459 13.4972 83.5589 13.4219 83.2294 13.4219C82.8714 13.4219 82.5589 13.5099 82.2919 13.6861C82.0277 13.8594 81.8232 14.0866 81.6783 14.3679C81.5362 14.6463 81.4652 14.9489 81.4652 15.2756V16.0213C81.4652 16.4588 81.5419 16.831 81.6953 17.1378C81.8516 17.4446 82.0689 17.679 82.3473 17.8409C82.6257 18 82.951 18.0795 83.3232 18.0795C83.5646 18.0795 83.7848 18.0455 83.9837 17.9773C84.1825 17.9062 84.3544 17.8011 84.4993 17.6619C84.6442 17.5227 84.755 17.3509 84.8317 17.1463L86.0376 17.3636C85.9411 17.7187 85.7678 18.0298 85.5178 18.2969C85.2706 18.5611 84.9595 18.767 84.5845 18.9148C84.2124 19.0597 83.7876 19.1321 83.3104 19.1321ZM87.5323 19V12.4545H88.8065V15.1989H89.4201L91.5806 12.4545H93.1573L90.6218 15.6378L93.1871 19H91.6062L89.6332 16.3835H88.8065V19H87.5323ZM93.8104 13.554V12.4545H99.3331V13.554H97.1982V19H95.9538V13.554H93.8104ZM103.857 19V12.4545H109.196V19H107.947V13.554H105.097V19H103.857ZM113.657 19.1321C113.043 19.1321 112.507 18.9915 112.05 18.7102C111.593 18.429 111.238 18.0355 110.985 17.5298C110.732 17.0241 110.605 16.4332 110.605 15.7571C110.605 15.0781 110.732 14.4844 110.985 13.9759C111.238 13.4673 111.593 13.0724 112.05 12.7912C112.507 12.5099 113.043 12.3693 113.657 12.3693C114.27 12.3693 114.806 12.5099 115.263 12.7912C115.721 13.0724 116.076 13.4673 116.328 13.9759C116.581 14.4844 116.708 15.0781 116.708 15.7571C116.708 16.4332 116.581 17.0241 116.328 17.5298C116.076 18.0355 115.721 18.429 115.263 18.7102C114.806 18.9915 114.27 19.1321 113.657 19.1321ZM113.661 18.0625C114.059 18.0625 114.388 17.9574 114.65 17.7472C114.911 17.5369 115.104 17.2571 115.229 16.9077C115.357 16.5582 115.421 16.1733 115.421 15.7528C115.421 15.3352 115.357 14.9517 115.229 14.6023C115.104 14.25 114.911 13.9673 114.65 13.7543C114.388 13.5412 114.059 13.4347 113.661 13.4347C113.26 13.4347 112.928 13.5412 112.664 13.7543C112.402 13.9673 112.208 14.25 112.08 14.6023C111.955 14.9517 111.892 15.3352 111.892 15.7528C111.892 16.1733 111.955 16.5582 112.08 16.9077C112.208 17.2571 112.402 17.5369 112.664 17.7472C112.928 17.9574 113.26 18.0625 113.661 18.0625ZM123.211 19.1449C122.796 19.1449 122.421 19.0682 122.086 18.9148C121.75 18.7585 121.485 18.5327 121.289 18.2372C121.096 17.9418 120.999 17.5795 120.999 17.1506C120.999 16.7812 121.07 16.4773 121.212 16.2386C121.354 16 121.546 15.8111 121.787 15.6719C122.029 15.5327 122.299 15.4276 122.597 15.3565C122.895 15.2855 123.199 15.2315 123.509 15.1946C123.901 15.1491 124.219 15.1122 124.463 15.0838C124.708 15.0526 124.885 15.0028 124.996 14.9347C125.107 14.8665 125.162 14.7557 125.162 14.6023V14.5724C125.162 14.2003 125.057 13.9119 124.847 13.7074C124.64 13.5028 124.33 13.4006 123.918 13.4006C123.489 13.4006 123.151 13.4957 122.904 13.6861C122.659 13.8736 122.49 14.0824 122.397 14.3125L121.199 14.0398C121.341 13.642 121.549 13.321 121.821 13.0767C122.097 12.8295 122.414 12.6506 122.772 12.5398C123.13 12.4261 123.506 12.3693 123.901 12.3693C124.162 12.3693 124.439 12.4006 124.732 12.4631C125.027 12.5227 125.303 12.6335 125.559 12.7955C125.817 12.9574 126.029 13.1889 126.194 13.4901C126.358 13.7884 126.441 14.1761 126.441 14.6534V19H125.196V18.1051H125.145C125.063 18.2699 124.939 18.4318 124.775 18.5909C124.61 18.75 124.398 18.8821 124.14 18.9872C123.881 19.0923 123.571 19.1449 123.211 19.1449ZM123.488 18.1222C123.84 18.1222 124.141 18.0526 124.391 17.9134C124.644 17.7741 124.836 17.5923 124.966 17.3679C125.1 17.1406 125.167 16.8977 125.167 16.6392V15.7955C125.121 15.8409 125.033 15.8835 124.902 15.9233C124.775 15.9602 124.628 15.9929 124.463 16.0213C124.299 16.0469 124.138 16.071 123.982 16.0938C123.826 16.1136 123.695 16.1307 123.59 16.1449C123.343 16.1761 123.117 16.2287 122.912 16.3026C122.711 16.3764 122.549 16.483 122.426 16.6222C122.307 16.7585 122.248 16.9403 122.248 17.1676C122.248 17.483 122.364 17.7216 122.597 17.8835C122.83 18.0426 123.127 18.1222 123.488 18.1222ZM128.138 21.4545V12.4545H129.382V13.5156H129.489C129.563 13.3793 129.669 13.2216 129.808 13.0426C129.947 12.8636 130.141 12.7074 130.388 12.5739C130.635 12.4375 130.962 12.3693 131.368 12.3693C131.896 12.3693 132.368 12.5028 132.783 12.7699C133.197 13.0369 133.523 13.4219 133.759 13.9247C133.997 14.4276 134.116 15.0327 134.116 15.7401C134.116 16.4474 133.999 17.054 133.763 17.5597C133.527 18.0625 133.203 18.4503 132.791 18.723C132.379 18.9929 131.909 19.1278 131.381 19.1278C130.983 19.1278 130.658 19.0611 130.405 18.9276C130.155 18.794 129.959 18.6378 129.817 18.4588C129.675 18.2798 129.565 18.1207 129.489 17.9815H129.412V21.4545H128.138ZM129.386 15.7273C129.386 16.1875 129.453 16.5909 129.587 16.9375C129.72 17.2841 129.913 17.5554 130.166 17.7514C130.419 17.9446 130.729 18.0412 131.095 18.0412C131.476 18.0412 131.794 17.9403 132.05 17.7386C132.305 17.5341 132.499 17.2571 132.629 16.9077C132.763 16.5582 132.83 16.1648 132.83 15.7273C132.83 15.2955 132.764 14.9077 132.634 14.5639C132.506 14.2202 132.313 13.9489 132.054 13.75C131.798 13.5511 131.479 13.4517 131.095 13.4517C130.726 13.4517 130.413 13.5469 130.158 13.7372C129.905 13.9276 129.713 14.1932 129.582 14.5341C129.452 14.875 129.386 15.2727 129.386 15.7273ZM134.756 13.554V12.4545H140.278V13.554H138.143V19H136.899V13.554H134.756ZM10.8565 34V27.4545H16.196V34H14.9474V28.554H12.0966V34H10.8565ZM17.8995 36.4545V27.4545H19.1438V28.5156H19.2504C19.3242 28.3793 19.4308 28.2216 19.57 28.0426C19.7092 27.8636 19.9023 27.7074 20.1495 27.5739C20.3967 27.4375 20.7234 27.3693 21.1296 27.3693C21.658 27.3693 22.1296 27.5028 22.5444 27.7699C22.9592 28.0369 23.2844 28.4219 23.5202 28.9247C23.7589 29.4276 23.8782 30.0327 23.8782 30.7401C23.8782 31.4474 23.7603 32.054 23.5245 32.5597C23.2887 33.0625 22.9648 33.4503 22.5529 33.723C22.141 33.9929 21.6708 34.1278 21.1424 34.1278C20.7447 34.1278 20.4194 34.0611 20.1665 33.9276C19.9165 33.794 19.7205 33.6378 19.5785 33.4588C19.4364 33.2798 19.3271 33.1207 19.2504 32.9815H19.1737V36.4545H17.8995ZM19.1481 30.7273C19.1481 31.1875 19.2148 31.5909 19.3484 31.9375C19.4819 32.2841 19.6751 32.5554 19.9279 32.7514C20.1808 32.9446 20.4904 33.0412 20.8569 33.0412C21.2376 33.0412 21.5558 32.9403 21.8114 32.7386C22.0671 32.5341 22.2603 32.2571 22.391 31.9077C22.5245 31.5582 22.5913 31.1648 22.5913 30.7273C22.5913 30.2955 22.5259 29.9077 22.3952 29.5639C22.2674 29.2202 22.0742 28.9489 21.8157 28.75C21.56 28.5511 21.2404 28.4517 20.8569 28.4517C20.4876 28.4517 20.1751 28.5469 19.9194 28.7372C19.6665 28.9276 19.4748 29.1932 19.3441 29.5341C19.2134 29.875 19.1481 30.2727 19.1481 30.7273ZM27.2106 34.1449C26.7958 34.1449 26.4208 34.0682 26.0856 33.9148C25.7504 33.7585 25.4847 33.5327 25.2887 33.2372C25.0955 32.9418 24.9989 32.5795 24.9989 32.1506C24.9989 31.7812 25.07 31.4773 25.212 31.2386C25.354 31 25.5458 30.8111 25.7873 30.6719C26.0288 30.5327 26.2987 30.4276 26.5969 30.3565C26.8952 30.2855 27.1992 30.2315 27.5089 30.1946C27.9009 30.1491 28.2191 30.1122 28.4634 30.0838C28.7077 30.0526 28.8853 30.0028 28.9961 29.9347C29.1069 29.8665 29.1623 29.7557 29.1623 29.6023V29.5724C29.1623 29.2003 29.0572 28.9119 28.8469 28.7074C28.6396 28.5028 28.3299 28.4006 27.918 28.4006C27.489 28.4006 27.1509 28.4957 26.9038 28.6861C26.6594 28.8736 26.4904 29.0824 26.3967 29.3125L25.1992 29.0398C25.3413 28.642 25.5487 28.321 25.8214 28.0767C26.0969 27.8295 26.4137 27.6506 26.7717 27.5398C27.1296 27.4261 27.506 27.3693 27.9009 27.3693C28.1623 27.3693 28.4393 27.4006 28.7319 27.4631C29.0273 27.5227 29.3029 27.6335 29.5586 27.7955C29.8171 27.9574 30.0288 28.1889 30.1935 28.4901C30.3583 28.7884 30.4407 29.1761 30.4407 29.6534V34H29.1964V33.1051H29.1452C29.0629 33.2699 28.9393 33.4318 28.7745 33.5909C28.6097 33.75 28.3981 33.8821 28.1396 33.9872C27.881 34.0923 27.5714 34.1449 27.2106 34.1449ZM27.4876 33.1222C27.8398 33.1222 28.141 33.0526 28.391 32.9134C28.6438 32.7741 28.8356 32.5923 28.9663 32.3679C29.0998 32.1406 29.1665 31.8977 29.1665 31.6392V30.7955C29.1211 30.8409 29.033 30.8835 28.9023 30.9233C28.7745 30.9602 28.6282 30.9929 28.4634 31.0213C28.2987 31.0469 28.1381 31.071 27.9819 31.0938C27.8256 31.1136 27.695 31.1307 27.5898 31.1449C27.3427 31.1761 27.1168 31.2287 26.9123 31.3026C26.7106 31.3764 26.5487 31.483 26.4265 31.6222C26.3072 31.7585 26.2475 31.9403 26.2475 32.1676C26.2475 32.483 26.364 32.7216 26.5969 32.8835C26.8299 33.0426 27.1268 33.1222 27.4876 33.1222ZM32.1378 34V27.4545H33.4119V30.1989H34.0256L36.1861 27.4545H37.7628L35.2273 30.6378L37.7926 34H36.2116L34.2386 31.3835H33.4119V34H32.1378ZM38.4158 28.554V27.4545H43.9386V28.554H41.8036V34H40.5593V28.554H38.4158ZM46.5348 32.2145L49.4197 27.4545H50.7919V34H49.5433V29.2358L46.6712 34H45.2862V27.4545H46.5348V32.2145ZM52.505 34V27.4545H53.7791V30.1989H54.3928L56.5533 27.4545H58.13L55.5945 30.6378L58.1598 34H56.5788L54.6058 31.3835H53.7791V34H52.505ZM61.701 34.1321C61.0561 34.1321 60.5007 33.9943 60.0348 33.7188C59.5717 33.4403 59.2138 33.0497 58.9609 32.5469C58.7109 32.0412 58.5859 31.4489 58.5859 30.7699C58.5859 30.0994 58.7109 29.5085 58.9609 28.9972C59.2138 28.4858 59.5661 28.0866 60.0178 27.7997C60.4723 27.5128 61.0036 27.3693 61.6115 27.3693C61.9808 27.3693 62.3388 27.4304 62.6854 27.5526C63.032 27.6747 63.343 27.8665 63.6186 28.1278C63.8942 28.3892 64.1115 28.7287 64.2706 29.1463C64.4297 29.5611 64.5092 30.0653 64.5092 30.6591V31.1108H59.3061V30.1562H63.2607C63.2607 29.821 63.1925 29.5241 63.0561 29.2656C62.9197 29.0043 62.728 28.7983 62.4808 28.6477C62.2365 28.4972 61.9496 28.4219 61.62 28.4219C61.2621 28.4219 60.9496 28.5099 60.6825 28.6861C60.4183 28.8594 60.2138 29.0866 60.0689 29.3679C59.9268 29.6463 59.8558 29.9489 59.8558 30.2756V31.0213C59.8558 31.4588 59.9325 31.831 60.0859 32.1378C60.2422 32.4446 60.4595 32.679 60.7379 32.8409C61.0163 33 61.3416 33.0795 61.7138 33.0795C61.9553 33.0795 62.1754 33.0455 62.3743 32.9773C62.5732 32.9062 62.745 32.8011 62.8899 32.6619C63.0348 32.5227 63.1456 32.3509 63.2223 32.1463L64.4283 32.3636C64.3317 32.7187 64.1584 33.0298 63.9084 33.2969C63.6612 33.5611 63.3501 33.767 62.9751 33.9148C62.603 34.0597 62.1783 34.1321 61.701 34.1321ZM70.8459 25.2727V34H69.0007V25.2727H70.8459ZM72.364 34V25.2727H75.8583C76.5004 25.2727 77.0359 25.3679 77.4648 25.5582C77.8938 25.7486 78.2163 26.0128 78.4322 26.3509C78.6481 26.6861 78.756 27.0724 78.756 27.5099C78.756 27.8509 78.6879 28.1506 78.5515 28.4091C78.4151 28.6648 78.2276 28.875 77.989 29.0398C77.7532 29.2017 77.4833 29.3168 77.1793 29.3849V29.4702C77.5117 29.4844 77.8228 29.5781 78.1126 29.7514C78.4052 29.9247 78.6424 30.1676 78.8242 30.4801C79.006 30.7898 79.0969 31.1591 79.0969 31.5881C79.0969 32.0511 78.9819 32.4645 78.7518 32.8281C78.5245 33.1889 78.1879 33.4744 77.7418 33.6847C77.2958 33.8949 76.7461 34 76.0927 34H72.364ZM74.2092 32.4915H75.7134C76.2276 32.4915 76.6026 32.3935 76.8384 32.1974C77.0742 31.9986 77.1921 31.7344 77.1921 31.4048C77.1921 31.1634 77.1339 30.9503 77.0174 30.7656C76.9009 30.581 76.7347 30.4361 76.5188 30.331C76.3058 30.2259 76.0515 30.1733 75.756 30.1733H74.2092V32.4915ZM74.2092 28.9247H75.5771C75.8299 28.9247 76.0543 28.8807 76.2504 28.7926C76.4492 28.7017 76.6055 28.5739 76.7191 28.4091C76.8356 28.2443 76.8938 28.0469 76.8938 27.8168C76.8938 27.5014 76.7816 27.2472 76.5572 27.054C76.3356 26.8608 76.0202 26.7642 75.6112 26.7642H74.2092V28.9247ZM80.2976 25.2727H82.5732L84.9766 31.1364H85.0788L87.4822 25.2727H89.7578V34H87.968V28.3196H87.8956L85.6371 33.9574H84.4183L82.1598 28.2983H82.0874V34H80.2976V25.2727ZM94.0554 34V25.2727H97.4986C98.1605 25.2727 98.7244 25.3991 99.1903 25.652C99.6563 25.902 100.011 26.25 100.256 26.696C100.503 27.1392 100.626 27.6506 100.626 28.2301C100.626 28.8097 100.501 29.321 100.251 29.7642C100.001 30.2074 99.6392 30.5526 99.1648 30.7997C98.6932 31.0469 98.1222 31.1705 97.4517 31.1705H95.2571V29.6918H97.1534C97.5085 29.6918 97.8011 29.6307 98.0312 29.5085C98.2642 29.3835 98.4375 29.2116 98.5511 28.9929C98.6676 28.7713 98.7259 28.517 98.7259 28.2301C98.7259 27.9403 98.6676 27.6875 98.5511 27.4716C98.4375 27.2528 98.2642 27.0838 98.0312 26.9645C97.7983 26.8423 97.5028 26.7812 97.1449 26.7812H95.9006V34H94.0554ZM103.606 25.2727V34H101.791V25.2727H103.606ZM108.043 34.1278C107.37 34.1278 106.79 33.9915 106.305 33.7188C105.822 33.4432 105.45 33.054 105.188 32.5511C104.927 32.0455 104.796 31.4474 104.796 30.7571C104.796 30.0838 104.927 29.4929 105.188 28.9844C105.45 28.4759 105.817 28.0795 106.292 27.7955C106.769 27.5114 107.329 27.3693 107.971 27.3693C108.403 27.3693 108.805 27.4389 109.177 27.5781C109.552 27.7145 109.879 27.9205 110.157 28.196C110.438 28.4716 110.657 28.8182 110.813 29.2358C110.969 29.6506 111.048 30.1364 111.048 30.6932V31.1918H105.521V30.0668H109.339C109.339 29.8054 109.282 29.5739 109.168 29.3722C109.055 29.1705 108.897 29.0128 108.695 28.8991C108.496 28.7827 108.265 28.7244 108.001 28.7244C107.725 28.7244 107.481 28.7884 107.268 28.9162C107.058 29.0412 106.893 29.2102 106.773 29.4233C106.654 29.6335 106.593 29.8679 106.59 30.1264V31.196C106.59 31.5199 106.65 31.7997 106.769 32.0355C106.891 32.2713 107.063 32.4531 107.285 32.581C107.506 32.7088 107.769 32.7727 108.073 32.7727C108.275 32.7727 108.46 32.7443 108.627 32.6875C108.795 32.6307 108.938 32.5455 109.058 32.4318C109.177 32.3182 109.268 32.179 109.33 32.0142L111.009 32.125C110.924 32.5284 110.749 32.8807 110.485 33.1818C110.224 33.4801 109.886 33.7131 109.471 33.8807C109.059 34.0455 108.583 34.1278 108.043 34.1278ZM113.632 27.4545L114.834 29.7429L116.065 27.4545H117.928L116.031 30.7273L117.979 34H116.125L114.834 31.7372L113.564 34H111.689L113.632 30.7273L111.757 27.4545H113.632ZM121.817 25.2727H124.093L126.496 31.1364H126.598L129.002 25.2727H131.277V34H129.488V28.3196H129.415L127.157 33.9574H125.938L123.679 28.2983H123.607V34H121.817V25.2727ZM135.721 34.1278C135.059 34.1278 134.487 33.9872 134.004 33.706C133.523 33.4219 133.153 33.027 132.891 32.5213C132.63 32.0128 132.499 31.4233 132.499 30.7528C132.499 30.0767 132.63 29.4858 132.891 28.9801C133.153 28.4716 133.523 28.0767 134.004 27.7955C134.487 27.5114 135.059 27.3693 135.721 27.3693C136.383 27.3693 136.954 27.5114 137.434 27.7955C137.917 28.0767 138.289 28.4716 138.55 28.9801C138.812 29.4858 138.942 30.0767 138.942 30.7528C138.942 31.4233 138.812 32.0128 138.55 32.5213C138.289 33.027 137.917 33.4219 137.434 33.706C136.954 33.9872 136.383 34.1278 135.721 34.1278ZM135.729 32.7216C136.031 32.7216 136.282 32.6364 136.484 32.4659C136.685 32.2926 136.837 32.0568 136.94 31.7585C137.045 31.4602 137.097 31.1207 137.097 30.7401C137.097 30.3594 137.045 30.0199 136.94 29.7216C136.837 29.4233 136.685 29.1875 136.484 29.0142C136.282 28.8409 136.031 28.7543 135.729 28.7543C135.425 28.7543 135.17 28.8409 134.962 29.0142C134.758 29.1875 134.603 29.4233 134.498 29.7216C134.396 30.0199 134.344 30.3594 134.344 30.7401C134.344 31.1207 134.396 31.4602 134.498 31.7585C134.603 32.0568 134.758 32.2926 134.962 32.4659C135.17 32.6364 135.425 32.7216 135.729 32.7216ZM141.938 30.2159V34H140.123V27.4545H141.853V28.6094H141.93C142.075 28.2287 142.317 27.9276 142.658 27.706C142.999 27.4815 143.413 27.3693 143.898 27.3693C144.353 27.3693 144.749 27.4688 145.087 27.6676C145.425 27.8665 145.688 28.1506 145.876 28.5199C146.063 28.8864 146.157 29.3239 146.157 29.8324V34H144.342V30.1562C144.344 29.7557 144.242 29.4432 144.035 29.2188C143.827 28.9915 143.542 28.8778 143.178 28.8778C142.934 28.8778 142.718 28.9304 142.531 29.0355C142.346 29.1406 142.201 29.294 142.096 29.4957C141.994 29.6946 141.941 29.9347 141.938 30.2159ZM150.545 34.1278C149.883 34.1278 149.311 33.9872 148.828 33.706C148.348 33.4219 147.977 33.027 147.716 32.5213C147.454 32.0128 147.324 31.4233 147.324 30.7528C147.324 30.0767 147.454 29.4858 147.716 28.9801C147.977 28.4716 148.348 28.0767 148.828 27.7955C149.311 27.5114 149.883 27.3693 150.545 27.3693C151.207 27.3693 151.778 27.5114 152.258 27.7955C152.741 28.0767 153.113 28.4716 153.375 28.9801C153.636 29.4858 153.767 30.0767 153.767 30.7528C153.767 31.4233 153.636 32.0128 153.375 32.5213C153.113 33.027 152.741 33.4219 152.258 33.706C151.778 33.9872 151.207 34.1278 150.545 34.1278ZM150.554 32.7216C150.855 32.7216 151.106 32.6364 151.308 32.4659C151.51 32.2926 151.662 32.0568 151.764 31.7585C151.869 31.4602 151.922 31.1207 151.922 30.7401C151.922 30.3594 151.869 30.0199 151.764 29.7216C151.662 29.4233 151.51 29.1875 151.308 29.0142C151.106 28.8409 150.855 28.7543 150.554 28.7543C150.25 28.7543 149.994 28.8409 149.787 29.0142C149.582 29.1875 149.427 29.4233 149.322 29.7216C149.22 30.0199 149.169 30.3594 149.169 30.7401C149.169 31.1207 149.22 31.4602 149.322 31.7585C149.427 32.0568 149.582 32.2926 149.787 32.4659C149.994 32.6364 150.25 32.7216 150.554 32.7216Z" fill="black"/>
<path d="M68.2422 36.3864H154.227V37.2045H68.2422V36.3864Z" fill="black"/>
<path d="M176 22H199C204.523 22 209 26.4772 209 32V78" stroke="#FFFD00" stroke-width="2"/>
</svg>
