<svg width="252" height="93" viewBox="0 0 252 93" fill="none" xmlns="http://www.w3.org/2000/svg">
<rect width="230" height="44" rx="12" fill="#FFFD00"/>
<path d="M12.4588 16.6051L14.8153 12.4545H16.6051V19H14.875V14.8366L12.527 19H10.7244V12.4545H12.4588V16.6051ZM22.6158 15.0028V16.4304H19.1982V15.0028H22.6158ZM19.7947 12.4545V19H18.0604V12.4545H19.7947ZM23.7536 12.4545V19H22.032V12.4545H23.7536ZM24.5046 13.8821V12.4545H30.4364V13.8821H28.3271V19H26.5969V13.8821H24.5046ZM34.2855 19.1278C33.6122 19.1278 33.0327 18.9915 32.5469 18.7188C32.0639 18.4432 31.6918 18.054 31.4304 17.5511C31.169 17.0455 31.0384 16.4474 31.0384 15.7571C31.0384 15.0838 31.169 14.4929 31.4304 13.9844C31.6918 13.4759 32.0597 13.0795 32.5341 12.7955C33.0114 12.5114 33.571 12.3693 34.2131 12.3693C34.6449 12.3693 35.0469 12.4389 35.419 12.5781C35.794 12.7145 36.1207 12.9205 36.3991 13.196C36.6804 13.4716 36.8991 13.8182 37.0554 14.2358C37.2116 14.6506 37.2898 15.1364 37.2898 15.6932V16.1918H31.7628V15.0668H35.581C35.581 14.8054 35.5241 14.5739 35.4105 14.3722C35.2969 14.1705 35.1392 14.0128 34.9375 13.8991C34.7386 13.7827 34.5071 13.7244 34.2429 13.7244C33.9673 13.7244 33.723 13.7884 33.5099 13.9162C33.2997 14.0412 33.1349 14.2102 33.0156 14.4233C32.8963 14.6335 32.8352 14.8679 32.8324 15.1264V16.196C32.8324 16.5199 32.892 16.7997 33.0114 17.0355C33.1335 17.2713 33.3054 17.4531 33.527 17.581C33.7486 17.7088 34.0114 17.7727 34.3153 17.7727C34.517 17.7727 34.7017 17.7443 34.8693 17.6875C35.0369 17.6307 35.1804 17.5455 35.2997 17.4318C35.419 17.3182 35.5099 17.179 35.5724 17.0142L37.2514 17.125C37.1662 17.5284 36.9915 17.8807 36.7273 18.1818C36.4659 18.4801 36.1278 18.7131 35.7131 18.8807C35.3011 19.0455 34.8253 19.1278 34.2855 19.1278ZM38.4744 21.4545V12.4545H40.2642V13.554H40.3452C40.4247 13.3778 40.5398 13.1989 40.6903 13.017C40.8438 12.8324 41.0426 12.679 41.2869 12.5568C41.5341 12.4318 41.8409 12.3693 42.2074 12.3693C42.6847 12.3693 43.125 12.4943 43.5284 12.7443C43.9318 12.9915 44.2543 13.3651 44.4957 13.8651C44.7372 14.3622 44.858 14.9858 44.858 15.7358C44.858 16.4659 44.7401 17.0824 44.5043 17.5852C44.2713 18.0852 43.9531 18.4645 43.5497 18.723C43.1491 18.9787 42.7003 19.1065 42.2031 19.1065C41.8509 19.1065 41.5511 19.0483 41.304 18.9318C41.0597 18.8153 40.8594 18.669 40.7031 18.4929C40.5469 18.3139 40.4276 18.1335 40.3452 17.9517H40.2898V21.4545H38.4744ZM40.2514 15.7273C40.2514 16.1165 40.3054 16.456 40.4134 16.7457C40.5213 17.0355 40.6776 17.2614 40.8821 17.4233C41.0866 17.5824 41.3352 17.6619 41.6278 17.6619C41.9233 17.6619 42.1733 17.581 42.3778 17.419C42.5824 17.2543 42.7372 17.027 42.8423 16.7372C42.9503 16.4446 43.0043 16.108 43.0043 15.7273C43.0043 15.3494 42.9517 15.017 42.8466 14.7301C42.7415 14.4432 42.5866 14.2187 42.3821 14.0568C42.1776 13.8949 41.9261 13.8139 41.6278 13.8139C41.3324 13.8139 41.0824 13.892 40.8778 14.0483C40.6761 14.2045 40.5213 14.4261 40.4134 14.7131C40.3054 15 40.2514 15.3381 40.2514 15.7273ZM47.9347 19.1236C47.517 19.1236 47.1449 19.0511 46.8182 18.9062C46.4915 18.7585 46.233 18.5412 46.0426 18.2543C45.8551 17.9645 45.7614 17.6037 45.7614 17.1719C45.7614 16.8082 45.8281 16.5028 45.9616 16.2557C46.0952 16.0085 46.277 15.8097 46.5071 15.6591C46.7372 15.5085 46.9986 15.3949 47.2912 15.3182C47.5866 15.2415 47.8963 15.1875 48.2202 15.1562C48.6009 15.1165 48.9077 15.0795 49.1406 15.0455C49.3736 15.0085 49.5426 14.9545 49.6477 14.8835C49.7528 14.8125 49.8054 14.7074 49.8054 14.5682V14.5426C49.8054 14.2727 49.7202 14.0639 49.5497 13.9162C49.3821 13.7685 49.1435 13.6946 48.8338 13.6946C48.5071 13.6946 48.2472 13.767 48.054 13.9119C47.8608 14.054 47.733 14.233 47.6705 14.4489L45.9915 14.3125C46.0767 13.9148 46.2443 13.571 46.4943 13.2812C46.7443 12.9886 47.0668 12.7642 47.4616 12.608C47.8594 12.4489 48.3196 12.3693 48.8423 12.3693C49.206 12.3693 49.554 12.4119 49.8864 12.4972C50.2216 12.5824 50.5185 12.7145 50.777 12.8935C51.0384 13.0724 51.2443 13.3026 51.3949 13.5838C51.5455 13.8622 51.6207 14.196 51.6207 14.5852V19H49.8991V18.0923H49.848C49.7429 18.2969 49.6023 18.4773 49.4261 18.6335C49.25 18.7869 49.0384 18.9077 48.7912 18.9957C48.544 19.081 48.2585 19.1236 47.9347 19.1236ZM48.4545 17.8707C48.7216 17.8707 48.9574 17.8182 49.1619 17.7131C49.3665 17.6051 49.527 17.4602 49.6435 17.2784C49.7599 17.0966 49.8182 16.8906 49.8182 16.6605V15.9659C49.7614 16.0028 49.6832 16.0369 49.5838 16.0682C49.4872 16.0966 49.3778 16.1236 49.2557 16.1491C49.1335 16.1719 49.0114 16.1932 48.8892 16.2131C48.767 16.2301 48.6562 16.2457 48.5568 16.2599C48.3438 16.2912 48.1577 16.3409 47.9986 16.4091C47.8395 16.4773 47.7159 16.5696 47.6278 16.6861C47.5398 16.7997 47.4957 16.9418 47.4957 17.1122C47.4957 17.3594 47.5852 17.5483 47.7642 17.679C47.946 17.8068 48.1761 17.8707 48.4545 17.8707ZM53.0291 19V12.4545H54.8445V14.9943H55.3558L57.1371 12.4545H59.2678L56.9538 15.7017L59.2933 19H57.1371L55.522 16.6776H54.8445V19H53.0291ZM59.7195 13.8821V12.4545H65.6513V13.8821H63.5419V19H61.8118V13.8821H59.7195ZM68.4862 16.6051L70.8427 12.4545H72.6325V19H70.9023V14.8366L68.5543 19H66.7518V12.4545H68.4862V16.6051ZM74.0877 19V12.4545H76.8789C77.6857 12.4545 78.3235 12.608 78.7923 12.9148C79.261 13.2216 79.4954 13.6577 79.4954 14.223C79.4954 14.5781 79.3633 14.8736 79.0991 15.1094C78.8349 15.3452 78.4684 15.5043 77.9996 15.5866C78.3917 15.6151 78.7255 15.7045 79.0011 15.8551C79.2795 16.0028 79.4911 16.1946 79.636 16.4304C79.7837 16.6662 79.8576 16.9276 79.8576 17.2145C79.8576 17.5866 79.7582 17.9062 79.5593 18.1733C79.3633 18.4403 79.0749 18.6449 78.6942 18.7869C78.3164 18.929 77.8548 19 77.3093 19H74.0877ZM75.7795 17.6406H77.3093C77.5621 17.6406 77.7596 17.581 77.9016 17.4616C78.0465 17.3395 78.119 17.1733 78.119 16.9631C78.119 16.7301 78.0465 16.5469 77.9016 16.4134C77.7596 16.2798 77.5621 16.2131 77.3093 16.2131H75.7795V17.6406ZM75.7795 15.1477H76.9173C77.0991 15.1477 77.2539 15.1222 77.3817 15.071C77.5124 15.017 77.6119 14.9403 77.68 14.8409C77.7511 14.7415 77.7866 14.6236 77.7866 14.4872C77.7866 14.2855 77.7056 14.1278 77.5437 14.0142C77.3817 13.9006 77.1602 13.8438 76.8789 13.8438H75.7795V15.1477ZM85.5572 15.0028V16.4304H82.1396V15.0028H85.5572ZM82.7362 12.4545V19H81.0018V12.4545H82.7362ZM86.695 12.4545V19H84.9734V12.4545H86.695ZM89.2411 14.4659H91.1971C92.0636 14.4659 92.7397 14.6733 93.2255 15.0881C93.7113 15.5 93.9542 16.0511 93.9542 16.7415C93.9542 17.1903 93.8448 17.5852 93.6261 17.9261C93.4073 18.2642 93.092 18.5284 92.68 18.7188C92.2681 18.9062 91.7738 19 91.1971 19H88.1033V12.4545H89.8377V17.5724H91.1971C91.5011 17.5724 91.7511 17.4957 91.9471 17.3423C92.1431 17.1889 92.2425 16.9929 92.2454 16.7543C92.2425 16.5014 92.1431 16.2955 91.9471 16.1364C91.7511 15.9744 91.5011 15.8935 91.1971 15.8935H89.2411V14.4659ZM94.6573 19V12.4545H96.4727V19H94.6573ZM99.658 16.6051L102.015 12.4545H103.804V19H102.074V14.8366L99.7262 19H97.9237V12.4545H99.658V16.6051ZM101.703 10.1705H102.969C102.966 10.6875 102.775 11.1037 102.394 11.419C102.016 11.7344 101.505 11.892 100.86 11.892C100.212 11.892 99.6992 11.7344 99.3214 11.419C98.9435 11.1037 98.7546 10.6875 98.7546 10.1705H100.012C100.009 10.3665 100.071 10.5426 100.199 10.6989C100.33 10.8551 100.55 10.9332 100.86 10.9332C101.161 10.9332 101.377 10.8565 101.507 10.7031C101.638 10.5497 101.703 10.3722 101.703 10.1705ZM108.037 19V12.4545H110.828C111.635 12.4545 112.273 12.608 112.741 12.9148C113.21 13.2216 113.445 13.6577 113.445 14.223C113.445 14.5781 113.313 14.8736 113.048 15.1094C112.784 15.3452 112.418 15.5043 111.949 15.5866C112.341 15.6151 112.675 15.7045 112.95 15.8551C113.229 16.0028 113.44 16.1946 113.585 16.4304C113.733 16.6662 113.807 16.9276 113.807 17.2145C113.807 17.5866 113.707 17.9062 113.509 18.1733C113.313 18.4403 113.024 18.6449 112.643 18.7869C112.266 18.929 111.804 19 111.259 19H108.037ZM109.729 17.6406H111.259C111.511 17.6406 111.709 17.581 111.851 17.4616C111.996 17.3395 112.068 17.1733 112.068 16.9631C112.068 16.7301 111.996 16.5469 111.851 16.4134C111.709 16.2798 111.511 16.2131 111.259 16.2131H109.729V17.6406ZM109.729 15.1477H110.866C111.048 15.1477 111.203 15.1222 111.331 15.071C111.462 15.017 111.561 14.9403 111.629 14.8409C111.7 14.7415 111.736 14.6236 111.736 14.4872C111.736 14.2855 111.655 14.1278 111.493 14.0142C111.331 13.9006 111.109 13.8438 110.828 13.8438H109.729V15.1477ZM117.934 19.1278C117.261 19.1278 116.681 18.9915 116.195 18.7188C115.712 18.4432 115.34 18.054 115.079 17.5511C114.817 17.0455 114.687 16.4474 114.687 15.7571C114.687 15.0838 114.817 14.4929 115.079 13.9844C115.34 13.4759 115.708 13.0795 116.183 12.7955C116.66 12.5114 117.219 12.3693 117.862 12.3693C118.293 12.3693 118.695 12.4389 119.067 12.5781C119.442 12.7145 119.769 12.9205 120.048 13.196C120.329 13.4716 120.548 13.8182 120.704 14.2358C120.86 14.6506 120.938 15.1364 120.938 15.6932V16.1918H115.411V15.0668H119.229C119.229 14.8054 119.173 14.5739 119.059 14.3722C118.945 14.1705 118.788 14.0128 118.586 13.8991C118.387 13.7827 118.156 13.7244 117.891 13.7244C117.616 13.7244 117.371 13.7884 117.158 13.9162C116.948 14.0412 116.783 14.2102 116.664 14.4233C116.545 14.6335 116.484 14.8679 116.481 15.1264V16.196C116.481 16.5199 116.54 16.7997 116.66 17.0355C116.782 17.2713 116.954 17.4531 117.175 17.581C117.397 17.7088 117.66 17.7727 117.964 17.7727C118.165 17.7727 118.35 17.7443 118.518 17.6875C118.685 17.6307 118.829 17.5455 118.948 17.4318C119.067 17.3182 119.158 17.179 119.221 17.0142L120.9 17.125C120.815 17.5284 120.64 17.8807 120.376 18.1818C120.114 18.4801 119.776 18.7131 119.362 18.8807C118.95 19.0455 118.474 19.1278 117.934 19.1278ZM127.565 10.0511L128.119 11.2358C127.934 11.3892 127.729 11.5028 127.505 11.5767C127.281 11.6477 127.012 11.6946 126.7 11.7173C126.39 11.7401 126.012 11.7557 125.566 11.7642C125.06 11.7699 124.648 11.8509 124.33 12.0071C124.012 12.1634 123.771 12.4091 123.606 12.7443C123.441 13.0767 123.333 13.5114 123.282 14.0483H123.346C123.542 13.6477 123.817 13.3381 124.173 13.1193C124.531 12.9006 124.972 12.7912 125.498 12.7912C126.055 12.7912 126.542 12.9134 126.96 13.1577C127.38 13.402 127.707 13.7528 127.94 14.2102C128.173 14.6676 128.289 15.2159 128.289 15.8551C128.289 16.5199 128.158 17.098 127.897 17.5895C127.638 18.0781 127.271 18.4574 126.793 18.7273C126.316 18.9943 125.748 19.1278 125.089 19.1278C124.427 19.1278 123.856 18.9886 123.376 18.7102C122.898 18.4318 122.529 18.0213 122.268 17.4787C122.009 16.9361 121.88 16.2685 121.88 15.4759V14.9389C121.88 13.3622 122.187 12.1932 122.8 11.4318C123.414 10.6705 124.316 10.2841 125.506 10.2727C125.83 10.267 126.123 10.2656 126.384 10.2685C126.646 10.2713 126.874 10.2585 127.07 10.2301C127.269 10.2017 127.434 10.142 127.565 10.0511ZM125.097 17.7216C125.376 17.7216 125.614 17.6491 125.813 17.5043C126.015 17.3594 126.17 17.152 126.278 16.8821C126.388 16.6122 126.444 16.2898 126.444 15.9148C126.444 15.5426 126.388 15.2273 126.278 14.9688C126.17 14.7074 126.015 14.5085 125.813 14.3722C125.612 14.2358 125.37 14.1676 125.089 14.1676C124.879 14.1676 124.69 14.206 124.522 14.2827C124.354 14.3594 124.211 14.473 124.092 14.6236C123.975 14.7713 123.884 14.9545 123.819 15.1733C123.756 15.3892 123.725 15.6364 123.725 15.9148C123.725 16.4744 123.846 16.9162 124.087 17.2401C124.332 17.5611 124.668 17.7216 125.097 17.7216ZM133.572 14.696V16.1364H129.592V14.696H133.572ZM135.119 19V12.4545H140.842V19H139.108V13.8821H136.832V19H135.119ZM141.907 19L141.899 17.5597H142.116C142.27 17.5597 142.402 17.5227 142.512 17.4489C142.626 17.3722 142.72 17.2486 142.794 17.0781C142.868 16.9077 142.926 16.6818 142.968 16.4006C143.011 16.1165 143.039 15.767 143.054 15.3523L143.16 12.4545H148.137V19H146.407V13.8821H144.792L144.69 15.8807C144.664 16.429 144.598 16.9006 144.49 17.2955C144.385 17.6903 144.238 18.0142 144.051 18.267C143.863 18.517 143.637 18.7017 143.373 18.821C143.109 18.9403 142.802 19 142.453 19H141.907ZM151.411 19.1236C150.994 19.1236 150.621 19.0511 150.295 18.9062C149.968 18.7585 149.71 18.5412 149.519 18.2543C149.332 17.9645 149.238 17.6037 149.238 17.1719C149.238 16.8082 149.305 16.5028 149.438 16.2557C149.572 16.0085 149.754 15.8097 149.984 15.6591C150.214 15.5085 150.475 15.3949 150.768 15.3182C151.063 15.2415 151.373 15.1875 151.697 15.1562C152.077 15.1165 152.384 15.0795 152.617 15.0455C152.85 15.0085 153.019 14.9545 153.124 14.8835C153.229 14.8125 153.282 14.7074 153.282 14.5682V14.5426C153.282 14.2727 153.197 14.0639 153.026 13.9162C152.859 13.7685 152.62 13.6946 152.31 13.6946C151.984 13.6946 151.724 13.767 151.531 13.9119C151.337 14.054 151.21 14.233 151.147 14.4489L149.468 14.3125C149.553 13.9148 149.721 13.571 149.971 13.2812C150.221 12.9886 150.543 12.7642 150.938 12.608C151.336 12.4489 151.796 12.3693 152.319 12.3693C152.683 12.3693 153.031 12.4119 153.363 12.4972C153.698 12.5824 153.995 12.7145 154.254 12.8935C154.515 13.0724 154.721 13.3026 154.871 13.5838C155.022 13.8622 155.097 14.196 155.097 14.5852V19H153.376V18.0923H153.325C153.219 18.2969 153.079 18.4773 152.903 18.6335C152.727 18.7869 152.515 18.9077 152.268 18.9957C152.021 19.081 151.735 19.1236 151.411 19.1236ZM151.931 17.8707C152.198 17.8707 152.434 17.8182 152.638 17.7131C152.843 17.6051 153.004 17.4602 153.12 17.2784C153.237 17.0966 153.295 16.8906 153.295 16.6605V15.9659C153.238 16.0028 153.16 16.0369 153.06 16.0682C152.964 16.0966 152.854 16.1236 152.732 16.1491C152.61 16.1719 152.488 16.1932 152.366 16.2131C152.244 16.2301 152.133 16.2457 152.033 16.2599C151.82 16.2912 151.634 16.3409 151.475 16.4091C151.316 16.4773 151.192 16.5696 151.104 16.6861C151.016 16.7997 150.972 16.9418 150.972 17.1122C150.972 17.3594 151.062 17.5483 151.241 17.679C151.423 17.8068 151.653 17.8707 151.931 17.8707ZM156.506 19V12.4545H158.321V14.9943H158.832L160.614 12.4545H162.744L160.43 15.7017L162.77 19H160.614L158.999 16.6776H158.321V19H156.506ZM165.403 19.1236C164.986 19.1236 164.614 19.0511 164.287 18.9062C163.96 18.7585 163.702 18.5412 163.511 18.2543C163.324 17.9645 163.23 17.6037 163.23 17.1719C163.23 16.8082 163.297 16.5028 163.43 16.2557C163.564 16.0085 163.746 15.8097 163.976 15.6591C164.206 15.5085 164.467 15.3949 164.76 15.3182C165.055 15.2415 165.365 15.1875 165.689 15.1562C166.07 15.1165 166.376 15.0795 166.609 15.0455C166.842 15.0085 167.011 14.9545 167.116 14.8835C167.222 14.8125 167.274 14.7074 167.274 14.5682V14.5426C167.274 14.2727 167.189 14.0639 167.018 13.9162C166.851 13.7685 166.612 13.6946 166.303 13.6946C165.976 13.6946 165.716 13.767 165.523 13.9119C165.33 14.054 165.202 14.233 165.139 14.4489L163.46 14.3125C163.545 13.9148 163.713 13.571 163.963 13.2812C164.213 12.9886 164.536 12.7642 164.93 12.608C165.328 12.4489 165.788 12.3693 166.311 12.3693C166.675 12.3693 167.023 12.4119 167.355 12.4972C167.69 12.5824 167.987 12.7145 168.246 12.8935C168.507 13.0724 168.713 13.3026 168.864 13.5838C169.014 13.8622 169.089 14.196 169.089 14.5852V19H167.368V18.0923H167.317C167.212 18.2969 167.071 18.4773 166.895 18.6335C166.719 18.7869 166.507 18.9077 166.26 18.9957C166.013 19.081 165.727 19.1236 165.403 19.1236ZM165.923 17.8707C166.19 17.8707 166.426 17.8182 166.631 17.7131C166.835 17.6051 166.996 17.4602 167.112 17.2784C167.229 17.0966 167.287 16.8906 167.287 16.6605V15.9659C167.23 16.0028 167.152 16.0369 167.053 16.0682C166.956 16.0966 166.847 16.1236 166.724 16.1491C166.602 16.1719 166.48 16.1932 166.358 16.2131C166.236 16.2301 166.125 16.2457 166.026 16.2599C165.813 16.2912 165.626 16.3409 165.467 16.4091C165.308 16.4773 165.185 16.5696 165.097 16.6861C165.009 16.7997 164.964 16.9418 164.964 17.1122C164.964 17.3594 165.054 17.5483 165.233 17.679C165.415 17.8068 165.645 17.8707 165.923 17.8707ZM169.841 13.8821V12.4545H175.772V13.8821H173.663V19H171.933V13.8821H169.841ZM10.7585 34V25.2727H12.6037V29.1207H12.7188L15.8594 25.2727H18.071L14.8324 29.1804L18.1094 34H15.902L13.5114 30.4119L12.6037 31.5199V34H10.7585ZM20.8771 25.2727V34H19.032V25.2727H20.8771ZM29.695 25.2727V34H28.1012L24.3043 28.5071H24.2404V34H22.3952V25.2727H24.0146L27.7816 30.7614H27.8583V25.2727H29.695ZM30.8871 26.794V25.2727H38.0547V26.794H35.3828V34H33.5589V26.794H30.8871ZM43.9695 27.7827C43.9354 27.4389 43.7891 27.1719 43.5305 26.9815C43.272 26.7912 42.9212 26.696 42.478 26.696C42.1768 26.696 41.9226 26.7386 41.7152 26.8239C41.5078 26.9062 41.3487 27.0213 41.2379 27.169C41.13 27.3168 41.076 27.4844 41.076 27.6719C41.0703 27.8281 41.103 27.9645 41.174 28.081C41.2479 28.1974 41.3487 28.2983 41.4766 28.3835C41.6044 28.4659 41.7521 28.5384 41.9197 28.6009C42.0874 28.6605 42.2663 28.7116 42.4567 28.7543L43.2408 28.9418C43.6214 29.027 43.9709 29.1406 44.2891 29.2827C44.6072 29.4247 44.8828 29.5994 45.1158 29.8068C45.3487 30.0142 45.5291 30.2585 45.657 30.5398C45.7876 30.821 45.8544 31.1435 45.8572 31.5071C45.8544 32.0412 45.718 32.5043 45.4482 32.8963C45.1811 33.2855 44.7947 33.5881 44.2891 33.804C43.7862 34.017 43.1797 34.1236 42.4695 34.1236C41.7649 34.1236 41.1513 34.0156 40.6286 33.7997C40.1087 33.5838 39.7024 33.2642 39.4098 32.8409C39.12 32.4148 38.968 31.8878 38.9538 31.2599H40.7393C40.7592 31.5526 40.843 31.7969 40.9908 31.9929C41.1413 32.1861 41.3416 32.3324 41.5916 32.4318C41.8445 32.5284 42.13 32.5767 42.4482 32.5767C42.7607 32.5767 43.032 32.5312 43.2621 32.4403C43.495 32.3494 43.6754 32.223 43.8033 32.0611C43.9311 31.8991 43.995 31.7131 43.995 31.5028C43.995 31.3068 43.9368 31.142 43.8203 31.0085C43.7067 30.875 43.5391 30.7614 43.3175 30.6676C43.0987 30.5739 42.8303 30.4886 42.5121 30.4119L41.5618 30.1733C40.826 29.9943 40.245 29.7145 39.8189 29.3338C39.3928 28.9531 39.1811 28.4403 39.1839 27.7955C39.1811 27.267 39.3217 26.8054 39.6058 26.4105C39.8928 26.0156 40.2862 25.7074 40.7862 25.4858C41.2862 25.2642 41.8544 25.1534 42.4908 25.1534C43.1385 25.1534 43.7038 25.2642 44.1868 25.4858C44.6726 25.7074 45.0504 26.0156 45.3203 26.4105C45.5902 26.8054 45.7294 27.2628 45.7379 27.7827H43.9695ZM52.489 25.2727H54.3342V30.9403C54.3342 31.5767 54.1822 32.1335 53.8782 32.6108C53.5771 33.0881 53.1552 33.4602 52.6126 33.7273C52.07 33.9915 51.4379 34.1236 50.7163 34.1236C49.9918 34.1236 49.3583 33.9915 48.8157 33.7273C48.2731 33.4602 47.8512 33.0881 47.5501 32.6108C47.2489 32.1335 47.0984 31.5767 47.0984 30.9403V25.2727H48.9435V30.7827C48.9435 31.1151 49.016 31.4105 49.1609 31.669C49.3086 31.9276 49.516 32.1307 49.783 32.2784C50.0501 32.4261 50.3612 32.5 50.7163 32.5C51.0742 32.5 51.3853 32.4261 51.6495 32.2784C51.9165 32.1307 52.1225 31.9276 52.2674 31.669C52.4151 31.4105 52.489 31.1151 52.489 30.7827V25.2727ZM61.6392 28.0938C61.5795 27.8864 61.4957 27.7031 61.3878 27.544C61.2798 27.3821 61.1477 27.2457 60.9915 27.1349C60.8381 27.0213 60.6619 26.9347 60.4631 26.875C60.267 26.8153 60.0497 26.7855 59.8111 26.7855C59.3651 26.7855 58.973 26.8963 58.6349 27.1179C58.2997 27.3395 58.0384 27.6619 57.8509 28.0852C57.6634 28.5057 57.5696 29.0199 57.5696 29.6278C57.5696 30.2358 57.6619 30.7528 57.8466 31.179C58.0313 31.6051 58.2926 31.9304 58.6307 32.1548C58.9688 32.3764 59.3679 32.4872 59.8281 32.4872C60.2457 32.4872 60.6023 32.4134 60.8977 32.2656C61.196 32.1151 61.4233 31.9034 61.5795 31.6307C61.7386 31.358 61.8182 31.0355 61.8182 30.6634L62.1932 30.7188H59.9432V29.3295H63.5952V30.429C63.5952 31.196 63.4332 31.8551 63.1094 32.4062C62.7855 32.9545 62.3395 33.3778 61.7713 33.6761C61.2031 33.9716 60.5526 34.1193 59.8196 34.1193C59.0014 34.1193 58.2827 33.9389 57.6634 33.5781C57.044 33.2145 56.5611 32.6989 56.2145 32.0312C55.8707 31.3608 55.6989 30.5653 55.6989 29.6449C55.6989 28.9375 55.8011 28.3068 56.0057 27.7528C56.2131 27.196 56.5028 26.7244 56.875 26.3381C57.2472 25.9517 57.6804 25.6577 58.1747 25.456C58.669 25.2543 59.2045 25.1534 59.7812 25.1534C60.2756 25.1534 60.7358 25.2259 61.1619 25.3707C61.5881 25.5128 61.9659 25.7145 62.2955 25.9759C62.6278 26.2372 62.8991 26.5483 63.1094 26.9091C63.3196 27.267 63.4545 27.6619 63.5142 28.0938H61.6392ZM66.8263 25.2727V34H64.9812V25.2727H66.8263ZM73.1246 34.1449C72.7099 34.1449 72.3349 34.0682 71.9996 33.9148C71.6644 33.7585 71.3988 33.5327 71.2028 33.2372C71.0096 32.9418 70.913 32.5795 70.913 32.1506C70.913 31.7812 70.984 31.4773 71.1261 31.2386C71.2681 31 71.4599 30.8111 71.7013 30.6719C71.9428 30.5327 72.2127 30.4276 72.511 30.3565C72.8093 30.2855 73.1133 30.2315 73.4229 30.1946C73.815 30.1491 74.1332 30.1122 74.3775 30.0838C74.6218 30.0526 74.7994 30.0028 74.9102 29.9347C75.021 29.8665 75.0763 29.7557 75.0763 29.6023V29.5724C75.0763 29.2003 74.9712 28.9119 74.761 28.7074C74.5536 28.5028 74.244 28.4006 73.832 28.4006C73.4031 28.4006 73.065 28.4957 72.8178 28.6861C72.5735 28.8736 72.4045 29.0824 72.3107 29.3125L71.1133 29.0398C71.2553 28.642 71.4627 28.321 71.7354 28.0767C72.011 27.8295 72.3278 27.6506 72.6857 27.5398C73.0437 27.4261 73.4201 27.3693 73.815 27.3693C74.0763 27.3693 74.3533 27.4006 74.646 27.4631C74.9414 27.5227 75.217 27.6335 75.4727 27.7955C75.7312 27.9574 75.9428 28.1889 76.1076 28.4901C76.2724 28.7884 76.3548 29.1761 76.3548 29.6534V34H75.1104V33.1051H75.0593C74.9769 33.2699 74.8533 33.4318 74.6886 33.5909C74.5238 33.75 74.3121 33.8821 74.0536 33.9872C73.7951 34.0923 73.4854 34.1449 73.1246 34.1449ZM73.4016 33.1222C73.7539 33.1222 74.055 33.0526 74.305 32.9134C74.5579 32.7741 74.7496 32.5923 74.8803 32.3679C75.0138 32.1406 75.0806 31.8977 75.0806 31.6392V30.7955C75.0352 30.8409 74.9471 30.8835 74.8164 30.9233C74.6886 30.9602 74.5423 30.9929 74.3775 31.0213C74.2127 31.0469 74.0522 31.071 73.896 31.0938C73.7397 31.1136 73.609 31.1307 73.5039 31.1449C73.2567 31.1761 73.0309 31.2287 72.8263 31.3026C72.6246 31.3764 72.4627 31.483 72.3406 31.6222C72.2212 31.7585 72.1616 31.9403 72.1616 32.1676C72.1616 32.483 72.2781 32.7216 72.511 32.8835C72.744 33.0426 73.0408 33.1222 73.4016 33.1222ZM78.0518 36.4545V27.4545H79.2962V28.5156H79.4027C79.4766 28.3793 79.5831 28.2216 79.7223 28.0426C79.8615 27.8636 80.0547 27.7074 80.3018 27.5739C80.549 27.4375 80.8757 27.3693 81.282 27.3693C81.8104 27.3693 82.282 27.5028 82.6967 27.7699C83.1115 28.0369 83.4368 28.4219 83.6726 28.9247C83.9112 29.4276 84.0305 30.0327 84.0305 30.7401C84.0305 31.4474 83.9126 32.054 83.6768 32.5597C83.4411 33.0625 83.1172 33.4503 82.7053 33.723C82.2933 33.9929 81.8232 34.1278 81.2947 34.1278C80.897 34.1278 80.5717 34.0611 80.3189 33.9276C80.0689 33.794 79.8729 33.6378 79.7308 33.4588C79.5888 33.2798 79.4794 33.1207 79.4027 32.9815H79.326V36.4545H78.0518ZM79.3004 30.7273C79.3004 31.1875 79.3672 31.5909 79.5007 31.9375C79.6342 32.2841 79.8274 32.5554 80.0803 32.7514C80.3331 32.9446 80.6428 33.0412 81.0092 33.0412C81.3899 33.0412 81.7081 32.9403 81.9638 32.7386C82.2195 32.5341 82.4126 32.2571 82.5433 31.9077C82.6768 31.5582 82.7436 31.1648 82.7436 30.7273C82.7436 30.2955 82.6783 29.9077 82.5476 29.5639C82.4197 29.2202 82.2266 28.9489 81.968 28.75C81.7124 28.5511 81.3928 28.4517 81.0092 28.4517C80.6399 28.4517 80.3274 28.5469 80.0717 28.7372C79.8189 28.9276 79.6271 29.1932 79.4964 29.5341C79.3658 29.875 79.3004 30.2727 79.3004 30.7273ZM84.6697 28.554V27.4545H90.1925V28.554H88.0575V34H86.8132V28.554H84.6697ZM94.7159 34V27.4545H100.055V34H98.8068V28.554H95.956V34H94.7159ZM101.759 36.4545V27.4545H103.003V28.5156H103.11C103.184 28.3793 103.29 28.2216 103.429 28.0426C103.569 27.8636 103.762 27.7074 104.009 27.5739C104.256 27.4375 104.583 27.3693 104.989 27.3693C105.517 27.3693 105.989 27.5028 106.404 27.7699C106.819 28.0369 107.144 28.4219 107.38 28.9247C107.618 29.4276 107.738 30.0327 107.738 30.7401C107.738 31.4474 107.62 32.054 107.384 32.5597C107.148 33.0625 106.824 33.4503 106.412 33.723C106 33.9929 105.53 34.1278 105.002 34.1278C104.604 34.1278 104.279 34.0611 104.026 33.9276C103.776 33.794 103.58 33.6378 103.438 33.4588C103.296 33.2798 103.186 33.1207 103.11 32.9815H103.033V36.4545H101.759ZM103.007 30.7273C103.007 31.1875 103.074 31.5909 103.208 31.9375C103.341 32.2841 103.534 32.5554 103.787 32.7514C104.04 32.9446 104.35 33.0412 104.716 33.0412C105.097 33.0412 105.415 32.9403 105.671 32.7386C105.926 32.5341 106.12 32.2571 106.25 31.9077C106.384 31.5582 106.451 31.1648 106.451 30.7273C106.451 30.2955 106.385 29.9077 106.255 29.5639C106.127 29.2202 105.934 28.9489 105.675 28.75C105.419 28.5511 105.1 28.4517 104.716 28.4517C104.347 28.4517 104.034 28.5469 103.779 28.7372C103.526 28.9276 103.334 29.1932 103.203 29.5341C103.073 29.875 103.007 30.2727 103.007 30.7273ZM111.07 34.1449C110.655 34.1449 110.28 34.0682 109.945 33.9148C109.61 33.7585 109.344 33.5327 109.148 33.2372C108.955 32.9418 108.858 32.5795 108.858 32.1506C108.858 31.7812 108.929 31.4773 109.071 31.2386C109.213 31 109.405 30.8111 109.647 30.6719C109.888 30.5327 110.158 30.4276 110.456 30.3565C110.755 30.2855 111.059 30.2315 111.368 30.1946C111.76 30.1491 112.078 30.1122 112.323 30.0838C112.567 30.0526 112.745 30.0028 112.855 29.9347C112.966 29.8665 113.022 29.7557 113.022 29.6023V29.5724C113.022 29.2003 112.917 28.9119 112.706 28.7074C112.499 28.5028 112.189 28.4006 111.777 28.4006C111.348 28.4006 111.01 28.4957 110.763 28.6861C110.519 28.8736 110.35 29.0824 110.256 29.3125L109.059 29.0398C109.201 28.642 109.408 28.321 109.681 28.0767C109.956 27.8295 110.273 27.6506 110.631 27.5398C110.989 27.4261 111.365 27.3693 111.76 27.3693C112.022 27.3693 112.299 27.4006 112.591 27.4631C112.887 27.5227 113.162 27.6335 113.418 27.7955C113.676 27.9574 113.888 28.1889 114.053 28.4901C114.218 28.7884 114.3 29.1761 114.3 29.6534V34H113.056V33.1051H113.005C112.922 33.2699 112.799 33.4318 112.634 33.5909C112.469 33.75 112.257 33.8821 111.999 33.9872C111.74 34.0923 111.431 34.1449 111.07 34.1449ZM111.347 33.1222C111.699 33.1222 112 33.0526 112.25 32.9134C112.503 32.7741 112.695 32.5923 112.826 32.3679C112.959 32.1406 113.026 31.8977 113.026 31.6392V30.7955C112.98 30.8409 112.892 30.8835 112.762 30.9233C112.634 30.9602 112.488 30.9929 112.323 31.0213C112.158 31.0469 111.998 31.071 111.841 31.0938C111.685 31.1136 111.554 31.1307 111.449 31.1449C111.202 31.1761 110.976 31.2287 110.772 31.3026C110.57 31.3764 110.408 31.483 110.286 31.6222C110.167 31.7585 110.107 31.9403 110.107 32.1676C110.107 32.483 110.223 32.7216 110.456 32.8835C110.689 33.0426 110.986 33.1222 111.347 33.1222ZM115.997 34V27.4545H117.271V30.1989H117.885L120.045 27.4545H121.622L119.087 30.6378L121.652 34H120.071L118.098 31.3835H117.271V34H115.997ZM122.275 28.554V27.4545H127.798V28.554H125.663V34H124.419V28.554H122.275ZM130.394 32.2145L133.279 27.4545H134.651V34H133.403V29.2358L130.531 34H129.146V27.4545H130.394V32.2145ZM136.364 34V27.4545H137.638V30.1989H138.252L140.413 27.4545H141.989L139.454 30.6378L142.019 34H140.438L138.465 31.3835H137.638V34H136.364ZM144.914 34.1449C144.499 34.1449 144.124 34.0682 143.789 33.9148C143.453 33.7585 143.188 33.5327 142.992 33.2372C142.799 32.9418 142.702 32.5795 142.702 32.1506C142.702 31.7812 142.773 31.4773 142.915 31.2386C143.057 31 143.249 30.8111 143.49 30.6719C143.732 30.5327 144.002 30.4276 144.3 30.3565C144.598 30.2855 144.902 30.2315 145.212 30.1946C145.604 30.1491 145.922 30.1122 146.167 30.0838C146.411 30.0526 146.588 30.0028 146.699 29.9347C146.81 29.8665 146.865 29.7557 146.865 29.6023V29.5724C146.865 29.2003 146.76 28.9119 146.55 28.7074C146.343 28.5028 146.033 28.4006 145.621 28.4006C145.192 28.4006 144.854 28.4957 144.607 28.6861C144.363 28.8736 144.194 29.0824 144.1 29.3125L142.902 29.0398C143.044 28.642 143.252 28.321 143.525 28.0767C143.8 27.8295 144.117 27.6506 144.475 27.5398C144.833 27.4261 145.209 27.3693 145.604 27.3693C145.865 27.3693 146.142 27.4006 146.435 27.4631C146.73 27.5227 147.006 27.6335 147.262 27.7955C147.52 27.9574 147.732 28.1889 147.897 28.4901C148.061 28.7884 148.144 29.1761 148.144 29.6534V34H146.9V33.1051H146.848C146.766 33.2699 146.642 33.4318 146.478 33.5909C146.313 33.75 146.101 33.8821 145.843 33.9872C145.584 34.0923 145.275 34.1449 144.914 34.1449ZM145.191 33.1222C145.543 33.1222 145.844 33.0526 146.094 32.9134C146.347 32.7741 146.539 32.5923 146.669 32.3679C146.803 32.1406 146.87 31.8977 146.87 31.6392V30.7955C146.824 30.8409 146.736 30.8835 146.605 30.9233C146.478 30.9602 146.331 30.9929 146.167 31.0213C146.002 31.0469 145.841 31.071 145.685 31.0938C145.529 31.1136 145.398 31.1307 145.293 31.1449C145.046 31.1761 144.82 31.2287 144.615 31.3026C144.414 31.3764 144.252 31.483 144.13 31.6222C144.01 31.7585 143.951 31.9403 143.951 32.1676C143.951 32.483 144.067 32.7216 144.3 32.8835C144.533 33.0426 144.83 33.1222 145.191 33.1222ZM156.038 34.1193C155.453 34.1193 154.93 34.0185 154.47 33.8168C154.012 33.6151 153.65 33.3352 153.383 32.9773C153.119 32.6165 152.977 32.1989 152.957 31.7244H154.295C154.312 31.983 154.399 32.2074 154.555 32.3977C154.714 32.5852 154.922 32.7301 155.177 32.8324C155.433 32.9347 155.717 32.9858 156.029 32.9858C156.373 32.9858 156.677 32.9261 156.941 32.8068C157.208 32.6875 157.417 32.5213 157.568 32.3082C157.718 32.0923 157.794 31.8438 157.794 31.5625C157.794 31.2699 157.718 31.0128 157.568 30.7912C157.42 30.5668 157.203 30.3906 156.916 30.2628C156.632 30.1349 156.288 30.071 155.885 30.071H155.147V28.9972H155.885C156.208 28.9972 156.493 28.9389 156.737 28.8224C156.984 28.706 157.177 28.544 157.316 28.3366C157.456 28.1264 157.525 27.8807 157.525 27.5994C157.525 27.3295 157.464 27.0952 157.342 26.8963C157.223 26.6946 157.052 26.5369 156.831 26.4233C156.612 26.3097 156.353 26.2528 156.055 26.2528C155.771 26.2528 155.505 26.3054 155.258 26.4105C155.014 26.5128 154.815 26.6605 154.662 26.8537C154.508 27.044 154.426 27.2727 154.414 27.5398H153.14C153.154 27.0682 153.294 26.6534 153.558 26.2955C153.825 25.9375 154.177 25.6577 154.615 25.456C155.052 25.2543 155.538 25.1534 156.072 25.1534C156.632 25.1534 157.115 25.2628 157.521 25.4815C157.93 25.6974 158.245 25.9858 158.467 26.3466C158.691 26.7074 158.802 27.1023 158.799 27.5312C158.802 28.0199 158.666 28.4347 158.39 28.7756C158.118 29.1165 157.754 29.3452 157.299 29.4616V29.5298C157.879 29.6179 158.328 29.848 158.646 30.2202C158.967 30.5923 159.126 31.054 159.123 31.6051C159.126 32.0852 158.993 32.5156 158.723 32.8963C158.456 33.277 158.091 33.5767 157.627 33.7955C157.164 34.0114 156.635 34.1193 156.038 34.1193ZM164.608 29.7599V30.8636H160.738V29.7599H164.608ZM167.554 32.2145L170.439 27.4545H171.811V34H170.563V29.2358L167.691 34H166.306V27.4545H167.554V32.2145ZM169.894 25.2386H170.942C170.942 25.7187 170.772 26.1094 170.431 26.4105C170.093 26.7088 169.635 26.858 169.059 26.858C168.485 26.858 168.029 26.7088 167.691 26.4105C167.353 26.1094 167.184 25.7187 167.184 25.2386H168.228C168.228 25.4517 168.29 25.6406 168.415 25.8054C168.54 25.9673 168.755 26.0483 169.059 26.0483C169.357 26.0483 169.57 25.9673 169.698 25.8054C169.828 25.6435 169.894 25.4545 169.894 25.2386ZM180.374 32.4233L182.487 27.4545H183.587L180.847 34H179.901L177.216 27.4545H178.303L180.374 32.4233ZM177.949 27.4545V34H176.7V27.4545H177.949ZM182.832 34V27.4545H184.072V34H182.832ZM188.528 34.1321C187.914 34.1321 187.379 33.9915 186.921 33.7102C186.464 33.429 186.109 33.0355 185.856 32.5298C185.603 32.0241 185.477 31.4332 185.477 30.7571C185.477 30.0781 185.603 29.4844 185.856 28.9759C186.109 28.4673 186.464 28.0724 186.921 27.7912C187.379 27.5099 187.914 27.3693 188.528 27.3693C189.141 27.3693 189.677 27.5099 190.134 27.7912C190.592 28.0724 190.947 28.4673 191.2 28.9759C191.452 29.4844 191.579 30.0781 191.579 30.7571C191.579 31.4332 191.452 32.0241 191.2 32.5298C190.947 33.0355 190.592 33.429 190.134 33.7102C189.677 33.9915 189.141 34.1321 188.528 34.1321ZM188.532 33.0625C188.93 33.0625 189.259 32.9574 189.521 32.7472C189.782 32.5369 189.975 32.2571 190.1 31.9077C190.228 31.5582 190.292 31.1733 190.292 30.7528C190.292 30.3352 190.228 29.9517 190.1 29.6023C189.975 29.25 189.782 28.9673 189.521 28.7543C189.259 28.5412 188.93 28.4347 188.532 28.4347C188.131 28.4347 187.799 28.5412 187.535 28.7543C187.273 28.9673 187.079 29.25 186.951 29.6023C186.826 29.9517 186.763 30.3352 186.763 30.7528C186.763 31.1733 186.826 31.5582 186.951 31.9077C187.079 32.2571 187.273 32.5369 187.535 32.7472C187.799 32.9574 188.131 33.0625 188.532 33.0625ZM192.362 35.8878V32.8963H192.895C193.031 32.7713 193.146 32.6222 193.24 32.4489C193.336 32.2756 193.417 32.0696 193.483 31.831C193.551 31.5923 193.608 31.3139 193.653 30.9957C193.699 30.6747 193.738 30.3082 193.772 29.8963L193.977 27.4545H198.426V32.8963H199.431V35.8878H198.187V34H193.623V35.8878H192.362ZM194.258 32.8963H197.181V28.5455H195.119L194.983 29.8963C194.917 30.5838 194.835 31.1804 194.735 31.6861C194.636 32.1889 194.477 32.5923 194.258 32.8963ZM201.482 36.4545C201.292 36.4545 201.119 36.4389 200.962 36.4077C200.806 36.3793 200.69 36.348 200.613 36.3139L200.92 35.2699C201.153 35.3324 201.36 35.3594 201.542 35.3509C201.724 35.3423 201.884 35.2741 202.023 35.1463C202.165 35.0185 202.29 34.8097 202.398 34.5199L202.556 34.0852L200.161 27.4545H201.525L203.183 32.5341H203.251L204.908 27.4545H206.276L203.579 34.8736C203.454 35.2145 203.295 35.5028 203.102 35.7386C202.908 35.9773 202.678 36.1563 202.411 36.2756C202.144 36.3949 201.835 36.4545 201.482 36.4545ZM206.419 34L206.415 32.8963H206.649C206.831 32.8963 206.983 32.858 207.105 32.7812C207.23 32.7017 207.332 32.5682 207.412 32.3807C207.491 32.1932 207.553 31.9347 207.595 31.6051C207.638 31.2727 207.669 30.8551 207.689 30.3523L207.804 27.4545H212.372V34H211.124V28.554H208.984L208.882 30.7784C208.857 31.3182 208.801 31.7898 208.716 32.1932C208.634 32.5966 208.513 32.9332 208.354 33.2031C208.195 33.4702 207.99 33.6705 207.74 33.804C207.49 33.9347 207.186 34 206.828 34H206.419ZM215.03 29.7045H216.931C217.732 29.7045 218.348 29.9034 218.78 30.3011C219.212 30.6989 219.428 31.2116 219.428 31.8395C219.428 32.2486 219.331 32.6165 219.138 32.9432C218.945 33.2699 218.662 33.5284 218.29 33.7188C217.918 33.9062 217.465 34 216.931 34H214.071V27.4545H215.32V32.9006H216.931C217.297 32.9006 217.598 32.8054 217.834 32.6151C218.07 32.4219 218.188 32.1761 218.188 31.8778C218.188 31.5625 218.07 31.3054 217.834 31.1065C217.598 30.9048 217.297 30.804 216.931 30.804H215.03V29.7045Z" fill="black"/>
<path d="M10 21.3864H37.6584V22.2045H10V21.3864ZM41.1072 21.3864H176.148V22.2045H41.1072V21.3864ZM10 36.3864H67.5859V37.2045H10V36.3864Z" fill="black"/>
<path d="M230 19H241C246.523 19 251 23.4772 251 29V82C251 87.5228 246.523 92 241 92H232.5" stroke="#FFFD00" stroke-width="2"/>
</svg>
