<svg width="250" height="92" viewBox="0 0 250 92" fill="none" xmlns="http://www.w3.org/2000/svg">
<rect x="23" y="48" width="227" height="44" rx="12" fill="#FFFD00"/>
<path d="M33.8565 67V60.4545H39.196V67H37.9474V61.554H35.0966V67H33.8565ZM43.7205 67.1321C43.0756 67.1321 42.5202 66.9943 42.0543 66.7188C41.5913 66.4403 41.2333 66.0497 40.9805 65.5469C40.7305 65.0412 40.6055 64.4489 40.6055 63.7699C40.6055 63.0994 40.7305 62.5085 40.9805 61.9972C41.2333 61.4858 41.5856 61.0866 42.0373 60.7997C42.4918 60.5128 43.0231 60.3693 43.631 60.3693C44.0004 60.3693 44.3583 60.4304 44.7049 60.5526C45.0515 60.6747 45.3626 60.8665 45.6381 61.1278C45.9137 61.3892 46.131 61.7287 46.2901 62.1463C46.4492 62.5611 46.5288 63.0653 46.5288 63.6591V64.1108H41.3256V63.1562H45.2802C45.2802 62.821 45.212 62.5241 45.0756 62.2656C44.9393 62.0043 44.7475 61.7983 44.5004 61.6477C44.256 61.4972 43.9691 61.4219 43.6396 61.4219C43.2816 61.4219 42.9691 61.5099 42.7021 61.6861C42.4379 61.8594 42.2333 62.0866 42.0884 62.3679C41.9464 62.6463 41.8754 62.9489 41.8754 63.2756V64.0213C41.8754 64.4588 41.9521 64.831 42.1055 65.1378C42.2617 65.4446 42.479 65.679 42.7575 65.8409C43.0359 66 43.3612 66.0795 43.7333 66.0795C43.9748 66.0795 44.195 66.0455 44.3938 65.9773C44.5927 65.9062 44.7646 65.8011 44.9094 65.6619C45.0543 65.5227 45.1651 65.3509 45.2418 65.1463L46.4478 65.3636C46.3512 65.7187 46.1779 66.0298 45.9279 66.2969C45.6808 66.5611 45.3697 66.767 44.9947 66.9148C44.6225 67.0597 44.1978 67.1321 43.7205 67.1321ZM47.9425 69.4545V60.4545H49.1868V61.5156H49.2933C49.3672 61.3793 49.4737 61.2216 49.6129 61.0426C49.7521 60.8636 49.9453 60.7074 50.1925 60.5739C50.4396 60.4375 50.7663 60.3693 51.1726 60.3693C51.701 60.3693 52.1726 60.5028 52.5874 60.7699C53.0021 61.0369 53.3274 61.4219 53.5632 61.9247C53.8018 62.4276 53.9212 63.0327 53.9212 63.7401C53.9212 64.4474 53.8033 65.054 53.5675 65.5597C53.3317 66.0625 53.0078 66.4503 52.5959 66.723C52.1839 66.9929 51.7138 67.1278 51.1854 67.1278C50.7876 67.1278 50.4624 67.0611 50.2095 66.9276C49.9595 66.794 49.7635 66.6378 49.6214 66.4588C49.4794 66.2798 49.37 66.1207 49.2933 65.9815H49.2166V69.4545H47.9425ZM49.1911 63.7273C49.1911 64.1875 49.2578 64.5909 49.3913 64.9375C49.5249 65.2841 49.718 65.5554 49.9709 65.7514C50.2237 65.9446 50.5334 66.0412 50.8999 66.0412C51.2805 66.0412 51.5987 65.9403 51.8544 65.7386C52.1101 65.5341 52.3033 65.2571 52.4339 64.9077C52.5675 64.5582 52.6342 64.1648 52.6342 63.7273C52.6342 63.2955 52.5689 62.9077 52.4382 62.5639C52.3104 62.2202 52.1172 61.9489 51.8587 61.75C51.603 61.5511 51.2834 61.4517 50.8999 61.4517C50.5305 61.4517 50.218 61.5469 49.9624 61.7372C49.7095 61.9276 49.5178 62.1932 49.3871 62.5341C49.2564 62.875 49.1911 63.2727 49.1911 63.7273ZM55.3487 67V60.4545H58.0632C58.8018 60.4545 59.3871 60.6122 59.8189 60.9276C60.2507 61.2401 60.4666 61.6648 60.4666 62.2017C60.4666 62.5852 60.3445 62.8892 60.1001 63.1136C59.8558 63.3381 59.532 63.4886 59.1286 63.5653C59.4212 63.5994 59.6896 63.6875 59.9339 63.8295C60.1783 63.9687 60.3743 64.1562 60.522 64.392C60.6726 64.6278 60.7479 64.9091 60.7479 65.2358C60.7479 65.5824 60.6584 65.8892 60.4794 66.1562C60.3004 66.4205 60.0405 66.6278 59.6996 66.7784C59.3615 66.9261 58.9538 67 58.4766 67H55.3487ZM56.5462 65.9347H58.4766C58.7919 65.9347 59.0391 65.8594 59.218 65.7088C59.397 65.5582 59.4865 65.3537 59.4865 65.0952C59.4865 64.7912 59.397 64.5526 59.218 64.3793C59.0391 64.2031 58.7919 64.1151 58.4766 64.1151H56.5462V65.9347ZM56.5462 63.1818H58.076C58.3146 63.1818 58.5192 63.1477 58.6896 63.0795C58.8629 63.0114 58.995 62.9148 59.0859 62.7898C59.1797 62.6619 59.2266 62.5114 59.2266 62.3381C59.2266 62.0852 59.1229 61.8878 58.9155 61.7457C58.7081 61.6037 58.424 61.5327 58.0632 61.5327H56.5462V63.1818ZM63.1044 62.7045H65.005C65.8061 62.7045 66.4226 62.9034 66.8544 63.3011C67.2862 63.6989 67.5021 64.2116 67.5021 64.8395C67.5021 65.2486 67.4055 65.6165 67.2124 65.9432C67.0192 66.2699 66.7365 66.5284 66.3643 66.7188C65.9922 66.9062 65.5391 67 65.005 67H62.1456V60.4545H63.3942V65.9006H65.005C65.3714 65.9006 65.6726 65.8054 65.9084 65.6151C66.1442 65.4219 66.2621 65.1761 66.2621 64.8778C66.2621 64.5625 66.1442 64.3054 65.9084 64.1065C65.6726 63.9048 65.3714 63.804 65.005 63.804H63.1044V62.7045ZM68.4311 67V60.4545H69.7053V67H68.4311ZM72.6637 65.2145L75.5487 60.4545H76.9208V67H75.6722V62.2358L72.8001 67H71.4151V60.4545H72.6637V65.2145ZM75.0032 58.2386H76.0515C76.0515 58.7187 75.881 59.1094 75.5401 59.4105C75.2021 59.7088 74.7447 59.858 74.168 59.858C73.5941 59.858 73.1381 59.7088 72.8001 59.4105C72.462 59.1094 72.293 58.7187 72.293 58.2386H73.337C73.337 58.4517 73.3995 58.6406 73.5245 58.8054C73.6495 58.9673 73.864 59.0483 74.168 59.0483C74.4663 59.0483 74.6793 58.9673 74.8072 58.8054C74.9379 58.6435 75.0032 58.4545 75.0032 58.2386ZM81.8097 67V60.4545H87.1491V67H85.9006V61.554H83.0497V67H81.8097ZM88.8526 69.4545V60.4545H90.0969V61.5156H90.2035C90.2773 61.3793 90.3839 61.2216 90.5231 61.0426C90.6623 60.8636 90.8555 60.7074 91.1026 60.5739C91.3498 60.4375 91.6765 60.3693 92.0827 60.3693C92.6112 60.3693 93.0827 60.5028 93.4975 60.7699C93.9123 61.0369 94.2376 61.4219 94.4734 61.9247C94.712 62.4276 94.8313 63.0327 94.8313 63.7401C94.8313 64.4474 94.7134 65.054 94.4776 65.5597C94.2418 66.0625 93.918 66.4503 93.506 66.723C93.0941 66.9929 92.6239 67.1278 92.0955 67.1278C91.6978 67.1278 91.3725 67.0611 91.1197 66.9276C90.8697 66.794 90.6737 66.6378 90.5316 66.4588C90.3896 66.2798 90.2802 66.1207 90.2035 65.9815H90.1268V69.4545H88.8526ZM90.1012 63.7273C90.1012 64.1875 90.168 64.5909 90.3015 64.9375C90.435 65.2841 90.6282 65.5554 90.881 65.7514C91.1339 65.9446 91.4435 66.0412 91.81 66.0412C92.1907 66.0412 92.5089 65.9403 92.7646 65.7386C93.0202 65.5341 93.2134 65.2571 93.3441 64.9077C93.4776 64.5582 93.5444 64.1648 93.5444 63.7273C93.5444 63.2955 93.479 62.9077 93.3484 62.5639C93.2205 62.2202 93.0273 61.9489 92.7688 61.75C92.5131 61.5511 92.1935 61.4517 91.81 61.4517C91.4407 61.4517 91.1282 61.5469 90.8725 61.7372C90.6197 61.9276 90.4279 62.1932 90.2972 62.5341C90.1665 62.875 90.1012 63.2727 90.1012 63.7273ZM99.016 67.1321C98.4023 67.1321 97.8668 66.9915 97.4094 66.7102C96.9521 66.429 96.5969 66.0355 96.3441 65.5298C96.0913 65.0241 95.9648 64.4332 95.9648 63.7571C95.9648 63.0781 96.0913 62.4844 96.3441 61.9759C96.5969 61.4673 96.9521 61.0724 97.4094 60.7912C97.8668 60.5099 98.4023 60.3693 99.016 60.3693C99.6296 60.3693 100.165 60.5099 100.623 60.7912C101.08 61.0724 101.435 61.4673 101.688 61.9759C101.941 62.4844 102.067 63.0781 102.067 63.7571C102.067 64.4332 101.941 65.0241 101.688 65.5298C101.435 66.0355 101.08 66.429 100.623 66.7102C100.165 66.9915 99.6296 67.1321 99.016 67.1321ZM99.0202 66.0625C99.418 66.0625 99.7475 65.9574 100.009 65.7472C100.27 65.5369 100.463 65.2571 100.588 64.9077C100.716 64.5582 100.78 64.1733 100.78 63.7528C100.78 63.3352 100.716 62.9517 100.588 62.6023C100.463 62.25 100.27 61.9673 100.009 61.7543C99.7475 61.5412 99.418 61.4347 99.0202 61.4347C98.6197 61.4347 98.2873 61.5412 98.0231 61.7543C97.7617 61.9673 97.5671 62.25 97.4393 62.6023C97.3143 62.9517 97.2518 63.3352 97.2518 63.7528C97.2518 64.1733 97.3143 64.5582 97.4393 64.9077C97.5671 65.2571 97.7617 65.5369 98.0231 65.7472C98.2873 65.9574 98.6197 66.0625 99.0202 66.0625ZM106.31 67.1321C105.665 67.1321 105.11 66.9943 104.644 66.7188C104.181 66.4403 103.823 66.0497 103.57 65.5469C103.32 65.0412 103.195 64.4489 103.195 63.7699C103.195 63.0994 103.32 62.5085 103.57 61.9972C103.823 61.4858 104.175 61.0866 104.627 60.7997C105.082 60.5128 105.613 60.3693 106.221 60.3693C106.59 60.3693 106.948 60.4304 107.295 60.5526C107.641 60.6747 107.952 60.8665 108.228 61.1278C108.504 61.3892 108.721 61.7287 108.88 62.1463C109.039 62.5611 109.119 63.0653 109.119 63.6591V64.1108H103.915V63.1562H107.87C107.87 62.821 107.802 62.5241 107.665 62.2656C107.529 62.0043 107.337 61.7983 107.09 61.6477C106.846 61.4972 106.559 61.4219 106.229 61.4219C105.871 61.4219 105.559 61.5099 105.292 61.6861C105.028 61.8594 104.823 62.0866 104.678 62.3679C104.536 62.6463 104.465 62.9489 104.465 63.2756V64.0213C104.465 64.4588 104.542 64.831 104.695 65.1378C104.852 65.4446 105.069 65.679 105.347 65.8409C105.626 66 105.951 66.0795 106.323 66.0795C106.565 66.0795 106.785 66.0455 106.984 65.9773C107.183 65.9062 107.354 65.8011 107.499 65.6619C107.644 65.5227 107.755 65.3509 107.832 65.1463L109.038 65.3636C108.941 65.7187 108.768 66.0298 108.518 66.2969C108.271 66.5611 107.96 66.767 107.585 66.9148C107.212 67.0597 106.788 67.1321 106.31 67.1321ZM110.532 67V60.4545H111.806V63.1989H112.42L114.581 60.4545H116.157L113.622 63.6378L116.187 67H114.606L112.633 64.3835H111.806V67H110.532ZM116.81 61.554V60.4545H122.333V61.554H120.198V67H118.954V61.554H116.81ZM126.857 67V60.4545H132.196V67H130.947V61.554H128.097V67H126.857ZM136.657 67.1321C136.043 67.1321 135.507 66.9915 135.05 66.7102C134.593 66.429 134.238 66.0355 133.985 65.5298C133.732 65.0241 133.605 64.4332 133.605 63.7571C133.605 63.0781 133.732 62.4844 133.985 61.9759C134.238 61.4673 134.593 61.0724 135.05 60.7912C135.507 60.5099 136.043 60.3693 136.657 60.3693C137.27 60.3693 137.806 60.5099 138.263 60.7912C138.721 61.0724 139.076 61.4673 139.328 61.9759C139.581 62.4844 139.708 63.0781 139.708 63.7571C139.708 64.4332 139.581 65.0241 139.328 65.5298C139.076 66.0355 138.721 66.429 138.263 66.7102C137.806 66.9915 137.27 67.1321 136.657 67.1321ZM136.661 66.0625C137.059 66.0625 137.388 65.9574 137.65 65.7472C137.911 65.5369 138.104 65.2571 138.229 64.9077C138.357 64.5582 138.421 64.1733 138.421 63.7528C138.421 63.3352 138.357 62.9517 138.229 62.6023C138.104 62.25 137.911 61.9673 137.65 61.7543C137.388 61.5412 137.059 61.4347 136.661 61.4347C136.26 61.4347 135.928 61.5412 135.664 61.7543C135.402 61.9673 135.208 62.25 135.08 62.6023C134.955 62.9517 134.892 63.3352 134.892 63.7528C134.892 64.1733 134.955 64.5582 135.08 64.9077C135.208 65.2571 135.402 65.5369 135.664 65.7472C135.928 65.9574 136.26 66.0625 136.661 66.0625ZM144.306 67V60.4545H145.58V63.1989H146.194L148.354 60.4545H149.931L147.395 63.6378L149.961 67H148.38L146.407 64.3835H145.58V67H144.306ZM150.95 69.4545V60.4545H152.195V61.5156H152.301C152.375 61.3793 152.482 61.2216 152.621 61.0426C152.76 60.8636 152.953 60.7074 153.2 60.5739C153.447 60.4375 153.774 60.3693 154.18 60.3693C154.709 60.3693 155.18 60.5028 155.595 60.7699C156.01 61.0369 156.335 61.4219 156.571 61.9247C156.81 62.4276 156.929 63.0327 156.929 63.7401C156.929 64.4474 156.811 65.054 156.575 65.5597C156.339 66.0625 156.016 66.4503 155.604 66.723C155.192 66.9929 154.722 67.1278 154.193 67.1278C153.795 67.1278 153.47 67.0611 153.217 66.9276C152.967 66.794 152.771 66.6378 152.629 66.4588C152.487 66.2798 152.378 66.1207 152.301 65.9815H152.224V69.4545H150.95ZM152.199 63.7273C152.199 64.1875 152.266 64.5909 152.399 64.9375C152.533 65.2841 152.726 65.5554 152.979 65.7514C153.232 65.9446 153.541 66.0412 153.908 66.0412C154.288 66.0412 154.607 65.9403 154.862 65.7386C155.118 65.5341 155.311 65.2571 155.442 64.9077C155.575 64.5582 155.642 64.1648 155.642 63.7273C155.642 63.2955 155.577 62.9077 155.446 62.5639C155.318 62.2202 155.125 61.9489 154.866 61.75C154.611 61.5511 154.291 61.4517 153.908 61.4517C153.538 61.4517 153.226 61.5469 152.97 61.7372C152.717 61.9276 152.526 62.1932 152.395 62.5341C152.264 62.875 152.199 63.2727 152.199 63.7273ZM161.178 67.1321C160.533 67.1321 159.977 66.9943 159.511 66.7188C159.048 66.4403 158.69 66.0497 158.438 65.5469C158.188 65.0412 158.062 64.4489 158.062 63.7699C158.062 63.0994 158.188 62.5085 158.438 61.9972C158.69 61.4858 159.043 61.0866 159.494 60.7997C159.949 60.5128 160.48 60.3693 161.088 60.3693C161.457 60.3693 161.815 60.4304 162.162 60.5526C162.509 60.6747 162.82 60.8665 163.095 61.1278C163.371 61.3892 163.588 61.7287 163.747 62.1463C163.906 62.5611 163.986 63.0653 163.986 63.6591V64.1108H158.783V63.1562H162.737C162.737 62.821 162.669 62.5241 162.533 62.2656C162.396 62.0043 162.205 61.7983 161.957 61.6477C161.713 61.4972 161.426 61.4219 161.097 61.4219C160.739 61.4219 160.426 61.5099 160.159 61.6861C159.895 61.8594 159.69 62.0866 159.545 62.3679C159.403 62.6463 159.332 62.9489 159.332 63.2756V64.0213C159.332 64.4588 159.409 64.831 159.562 65.1378C159.719 65.4446 159.936 65.679 160.214 65.8409C160.493 66 160.818 66.0795 161.19 66.0795C161.432 66.0795 161.652 66.0455 161.851 65.9773C162.05 65.9062 162.222 65.8011 162.366 65.6619C162.511 65.5227 162.622 65.3509 162.699 65.1463L163.905 65.3636C163.808 65.7187 163.635 66.0298 163.385 66.2969C163.138 66.5611 162.827 66.767 162.452 66.9148C162.08 67.0597 161.655 67.1321 161.178 67.1321ZM167.304 67.1449C166.89 67.1449 166.515 67.0682 166.179 66.9148C165.844 66.7585 165.578 66.5327 165.382 66.2372C165.189 65.9418 165.093 65.5795 165.093 65.1506C165.093 64.7812 165.164 64.4773 165.306 64.2386C165.448 64 165.64 63.8111 165.881 63.6719C166.123 63.5327 166.392 63.4276 166.691 63.3565C166.989 63.2855 167.293 63.2315 167.603 63.1946C167.995 63.1491 168.313 63.1122 168.557 63.0838C168.801 63.0526 168.979 63.0028 169.09 62.9347C169.201 62.8665 169.256 62.7557 169.256 62.6023V62.5724C169.256 62.2003 169.151 61.9119 168.941 61.7074C168.733 61.5028 168.424 61.4006 168.012 61.4006C167.583 61.4006 167.245 61.4957 166.998 61.6861C166.753 61.8736 166.584 62.0824 166.49 62.3125L165.293 62.0398C165.435 61.642 165.642 61.321 165.915 61.0767C166.191 60.8295 166.507 60.6506 166.865 60.5398C167.223 60.4261 167.6 60.3693 167.995 60.3693C168.256 60.3693 168.533 60.4006 168.826 60.4631C169.121 60.5227 169.397 60.6335 169.652 60.7955C169.911 60.9574 170.123 61.1889 170.287 61.4901C170.452 61.7884 170.534 62.1761 170.534 62.6534V67H169.29V66.1051H169.239C169.157 66.2699 169.033 66.4318 168.868 66.5909C168.703 66.75 168.492 66.8821 168.233 66.9872C167.975 67.0923 167.665 67.1449 167.304 67.1449ZM167.581 66.1222C167.934 66.1222 168.235 66.0526 168.485 65.9134C168.738 65.7741 168.929 65.5923 169.06 65.3679C169.194 65.1406 169.26 64.8977 169.26 64.6392V63.7955C169.215 63.8409 169.127 63.8835 168.996 63.9233C168.868 63.9602 168.722 63.9929 168.557 64.0213C168.392 64.0469 168.232 64.071 168.076 64.0938C167.919 64.1136 167.789 64.1307 167.684 64.1449C167.436 64.1761 167.211 64.2287 167.006 64.3026C166.804 64.3764 166.642 64.483 166.52 64.6222C166.401 64.7585 166.341 64.9403 166.341 65.1676C166.341 65.483 166.458 65.7216 166.691 65.8835C166.924 66.0426 167.221 66.1222 167.581 66.1222ZM171.42 61.554V60.4545H176.942V61.554H174.808V67H173.563V61.554H171.42ZM179.539 65.2145L182.424 60.4545H183.796V67H182.547V62.2358L179.675 67H178.29V60.4545H179.539V65.2145ZM185.509 67V60.4545H188.223C188.962 60.4545 189.547 60.6122 189.979 60.9276C190.411 61.2401 190.627 61.6648 190.627 62.2017C190.627 62.5852 190.505 62.8892 190.26 63.1136C190.016 63.3381 189.692 63.4886 189.289 63.5653C189.581 63.5994 189.85 63.6875 190.094 63.8295C190.338 63.9687 190.534 64.1562 190.682 64.392C190.833 64.6278 190.908 64.9091 190.908 65.2358C190.908 65.5824 190.819 65.8892 190.64 66.1562C190.461 66.4205 190.201 66.6278 189.86 66.7784C189.522 66.9261 189.114 67 188.637 67H185.509ZM186.706 65.9347H188.637C188.952 65.9347 189.199 65.8594 189.378 65.7088C189.557 65.5582 189.647 65.3537 189.647 65.0952C189.647 64.7912 189.557 64.5526 189.378 64.3793C189.199 64.2031 188.952 64.1151 188.637 64.1151H186.706V65.9347ZM186.706 63.1818H188.236C188.475 63.1818 188.679 63.1477 188.85 63.0795C189.023 63.0114 189.155 62.9148 189.246 62.7898C189.34 62.6619 189.387 62.5114 189.387 62.3381C189.387 62.0852 189.283 61.8878 189.076 61.7457C188.868 61.6037 188.584 61.5327 188.223 61.5327H186.706V63.1818ZM196.742 63.1776V64.2812H193.196V63.1776H196.742ZM193.554 60.4545V67H192.306V60.4545H193.554ZM197.632 60.4545V67H196.388V60.4545H197.632ZM202.094 67.1321C201.48 67.1321 200.945 66.9915 200.488 66.7102C200.03 66.429 199.675 66.0355 199.422 65.5298C199.169 65.0241 199.043 64.4332 199.043 63.7571C199.043 63.0781 199.169 62.4844 199.422 61.9759C199.675 61.4673 200.03 61.0724 200.488 60.7912C200.945 60.5099 201.48 60.3693 202.094 60.3693C202.708 60.3693 203.243 60.5099 203.701 60.7912C204.158 61.0724 204.513 61.4673 204.766 61.9759C205.019 62.4844 205.145 63.0781 205.145 63.7571C205.145 64.4332 205.019 65.0241 204.766 65.5298C204.513 66.0355 204.158 66.429 203.701 66.7102C203.243 66.9915 202.708 67.1321 202.094 67.1321ZM202.098 66.0625C202.496 66.0625 202.826 65.9574 203.087 65.7472C203.348 65.5369 203.542 65.2571 203.667 64.9077C203.794 64.5582 203.858 64.1733 203.858 63.7528C203.858 63.3352 203.794 62.9517 203.667 62.6023C203.542 62.25 203.348 61.9673 203.087 61.7543C202.826 61.5412 202.496 61.4347 202.098 61.4347C201.698 61.4347 201.365 61.5412 201.101 61.7543C200.84 61.9673 200.645 62.25 200.517 62.6023C200.392 62.9517 200.33 63.3352 200.33 63.7528C200.33 64.1733 200.392 64.5582 200.517 64.9077C200.645 65.2571 200.84 65.5369 201.101 65.7472C201.365 65.9574 201.698 66.0625 202.098 66.0625ZM210.241 65.4233L212.354 60.4545H213.454L210.714 67H209.768L207.083 60.4545H208.17L210.241 65.4233ZM207.816 60.4545V67H206.567V60.4545H207.816ZM212.7 67V60.4545H213.94V67H212.7ZM216.209 69.4545C216.018 69.4545 215.845 69.4389 215.689 69.4077C215.533 69.3793 215.416 69.348 215.339 69.3139L215.646 68.2699C215.879 68.3324 216.087 68.3594 216.268 68.3509C216.45 68.3423 216.611 68.2741 216.75 68.1463C216.892 68.0185 217.017 67.8097 217.125 67.5199L217.283 67.0852L214.888 60.4545H216.251L217.909 65.5341H217.977L219.635 60.4545H221.003L218.305 67.8736C218.18 68.2145 218.021 68.5028 217.828 68.7386C217.635 68.9773 217.405 69.1563 217.138 69.2756C216.871 69.3949 216.561 69.4545 216.209 69.4545ZM33.8565 82V75.4545H39.196V82H37.9474V76.554H35.0966V82H33.8565ZM40.8995 84.4545V75.4545H42.1438V76.5156H42.2504C42.3242 76.3793 42.4308 76.2216 42.57 76.0426C42.7092 75.8636 42.9023 75.7074 43.1495 75.5739C43.3967 75.4375 43.7234 75.3693 44.1296 75.3693C44.658 75.3693 45.1296 75.5028 45.5444 75.7699C45.9592 76.0369 46.2844 76.4219 46.5202 76.9247C46.7589 77.4276 46.8782 78.0327 46.8782 78.7401C46.8782 79.4474 46.7603 80.054 46.5245 80.5597C46.2887 81.0625 45.9648 81.4503 45.5529 81.723C45.141 81.9929 44.6708 82.1278 44.1424 82.1278C43.7447 82.1278 43.4194 82.0611 43.1665 81.9276C42.9165 81.794 42.7205 81.6378 42.5785 81.4588C42.4364 81.2798 42.3271 81.1207 42.2504 80.9815H42.1737V84.4545H40.8995ZM42.1481 78.7273C42.1481 79.1875 42.2148 79.5909 42.3484 79.9375C42.4819 80.2841 42.6751 80.5554 42.9279 80.7514C43.1808 80.9446 43.4904 81.0412 43.8569 81.0412C44.2376 81.0412 44.5558 80.9403 44.8114 80.7386C45.0671 80.5341 45.2603 80.2571 45.391 79.9077C45.5245 79.5582 45.5913 79.1648 45.5913 78.7273C45.5913 78.2955 45.5259 77.9077 45.3952 77.5639C45.2674 77.2202 45.0742 76.9489 44.8157 76.75C44.56 76.5511 44.2404 76.4517 43.8569 76.4517C43.4876 76.4517 43.1751 76.5469 42.9194 76.7372C42.6665 76.9276 42.4748 77.1932 42.3441 77.5341C42.2134 77.875 42.1481 78.2727 42.1481 78.7273ZM51.0629 82.1321C50.4492 82.1321 49.9137 81.9915 49.4563 81.7102C48.9989 81.429 48.6438 81.0355 48.391 80.5298C48.1381 80.0241 48.0117 79.4332 48.0117 78.7571C48.0117 78.0781 48.1381 77.4844 48.391 76.9759C48.6438 76.4673 48.9989 76.0724 49.4563 75.7912C49.9137 75.5099 50.4492 75.3693 51.0629 75.3693C51.6765 75.3693 52.212 75.5099 52.6694 75.7912C53.1268 76.0724 53.4819 76.4673 53.7347 76.9759C53.9876 77.4844 54.114 78.0781 54.114 78.7571C54.114 79.4332 53.9876 80.0241 53.7347 80.5298C53.4819 81.0355 53.1268 81.429 52.6694 81.7102C52.212 81.9915 51.6765 82.1321 51.0629 82.1321ZM51.0671 81.0625C51.4648 81.0625 51.7944 80.9574 52.0558 80.7472C52.3171 80.5369 52.5103 80.2571 52.6353 79.9077C52.7631 79.5582 52.8271 79.1733 52.8271 78.7528C52.8271 78.3352 52.7631 77.9517 52.6353 77.6023C52.5103 77.25 52.3171 76.9673 52.0558 76.7543C51.7944 76.5412 51.4648 76.4347 51.0671 76.4347C50.6665 76.4347 50.3342 76.5412 50.07 76.7543C49.8086 76.9673 49.614 77.25 49.4862 77.6023C49.3612 77.9517 49.2987 78.3352 49.2987 78.7528C49.2987 79.1733 49.3612 79.5582 49.4862 79.9077C49.614 80.2571 49.8086 80.5369 50.07 80.7472C50.3342 80.9574 50.6665 81.0625 51.0671 81.0625ZM58.3572 82.1321C57.7124 82.1321 57.157 81.9943 56.6911 81.7188C56.228 81.4403 55.87 81.0497 55.6172 80.5469C55.3672 80.0412 55.2422 79.4489 55.2422 78.7699C55.2422 78.0994 55.3672 77.5085 55.6172 76.9972C55.87 76.4858 56.2223 76.0866 56.674 75.7997C57.1286 75.5128 57.6598 75.3693 58.2678 75.3693C58.6371 75.3693 58.995 75.4304 59.3416 75.5526C59.6882 75.6747 59.9993 75.8665 60.2749 76.1278C60.5504 76.3892 60.7678 76.7287 60.9268 77.1463C61.0859 77.5611 61.1655 78.0653 61.1655 78.6591V79.1108H55.9624V78.1562H59.9169C59.9169 77.821 59.8487 77.5241 59.7124 77.2656C59.576 77.0043 59.3842 76.7983 59.1371 76.6477C58.8928 76.4972 58.6058 76.4219 58.2763 76.4219C57.9183 76.4219 57.6058 76.5099 57.3388 76.6861C57.0746 76.8594 56.87 77.0866 56.7251 77.3679C56.5831 77.6463 56.5121 77.9489 56.5121 78.2756V79.0213C56.5121 79.4588 56.5888 79.831 56.7422 80.1378C56.8984 80.4446 57.1158 80.679 57.3942 80.8409C57.6726 81 57.9979 81.0795 58.37 81.0795C58.6115 81.0795 58.8317 81.0455 59.0305 80.9773C59.2294 80.9062 59.4013 80.8011 59.5462 80.6619C59.6911 80.5227 59.8018 80.3509 59.8786 80.1463L61.0845 80.3636C60.9879 80.7187 60.8146 81.0298 60.5646 81.2969C60.3175 81.5611 60.0064 81.767 59.6314 81.9148C59.2592 82.0597 58.8345 82.1321 58.3572 82.1321ZM62.5792 82V75.4545H63.8533V78.1989H64.467L66.6275 75.4545H68.2042L65.6687 78.6378L68.234 82H66.6531L64.68 79.3835H63.8533V82H62.5792ZM68.8572 76.554V75.4545H74.38V76.554H72.245V82H71.0007V76.554H68.8572ZM76.9762 80.2145L79.8612 75.4545H81.2333V82H79.9847V77.2358L77.1126 82H75.7276V75.4545H76.9762V80.2145ZM82.9464 84.4545V75.4545H84.1907V76.5156H84.2972C84.3711 76.3793 84.4776 76.2216 84.6168 76.0426C84.756 75.8636 84.9492 75.7074 85.1964 75.5739C85.4435 75.4375 85.7702 75.3693 86.1765 75.3693C86.7049 75.3693 87.1765 75.5028 87.5913 75.7699C88.006 76.0369 88.3313 76.4219 88.5671 76.9247C88.8058 77.4276 88.9251 78.0327 88.9251 78.7401C88.9251 79.4474 88.8072 80.054 88.5714 80.5597C88.3356 81.0625 88.0117 81.4503 87.5998 81.723C87.1879 81.9929 86.7177 82.1278 86.1893 82.1278C85.7915 82.1278 85.4663 82.0611 85.2134 81.9276C84.9634 81.794 84.7674 81.6378 84.6254 81.4588C84.4833 81.2798 84.3739 81.1207 84.2972 80.9815H84.2205V84.4545H82.9464ZM84.195 78.7273C84.195 79.1875 84.2617 79.5909 84.3952 79.9375C84.5288 80.2841 84.7219 80.5554 84.9748 80.7514C85.2276 80.9446 85.5373 81.0412 85.9038 81.0412C86.2844 81.0412 86.6026 80.9403 86.8583 80.7386C87.114 80.5341 87.3072 80.2571 87.4379 79.9077C87.5714 79.5582 87.6381 79.1648 87.6381 78.7273C87.6381 78.2955 87.5728 77.9077 87.4421 77.5639C87.3143 77.2202 87.1211 76.9489 86.8626 76.75C86.6069 76.5511 86.2873 76.4517 85.9038 76.4517C85.5344 76.4517 85.2219 76.5469 84.9663 76.7372C84.7134 76.9276 84.5217 77.1932 84.391 77.5341C84.2603 77.875 84.195 78.2727 84.195 78.7273ZM93.1097 82.1321C92.4961 82.1321 91.9606 81.9915 91.5032 81.7102C91.0458 81.429 90.6907 81.0355 90.4379 80.5298C90.185 80.0241 90.0586 79.4332 90.0586 78.7571C90.0586 78.0781 90.185 77.4844 90.4379 76.9759C90.6907 76.4673 91.0458 76.0724 91.5032 75.7912C91.9606 75.5099 92.4961 75.3693 93.1097 75.3693C93.7234 75.3693 94.2589 75.5099 94.7163 75.7912C95.1737 76.0724 95.5288 76.4673 95.7816 76.9759C96.0344 77.4844 96.1609 78.0781 96.1609 78.7571C96.1609 79.4332 96.0344 80.0241 95.7816 80.5298C95.5288 81.0355 95.1737 81.429 94.7163 81.7102C94.2589 81.9915 93.7234 82.1321 93.1097 82.1321ZM93.114 81.0625C93.5117 81.0625 93.8413 80.9574 94.1026 80.7472C94.364 80.5369 94.5572 80.2571 94.6822 79.9077C94.81 79.5582 94.8739 79.1733 94.8739 78.7528C94.8739 78.3352 94.81 77.9517 94.6822 77.6023C94.5572 77.25 94.364 76.9673 94.1026 76.7543C93.8413 76.5412 93.5117 76.4347 93.114 76.4347C92.7134 76.4347 92.381 76.5412 92.1168 76.7543C91.8555 76.9673 91.6609 77.25 91.533 77.6023C91.408 77.9517 91.3455 78.3352 91.3455 78.7528C91.3455 79.1733 91.408 79.5582 91.533 79.9077C91.6609 80.2571 91.8555 80.5369 92.1168 80.7472C92.381 80.9574 92.7134 81.0625 93.114 81.0625ZM97.5831 82V75.4545H100.298C101.036 75.4545 101.621 75.6122 102.053 75.9276C102.485 76.2401 102.701 76.6648 102.701 77.2017C102.701 77.5852 102.579 77.8892 102.335 78.1136C102.09 78.3381 101.766 78.4886 101.363 78.5653C101.656 78.5994 101.924 78.6875 102.168 78.8295C102.413 78.9687 102.609 79.1562 102.756 79.392C102.907 79.6278 102.982 79.9091 102.982 80.2358C102.982 80.5824 102.893 80.8892 102.714 81.1562C102.535 81.4205 102.275 81.6278 101.934 81.7784C101.596 81.9261 101.188 82 100.711 82H97.5831ZM98.7805 80.9347H100.711C101.026 80.9347 101.273 80.8594 101.452 80.7088C101.631 80.5582 101.721 80.3537 101.721 80.0952C101.721 79.7912 101.631 79.5526 101.452 79.3793C101.273 79.2031 101.026 79.1151 100.711 79.1151H98.7805V80.9347ZM98.7805 78.1818H100.31C100.549 78.1818 100.754 78.1477 100.924 78.0795C101.097 78.0114 101.229 77.9148 101.32 77.7898C101.414 77.6619 101.461 77.5114 101.461 77.3381C101.461 77.0852 101.357 76.8878 101.15 76.7457C100.942 76.6037 100.658 76.5327 100.298 76.5327H98.7805V78.1818ZM106.285 82.1449C105.87 82.1449 105.495 82.0682 105.16 81.9148C104.825 81.7585 104.559 81.5327 104.363 81.2372C104.17 80.9418 104.073 80.5795 104.073 80.1506C104.073 79.7812 104.144 79.4773 104.286 79.2386C104.428 79 104.62 78.8111 104.862 78.6719C105.103 78.5327 105.373 78.4276 105.671 78.3565C105.969 78.2855 106.273 78.2315 106.583 78.1946C106.975 78.1491 107.293 78.1122 107.538 78.0838C107.782 78.0526 107.96 78.0028 108.07 77.9347C108.181 77.8665 108.237 77.7557 108.237 77.6023V77.5724C108.237 77.2003 108.131 76.9119 107.921 76.7074C107.714 76.5028 107.404 76.4006 106.992 76.4006C106.563 76.4006 106.225 76.4957 105.978 76.6861C105.734 76.8736 105.565 77.0824 105.471 77.3125L104.273 77.0398C104.415 76.642 104.623 76.321 104.896 76.0767C105.171 75.8295 105.488 75.6506 105.846 75.5398C106.204 75.4261 106.58 75.3693 106.975 75.3693C107.237 75.3693 107.513 75.4006 107.806 75.4631C108.102 75.5227 108.377 75.6335 108.633 75.7955C108.891 75.9574 109.103 76.1889 109.268 76.4901C109.433 76.7884 109.515 77.1761 109.515 77.6534V82H108.271V81.1051H108.219C108.137 81.2699 108.013 81.4318 107.849 81.5909C107.684 81.75 107.472 81.8821 107.214 81.9872C106.955 82.0923 106.646 82.1449 106.285 82.1449ZM106.562 81.1222C106.914 81.1222 107.215 81.0526 107.465 80.9134C107.718 80.7741 107.91 80.5923 108.04 80.3679C108.174 80.1406 108.241 79.8977 108.241 79.6392V78.7955C108.195 78.8409 108.107 78.8835 107.977 78.9233C107.849 78.9602 107.702 78.9929 107.538 79.0213C107.373 79.0469 107.212 79.071 107.056 79.0938C106.9 79.1136 106.769 79.1307 106.664 79.1449C106.417 79.1761 106.191 79.2287 105.987 79.3026C105.785 79.3764 105.623 79.483 105.501 79.6222C105.381 79.7585 105.322 79.9403 105.322 80.1676C105.322 80.483 105.438 80.7216 105.671 80.8835C105.904 81.0426 106.201 81.1222 106.562 81.1222ZM115.648 78.1776V79.2812H112.103V78.1776H115.648ZM112.461 75.4545V82H111.212V75.4545H112.461ZM116.539 75.4545V82H115.294V75.4545H116.539ZM119.492 80.2145L122.377 75.4545H123.749V82H122.5V77.2358L119.628 82H118.243V75.4545H119.492V80.2145ZM128.756 78.2244V79.3324H125.266V78.2244H128.756ZM126.301 75.4545V82H125.027V75.4545H126.301ZM130.75 82.1321C130.142 82.1321 129.611 81.9901 129.157 81.706C128.702 81.4219 128.35 81.027 128.1 80.5213C127.85 80.0128 127.725 79.4233 127.725 78.7528C127.725 78.0767 127.85 77.4858 128.1 76.9801C128.35 76.4716 128.702 76.0767 129.157 75.7955C129.611 75.5114 130.142 75.3693 130.75 75.3693C131.361 75.3693 131.892 75.5114 132.344 75.7955C132.799 76.0767 133.151 76.4716 133.401 76.9801C133.654 77.4858 133.78 78.0767 133.78 78.7528C133.78 79.4233 133.654 80.0128 133.401 80.5213C133.151 81.027 132.799 81.4219 132.344 81.706C131.892 81.9901 131.361 82.1321 130.75 82.1321ZM130.75 81.0412C131.162 81.0412 131.499 80.9375 131.76 80.7301C132.025 80.5199 132.219 80.2415 132.344 79.8949C132.469 79.5483 132.532 79.1676 132.532 78.7528C132.532 78.3352 132.469 77.9531 132.344 77.6065C132.219 77.2571 132.025 76.9773 131.76 76.767C131.499 76.5568 131.162 76.4517 130.75 76.4517C130.341 76.4517 130.005 76.5568 129.74 76.767C129.476 76.9773 129.282 77.2571 129.157 77.6065C129.032 77.9531 128.969 78.3352 128.969 78.7528C128.969 79.1676 129.032 79.5483 129.157 79.8949C129.282 80.2415 129.476 80.5199 129.74 80.7301C130.005 80.9375 130.341 81.0412 130.75 81.0412ZM138.36 82V73.2727H140.205V77.1207H140.32L143.461 73.2727H145.673L142.434 77.1804L145.711 82H143.504L141.113 78.4119L140.205 79.5199V82H138.36ZM148.479 73.2727V82H146.634V73.2727H148.479ZM157.297 73.2727V82H155.703L151.906 76.5071H151.842V82H149.997V73.2727H151.616L155.383 78.7614H155.46V73.2727H157.297ZM158.489 74.794V73.2727H165.656V74.794H162.984V82H161.161V74.794H158.489ZM171.571 75.7827C171.537 75.4389 171.391 75.1719 171.132 74.9815C170.874 74.7912 170.523 74.696 170.08 74.696C169.778 74.696 169.524 74.7386 169.317 74.8239C169.109 74.9062 168.95 75.0213 168.839 75.169C168.732 75.3168 168.678 75.4844 168.678 75.6719C168.672 75.8281 168.705 75.9645 168.776 76.081C168.849 76.1974 168.95 76.2983 169.078 76.3835C169.206 76.4659 169.354 76.5384 169.521 76.6009C169.689 76.6605 169.868 76.7116 170.058 76.7543L170.842 76.9418C171.223 77.027 171.572 77.1406 171.891 77.2827C172.209 77.4247 172.484 77.5994 172.717 77.8068C172.95 78.0142 173.131 78.2585 173.259 78.5398C173.389 78.821 173.456 79.1435 173.459 79.5071C173.456 80.0412 173.32 80.5043 173.05 80.8963C172.783 81.2855 172.396 81.5881 171.891 81.804C171.388 82.017 170.781 82.1236 170.071 82.1236C169.366 82.1236 168.753 82.0156 168.23 81.7997C167.71 81.5838 167.304 81.2642 167.011 80.8409C166.722 80.4148 166.57 79.8878 166.555 79.2599H168.341C168.361 79.5526 168.445 79.7969 168.592 79.9929C168.743 80.1861 168.943 80.3324 169.193 80.4318C169.446 80.5284 169.732 80.5767 170.05 80.5767C170.362 80.5767 170.634 80.5312 170.864 80.4403C171.097 80.3494 171.277 80.223 171.405 80.0611C171.533 79.8991 171.597 79.7131 171.597 79.5028C171.597 79.3068 171.538 79.142 171.422 79.0085C171.308 78.875 171.141 78.7614 170.919 78.6676C170.7 78.5739 170.432 78.4886 170.114 78.4119L169.163 78.1733C168.428 77.9943 167.847 77.7145 167.42 77.3338C166.994 76.9531 166.783 76.4403 166.786 75.7955C166.783 75.267 166.923 74.8054 167.207 74.4105C167.494 74.0156 167.888 73.7074 168.388 73.4858C168.888 73.2642 169.456 73.1534 170.092 73.1534C170.74 73.1534 171.305 73.2642 171.788 73.4858C172.274 73.7074 172.652 74.0156 172.922 74.4105C173.192 74.8054 173.331 75.2628 173.339 75.7827H171.571ZM180.091 73.2727H181.936V78.9403C181.936 79.5767 181.784 80.1335 181.48 80.6108C181.179 81.0881 180.757 81.4602 180.214 81.7273C179.672 81.9915 179.039 82.1236 178.318 82.1236C177.593 82.1236 176.96 81.9915 176.417 81.7273C175.875 81.4602 175.453 81.0881 175.152 80.6108C174.85 80.1335 174.7 79.5767 174.7 78.9403V73.2727H176.545V78.7827C176.545 79.1151 176.618 79.4105 176.762 79.669C176.91 79.9276 177.118 80.1307 177.385 80.2784C177.652 80.4261 177.963 80.5 178.318 80.5C178.676 80.5 178.987 80.4261 179.251 80.2784C179.518 80.1307 179.724 79.9276 179.869 79.669C180.017 79.4105 180.091 79.1151 180.091 78.7827V73.2727ZM189.241 76.0938C189.181 75.8864 189.097 75.7031 188.989 75.544C188.881 75.3821 188.749 75.2457 188.593 75.1349C188.44 75.0213 188.263 74.9347 188.065 74.875C187.869 74.8153 187.651 74.7855 187.413 74.7855C186.967 74.7855 186.575 74.8963 186.237 75.1179C185.901 75.3395 185.64 75.6619 185.452 76.0852C185.265 76.5057 185.171 77.0199 185.171 77.6278C185.171 78.2358 185.263 78.7528 185.448 79.179C185.633 79.6051 185.894 79.9304 186.232 80.1548C186.57 80.3764 186.969 80.4872 187.43 80.4872C187.847 80.4872 188.204 80.4134 188.499 80.2656C188.798 80.1151 189.025 79.9034 189.181 79.6307C189.34 79.358 189.42 79.0355 189.42 78.6634L189.795 78.7188H187.545V77.3295H191.197V78.429C191.197 79.196 191.035 79.8551 190.711 80.4062C190.387 80.9545 189.941 81.3778 189.373 81.6761C188.805 81.9716 188.154 82.1193 187.421 82.1193C186.603 82.1193 185.884 81.9389 185.265 81.5781C184.646 81.2145 184.163 80.6989 183.816 80.0312C183.472 79.3608 183.3 78.5653 183.3 77.6449C183.3 76.9375 183.403 76.3068 183.607 75.7528C183.815 75.196 184.104 74.7244 184.477 74.3381C184.849 73.9517 185.282 73.6577 185.776 73.456C186.271 73.2543 186.806 73.1534 187.383 73.1534C187.877 73.1534 188.337 73.2259 188.763 73.3707C189.19 73.5128 189.567 73.7145 189.897 73.9759C190.229 74.2372 190.501 74.5483 190.711 74.9091C190.921 75.267 191.056 75.6619 191.116 76.0938H189.241ZM194.428 73.2727V82H192.583V73.2727H194.428Z" fill="black"/>
<path d="M137.602 84.3864H195.191V85.2045H137.602V84.3864Z" fill="black"/>
<path d="M28 1H11C5.47715 1 1 5.47715 1 11V62C1 67.5229 5.47715 72 11 72H28" stroke="#FFFD00" stroke-width="2"/>
</svg>
