<svg width="114" height="43" viewBox="0 0 114 43" fill="none" xmlns="http://www.w3.org/2000/svg">
<rect x="0.75" y="0.75" width="112.5" height="41.5" rx="17.25" fill="black"/>
<rect x="0.75" y="0.75" width="112.5" height="41.5" rx="17.25" stroke="#FFFD00" stroke-width="1.5"/>
<path d="M16.2848 28V18.1818H18.196V22.2983H19.1165L22.3572 18.1818H24.7223L20.919 22.9567L24.767 28H22.3956L19.4361 24.0753H18.196V28H16.2848ZM29.983 28.1982C29.0625 28.1982 28.2592 27.9872 27.5732 27.5653C26.8871 27.1435 26.3544 26.5533 25.9751 25.7947C25.5959 25.0362 25.4062 24.1499 25.4062 23.1357C25.4062 22.1172 25.5959 21.2266 25.9751 20.4638C26.3544 19.701 26.8871 19.1087 27.5732 18.6868C28.2592 18.2649 29.0625 18.054 29.983 18.054C30.9034 18.054 31.7067 18.2649 32.3928 18.6868C33.0788 19.1087 33.6115 19.701 33.9908 20.4638C34.37 21.2266 34.5597 22.1172 34.5597 23.1357C34.5597 24.1499 34.37 25.0362 33.9908 25.7947C33.6115 26.5533 33.0788 27.1435 32.3928 27.5653C31.7067 27.9872 30.9034 28.1982 29.983 28.1982ZM29.9893 26.5938C30.5859 26.5938 31.0803 26.4361 31.4723 26.1207C31.8643 25.8054 32.1541 25.3857 32.3416 24.8615C32.5334 24.3374 32.6293 23.7599 32.6293 23.1293C32.6293 22.5028 32.5334 21.9276 32.3416 21.4034C32.1541 20.875 31.8643 20.451 31.4723 20.1314C31.0803 19.8118 30.5859 19.652 29.9893 19.652C29.3885 19.652 28.8899 19.8118 28.4936 20.1314C28.1016 20.451 27.8097 20.875 27.6179 21.4034C27.4304 21.9276 27.3366 22.5028 27.3366 23.1293C27.3366 23.7599 27.4304 24.3374 27.6179 24.8615C27.8097 25.3857 28.1016 25.8054 28.4936 26.1207C28.8899 26.4361 29.3885 26.5938 29.9893 26.5938ZM43.3471 22.2663V23.9219H38.0289V22.2663H43.3471ZM38.5659 18.1818V28H36.693V18.1818H38.5659ZM44.6831 18.1818V28H42.8166V18.1818H44.6831ZM46.0222 19.831V18.1818H54.3063V19.831H51.1039V28H49.2374V19.831H46.0222ZM58.728 28.2173C58.1058 28.2173 57.5433 28.1023 57.0405 27.8722C56.5376 27.6378 56.1392 27.299 55.8452 26.8558C55.5554 26.4126 55.4105 25.8693 55.4105 25.2259C55.4105 24.6719 55.517 24.2159 55.7301 23.858C55.9432 23.5 56.2308 23.2166 56.593 23.0078C56.9553 22.799 57.3601 22.6413 57.8075 22.5348C58.255 22.4283 58.7109 22.3473 59.1754 22.2919C59.7635 22.2237 60.2408 22.1683 60.6072 22.1257C60.9737 22.0788 61.2401 22.0043 61.4062 21.902C61.5724 21.7997 61.6555 21.6335 61.6555 21.4034V21.3587C61.6555 20.8004 61.4979 20.3679 61.1825 20.0611C60.8714 19.7543 60.407 19.6009 59.7891 19.6009C59.1456 19.6009 58.6385 19.7436 58.2678 20.0291C57.9013 20.3104 57.6477 20.6236 57.5071 20.9688L55.7109 20.5597C55.924 19.9631 56.2351 19.4815 56.6442 19.1151C57.0575 18.7443 57.5327 18.4759 58.0696 18.3097C58.6065 18.1392 59.1712 18.054 59.7635 18.054C60.1555 18.054 60.571 18.1009 61.0099 18.1946C61.4531 18.2841 61.8665 18.4503 62.25 18.6932C62.6378 18.9361 62.9553 19.2834 63.2024 19.7351C63.4496 20.1825 63.5732 20.7642 63.5732 21.4801V28H61.7067V26.6577H61.63C61.5064 26.9048 61.321 27.1477 61.0739 27.3864C60.8267 27.625 60.5092 27.8232 60.1214 27.9808C59.7337 28.1385 59.2692 28.2173 58.728 28.2173ZM59.1435 26.6832C59.6719 26.6832 60.1236 26.5788 60.4986 26.37C60.8778 26.1612 61.1655 25.8885 61.3615 25.5518C61.5618 25.2109 61.6619 24.8466 61.6619 24.4588V23.1932C61.5938 23.2614 61.4616 23.3253 61.2656 23.3849C61.0739 23.4403 60.8544 23.4893 60.6072 23.532C60.3601 23.5703 60.1193 23.6065 59.8849 23.6406C59.6506 23.6705 59.4545 23.696 59.2969 23.7173C58.9261 23.7642 58.5874 23.843 58.2805 23.9538C57.978 24.0646 57.7351 24.2244 57.5518 24.4332C57.3729 24.6378 57.2834 24.9105 57.2834 25.2514C57.2834 25.7244 57.4581 26.0824 57.8075 26.3253C58.157 26.5639 58.6023 26.6832 59.1435 26.6832ZM66.1188 28V18.1818H68.03V22.2983H68.9505L72.1912 18.1818H74.5563L70.753 22.9567L74.601 28H72.2296L69.2701 24.0753H68.03V28H66.1188ZM75.5359 19.831V18.1818H83.82V19.831H80.6175V28H78.7511V19.831H75.5359ZM87.2797 21.5568H90.1305C91.3322 21.5568 92.2569 21.8551 92.9047 22.4517C93.5524 23.0483 93.8762 23.8175 93.8762 24.7592C93.8762 25.3729 93.7314 25.9247 93.4416 26.4148C93.1518 26.9048 92.7278 27.2926 92.1696 27.5781C91.6113 27.8594 90.9316 28 90.1305 28H85.8414V18.1818H87.7143V26.3509H90.1305C90.6802 26.3509 91.1319 26.2081 91.4856 25.9226C91.8393 25.6328 92.0162 25.2642 92.0162 24.8168C92.0162 24.3437 91.8393 23.9581 91.4856 23.6598C91.1319 23.3572 90.6802 23.206 90.1305 23.206H87.2797V21.5568ZM95.2697 28V18.1818H97.1809V28H95.2697Z" fill="#FFFD00"/>
</svg>
