<svg width="102" height="43" viewBox="0 0 102 43" fill="none" xmlns="http://www.w3.org/2000/svg">
<rect x="0.75" y="0.75" width="100.5" height="41.5" rx="17.25" fill="black"/>
<rect x="0.75" y="0.75" width="100.5" height="41.5" rx="17.25" stroke="#FFFD00" stroke-width="1.5"/>
<path d="M20.4205 28.1982C19.5 28.1982 18.6967 27.9872 18.0107 27.5653C17.3246 27.1435 16.7919 26.5533 16.4126 25.7947C16.0334 25.0362 15.8438 24.1499 15.8438 23.1357C15.8438 22.1172 16.0334 21.2266 16.4126 20.4638C16.7919 19.701 17.3246 19.1087 18.0107 18.6868C18.6967 18.2649 19.5 18.054 20.4205 18.054C21.3409 18.054 22.1442 18.2649 22.8303 18.6868C23.5163 19.1087 24.049 19.701 24.4283 20.4638C24.8075 21.2266 24.9972 22.1172 24.9972 23.1357C24.9972 24.1499 24.8075 25.0362 24.4283 25.7947C24.049 26.5533 23.5163 27.1435 22.8303 27.5653C22.1442 27.9872 21.3409 28.1982 20.4205 28.1982ZM20.4268 26.5938C21.0234 26.5938 21.5178 26.4361 21.9098 26.1207C22.3018 25.8054 22.5916 25.3857 22.7791 24.8615C22.9709 24.3374 23.0668 23.7599 23.0668 23.1293C23.0668 22.5028 22.9709 21.9276 22.7791 21.4034C22.5916 20.875 22.3018 20.451 21.9098 20.1314C21.5178 19.8118 21.0234 19.652 20.4268 19.652C19.826 19.652 19.3274 19.8118 18.9311 20.1314C18.5391 20.451 18.2472 20.875 18.0554 21.4034C17.8679 21.9276 17.7741 22.5028 17.7741 23.1293C17.7741 23.7599 17.8679 24.3374 18.0554 24.8615C18.2472 25.3857 18.5391 25.8054 18.9311 26.1207C19.3274 26.4361 19.826 26.5938 20.4268 26.5938ZM34.7051 14.5256L35.4977 15.7337C35.2037 16.0021 34.8691 16.1939 34.4941 16.3089C34.1234 16.4197 33.6951 16.4901 33.2093 16.5199C32.7235 16.5455 32.1674 16.5689 31.541 16.5902C30.8336 16.6115 30.252 16.7649 29.796 17.0504C29.34 17.3317 28.9885 17.7493 28.7413 18.3033C28.4984 18.853 28.3407 19.5433 28.2683 20.3743H28.3897C28.7093 19.7649 29.1525 19.3089 29.7193 19.0064C30.2903 18.7038 30.9316 18.5526 31.6433 18.5526C32.4359 18.5526 33.1412 18.7337 33.7591 19.0959C34.377 19.4581 34.8627 19.9886 35.2164 20.6875C35.5744 21.3821 35.7534 22.2322 35.7534 23.2379C35.7534 24.2564 35.5659 25.1364 35.1909 25.8778C34.8201 26.6193 34.296 27.1925 33.6184 27.5973C32.9451 27.9979 32.1504 28.1982 31.2342 28.1982C30.318 28.1982 29.519 27.9915 28.8372 27.5781C28.1596 27.1605 27.6333 26.5426 27.2583 25.7244C26.8876 24.9062 26.7022 23.8963 26.7022 22.6946V21.723C26.7022 19.4773 27.1028 17.7876 27.9039 16.6541C28.7051 15.5206 29.9025 14.9389 31.4963 14.9091C32.0119 14.8963 32.4721 14.8942 32.877 14.9027C33.2818 14.907 33.6355 14.8878 33.938 14.8452C34.2449 14.7983 34.5005 14.6918 34.7051 14.5256ZM31.2406 26.5938C31.7733 26.5938 32.2314 26.4595 32.6149 26.1911C33.0027 25.9183 33.301 25.5327 33.5098 25.0341C33.7186 24.5355 33.823 23.9474 33.823 23.2699C33.823 22.6051 33.7186 22.0405 33.5098 21.576C33.301 21.1115 33.0027 20.7578 32.6149 20.5149C32.2271 20.2678 31.7626 20.1442 31.2214 20.1442C30.8208 20.1442 30.4629 20.2145 30.1475 20.3551C29.8322 20.4915 29.5616 20.6939 29.3358 20.9624C29.1142 21.2308 28.9416 21.5589 28.818 21.9467C28.6987 22.3303 28.6348 22.7713 28.6262 23.2699C28.6262 24.2841 28.8585 25.0916 29.323 25.6925C29.7917 26.2933 30.4309 26.5938 31.2406 26.5938ZM42.024 28.1982C41.1035 28.1982 40.3002 27.9872 39.6142 27.5653C38.9281 27.1435 38.3954 26.5533 38.0162 25.7947C37.6369 25.0362 37.4473 24.1499 37.4473 23.1357C37.4473 22.1172 37.6369 21.2266 38.0162 20.4638C38.3954 19.701 38.9281 19.1087 39.6142 18.6868C40.3002 18.2649 41.1035 18.054 42.024 18.054C42.9444 18.054 43.7477 18.2649 44.4338 18.6868C45.1199 19.1087 45.6525 19.701 46.0318 20.4638C46.411 21.2266 46.6007 22.1172 46.6007 23.1357C46.6007 24.1499 46.411 25.0362 46.0318 25.7947C45.6525 26.5533 45.1199 27.1435 44.4338 27.5653C43.7477 27.9872 42.9444 28.1982 42.024 28.1982ZM42.0304 26.5938C42.627 26.5938 43.1213 26.4361 43.5133 26.1207C43.9054 25.8054 44.1951 25.3857 44.3826 24.8615C44.5744 24.3374 44.6703 23.7599 44.6703 23.1293C44.6703 22.5028 44.5744 21.9276 44.3826 21.4034C44.1951 20.875 43.9054 20.451 43.5133 20.1314C43.1213 19.8118 42.627 19.652 42.0304 19.652C41.4295 19.652 40.9309 19.8118 40.5346 20.1314C40.1426 20.451 39.8507 20.875 39.6589 21.4034C39.4714 21.9276 39.3777 22.5028 39.3777 23.1293C39.3777 23.7599 39.4714 24.3374 39.6589 24.8615C39.8507 25.3857 40.1426 25.8054 40.5346 26.1207C40.9309 26.4361 41.4295 26.5938 42.0304 26.5938ZM59.0076 25.6349L62.1781 18.1818H63.8272L59.7172 28H58.2981L54.2711 18.1818H55.9011L59.0076 25.6349ZM55.3706 18.1818V28H53.4977V18.1818H55.3706ZM62.6958 28V18.1818H64.5559V28H62.6958ZM73.7573 22.2663V23.9219H68.4391V22.2663H73.7573ZM68.976 18.1818V28H67.1032V18.1818H68.976ZM75.0932 18.1818V28H73.2267V18.1818H75.0932ZM81.8816 28.1982C80.9142 28.1982 80.0811 27.9915 79.3823 27.5781C78.6877 27.1605 78.1507 26.5746 77.7715 25.8203C77.3965 25.0618 77.209 24.1733 77.209 23.1548C77.209 22.1491 77.3965 21.2628 77.7715 20.4957C78.1507 19.7287 78.6792 19.13 79.3567 18.6996C80.0385 18.2692 80.8354 18.054 81.7473 18.054C82.3013 18.054 82.8382 18.1456 83.3581 18.3288C83.878 18.5121 84.3446 18.7997 84.758 19.1918C85.1713 19.5838 85.4973 20.093 85.736 20.7195C85.9746 21.3416 86.0939 22.098 86.0939 22.9886V23.6662H78.2892V22.2344H84.2211C84.2211 21.7315 84.1188 21.2862 83.9142 20.8984C83.7097 20.5064 83.4221 20.1974 83.0513 19.9716C82.6848 19.7457 82.2544 19.6328 81.7601 19.6328C81.2232 19.6328 80.7544 19.7649 80.3539 20.0291C79.9576 20.2891 79.6507 20.63 79.4334 21.0518C79.2203 21.4695 79.1138 21.9233 79.1138 22.4134V23.532C79.1138 24.1882 79.2289 24.7464 79.459 25.2067C79.6934 25.6669 80.0194 26.0185 80.437 26.2614C80.8546 26.5 81.3425 26.6193 81.9007 26.6193C82.263 26.6193 82.5932 26.5682 82.8915 26.4659C83.1898 26.3594 83.4476 26.2017 83.665 25.9929C83.8823 25.7841 84.0485 25.5263 84.1635 25.2195L85.9725 25.5455C85.8276 26.0781 85.5676 26.5447 85.1926 26.9453C84.8219 27.3416 84.3553 27.6506 83.7928 27.8722C83.2346 28.0895 82.5975 28.1982 81.8816 28.1982Z" fill="#FFFD00"/>
</svg>
