<svg width="241" height="56" viewBox="0 0 241 56" fill="none" xmlns="http://www.w3.org/2000/svg">
<rect width="194" height="44" rx="12" fill="#FFFD00"/>
<path d="M10.7244 19V12.4545H16.4474V19H14.7131V13.8821H12.4375V19H10.7244ZM17.5128 19L17.5043 17.5597H17.7216C17.875 17.5597 18.0071 17.5227 18.1179 17.4489C18.2315 17.3722 18.3253 17.2486 18.3991 17.0781C18.473 16.9077 18.5313 16.6818 18.5739 16.4006C18.6165 16.1165 18.6449 15.767 18.6591 15.3523L18.7656 12.4545H23.7429V19H22.0128V13.8821H20.3977L20.2955 15.8807C20.2699 16.429 20.2031 16.9006 20.0952 17.2955C19.9901 17.6903 19.8438 18.0142 19.6562 18.267C19.4688 18.517 19.2429 18.7017 18.9787 18.821C18.7145 18.9403 18.4077 19 18.0582 19H17.5128ZM27.0167 19.1236C26.5991 19.1236 26.2269 19.0511 25.9002 18.9062C25.5735 18.7585 25.315 18.5412 25.1246 18.2543C24.9371 17.9645 24.8434 17.6037 24.8434 17.1719C24.8434 16.8082 24.9102 16.5028 25.0437 16.2557C25.1772 16.0085 25.359 15.8097 25.5891 15.6591C25.8192 15.5085 26.0806 15.3949 26.3732 15.3182C26.6687 15.2415 26.9783 15.1875 27.3022 15.1562C27.6829 15.1165 27.9897 15.0795 28.2227 15.0455C28.4556 15.0085 28.6246 14.9545 28.7298 14.8835C28.8349 14.8125 28.8874 14.7074 28.8874 14.5682V14.5426C28.8874 14.2727 28.8022 14.0639 28.6317 13.9162C28.4641 13.7685 28.2255 13.6946 27.9158 13.6946C27.5891 13.6946 27.3292 13.767 27.136 13.9119C26.9428 14.054 26.815 14.233 26.7525 14.4489L25.0735 14.3125C25.1587 13.9148 25.3263 13.571 25.5763 13.2812C25.8263 12.9886 26.1488 12.7642 26.5437 12.608C26.9414 12.4489 27.4016 12.3693 27.9244 12.3693C28.288 12.3693 28.636 12.4119 28.9684 12.4972C29.3036 12.5824 29.6005 12.7145 29.859 12.8935C30.1204 13.0724 30.3263 13.3026 30.4769 13.5838C30.6275 13.8622 30.7028 14.196 30.7028 14.5852V19H28.9812V18.0923H28.93C28.8249 18.2969 28.6843 18.4773 28.5082 18.6335C28.332 18.7869 28.1204 18.9077 27.8732 18.9957C27.6261 19.081 27.3406 19.1236 27.0167 19.1236ZM27.5366 17.8707C27.8036 17.8707 28.0394 17.8182 28.244 17.7131C28.4485 17.6051 28.609 17.4602 28.7255 17.2784C28.842 17.0966 28.9002 16.8906 28.9002 16.6605V15.9659C28.8434 16.0028 28.7653 16.0369 28.6658 16.0682C28.5692 16.0966 28.4599 16.1236 28.3377 16.1491C28.2156 16.1719 28.0934 16.1932 27.9712 16.2131C27.8491 16.2301 27.7383 16.2457 27.6388 16.2599C27.4258 16.2912 27.2397 16.3409 27.0806 16.4091C26.9215 16.4773 26.7979 16.5696 26.7099 16.6861C26.6218 16.7997 26.5778 16.9418 26.5778 17.1122C26.5778 17.3594 26.6673 17.5483 26.8462 17.679C27.0281 17.8068 27.2582 17.8707 27.5366 17.8707ZM32.1112 19V12.4545H33.9265V14.9943H34.4379L36.2191 12.4545H38.3498L36.0359 15.7017L38.3754 19H36.2191L34.604 16.6776H33.9265V19H32.1112ZM41.0089 19.1236C40.5913 19.1236 40.2191 19.0511 39.8924 18.9062C39.5657 18.7585 39.3072 18.5412 39.1168 18.2543C38.9293 17.9645 38.8356 17.6037 38.8356 17.1719C38.8356 16.8082 38.9023 16.5028 39.0359 16.2557C39.1694 16.0085 39.3512 15.8097 39.5813 15.6591C39.8114 15.5085 40.0728 15.3949 40.3654 15.3182C40.6609 15.2415 40.9705 15.1875 41.2944 15.1562C41.6751 15.1165 41.9819 15.0795 42.2148 15.0455C42.4478 15.0085 42.6168 14.9545 42.7219 14.8835C42.8271 14.8125 42.8796 14.7074 42.8796 14.5682V14.5426C42.8796 14.2727 42.7944 14.0639 42.6239 13.9162C42.4563 13.7685 42.2177 13.6946 41.908 13.6946C41.5813 13.6946 41.3214 13.767 41.1282 13.9119C40.935 14.054 40.8072 14.233 40.7447 14.4489L39.0657 14.3125C39.1509 13.9148 39.3185 13.571 39.5685 13.2812C39.8185 12.9886 40.141 12.7642 40.5359 12.608C40.9336 12.4489 41.3938 12.3693 41.9165 12.3693C42.2802 12.3693 42.6282 12.4119 42.9606 12.4972C43.2958 12.5824 43.5927 12.7145 43.8512 12.8935C44.1126 13.0724 44.3185 13.3026 44.4691 13.5838C44.6197 13.8622 44.695 14.196 44.695 14.5852V19H42.9734V18.0923H42.9222C42.8171 18.2969 42.6765 18.4773 42.5004 18.6335C42.3242 18.7869 42.1126 18.9077 41.8654 18.9957C41.6183 19.081 41.3327 19.1236 41.0089 19.1236ZM41.5288 17.8707C41.7958 17.8707 42.0316 17.8182 42.2362 17.7131C42.4407 17.6051 42.6012 17.4602 42.7177 17.2784C42.8342 17.0966 42.8924 16.8906 42.8924 16.6605V15.9659C42.8356 16.0028 42.7575 16.0369 42.658 16.0682C42.5614 16.0966 42.4521 16.1236 42.3299 16.1491C42.2077 16.1719 42.0856 16.1932 41.9634 16.2131C41.8413 16.2301 41.7305 16.2457 41.631 16.2599C41.418 16.2912 41.2319 16.3409 41.0728 16.4091C40.9137 16.4773 40.7901 16.5696 40.7021 16.6861C40.614 16.7997 40.57 16.9418 40.57 17.1122C40.57 17.3594 40.6594 17.5483 40.8384 17.679C41.0202 17.8068 41.2504 17.8707 41.5288 17.8707ZM45.446 13.8821V12.4545H51.3778V13.8821H49.2685V19H47.5384V13.8821H45.446ZM53.6161 14.4659H55.5721C56.4386 14.4659 57.1147 14.6733 57.6005 15.0881C58.0863 15.5 58.3292 16.0511 58.3292 16.7415C58.3292 17.1903 58.2198 17.5852 58.0011 17.9261C57.7823 18.2642 57.467 18.5284 57.055 18.7188C56.6431 18.9062 56.1488 19 55.5721 19H52.4783V12.4545H54.2127V17.5724H55.5721C55.8761 17.5724 56.1261 17.4957 56.3221 17.3423C56.5181 17.1889 56.6175 16.9929 56.6204 16.7543C56.6175 16.5014 56.5181 16.2955 56.3221 16.1364C56.1261 15.9744 55.8761 15.8935 55.5721 15.8935H53.6161V14.4659ZM59.0323 19V12.4545H60.8477V19H59.0323ZM64.5646 20.9176V17.5597H65.0675C65.2124 17.4687 65.3288 17.3239 65.4169 17.125C65.5078 16.9261 65.5817 16.6918 65.6385 16.4219C65.6982 16.152 65.7436 15.8608 65.7749 15.5483C65.8089 15.233 65.8388 14.9148 65.8643 14.5938L66.0348 12.4545H71.0547V17.5597H72.0689V20.9176H70.3388V19H66.3374V20.9176H64.5646ZM66.8743 17.5597H69.3416V13.8523H67.5774L67.5092 14.5938C67.4609 15.2926 67.3913 15.8864 67.3004 16.375C67.2095 16.8608 67.0675 17.2557 66.8743 17.5597ZM72.7433 19L72.7347 17.5597H72.9521C73.1055 17.5597 73.2376 17.5227 73.3484 17.4489C73.462 17.3722 73.5558 17.2486 73.6296 17.0781C73.7035 16.9077 73.7617 16.6818 73.8043 16.4006C73.8469 16.1165 73.8754 15.767 73.8896 15.3523L73.9961 12.4545H78.9734V19H77.2433V13.8821H75.6282L75.5259 15.8807C75.5004 16.429 75.4336 16.9006 75.3256 17.2955C75.2205 17.6903 75.0742 18.0142 74.8867 18.267C74.6992 18.517 74.4734 18.7017 74.2092 18.821C73.945 18.9403 73.6381 19 73.2887 19H72.7433ZM84.2159 19V13.8778H82.9886C82.6563 13.8778 82.4034 13.9545 82.2301 14.108C82.0568 14.2614 81.9716 14.4432 81.9744 14.6534C81.9716 14.8665 82.054 15.0469 82.2216 15.1946C82.392 15.3395 82.642 15.4119 82.9716 15.4119H84.821V16.6392H82.9716C82.4119 16.6392 81.9276 16.554 81.5185 16.3835C81.1094 16.2131 80.794 15.9759 80.5724 15.6719C80.3509 15.3651 80.2415 15.0085 80.2443 14.6023C80.2415 14.1761 80.3509 13.8026 80.5724 13.4815C80.794 13.1577 81.1108 12.9062 81.5227 12.7273C81.9375 12.5455 82.4261 12.4545 82.9886 12.4545H85.9077V19H84.2159ZM80.0568 19L81.8764 15.5909H83.6108L81.7955 19H80.0568ZM90.1296 19V10.2727H91.9748V14.1207H92.0898L95.2305 10.2727H97.4421L94.2035 14.1804L97.4805 19H95.2731L92.8825 15.4119L91.9748 16.5199V19H90.1296ZM100.248 10.2727V19H98.4031V10.2727H100.248ZM109.066 10.2727V19H107.472L103.675 13.5071H103.612V19H101.766V10.2727H103.386L107.153 15.7614H107.229V10.2727H109.066ZM110.258 11.794V10.2727H117.426V11.794H114.754V19H112.93V11.794H110.258ZM123.341 12.7827C123.306 12.4389 123.16 12.1719 122.902 11.9815C122.643 11.7912 122.292 11.696 121.849 11.696C121.548 11.696 121.294 11.7386 121.086 11.8239C120.879 11.9062 120.72 12.0213 120.609 12.169C120.501 12.3168 120.447 12.4844 120.447 12.6719C120.441 12.8281 120.474 12.9645 120.545 13.081C120.619 13.1974 120.72 13.2983 120.848 13.3835C120.975 13.4659 121.123 13.5384 121.291 13.6009C121.458 13.6605 121.637 13.7116 121.828 13.7543L122.612 13.9418C122.993 14.027 123.342 14.1406 123.66 14.2827C123.978 14.4247 124.254 14.5994 124.487 14.8068C124.72 15.0142 124.9 15.2585 125.028 15.5398C125.159 15.821 125.225 16.1435 125.228 16.5071C125.225 17.0412 125.089 17.5043 124.819 17.8963C124.552 18.2855 124.166 18.5881 123.66 18.804C123.157 19.017 122.551 19.1236 121.841 19.1236C121.136 19.1236 120.522 19.0156 120 18.7997C119.48 18.5838 119.074 18.2642 118.781 17.8409C118.491 17.4148 118.339 16.8878 118.325 16.2599H120.11C120.13 16.5526 120.214 16.7969 120.362 16.9929C120.512 17.1861 120.713 17.3324 120.963 17.4318C121.216 17.5284 121.501 17.5767 121.819 17.5767C122.132 17.5767 122.403 17.5312 122.633 17.4403C122.866 17.3494 123.047 17.223 123.174 17.0611C123.302 16.8991 123.366 16.7131 123.366 16.5028C123.366 16.3068 123.308 16.142 123.191 16.0085C123.078 15.875 122.91 15.7614 122.689 15.6676C122.47 15.5739 122.201 15.4886 121.883 15.4119L120.933 15.1733C120.197 14.9943 119.616 14.7145 119.19 14.3338C118.764 13.9531 118.552 13.4403 118.555 12.7955C118.552 12.267 118.693 11.8054 118.977 11.4105C119.264 11.0156 119.657 10.7074 120.157 10.4858C120.657 10.2642 121.225 10.1534 121.862 10.1534C122.51 10.1534 123.075 10.2642 123.558 10.4858C124.044 10.7074 124.422 11.0156 124.691 11.4105C124.961 11.8054 125.1 12.2628 125.109 12.7827H123.341ZM131.86 10.2727H133.705V15.9403C133.705 16.5767 133.553 17.1335 133.249 17.6108C132.948 18.0881 132.526 18.4602 131.984 18.7273C131.441 18.9915 130.809 19.1236 130.087 19.1236C129.363 19.1236 128.729 18.9915 128.187 18.7273C127.644 18.4602 127.222 18.0881 126.921 17.6108C126.62 17.1335 126.469 16.5767 126.469 15.9403V10.2727H128.315V15.7827C128.315 16.1151 128.387 16.4105 128.532 16.669C128.68 16.9276 128.887 17.1307 129.154 17.2784C129.421 17.4261 129.732 17.5 130.087 17.5C130.445 17.5 130.756 17.4261 131.021 17.2784C131.288 17.1307 131.494 16.9276 131.638 16.669C131.786 16.4105 131.86 16.1151 131.86 15.7827V10.2727ZM141.01 13.0938C140.951 12.8864 140.867 12.7031 140.759 12.544C140.651 12.3821 140.519 12.2457 140.363 12.1349C140.209 12.0213 140.033 11.9347 139.834 11.875C139.638 11.8153 139.421 11.7855 139.182 11.7855C138.736 11.7855 138.344 11.8963 138.006 12.1179C137.671 12.3395 137.409 12.6619 137.222 13.0852C137.034 13.5057 136.941 14.0199 136.941 14.6278C136.941 15.2358 137.033 15.7528 137.218 16.179C137.402 16.6051 137.664 16.9304 138.002 17.1548C138.34 17.3764 138.739 17.4872 139.199 17.4872C139.617 17.4872 139.973 17.4134 140.269 17.2656C140.567 17.1151 140.794 16.9034 140.951 16.6307C141.11 16.358 141.189 16.0355 141.189 15.6634L141.564 15.7188H139.314V14.3295H142.966V15.429C142.966 16.196 142.804 16.8551 142.48 17.4062C142.157 17.9545 141.711 18.3778 141.142 18.6761C140.574 18.9716 139.924 19.1193 139.191 19.1193C138.373 19.1193 137.654 18.9389 137.034 18.5781C136.415 18.2145 135.932 17.6989 135.586 17.0312C135.242 16.3608 135.07 15.5653 135.07 14.6449C135.07 13.9375 135.172 13.3068 135.377 12.7528C135.584 12.196 135.874 11.7244 136.246 11.3381C136.618 10.9517 137.051 10.6577 137.546 10.456C138.04 10.2543 138.576 10.1534 139.152 10.1534C139.647 10.1534 140.107 10.2259 140.533 10.3707C140.959 10.5128 141.337 10.7145 141.667 10.9759C141.999 11.2372 142.27 11.5483 142.48 11.9091C142.691 12.267 142.826 12.6619 142.885 13.0938H141.01ZM146.197 10.2727V19H144.352V10.2727H146.197ZM10.8565 34V27.4545H12.1307V30.1989H12.7443L14.9048 27.4545H16.4815L13.946 30.6378L16.5114 34H14.9304L12.9574 31.3835H12.1307V34H10.8565ZM17.5011 36.4545V27.4545H18.7454V28.5156H18.8519C18.9258 28.3793 19.0323 28.2216 19.1715 28.0426C19.3107 27.8636 19.5039 27.7074 19.7511 27.5739C19.9982 27.4375 20.3249 27.3693 20.7312 27.3693C21.2596 27.3693 21.7312 27.5028 22.146 27.7699C22.5607 28.0369 22.886 28.4219 23.1218 28.9247C23.3604 29.4276 23.4798 30.0327 23.4798 30.7401C23.4798 31.4474 23.3619 32.054 23.1261 32.5597C22.8903 33.0625 22.5664 33.4503 22.1545 33.723C21.7425 33.9929 21.2724 34.1278 20.744 34.1278C20.3462 34.1278 20.021 34.0611 19.7681 33.9276C19.5181 33.794 19.3221 33.6378 19.18 33.4588C19.038 33.2798 18.9286 33.1207 18.8519 32.9815H18.7752V36.4545H17.5011ZM18.7496 30.7273C18.7496 31.1875 18.8164 31.5909 18.9499 31.9375C19.0835 32.2841 19.2766 32.5554 19.5295 32.7514C19.7823 32.9446 20.092 33.0412 20.4585 33.0412C20.8391 33.0412 21.1573 32.9403 21.413 32.7386C21.6687 32.5341 21.8619 32.2571 21.9925 31.9077C22.1261 31.5582 22.1928 31.1648 22.1928 30.7273C22.1928 30.2955 22.1275 29.9077 21.9968 29.5639C21.869 29.2202 21.6758 28.9489 21.4173 28.75C21.1616 28.5511 20.842 28.4517 20.4585 28.4517C20.0891 28.4517 19.7766 28.5469 19.521 28.7372C19.2681 28.9276 19.0763 29.1932 18.9457 29.5341C18.815 29.875 18.7496 30.2727 18.7496 30.7273ZM27.7283 34.1321C27.0835 34.1321 26.5281 33.9943 26.0621 33.7188C25.5991 33.4403 25.2411 33.0497 24.9883 32.5469C24.7383 32.0412 24.6133 31.4489 24.6133 30.7699C24.6133 30.0994 24.7383 29.5085 24.9883 28.9972C25.2411 28.4858 25.5934 28.0866 26.0451 27.7997C26.4996 27.5128 27.0309 27.3693 27.6388 27.3693C28.0082 27.3693 28.3661 27.4304 28.7127 27.5526C29.0593 27.6747 29.3704 27.8665 29.646 28.1278C29.9215 28.3892 30.1388 28.7287 30.2979 29.1463C30.457 29.5611 30.5366 30.0653 30.5366 30.6591V31.1108H25.3335V30.1562H29.288C29.288 29.821 29.2198 29.5241 29.0835 29.2656C28.9471 29.0043 28.7553 28.7983 28.5082 28.6477C28.2638 28.4972 27.9769 28.4219 27.6474 28.4219C27.2894 28.4219 26.9769 28.5099 26.7099 28.6861C26.4457 28.8594 26.2411 29.0866 26.0962 29.3679C25.9542 29.6463 25.8832 29.9489 25.8832 30.2756V31.0213C25.8832 31.4588 25.9599 31.831 26.1133 32.1378C26.2695 32.4446 26.4869 32.679 26.7653 32.8409C27.0437 33 27.369 33.0795 27.7411 33.0795C27.9826 33.0795 28.2028 33.0455 28.4016 32.9773C28.6005 32.9062 28.7724 32.8011 28.9173 32.6619C29.0621 32.5227 29.1729 32.3509 29.2496 32.1463L30.4556 32.3636C30.359 32.7187 30.1857 33.0298 29.9357 33.2969C29.6886 33.5611 29.3775 33.767 29.0025 33.9148C28.6303 34.0597 28.2056 34.1321 27.7283 34.1321ZM33.8551 34.1449C33.4403 34.1449 33.0653 34.0682 32.7301 33.9148C32.3949 33.7585 32.1293 33.5327 31.9332 33.2372C31.7401 32.9418 31.6435 32.5795 31.6435 32.1506C31.6435 31.7812 31.7145 31.4773 31.8565 31.2386C31.9986 31 32.1903 30.8111 32.4318 30.6719C32.6733 30.5327 32.9432 30.4276 33.2415 30.3565C33.5398 30.2855 33.8438 30.2315 34.1534 30.1946C34.5455 30.1491 34.8636 30.1122 35.108 30.0838C35.3523 30.0526 35.5298 30.0028 35.6406 29.9347C35.7514 29.8665 35.8068 29.7557 35.8068 29.6023V29.5724C35.8068 29.2003 35.7017 28.9119 35.4915 28.7074C35.2841 28.5028 34.9744 28.4006 34.5625 28.4006C34.1335 28.4006 33.7955 28.4957 33.5483 28.6861C33.304 28.8736 33.1349 29.0824 33.0412 29.3125L31.8438 29.0398C31.9858 28.642 32.1932 28.321 32.4659 28.0767C32.7415 27.8295 33.0582 27.6506 33.4162 27.5398C33.7741 27.4261 34.1506 27.3693 34.5455 27.3693C34.8068 27.3693 35.0838 27.4006 35.3764 27.4631C35.6719 27.5227 35.9474 27.6335 36.2031 27.7955C36.4616 27.9574 36.6733 28.1889 36.8381 28.4901C37.0028 28.7884 37.0852 29.1761 37.0852 29.6534V34H35.8409V33.1051H35.7898C35.7074 33.2699 35.5838 33.4318 35.419 33.5909C35.2543 33.75 35.0426 33.8821 34.7841 33.9872C34.5256 34.0923 34.2159 34.1449 33.8551 34.1449ZM34.1321 33.1222C34.4844 33.1222 34.7855 33.0526 35.0355 32.9134C35.2884 32.7741 35.4801 32.5923 35.6108 32.3679C35.7443 32.1406 35.8111 31.8977 35.8111 31.6392V30.7955C35.7656 30.8409 35.6776 30.8835 35.5469 30.9233C35.419 30.9602 35.2727 30.9929 35.108 31.0213C34.9432 31.0469 34.7827 31.071 34.6264 31.0938C34.4702 31.1136 34.3395 31.1307 34.2344 31.1449C33.9872 31.1761 33.7614 31.2287 33.5568 31.3026C33.3551 31.3764 33.1932 31.483 33.071 31.6222C32.9517 31.7585 32.892 31.9403 32.892 32.1676C32.892 32.483 33.0085 32.7216 33.2415 32.8835C33.4744 33.0426 33.7713 33.1222 34.1321 33.1222ZM37.9705 28.554V27.4545H43.4933V28.554H41.3583V34H40.114V28.554H37.9705ZM46.0895 32.2145L48.9744 27.4545H50.3466V34H49.098V29.2358L46.2259 34H44.8409V27.4545H46.0895V32.2145ZM52.0597 34V27.4545H54.7741C55.5128 27.4545 56.098 27.6122 56.5298 27.9276C56.9616 28.2401 57.1776 28.6648 57.1776 29.2017C57.1776 29.5852 57.0554 29.8892 56.8111 30.1136C56.5668 30.3381 56.2429 30.4886 55.8395 30.5653C56.1321 30.5994 56.4006 30.6875 56.6449 30.8295C56.8892 30.9687 57.0852 31.1562 57.233 31.392C57.3835 31.6278 57.4588 31.9091 57.4588 32.2358C57.4588 32.5824 57.3693 32.8892 57.1903 33.1562C57.0114 33.4205 56.7514 33.6278 56.4105 33.7784C56.0724 33.9261 55.6648 34 55.1875 34H52.0597ZM53.2571 32.9347H55.1875C55.5028 32.9347 55.75 32.8594 55.929 32.7088C56.108 32.5582 56.1974 32.3537 56.1974 32.0952C56.1974 31.7912 56.108 31.5526 55.929 31.3793C55.75 31.2031 55.5028 31.1151 55.1875 31.1151H53.2571V32.9347ZM53.2571 30.1818H54.7869C55.0256 30.1818 55.2301 30.1477 55.4006 30.0795C55.5739 30.0114 55.706 29.9148 55.7969 29.7898C55.8906 29.6619 55.9375 29.5114 55.9375 29.3381C55.9375 29.0852 55.8338 28.8878 55.6264 28.7457C55.419 28.6037 55.1349 28.5327 54.7741 28.5327H53.2571V30.1818ZM63.2926 30.1776V31.2812H59.7472V30.1776H63.2926ZM60.1051 27.4545V34H58.8565V27.4545H60.1051ZM64.1832 27.4545V34H62.9389V27.4545H64.1832ZM68.6449 34.1321C68.0313 34.1321 67.4957 33.9915 67.0384 33.7102C66.581 33.429 66.2259 33.0355 65.973 32.5298C65.7202 32.0241 65.5938 31.4332 65.5938 30.7571C65.5938 30.0781 65.7202 29.4844 65.973 28.9759C66.2259 28.4673 66.581 28.0724 67.0384 27.7912C67.4957 27.5099 68.0313 27.3693 68.6449 27.3693C69.2585 27.3693 69.794 27.5099 70.2514 27.7912C70.7088 28.0724 71.0639 28.4673 71.3168 28.9759C71.5696 29.4844 71.696 30.0781 71.696 30.7571C71.696 31.4332 71.5696 32.0241 71.3168 32.5298C71.0639 33.0355 70.7088 33.429 70.2514 33.7102C69.794 33.9915 69.2585 34.1321 68.6449 34.1321ZM68.6491 33.0625C69.0469 33.0625 69.3764 32.9574 69.6378 32.7472C69.8991 32.5369 70.0923 32.2571 70.2173 31.9077C70.3452 31.5582 70.4091 31.1733 70.4091 30.7528C70.4091 30.3352 70.3452 29.9517 70.2173 29.6023C70.0923 29.25 69.8991 28.9673 69.6378 28.7543C69.3764 28.5412 69.0469 28.4347 68.6491 28.4347C68.2486 28.4347 67.9162 28.5412 67.652 28.7543C67.3906 28.9673 67.196 29.25 67.0682 29.6023C66.9432 29.9517 66.8807 30.3352 66.8807 30.7528C66.8807 31.1733 66.9432 31.5582 67.0682 31.9077C67.196 32.2571 67.3906 32.5369 67.652 32.7472C67.9162 32.9574 68.2486 33.0625 68.6491 33.0625ZM75.9393 34.1321C75.2944 34.1321 74.739 33.9943 74.2731 33.7188C73.81 33.4403 73.4521 33.0497 73.1992 32.5469C72.9492 32.0412 72.8242 31.4489 72.8242 30.7699C72.8242 30.0994 72.9492 29.5085 73.1992 28.9972C73.4521 28.4858 73.8043 28.0866 74.256 27.7997C74.7106 27.5128 75.2418 27.3693 75.8498 27.3693C76.2191 27.3693 76.5771 27.4304 76.9237 27.5526C77.2702 27.6747 77.5813 27.8665 77.8569 28.1278C78.1325 28.3892 78.3498 28.7287 78.5089 29.1463C78.668 29.5611 78.7475 30.0653 78.7475 30.6591V31.1108H73.5444V30.1562H77.4989C77.4989 29.821 77.4308 29.5241 77.2944 29.2656C77.158 29.0043 76.9663 28.7983 76.7191 28.6477C76.4748 28.4972 76.1879 28.4219 75.8583 28.4219C75.5004 28.4219 75.1879 28.5099 74.9208 28.6861C74.6566 28.8594 74.4521 29.0866 74.3072 29.3679C74.1651 29.6463 74.0941 29.9489 74.0941 30.2756V31.0213C74.0941 31.4588 74.1708 31.831 74.3242 32.1378C74.4805 32.4446 74.6978 32.679 74.9762 32.8409C75.2546 33 75.5799 33.0795 75.9521 33.0795C76.1935 33.0795 76.4137 33.0455 76.6126 32.9773C76.8114 32.9062 76.9833 32.8011 77.1282 32.6619C77.2731 32.5227 77.3839 32.3509 77.4606 32.1463L78.6665 32.3636C78.57 32.7187 78.3967 33.0298 78.1467 33.2969C77.8995 33.5611 77.5884 33.767 77.2134 33.9148C76.8413 34.0597 76.4165 34.1321 75.9393 34.1321ZM83.337 34V27.4545H88.6765V34H87.4279V28.554H84.5771V34H83.337ZM90.38 36.4545V27.4545H91.6243V28.5156H91.7308C91.8047 28.3793 91.9112 28.2216 92.0504 28.0426C92.1896 27.8636 92.3828 27.7074 92.63 27.5739C92.8771 27.4375 93.2038 27.3693 93.6101 27.3693C94.1385 27.3693 94.6101 27.5028 95.0249 27.7699C95.4396 28.0369 95.7649 28.4219 96.0007 28.9247C96.2393 29.4276 96.3587 30.0327 96.3587 30.7401C96.3587 31.4474 96.2408 32.054 96.005 32.5597C95.7692 33.0625 95.4453 33.4503 95.0334 33.723C94.6214 33.9929 94.1513 34.1278 93.6229 34.1278C93.2251 34.1278 92.8999 34.0611 92.647 33.9276C92.397 33.794 92.201 33.6378 92.0589 33.4588C91.9169 33.2798 91.8075 33.1207 91.7308 32.9815H91.6541V36.4545H90.38ZM91.6286 30.7273C91.6286 31.1875 91.6953 31.5909 91.8288 31.9375C91.9624 32.2841 92.1555 32.5554 92.4084 32.7514C92.6612 32.9446 92.9709 33.0412 93.3374 33.0412C93.718 33.0412 94.0362 32.9403 94.2919 32.7386C94.5476 32.5341 94.7408 32.2571 94.8714 31.9077C95.005 31.5582 95.0717 31.1648 95.0717 30.7273C95.0717 30.2955 95.0064 29.9077 94.8757 29.5639C94.7479 29.2202 94.5547 28.9489 94.2962 28.75C94.0405 28.5511 93.7209 28.4517 93.3374 28.4517C92.968 28.4517 92.6555 28.5469 92.3999 28.7372C92.147 28.9276 91.9553 29.1932 91.8246 29.5341C91.6939 29.875 91.6286 30.2727 91.6286 30.7273ZM100.543 34.1321C99.9297 34.1321 99.3942 33.9915 98.9368 33.7102C98.4794 33.429 98.1243 33.0355 97.8714 32.5298C97.6186 32.0241 97.4922 31.4332 97.4922 30.7571C97.4922 30.0781 97.6186 29.4844 97.8714 28.9759C98.1243 28.4673 98.4794 28.0724 98.9368 27.7912C99.3942 27.5099 99.9297 27.3693 100.543 27.3693C101.157 27.3693 101.692 27.5099 102.15 27.7912C102.607 28.0724 102.962 28.4673 103.215 28.9759C103.468 29.4844 103.594 30.0781 103.594 30.7571C103.594 31.4332 103.468 32.0241 103.215 32.5298C102.962 33.0355 102.607 33.429 102.15 33.7102C101.692 33.9915 101.157 34.1321 100.543 34.1321ZM100.548 33.0625C100.945 33.0625 101.275 32.9574 101.536 32.7472C101.798 32.5369 101.991 32.2571 102.116 31.9077C102.244 31.5582 102.308 31.1733 102.308 30.7528C102.308 30.3352 102.244 29.9517 102.116 29.6023C101.991 29.25 101.798 28.9673 101.536 28.7543C101.275 28.5412 100.945 28.4347 100.548 28.4347C100.147 28.4347 99.8146 28.5412 99.5504 28.7543C99.2891 28.9673 99.0945 29.25 98.9666 29.6023C98.8416 29.9517 98.7791 30.3352 98.7791 30.7528C98.7791 31.1733 98.8416 31.5582 98.9666 31.9077C99.0945 32.2571 99.2891 32.5369 99.5504 32.7472C99.8146 32.9574 100.147 33.0625 100.548 33.0625ZM107.838 34.1321C107.193 34.1321 106.637 33.9943 106.172 33.7188C105.708 33.4403 105.35 33.0497 105.098 32.5469C104.848 32.0412 104.723 31.4489 104.723 30.7699C104.723 30.0994 104.848 29.5085 105.098 28.9972C105.35 28.4858 105.703 28.0866 106.154 27.7997C106.609 27.5128 107.14 27.3693 107.748 27.3693C108.118 27.3693 108.475 27.4304 108.822 27.5526C109.169 27.6747 109.48 27.8665 109.755 28.1278C110.031 28.3892 110.248 28.7287 110.407 29.1463C110.566 29.5611 110.646 30.0653 110.646 30.6591V31.1108H105.443V30.1562H109.397C109.397 29.821 109.329 29.5241 109.193 29.2656C109.056 29.0043 108.865 28.7983 108.618 28.6477C108.373 28.4972 108.086 28.4219 107.757 28.4219C107.399 28.4219 107.086 28.5099 106.819 28.6861C106.555 28.8594 106.35 29.0866 106.206 29.3679C106.064 29.6463 105.993 29.9489 105.993 30.2756V31.0213C105.993 31.4588 106.069 31.831 106.223 32.1378C106.379 32.4446 106.596 32.679 106.875 32.8409C107.153 33 107.478 33.0795 107.85 33.0795C108.092 33.0795 108.312 33.0455 108.511 32.9773C108.71 32.9062 108.882 32.8011 109.027 32.6619C109.172 32.5227 109.282 32.3509 109.359 32.1463L110.565 32.3636C110.468 32.7187 110.295 33.0298 110.045 33.2969C109.798 33.5611 109.487 33.767 109.112 33.9148C108.74 34.0597 108.315 34.1321 107.838 34.1321ZM112.06 34V27.4545H113.334V30.1989H113.947L116.108 27.4545H117.685L115.149 30.6378L117.714 34H116.134L114.161 31.3835H113.334V34H112.06ZM118.338 28.554V27.4545H123.86V28.554H121.725V34H120.481V28.554H118.338ZM126.457 32.2145L129.342 27.4545H130.714V34H129.465V29.2358L126.593 34H125.208V27.4545H126.457V32.2145ZM132.427 36.4545V27.4545H133.671V28.5156H133.778C133.852 28.3793 133.958 28.2216 134.097 28.0426C134.237 27.8636 134.43 27.7074 134.677 27.5739C134.924 27.4375 135.251 27.3693 135.657 27.3693C136.185 27.3693 136.657 27.5028 137.072 27.7699C137.487 28.0369 137.812 28.4219 138.048 28.9247C138.286 29.4276 138.406 30.0327 138.406 30.7401C138.406 31.4474 138.288 32.054 138.052 32.5597C137.816 33.0625 137.492 33.4503 137.08 33.723C136.668 33.9929 136.198 34.1278 135.67 34.1278C135.272 34.1278 134.947 34.0611 134.694 33.9276C134.444 33.794 134.248 33.6378 134.106 33.4588C133.964 33.2798 133.854 33.1207 133.778 32.9815H133.701V36.4545H132.427ZM133.675 30.7273C133.675 31.1875 133.742 31.5909 133.876 31.9375C134.009 32.2841 134.202 32.5554 134.455 32.7514C134.708 32.9446 135.018 33.0412 135.384 33.0412C135.765 33.0412 136.083 32.9403 136.339 32.7386C136.594 32.5341 136.788 32.2571 136.918 31.9077C137.052 31.5582 137.119 31.1648 137.119 30.7273C137.119 30.2955 137.053 29.9077 136.923 29.5639C136.795 29.2202 136.602 28.9489 136.343 28.75C136.087 28.5511 135.768 28.4517 135.384 28.4517C135.015 28.4517 134.702 28.5469 134.447 28.7372C134.194 28.9276 134.002 29.1932 133.871 29.5341C133.741 29.875 133.675 30.2727 133.675 30.7273ZM142.59 34.1321C141.977 34.1321 141.441 33.9915 140.984 33.7102C140.526 33.429 140.171 33.0355 139.918 32.5298C139.665 32.0241 139.539 31.4332 139.539 30.7571C139.539 30.0781 139.665 29.4844 139.918 28.9759C140.171 28.4673 140.526 28.0724 140.984 27.7912C141.441 27.5099 141.977 27.3693 142.59 27.3693C143.204 27.3693 143.739 27.5099 144.197 27.7912C144.654 28.0724 145.009 28.4673 145.262 28.9759C145.515 29.4844 145.641 30.0781 145.641 30.7571C145.641 31.4332 145.515 32.0241 145.262 32.5298C145.009 33.0355 144.654 33.429 144.197 33.7102C143.739 33.9915 143.204 34.1321 142.59 34.1321ZM142.594 33.0625C142.992 33.0625 143.322 32.9574 143.583 32.7472C143.844 32.5369 144.038 32.2571 144.163 31.9077C144.29 31.5582 144.354 31.1733 144.354 30.7528C144.354 30.3352 144.29 29.9517 144.163 29.6023C144.038 29.25 143.844 28.9673 143.583 28.7543C143.322 28.5412 142.992 28.4347 142.594 28.4347C142.194 28.4347 141.862 28.5412 141.597 28.7543C141.336 28.9673 141.141 29.25 141.013 29.6023C140.888 29.9517 140.826 30.3352 140.826 30.7528C140.826 31.1733 140.888 31.5582 141.013 31.9077C141.141 32.2571 141.336 32.5369 141.597 32.7472C141.862 32.9574 142.194 33.0625 142.594 33.0625ZM147.064 34V27.4545H149.778C150.517 27.4545 151.102 27.6122 151.534 27.9276C151.966 28.2401 152.181 28.6648 152.181 29.2017C152.181 29.5852 152.059 29.8892 151.815 30.1136C151.571 30.3381 151.247 30.4886 150.843 30.5653C151.136 30.5994 151.404 30.6875 151.649 30.8295C151.893 30.9687 152.089 31.1562 152.237 31.392C152.387 31.6278 152.463 31.9091 152.463 32.2358C152.463 32.5824 152.373 32.8892 152.194 33.1562C152.015 33.4205 151.755 33.6278 151.414 33.7784C151.076 33.9261 150.669 34 150.191 34H147.064ZM148.261 32.9347H150.191C150.507 32.9347 150.754 32.8594 150.933 32.7088C151.112 32.5582 151.201 32.3537 151.201 32.0952C151.201 31.7912 151.112 31.5526 150.933 31.3793C150.754 31.2031 150.507 31.1151 150.191 31.1151H148.261V32.9347ZM148.261 30.1818H149.791C150.029 30.1818 150.234 30.1477 150.404 30.0795C150.578 30.0114 150.71 29.9148 150.801 29.7898C150.895 29.6619 150.941 29.5114 150.941 29.3381C150.941 29.0852 150.838 28.8878 150.63 28.7457C150.423 28.6037 150.139 28.5327 149.778 28.5327H148.261V30.1818ZM155.765 34.1449C155.35 34.1449 154.975 34.0682 154.64 33.9148C154.305 33.7585 154.039 33.5327 153.843 33.2372C153.65 32.9418 153.554 32.5795 153.554 32.1506C153.554 31.7812 153.625 31.4773 153.767 31.2386C153.909 31 154.1 30.8111 154.342 30.6719C154.583 30.5327 154.853 30.4276 155.152 30.3565C155.45 30.2855 155.754 30.2315 156.064 30.1946C156.456 30.1491 156.774 30.1122 157.018 30.0838C157.262 30.0526 157.44 30.0028 157.551 29.9347C157.662 29.8665 157.717 29.7557 157.717 29.6023V29.5724C157.717 29.2003 157.612 28.9119 157.402 28.7074C157.194 28.5028 156.885 28.4006 156.473 28.4006C156.044 28.4006 155.706 28.4957 155.458 28.6861C155.214 28.8736 155.045 29.0824 154.951 29.3125L153.754 29.0398C153.896 28.642 154.103 28.321 154.376 28.0767C154.652 27.8295 154.968 27.6506 155.326 27.5398C155.684 27.4261 156.061 27.3693 156.456 27.3693C156.717 27.3693 156.994 27.4006 157.287 27.4631C157.582 27.5227 157.858 27.6335 158.113 27.7955C158.372 27.9574 158.583 28.1889 158.748 28.4901C158.913 28.7884 158.995 29.1761 158.995 29.6534V34H157.751V33.1051H157.7C157.618 33.2699 157.494 33.4318 157.329 33.5909C157.164 33.75 156.953 33.8821 156.694 33.9872C156.436 34.0923 156.126 34.1449 155.765 34.1449ZM156.042 33.1222C156.395 33.1222 156.696 33.0526 156.946 32.9134C157.199 32.7741 157.39 32.5923 157.521 32.3679C157.654 32.1406 157.721 31.8977 157.721 31.6392V30.7955C157.676 30.8409 157.588 30.8835 157.457 30.9233C157.329 30.9602 157.183 30.9929 157.018 31.0213C156.853 31.0469 156.693 31.071 156.537 31.0938C156.38 31.1136 156.25 31.1307 156.145 31.1449C155.897 31.1761 155.672 31.2287 155.467 31.3026C155.265 31.3764 155.103 31.483 154.981 31.6222C154.862 31.7585 154.802 31.9403 154.802 32.1676C154.802 32.483 154.919 32.7216 155.152 32.8835C155.385 33.0426 155.681 33.1222 156.042 33.1222ZM165.129 30.1776V31.2812H161.583V30.1776H165.129ZM161.941 27.4545V34H160.692V27.4545H161.941ZM166.019 27.4545V34H164.775V27.4545H166.019ZM168.972 32.2145L171.857 27.4545H173.229V34H171.981V29.2358L169.109 34H167.724V27.4545H168.972V32.2145ZM177.763 34.1321C177.119 34.1321 176.563 33.9943 176.097 33.7188C175.634 33.4403 175.276 33.0497 175.023 32.5469C174.773 32.0412 174.648 31.4489 174.648 30.7699C174.648 30.0994 174.773 29.5085 175.023 28.9972C175.276 28.4858 175.629 28.0866 176.08 27.7997C176.535 27.5128 177.066 27.3693 177.674 27.3693C178.043 27.3693 178.401 27.4304 178.748 27.5526C179.094 27.6747 179.406 27.8665 179.681 28.1278C179.957 28.3892 180.174 28.7287 180.333 29.1463C180.492 29.5611 180.572 30.0653 180.572 30.6591V31.1108H175.369V30.1562H179.323C179.323 29.821 179.255 29.5241 179.119 29.2656C178.982 29.0043 178.79 28.7983 178.543 28.6477C178.299 28.4972 178.012 28.4219 177.683 28.4219C177.325 28.4219 177.012 28.5099 176.745 28.6861C176.481 28.8594 176.276 29.0866 176.131 29.3679C175.989 29.6463 175.918 29.9489 175.918 30.2756V31.0213C175.918 31.4588 175.995 31.831 176.148 32.1378C176.305 32.4446 176.522 32.679 176.8 32.8409C177.079 33 177.404 33.0795 177.776 33.0795C178.018 33.0795 178.238 33.0455 178.437 32.9773C178.636 32.9062 178.808 32.8011 178.952 32.6619C179.097 32.5227 179.208 32.3509 179.285 32.1463L180.491 32.3636C180.394 32.7187 180.221 33.0298 179.971 33.2969C179.724 33.5611 179.413 33.767 179.038 33.9148C178.665 34.0597 178.241 34.1321 177.763 34.1321Z" fill="black"/>
<path d="M10 21.3864H146.96V22.2045H10V21.3864Z" fill="black"/>
<path d="M194 22H230C235.523 22 240 26.4772 240 32V56" stroke="#FFFD00" stroke-width="2"/>
</svg>
