<svg width="250" height="43" viewBox="0 0 250 43" fill="none" xmlns="http://www.w3.org/2000/svg">
<rect x="0.75" y="0.75" width="248.5" height="41.5" rx="17.25" fill="#FFFD00"/>
<rect x="0.75" y="0.75" width="248.5" height="41.5" rx="17.25" stroke="#FFFD00" stroke-width="1.5"/>
<path d="M16.2848 28V18.1818H24.294V28H22.4212V19.831H18.1449V28H16.2848ZM26.8493 31.6818V18.1818H28.7157V19.7734H28.8755C28.9863 19.5689 29.1461 19.3324 29.3549 19.0639C29.5637 18.7955 29.8535 18.5611 30.2243 18.3608C30.595 18.1562 31.0851 18.054 31.6944 18.054C32.487 18.054 33.1944 18.2543 33.8166 18.6548C34.4387 19.0554 34.9267 19.6328 35.2804 20.3871C35.6383 21.1413 35.8173 22.049 35.8173 23.1101C35.8173 24.1712 35.6404 25.081 35.2868 25.8395C34.9331 26.5937 34.4473 27.1754 33.8294 27.5845C33.2115 27.9893 32.5062 28.1918 31.7136 28.1918C31.117 28.1918 30.6291 28.0916 30.2498 27.8913C29.8748 27.6911 29.5808 27.4567 29.3677 27.1882C29.1547 26.9197 28.9906 26.6811 28.8755 26.4723H28.7605V31.6818H26.8493ZM28.7221 23.0909C28.7221 23.7812 28.8223 24.3864 29.0225 24.9062C29.2228 25.4261 29.5126 25.8331 29.8919 26.1271C30.2711 26.4169 30.7356 26.5618 31.2853 26.5618C31.8564 26.5618 32.3336 26.4105 32.7172 26.108C33.1007 25.8011 33.3904 25.3857 33.5865 24.8615C33.7868 24.3374 33.8869 23.7472 33.8869 23.0909C33.8869 22.4432 33.7889 21.8615 33.5929 21.3459C33.4011 20.8303 33.1113 20.4233 32.7235 20.125C32.34 19.8267 31.8606 19.6776 31.2853 19.6776C30.7314 19.6776 30.2626 19.8203 29.8791 20.1058C29.4998 20.3913 29.2122 20.7898 29.0162 21.3011C28.8201 21.8125 28.7221 22.4091 28.7221 23.0909ZM42.0943 28.1982C41.1738 28.1982 40.3706 27.9872 39.6845 27.5653C38.9984 27.1435 38.4657 26.5533 38.0865 25.7947C37.7072 25.0362 37.5176 24.1499 37.5176 23.1357C37.5176 22.1172 37.7072 21.2266 38.0865 20.4638C38.4657 19.701 38.9984 19.1087 39.6845 18.6868C40.3706 18.2649 41.1738 18.054 42.0943 18.054C43.0147 18.054 43.818 18.2649 44.5041 18.6868C45.1902 19.1087 45.7228 19.701 46.1021 20.4638C46.4814 21.2266 46.671 22.1172 46.671 23.1357C46.671 24.1499 46.4814 25.0362 46.1021 25.7947C45.7228 26.5533 45.1902 27.1435 44.5041 27.5653C43.818 27.9872 43.0147 28.1982 42.0943 28.1982ZM42.1007 26.5938C42.6973 26.5938 43.1916 26.4361 43.5836 26.1207C43.9757 25.8054 44.2654 25.3857 44.4529 24.8615C44.6447 24.3374 44.7406 23.7599 44.7406 23.1293C44.7406 22.5028 44.6447 21.9276 44.4529 21.4034C44.2654 20.875 43.9757 20.451 43.5836 20.1314C43.1916 19.8118 42.6973 19.652 42.1007 19.652C41.4998 19.652 41.0012 19.8118 40.6049 20.1314C40.2129 20.451 39.921 20.875 39.7292 21.4034C39.5417 21.9276 39.448 22.5028 39.448 23.1293C39.448 23.7599 39.5417 24.3374 39.7292 24.8615C39.921 25.3857 40.2129 25.8054 40.6049 26.1207C41.0012 26.4361 41.4998 26.5938 42.1007 26.5938ZM53.0359 28.1982C52.0685 28.1982 51.2354 27.9915 50.5366 27.5781C49.842 27.1605 49.305 26.5746 48.9258 25.8203C48.5508 25.0618 48.3633 24.1733 48.3633 23.1548C48.3633 22.1491 48.5508 21.2628 48.9258 20.4957C49.305 19.7287 49.8335 19.13 50.511 18.6996C51.1928 18.2692 51.9897 18.054 52.9016 18.054C53.4556 18.054 53.9925 18.1456 54.5124 18.3288C55.0323 18.5121 55.4989 18.7997 55.9123 19.1918C56.3256 19.5838 56.6516 20.093 56.8903 20.7195C57.1289 21.3416 57.2482 22.098 57.2482 22.9886V23.6662H49.4435V22.2344H55.3754C55.3754 21.7315 55.2731 21.2862 55.0685 20.8984C54.864 20.5064 54.5763 20.1974 54.2056 19.9716C53.8391 19.7457 53.4087 19.6328 52.9144 19.6328C52.3775 19.6328 51.9087 19.7649 51.5082 20.0291C51.1119 20.2891 50.805 20.63 50.5877 21.0518C50.3746 21.4695 50.2681 21.9233 50.2681 22.4134V23.532C50.2681 24.1882 50.3832 24.7464 50.6133 25.2067C50.8477 25.6669 51.1737 26.0185 51.5913 26.2614C52.0089 26.5 52.4968 26.6193 53.055 26.6193C53.4173 26.6193 53.7475 26.5682 54.0458 26.4659C54.3441 26.3594 54.6019 26.2017 54.8192 25.9929C55.0366 25.7841 55.2028 25.5263 55.3178 25.2195L57.1268 25.5455C56.9819 26.0781 56.7219 26.5447 56.3469 26.9453C55.9762 27.3416 55.5096 27.6506 54.9471 27.8722C54.3888 28.0895 53.7518 28.1982 53.0359 28.1982ZM59.3688 28V18.1818H61.28V22.2983H62.2005L65.4412 18.1818H67.8063L64.003 22.9567L67.851 28H65.4796L62.5201 24.0753H61.28V28H59.3688ZM68.7859 19.831V18.1818H77.07V19.831H73.8675V28H72.0011V19.831H68.7859ZM80.5297 21.5568H83.3805C84.5822 21.5568 85.5069 21.8551 86.1547 22.4517C86.8024 23.0483 87.1262 23.8175 87.1262 24.7592C87.1262 25.3729 86.9814 25.9247 86.6916 26.4148C86.4018 26.9048 85.9778 27.2926 85.4196 27.5781C84.8613 27.8594 84.1816 28 83.3805 28H79.0914V18.1818H80.9643V26.3509H83.3805C83.9302 26.3509 84.3819 26.2081 84.7356 25.9226C85.0893 25.6328 85.2662 25.2642 85.2662 24.8168C85.2662 24.3437 85.0893 23.9581 84.7356 23.6598C84.3819 23.3572 83.9302 23.206 83.3805 23.206H80.5297V21.5568ZM88.5197 28V18.1818H90.4309V28H88.5197ZM97.1777 25.4048H99.1337C99.1593 25.8054 99.3404 26.1143 99.677 26.3317C100.018 26.549 100.459 26.6577 101 26.6577C101.55 26.6577 102.019 26.5405 102.406 26.3061C102.794 26.0675 102.988 25.6989 102.988 25.2003C102.988 24.902 102.914 24.642 102.764 24.4205C102.619 24.1946 102.413 24.0199 102.144 23.8963C101.88 23.7727 101.567 23.7109 101.205 23.7109H99.6067V22.2088H101.205C101.746 22.2088 102.151 22.0852 102.419 21.8381C102.688 21.5909 102.822 21.282 102.822 20.9112C102.822 20.5107 102.677 20.1889 102.387 19.946C102.102 19.6989 101.703 19.5753 101.192 19.5753C100.672 19.5753 100.24 19.6925 99.8944 19.9268C99.5492 20.157 99.3681 20.4553 99.351 20.8217H97.4206C97.4334 20.272 97.5996 19.7905 97.9192 19.3771C98.2431 18.9595 98.6777 18.6357 99.2232 18.4055C99.7729 18.1712 100.397 18.054 101.096 18.054C101.825 18.054 102.455 18.1712 102.988 18.4055C103.521 18.6399 103.932 18.9638 104.222 19.3771C104.516 19.7905 104.663 20.2656 104.663 20.8026C104.663 21.3437 104.501 21.7869 104.177 22.1321C103.857 22.473 103.44 22.718 102.924 22.8672V22.9695C103.303 22.995 103.64 23.1101 103.934 23.3146C104.228 23.5192 104.458 23.7898 104.624 24.1264C104.791 24.4631 104.874 24.8445 104.874 25.2706C104.874 25.8714 104.708 26.3913 104.375 26.8303C104.047 27.2692 103.591 27.608 103.007 27.8466C102.428 28.081 101.765 28.1982 101.019 28.1982C100.295 28.1982 99.6451 28.0852 99.0698 27.8594C98.4988 27.6293 98.0449 27.3054 97.7083 26.8878C97.3759 26.4702 97.199 25.9759 97.1777 25.4048ZM109.705 28.2173C109.082 28.2173 108.52 28.1023 108.017 27.8722C107.514 27.6378 107.116 27.299 106.822 26.8558C106.532 26.4126 106.387 25.8693 106.387 25.2259C106.387 24.6719 106.494 24.2159 106.707 23.858C106.92 23.5 107.207 23.2166 107.57 23.0078C107.932 22.799 108.337 22.6413 108.784 22.5348C109.232 22.4283 109.688 22.3473 110.152 22.2919C110.74 22.2237 111.217 22.1683 111.584 22.1257C111.95 22.0788 112.217 22.0043 112.383 21.902C112.549 21.7997 112.632 21.6335 112.632 21.4034V21.3587C112.632 20.8004 112.474 20.3679 112.159 20.0611C111.848 19.7543 111.384 19.6009 110.766 19.6009C110.122 19.6009 109.615 19.7436 109.244 20.0291C108.878 20.3104 108.624 20.6236 108.484 20.9688L106.688 20.5597C106.901 19.9631 107.212 19.4815 107.621 19.1151C108.034 18.7443 108.509 18.4759 109.046 18.3097C109.583 18.1392 110.148 18.054 110.74 18.054C111.132 18.054 111.548 18.1009 111.987 18.1946C112.43 18.2841 112.843 18.4503 113.227 18.6932C113.614 18.9361 113.932 19.2834 114.179 19.7351C114.426 20.1825 114.55 20.7642 114.55 21.4801V28H112.683V26.6577H112.607C112.483 26.9048 112.298 27.1477 112.05 27.3864C111.803 27.625 111.486 27.8232 111.098 27.9808C110.71 28.1385 110.246 28.2173 109.705 28.2173ZM110.12 26.6832C110.648 26.6832 111.1 26.5788 111.475 26.37C111.854 26.1612 112.142 25.8885 112.338 25.5518C112.538 25.2109 112.638 24.8466 112.638 24.4588V23.1932C112.57 23.2614 112.438 23.3253 112.242 23.3849C112.05 23.4403 111.831 23.4893 111.584 23.532C111.337 23.5703 111.096 23.6065 110.862 23.6406C110.627 23.6705 110.431 23.696 110.273 23.7173C109.903 23.7642 109.564 23.843 109.257 23.9538C108.955 24.0646 108.712 24.2244 108.528 24.4332C108.349 24.6378 108.26 24.9105 108.26 25.2514C108.26 25.7244 108.435 26.0824 108.784 26.3253C109.134 26.5639 109.579 26.6832 110.12 26.6832ZM121.859 28V18.1818H129.868V28H127.995V19.831H123.719V28H121.859ZM136.655 28.1982C135.688 28.1982 134.855 27.9915 134.156 27.5781C133.461 27.1605 132.924 26.5746 132.545 25.8203C132.17 25.0618 131.982 24.1733 131.982 23.1548C131.982 22.1491 132.17 21.2628 132.545 20.4957C132.924 19.7287 133.453 19.13 134.13 18.6996C134.812 18.2692 135.609 18.054 136.521 18.054C137.075 18.054 137.612 18.1456 138.132 18.3288C138.651 18.5121 139.118 18.7997 139.531 19.1918C139.945 19.5838 140.271 20.093 140.509 20.7195C140.748 21.3416 140.867 22.098 140.867 22.9886V23.6662H133.063V22.2344H138.994C138.994 21.7315 138.892 21.2862 138.688 20.8984C138.483 20.5064 138.195 20.1974 137.825 19.9716C137.458 19.7457 137.028 19.6328 136.534 19.6328C135.997 19.6328 135.528 19.7649 135.127 20.0291C134.731 20.2891 134.424 20.63 134.207 21.0518C133.994 21.4695 133.887 21.9233 133.887 22.4134V23.532C133.887 24.1882 134.002 24.7464 134.232 25.2067C134.467 25.6669 134.793 26.0185 135.21 26.2614C135.628 26.5 136.116 26.6193 136.674 26.6193C137.036 26.6193 137.367 26.5682 137.665 26.4659C137.963 26.3594 138.221 26.2017 138.438 25.9929C138.656 25.7841 138.822 25.5263 138.937 25.2195L140.746 25.5455C140.601 26.0781 140.341 26.5447 139.966 26.9453C139.595 27.3416 139.129 27.6506 138.566 27.8722C138.008 28.0895 137.371 28.1982 136.655 28.1982ZM142.988 31.6818V18.1818H144.854V19.7734H145.014C145.125 19.5689 145.285 19.3324 145.494 19.0639C145.702 18.7955 145.992 18.5611 146.363 18.3608C146.734 18.1562 147.224 18.054 147.833 18.054C148.626 18.054 149.333 18.2543 149.955 18.6548C150.577 19.0554 151.065 19.6328 151.419 20.3871C151.777 21.1413 151.956 22.049 151.956 23.1101C151.956 24.1712 151.779 25.081 151.425 25.8395C151.072 26.5937 150.586 27.1754 149.968 27.5845C149.35 27.9893 148.645 28.1918 147.852 28.1918C147.256 28.1918 146.768 28.0916 146.388 27.8913C146.013 27.6911 145.719 27.4567 145.506 27.1882C145.293 26.9197 145.129 26.6811 145.014 26.4723H144.899V31.6818H142.988ZM144.861 23.0909C144.861 23.7812 144.961 24.3864 145.161 24.9062C145.362 25.4261 145.651 25.8331 146.031 26.1271C146.41 26.4169 146.874 26.5618 147.424 26.5618C147.995 26.5618 148.472 26.4105 148.856 26.108C149.239 25.8011 149.529 25.3857 149.725 24.8615C149.925 24.3374 150.026 23.7472 150.026 23.0909C150.026 22.4432 149.928 21.8615 149.732 21.3459C149.54 20.8303 149.25 20.4233 148.862 20.125C148.479 19.8267 147.999 19.6776 147.424 19.6776C146.87 19.6776 146.401 19.8203 146.018 20.1058C145.638 20.3913 145.351 20.7898 145.155 21.3011C144.959 21.8125 144.861 22.4091 144.861 23.0909ZM154.097 28V18.1818H158.169C159.277 18.1818 160.155 18.4183 160.803 18.8913C161.45 19.3601 161.774 19.9972 161.774 20.8026C161.774 21.3778 161.591 21.8338 161.224 22.1705C160.858 22.5071 160.372 22.733 159.767 22.848C160.206 22.8991 160.609 23.0312 160.975 23.2443C161.342 23.4531 161.636 23.7344 161.857 24.0881C162.083 24.4418 162.196 24.8636 162.196 25.3537C162.196 25.8736 162.062 26.3338 161.793 26.7344C161.525 27.1307 161.135 27.4418 160.624 27.6676C160.116 27.8892 159.505 28 158.789 28H154.097ZM155.893 26.402H158.789C159.262 26.402 159.633 26.2891 159.901 26.0632C160.17 25.8374 160.304 25.5305 160.304 25.1428C160.304 24.6868 160.17 24.3288 159.901 24.0689C159.633 23.8047 159.262 23.6726 158.789 23.6726H155.893V26.402ZM155.893 22.2727H158.188C158.546 22.2727 158.853 22.2216 159.109 22.1193C159.369 22.017 159.567 21.8722 159.703 21.6847C159.844 21.4929 159.914 21.267 159.914 21.0071C159.914 20.6278 159.759 20.3317 159.447 20.1186C159.136 19.9055 158.71 19.799 158.169 19.799H155.893V22.2727ZM165.731 21.5568H168.582C169.783 21.5568 170.708 21.8551 171.356 22.4517C172.004 23.0483 172.327 23.8175 172.327 24.7592C172.327 25.3729 172.183 25.9247 171.893 26.4148C171.603 26.9048 171.179 27.2926 170.621 27.5781C170.063 27.8594 169.383 28 168.582 28H164.293V18.1818H166.165V26.3509H168.582C169.131 26.3509 169.583 26.2081 169.937 25.9226C170.29 25.6328 170.467 25.2642 170.467 24.8168C170.467 24.3437 170.29 23.9581 169.937 23.6598C169.583 23.3572 169.131 23.206 168.582 23.206H165.731V21.5568ZM173.721 28V18.1818H175.632V28H173.721ZM180.07 25.3217L184.397 18.1818H186.455V28H184.583V20.8537L180.274 28H178.197V18.1818H180.07V25.3217ZM183.579 14.858H185.151C185.151 15.5781 184.896 16.1641 184.384 16.6158C183.877 17.0632 183.191 17.2869 182.326 17.2869C181.465 17.2869 180.781 17.0632 180.274 16.6158C179.767 16.1641 179.514 15.5781 179.514 14.858H181.08C181.08 15.1776 181.173 15.4609 181.361 15.7081C181.548 15.951 181.87 16.0724 182.326 16.0724C182.774 16.0724 183.093 15.951 183.285 15.7081C183.481 15.4652 183.579 15.1818 183.579 14.858ZM193.789 28V18.1818H195.7V22.2983H196.62L199.861 18.1818H202.226L198.423 22.9567L202.271 28H199.9L196.94 24.0753H195.7V28H193.789ZM205.016 31.6818C204.731 31.6818 204.471 31.6584 204.237 31.6115C204.002 31.5689 203.827 31.522 203.712 31.4709L204.173 29.9048C204.522 29.9986 204.833 30.0391 205.106 30.0263C205.379 30.0135 205.619 29.9112 205.828 29.7195C206.041 29.5277 206.229 29.2145 206.391 28.7798L206.627 28.1278L203.035 18.1818H205.08L207.567 25.8011H207.669L210.156 18.1818H212.207L208.161 29.3104C207.974 29.8217 207.735 30.2543 207.445 30.608C207.156 30.9659 206.81 31.2344 206.41 31.4134C206.009 31.5923 205.545 31.6818 205.016 31.6818ZM214.004 31.6818V18.1818H215.87V19.7734H216.03C216.141 19.5689 216.3 19.3324 216.509 19.0639C216.718 18.7955 217.008 18.5611 217.379 18.3608C217.749 18.1562 218.239 18.054 218.849 18.054C219.641 18.054 220.349 18.2543 220.971 18.6548C221.593 19.0554 222.081 19.6328 222.435 20.3871C222.793 21.1413 222.972 22.049 222.972 23.1101C222.972 24.1712 222.795 25.081 222.441 25.8395C222.087 26.5937 221.602 27.1754 220.984 27.5845C220.366 27.9893 219.661 28.1918 218.868 28.1918C218.271 28.1918 217.783 28.0916 217.404 27.8913C217.029 27.6911 216.735 27.4567 216.522 27.1882C216.309 26.9197 216.145 26.6811 216.03 26.4723H215.915V31.6818H214.004ZM215.876 23.0909C215.876 23.7812 215.977 24.3864 216.177 24.9062C216.377 25.4261 216.667 25.8331 217.046 26.1271C217.425 26.4169 217.89 26.5618 218.44 26.5618C219.011 26.5618 219.488 26.4105 219.871 26.108C220.255 25.8011 220.545 25.3857 220.741 24.8615C220.941 24.3374 221.041 23.7472 221.041 23.0909C221.041 22.4432 220.943 21.8615 220.747 21.3459C220.555 20.8303 220.266 20.4233 219.878 20.125C219.494 19.8267 219.015 19.6776 218.44 19.6776C217.886 19.6776 217.417 19.8203 217.033 20.1058C216.654 20.3913 216.366 20.7898 216.17 21.3011C215.974 21.8125 215.876 22.4091 215.876 23.0909ZM229.249 28.1982C228.298 28.1982 227.48 27.983 226.794 27.5526C226.112 27.1179 225.588 26.5192 225.222 25.7564C224.855 24.9936 224.672 24.12 224.672 23.1357C224.672 22.1385 224.859 21.2585 225.234 20.4957C225.609 19.7287 226.138 19.13 226.82 18.6996C227.501 18.2692 228.305 18.054 229.229 18.054C229.975 18.054 230.64 18.1925 231.224 18.4695C231.808 18.7422 232.278 19.1257 232.636 19.62C232.999 20.1143 233.214 20.6918 233.282 21.3523H231.422C231.32 20.892 231.085 20.4957 230.719 20.1634C230.357 19.831 229.871 19.6648 229.261 19.6648C228.729 19.6648 228.262 19.8054 227.862 20.0866C227.465 20.3636 227.156 20.7599 226.935 21.2756C226.713 21.7869 226.602 22.392 226.602 23.0909C226.602 23.8068 226.711 24.4247 226.928 24.9446C227.146 25.4645 227.452 25.8672 227.849 26.1527C228.249 26.4382 228.72 26.581 229.261 26.581C229.624 26.581 229.952 26.5149 230.246 26.3828C230.544 26.2464 230.793 26.0526 230.994 25.8011C231.198 25.5497 231.341 25.2472 231.422 24.8935H233.282C233.214 25.5284 233.007 26.0952 232.662 26.5938C232.317 27.0923 231.854 27.4844 231.275 27.7699C230.7 28.0554 230.024 28.1982 229.249 28.1982Z" fill="black"/>
</svg>
