<svg width="228" height="47" viewBox="0 0 228 47" fill="none" xmlns="http://www.w3.org/2000/svg">
<rect x="1.25" y="1.25" width="225.5" height="44.5" rx="18.75" fill="#FFFD00"/>
<rect x="1.25" y="1.25" width="225.5" height="44.5" rx="18.75" stroke="#FFFD00" stroke-width="1.5"/>
<path d="M18.4332 30V20.1818H26.4425V30H24.5696V21.831H20.2933V30H18.4332ZM28.9977 33.6818V20.1818H30.8642V21.7734H31.024C31.1348 21.5689 31.2946 21.3324 31.5034 21.0639C31.7122 20.7955 32.002 20.5611 32.3727 20.3608C32.7434 20.1562 33.2335 20.054 33.8429 20.054C34.6355 20.054 35.3429 20.2543 35.965 20.6548C36.5872 21.0554 37.0751 21.6328 37.4288 22.3871C37.7868 23.1413 37.9657 24.049 37.9657 25.1101C37.9657 26.1712 37.7889 27.081 37.4352 27.8395C37.0815 28.5937 36.5957 29.1754 35.9778 29.5845C35.3599 29.9893 34.6547 30.1918 33.862 30.1918C33.2654 30.1918 32.7775 30.0916 32.3983 29.8913C32.0233 29.6911 31.7292 29.4567 31.5162 29.1882C31.3031 28.9197 31.139 28.6811 31.024 28.4723H30.9089V33.6818H28.9977ZM30.8706 25.0909C30.8706 25.7812 30.9707 26.3864 31.171 26.9062C31.3713 27.4261 31.661 27.8331 32.0403 28.1271C32.4196 28.4169 32.8841 28.5618 33.4338 28.5618C34.0048 28.5618 34.4821 28.4105 34.8656 28.108C35.2491 27.8011 35.5389 27.3857 35.7349 26.8615C35.9352 26.3374 36.0353 25.7472 36.0353 25.0909C36.0353 24.4432 35.9373 23.8615 35.7413 23.3459C35.5495 22.8303 35.2598 22.4233 34.872 22.125C34.4885 21.8267 34.0091 21.6776 33.4338 21.6776C32.8798 21.6776 32.411 21.8203 32.0275 22.1058C31.6483 22.3913 31.3606 22.7898 31.1646 23.3011C30.9686 23.8125 30.8706 24.4091 30.8706 25.0909ZM41.9799 27.3217L46.3074 20.1818H48.3656V30H46.4927V22.8537L42.1845 30H40.1071V20.1818H41.9799V27.3217ZM57.2122 20.1818V21.831H52.8208V30H50.9352V20.1818H57.2122ZM57.65 30L57.6436 28.3445H57.9952C58.2679 28.3445 58.4959 28.2869 58.6792 28.1719C58.8667 28.0526 59.0201 27.8523 59.1394 27.571C59.2587 27.2898 59.3503 26.902 59.4142 26.4077C59.4782 25.9091 59.525 25.2827 59.5549 24.5284L59.7275 20.1818H66.5797V30H64.7069V21.831H61.498L61.3446 25.1676C61.3063 25.9773 61.2232 26.6847 61.0953 27.2898C60.9718 27.8949 60.7907 28.3999 60.552 28.8047C60.3134 29.2053 60.0066 29.5057 59.6316 29.706C59.2566 29.902 58.8006 30 58.2637 30H57.65ZM71.9858 30.2173C71.3636 30.2173 70.8011 30.1023 70.2983 29.8722C69.7955 29.6378 69.397 29.299 69.103 28.8558C68.8132 28.4126 68.6683 27.8693 68.6683 27.2259C68.6683 26.6719 68.7749 26.2159 68.9879 25.858C69.201 25.5 69.4886 25.2166 69.8509 25.0078C70.2131 24.799 70.6179 24.6413 71.0653 24.5348C71.5128 24.4283 71.9688 24.3473 72.4332 24.2919C73.0213 24.2237 73.4986 24.1683 73.8651 24.1257C74.2315 24.0788 74.4979 24.0043 74.6641 23.902C74.8303 23.7997 74.9134 23.6335 74.9134 23.4034V23.3587C74.9134 22.8004 74.7557 22.3679 74.4403 22.0611C74.1293 21.7543 73.6648 21.6009 73.0469 21.6009C72.4034 21.6009 71.8963 21.7436 71.5256 22.0291C71.1591 22.3104 70.9055 22.6236 70.7649 22.9688L68.9688 22.5597C69.1818 21.9631 69.4929 21.4815 69.902 21.1151C70.3153 20.7443 70.7905 20.4759 71.3274 20.3097C71.8643 20.1392 72.429 20.054 73.0213 20.054C73.4134 20.054 73.8288 20.1009 74.2678 20.1946C74.7109 20.2841 75.1243 20.4503 75.5078 20.6932C75.8956 20.9361 76.2131 21.2834 76.4602 21.7351C76.7074 22.1825 76.831 22.7642 76.831 23.4801V30H74.9645V28.6577H74.8878C74.7642 28.9048 74.5788 29.1477 74.3317 29.3864C74.0845 29.625 73.767 29.8232 73.3793 29.9808C72.9915 30.1385 72.527 30.2173 71.9858 30.2173ZM72.4013 28.6832C72.9297 28.6832 73.3814 28.5788 73.7564 28.37C74.1357 28.1612 74.4233 27.8885 74.6193 27.5518C74.8196 27.2109 74.9197 26.8466 74.9197 26.4588V25.1932C74.8516 25.2614 74.7195 25.3253 74.5234 25.3849C74.3317 25.4403 74.1122 25.4893 73.8651 25.532C73.6179 25.5703 73.3771 25.6065 73.1428 25.6406C72.9084 25.6705 72.7124 25.696 72.5547 25.7173C72.1839 25.7642 71.8452 25.843 71.5384 25.9538C71.2358 26.0646 70.9929 26.2244 70.8097 26.4332C70.6307 26.6378 70.5412 26.9105 70.5412 27.2514C70.5412 27.7244 70.7159 28.0824 71.0653 28.3253C71.4148 28.5639 71.8601 28.6832 72.4013 28.6832ZM83.5123 30.1982C82.562 30.1982 81.7438 29.983 81.0577 29.5526C80.3759 29.1179 79.8517 28.5192 79.4853 27.7564C79.1188 26.9936 78.9355 26.12 78.9355 25.1357C78.9355 24.1385 79.123 23.2585 79.498 22.4957C79.873 21.7287 80.4015 21.13 81.0833 20.6996C81.7651 20.2692 82.5684 20.054 83.4931 20.054C84.2388 20.054 84.9036 20.1925 85.4874 20.4695C86.0712 20.7422 86.5421 21.1257 86.9 21.62C87.2623 22.1143 87.4775 22.6918 87.5456 23.3523H85.6855C85.5833 22.892 85.3489 22.4957 84.9824 22.1634C84.6202 21.831 84.1344 21.6648 83.525 21.6648C82.9924 21.6648 82.5257 21.8054 82.1252 22.0866C81.7289 22.3636 81.4199 22.7599 81.1983 23.2756C80.9767 23.7869 80.8659 24.392 80.8659 25.0909C80.8659 25.8068 80.9746 26.4247 81.1919 26.9446C81.4093 27.4645 81.7161 27.8672 82.1124 28.1527C82.513 28.4382 82.9838 28.581 83.525 28.581C83.8873 28.581 84.2154 28.5149 84.5094 28.3828C84.8077 28.2464 85.057 28.0526 85.2573 27.8011C85.4618 27.5497 85.6046 27.2472 85.6855 26.8935H87.5456C87.4775 27.5284 87.2708 28.0952 86.9256 28.5938C86.5804 29.0923 86.1181 29.4844 85.5385 29.7699C84.9632 30.0554 84.2878 30.1982 83.5123 30.1982ZM91.4624 27.3217L95.7898 20.1818H97.848V30H95.9751V22.8537L91.6669 30H89.5895V20.1818H91.4624V27.3217ZM99.1999 21.831V20.1818H107.484V21.831H104.282V30H102.415V21.831H99.1999ZM110.944 23.5568H113.795C114.996 23.5568 115.921 23.8551 116.569 24.4517C117.216 25.0483 117.54 25.8175 117.54 26.7592C117.54 27.3729 117.395 27.9247 117.106 28.4148C116.816 28.9048 116.392 29.2926 115.834 29.5781C115.275 29.8594 114.596 30 113.795 30H109.506V20.1818H111.378V28.3509H113.795C114.344 28.3509 114.796 28.2081 115.15 27.9226C115.503 27.6328 115.68 27.2642 115.68 26.8168C115.68 26.3437 115.503 25.9581 115.15 25.6598C114.796 25.3572 114.344 25.206 113.795 25.206H110.944V23.5568ZM131.101 24.2663V25.9219H125.783V24.2663H131.101ZM126.32 20.1818V30H124.447V20.1818H126.32ZM132.437 20.1818V30H130.57V20.1818H132.437ZM137.851 30.2173C137.229 30.2173 136.666 30.1023 136.164 29.8722C135.661 29.6378 135.262 29.299 134.968 28.8558C134.678 28.4126 134.534 27.8693 134.534 27.2259C134.534 26.6719 134.64 26.2159 134.853 25.858C135.066 25.5 135.354 25.2166 135.716 25.0078C136.078 24.799 136.483 24.6413 136.931 24.5348C137.378 24.4283 137.834 24.3473 138.298 24.2919C138.887 24.2237 139.364 24.1683 139.73 24.1257C140.097 24.0788 140.363 24.0043 140.529 23.902C140.695 23.7997 140.779 23.6335 140.779 23.4034V23.3587C140.779 22.8004 140.621 22.3679 140.306 22.0611C139.994 21.7543 139.53 21.6009 138.912 21.6009C138.269 21.6009 137.762 21.7436 137.391 22.0291C137.024 22.3104 136.771 22.6236 136.63 22.9688L134.834 22.5597C135.047 21.9631 135.358 21.4815 135.767 21.1151C136.181 20.7443 136.656 20.4759 137.193 20.3097C137.73 20.1392 138.294 20.054 138.887 20.054C139.279 20.054 139.694 20.1009 140.133 20.1946C140.576 20.2841 140.99 20.4503 141.373 20.6932C141.761 20.9361 142.078 21.2834 142.325 21.7351C142.573 22.1825 142.696 22.7642 142.696 23.4801V30H140.83V28.6577H140.753C140.629 28.9048 140.444 29.1477 140.197 29.3864C139.95 29.625 139.632 29.8232 139.244 29.9808C138.857 30.1385 138.392 30.2173 137.851 30.2173ZM138.267 28.6832C138.795 28.6832 139.247 28.5788 139.622 28.37C140.001 28.1612 140.289 27.8885 140.485 27.5518C140.685 27.2109 140.785 26.8466 140.785 26.4588V25.1932C140.717 25.2614 140.585 25.3253 140.389 25.3849C140.197 25.4403 139.977 25.4893 139.73 25.532C139.483 25.5703 139.242 25.6065 139.008 25.6406C138.774 25.6705 138.578 25.696 138.42 25.7173C138.049 25.7642 137.71 25.843 137.404 25.9538C137.101 26.0646 136.858 26.2244 136.675 26.4332C136.496 26.6378 136.406 26.9105 136.406 27.2514C136.406 27.7244 136.581 28.0824 136.931 28.3253C137.28 28.5639 137.725 28.6832 138.267 28.6832ZM150.006 33.6818V20.1818H151.872V21.7734H152.032C152.143 21.5689 152.302 21.3324 152.511 21.0639C152.72 20.7955 153.01 20.5611 153.381 20.3608C153.751 20.1562 154.241 20.054 154.851 20.054C155.643 20.054 156.351 20.2543 156.973 20.6548C157.595 21.0554 158.083 21.6328 158.437 22.3871C158.795 23.1413 158.974 24.049 158.974 25.1101C158.974 26.1712 158.797 27.081 158.443 27.8395C158.089 28.5937 157.604 29.1754 156.986 29.5845C156.368 29.9893 155.662 30.1918 154.87 30.1918C154.273 30.1918 153.785 30.0916 153.406 29.8913C153.031 29.6911 152.737 29.4567 152.524 29.1882C152.311 28.9197 152.147 28.6811 152.032 28.4723H151.917V33.6818H150.006ZM151.878 25.0909C151.878 25.7812 151.979 26.3864 152.179 26.9062C152.379 27.4261 152.669 27.8331 153.048 28.1271C153.427 28.4169 153.892 28.5618 154.442 28.5618C155.013 28.5618 155.49 28.4105 155.873 28.108C156.257 27.8011 156.547 27.3857 156.743 26.8615C156.943 26.3374 157.043 25.7472 157.043 25.0909C157.043 24.4432 156.945 23.8615 156.749 23.3459C156.557 22.8303 156.268 22.4233 155.88 22.125C155.496 21.8267 155.017 21.6776 154.442 21.6776C153.888 21.6776 153.419 21.8203 153.035 22.1058C152.656 22.3913 152.368 22.7898 152.172 23.3011C151.976 23.8125 151.878 24.4091 151.878 25.0909ZM163.972 30.2173C163.35 30.2173 162.787 30.1023 162.285 29.8722C161.782 29.6378 161.383 29.299 161.089 28.8558C160.8 28.4126 160.655 27.8693 160.655 27.2259C160.655 26.6719 160.761 26.2159 160.974 25.858C161.187 25.5 161.475 25.2166 161.837 25.0078C162.199 24.799 162.604 24.6413 163.052 24.5348C163.499 24.4283 163.955 24.3473 164.42 24.2919C165.008 24.2237 165.485 24.1683 165.851 24.1257C166.218 24.0788 166.484 24.0043 166.65 23.902C166.817 23.7997 166.9 23.6335 166.9 23.4034V23.3587C166.9 22.8004 166.742 22.3679 166.427 22.0611C166.116 21.7543 165.651 21.6009 165.033 21.6009C164.39 21.6009 163.883 21.7436 163.512 22.0291C163.145 22.3104 162.892 22.6236 162.751 22.9688L160.955 22.5597C161.168 21.9631 161.479 21.4815 161.888 21.1151C162.302 20.7443 162.777 20.4759 163.314 20.3097C163.851 20.1392 164.415 20.054 165.008 20.054C165.4 20.054 165.815 20.1009 166.254 20.1946C166.697 20.2841 167.111 20.4503 167.494 20.6932C167.882 20.9361 168.199 21.2834 168.447 21.7351C168.694 22.1825 168.817 22.7642 168.817 23.4801V30H166.951V28.6577H166.874C166.751 28.9048 166.565 29.1477 166.318 29.3864C166.071 29.625 165.753 29.8232 165.366 29.9808C164.978 30.1385 164.513 30.2173 163.972 30.2173ZM164.388 28.6832C164.916 28.6832 165.368 28.5788 165.743 28.37C166.122 28.1612 166.41 27.8885 166.606 27.5518C166.806 27.2109 166.906 26.8466 166.906 26.4588V25.1932C166.838 25.2614 166.706 25.3253 166.51 25.3849C166.318 25.4403 166.099 25.4893 165.851 25.532C165.604 25.5703 165.363 25.6065 165.129 25.6406C164.895 25.6705 164.699 25.696 164.541 25.7173C164.17 25.7642 163.831 25.843 163.525 25.9538C163.222 26.0646 162.979 26.2244 162.796 26.4332C162.617 26.6378 162.528 26.9105 162.528 27.2514C162.528 27.7244 162.702 28.0824 163.052 28.3253C163.401 28.5639 163.846 28.6832 164.388 28.6832ZM178.938 16.5256L179.73 17.7337C179.436 18.0021 179.102 18.1939 178.727 18.3089C178.356 18.4197 177.928 18.4901 177.442 18.5199C176.956 18.5455 176.4 18.5689 175.773 18.5902C175.066 18.6115 174.484 18.7649 174.028 19.0504C173.572 19.3317 173.221 19.7493 172.974 20.3033C172.731 20.853 172.573 21.5433 172.501 22.3743H172.622C172.942 21.7649 173.385 21.3089 173.952 21.0064C174.523 20.7038 175.164 20.5526 175.876 20.5526C176.668 20.5526 177.374 20.7337 177.991 21.0959C178.609 21.4581 179.095 21.9886 179.449 22.6875C179.807 23.3821 179.986 24.2322 179.986 25.2379C179.986 26.2564 179.798 27.1364 179.423 27.8778C179.053 28.6193 178.528 29.1925 177.851 29.5973C177.178 29.9979 176.383 30.1982 175.467 30.1982C174.55 30.1982 173.751 29.9915 173.07 29.5781C172.392 29.1605 171.866 28.5426 171.491 27.7244C171.12 26.9062 170.935 25.8963 170.935 24.6946V23.723C170.935 21.4773 171.335 19.7876 172.136 18.6541C172.938 17.5206 174.135 16.9389 175.729 16.9091C176.244 16.8963 176.705 16.8942 177.109 16.9027C177.514 16.907 177.868 16.8878 178.17 16.8452C178.477 16.7983 178.733 16.6918 178.938 16.5256ZM175.473 28.5938C176.006 28.5938 176.464 28.4595 176.847 28.1911C177.235 27.9183 177.533 27.5327 177.742 27.0341C177.951 26.5355 178.055 25.9474 178.055 25.2699C178.055 24.6051 177.951 24.0405 177.742 23.576C177.533 23.1115 177.235 22.7578 176.847 22.5149C176.46 22.2678 175.995 22.1442 175.454 22.1442C175.053 22.1442 174.695 22.2145 174.38 22.3551C174.065 22.4915 173.794 22.6939 173.568 22.9624C173.347 23.2308 173.174 23.5589 173.05 23.9467C172.931 24.3303 172.867 24.7713 172.859 25.2699C172.859 26.2841 173.091 27.0916 173.555 27.6925C174.024 28.2933 174.663 28.5938 175.473 28.5938ZM186.256 30.1982C185.336 30.1982 184.533 29.9872 183.847 29.5653C183.161 29.1435 182.628 28.5533 182.249 27.7947C181.869 27.0362 181.68 26.1499 181.68 25.1357C181.68 24.1172 181.869 23.2266 182.249 22.4638C182.628 21.701 183.161 21.1087 183.847 20.6868C184.533 20.2649 185.336 20.054 186.256 20.054C187.177 20.054 187.98 20.2649 188.666 20.6868C189.352 21.1087 189.885 21.701 190.264 22.4638C190.643 23.2266 190.833 24.1172 190.833 25.1357C190.833 26.1499 190.643 27.0362 190.264 27.7947C189.885 28.5533 189.352 29.1435 188.666 29.5653C187.98 29.9872 187.177 30.1982 186.256 30.1982ZM186.263 28.5938C186.859 28.5938 187.354 28.4361 187.746 28.1207C188.138 27.8054 188.428 27.3857 188.615 26.8615C188.807 26.3374 188.903 25.7599 188.903 25.1293C188.903 24.5028 188.807 23.9276 188.615 23.4034C188.428 22.875 188.138 22.451 187.746 22.1314C187.354 21.8118 186.859 21.652 186.263 21.652C185.662 21.652 185.163 21.8118 184.767 22.1314C184.375 22.451 184.083 22.875 183.891 23.4034C183.704 23.9276 183.61 24.5028 183.61 25.1293C183.61 25.7599 183.704 26.3374 183.891 26.8615C184.083 27.3857 184.375 27.8054 184.767 28.1207C185.163 28.4361 185.662 28.5938 186.263 28.5938ZM191.784 21.831V20.1818H200.068V21.831H196.866V30H194.999V21.831H191.784ZM203.298 33.6818C203.012 33.6818 202.752 33.6584 202.518 33.6115C202.283 33.5689 202.109 33.522 201.994 33.4709L202.454 31.9048C202.803 31.9986 203.114 32.0391 203.387 32.0263C203.66 32.0135 203.901 31.9112 204.109 31.7195C204.322 31.5277 204.51 31.2145 204.672 30.7798L204.908 30.1278L201.316 20.1818H203.362L205.848 27.8011H205.95L208.437 20.1818H210.489L206.442 31.3104C206.255 31.8217 206.016 32.2543 205.727 32.608C205.437 32.9659 205.092 33.2344 204.691 33.4134C204.29 33.5923 203.826 33.6818 203.298 33.6818Z" fill="black"/>
</svg>
