<svg width="235" height="62" viewBox="0 0 235 62" fill="none" xmlns="http://www.w3.org/2000/svg">
<path d="M56 35V26C56 20.4772 51.5228 16 46 16H1.78814e-07" stroke="#FFFD00" stroke-width="2"/>
<rect x="31" y="33" width="204" height="29" rx="12" fill="#FFFD00"/>
<path d="M42.6619 54.4545C42.4716 54.4545 42.2983 54.4389 42.142 54.4077C41.9858 54.3793 41.8693 54.348 41.7926 54.3139L42.0994 53.2699C42.3324 53.3324 42.5398 53.3594 42.7216 53.3509C42.9034 53.3423 43.0639 53.2741 43.2031 53.1463C43.3452 53.0185 43.4702 52.8097 43.5781 52.5199L43.7358 52.0852L41.3409 45.4545H42.7045L44.3622 50.5341H44.4304L46.0881 45.4545H47.456L44.7585 52.8736C44.6335 53.2145 44.4744 53.5028 44.2812 53.7386C44.0881 53.9773 43.858 54.1563 43.5909 54.2756C43.3239 54.3949 43.0142 54.4545 42.6619 54.4545ZM51.2475 54.2287V43.2727H52.5217V54.2287H51.2475ZM51.2475 52.1321C50.7844 52.1321 50.3626 52.0526 49.9819 51.8935C49.6012 51.7315 49.2731 51.5014 48.9975 51.2031C48.7219 50.9048 48.5089 50.5483 48.3583 50.1335C48.2106 49.7187 48.1367 49.2599 48.1367 48.7571C48.1367 48.2486 48.2106 47.7869 48.3583 47.3722C48.5089 46.9574 48.7219 46.6009 48.9975 46.3026C49.2731 46.0043 49.6012 45.7741 49.9819 45.6122C50.3626 45.4503 50.7844 45.3693 51.2475 45.3693H51.5629V52.1321H51.2475ZM51.2475 51.0582H51.4265V46.4432H51.2475C50.9407 46.4432 50.6737 46.5057 50.4464 46.6307C50.2191 46.7528 50.0302 46.9219 49.8796 47.1378C49.729 47.3509 49.6154 47.5966 49.5387 47.875C49.4648 48.1534 49.4279 48.4474 49.4279 48.7571C49.4279 49.1719 49.4947 49.554 49.6282 49.9034C49.7617 50.25 49.9634 50.5298 50.2333 50.7429C50.5032 50.9531 50.8413 51.0582 51.2475 51.0582ZM52.5217 52.1321H52.2021V45.3693H52.5217C52.9847 45.3693 53.4066 45.4503 53.7873 45.6122C54.168 45.7741 54.4947 46.0043 54.7674 46.3026C55.043 46.6009 55.2546 46.9574 55.4023 47.3722C55.5529 47.7869 55.6282 48.2486 55.6282 48.7571C55.6282 49.2599 55.5529 49.7187 55.4023 50.1335C55.2546 50.5483 55.043 50.9048 54.7674 51.2031C54.4947 51.5014 54.168 51.7315 53.7873 51.8935C53.4066 52.0526 52.9847 52.1321 52.5217 52.1321ZM52.5217 51.0582C52.8285 51.0582 53.0955 50.9986 53.3228 50.8793C53.5501 50.7571 53.739 50.5895 53.8896 50.3764C54.0401 50.1605 54.1523 49.9148 54.2262 49.6392C54.3001 49.3608 54.337 49.0668 54.337 48.7571C54.337 48.3452 54.2702 47.9645 54.1367 47.6151C54.006 47.2628 53.8058 46.9801 53.5359 46.767C53.266 46.5511 52.9279 46.4432 52.5217 46.4432H52.3384V51.0582H52.5217ZM58.2926 50.2145L61.1776 45.4545H62.5497V52H61.3011V47.2358L58.429 52H57.044V45.4545H58.2926V50.2145ZM67.9361 50.4233L70.0497 45.4545H71.1491L68.4091 52H67.4631L64.7784 45.4545H65.8651L67.9361 50.4233ZM65.5114 45.4545V52H64.2628V45.4545H65.5114ZM70.3949 52V45.4545H71.6349V52H70.3949ZM76.0902 52.1321C75.4567 52.1321 74.9112 51.9886 74.4538 51.7017C73.9993 51.4119 73.6499 51.0128 73.4055 50.5043C73.1612 49.9957 73.0391 49.4134 73.0391 48.7571C73.0391 48.0923 73.1641 47.5057 73.4141 46.9972C73.6641 46.4858 74.0163 46.0866 74.4709 45.7997C74.9254 45.5128 75.4609 45.3693 76.0774 45.3693C76.5746 45.3693 77.0178 45.4616 77.407 45.6463C77.7962 45.8281 78.1101 46.0838 78.3487 46.4134C78.5902 46.7429 78.7337 47.1278 78.7791 47.5682H77.5391C77.4709 47.2614 77.3146 46.9972 77.0703 46.7756C76.8288 46.554 76.505 46.4432 76.0987 46.4432C75.7436 46.4432 75.4325 46.5369 75.1655 46.7244C74.9013 46.9091 74.6953 47.1733 74.5476 47.517C74.3999 47.858 74.326 48.2614 74.326 48.7273C74.326 49.2045 74.3984 49.6165 74.5433 49.9631C74.6882 50.3097 74.8928 50.5781 75.157 50.7685C75.424 50.9588 75.7379 51.054 76.0987 51.054C76.3402 51.054 76.5589 51.0099 76.755 50.9219C76.9538 50.831 77.12 50.7017 77.2536 50.5341C77.3899 50.3665 77.4851 50.1648 77.5391 49.929H78.7791C78.7337 50.3523 78.5959 50.7301 78.3658 51.0625C78.1357 51.3949 77.8274 51.6562 77.4411 51.8466C77.0575 52.0369 76.6072 52.1321 76.0902 52.1321ZM80.1417 52V45.4545H81.4158V48.1989H82.0295L84.19 45.4545H85.7667L83.2312 48.6378L85.7965 52H84.2156L82.2425 49.3835H81.4158V52H80.1417ZM88.6911 52.1449C88.2763 52.1449 87.9013 52.0682 87.5661 51.9148C87.2308 51.7585 86.9652 51.5327 86.7692 51.2372C86.576 50.9418 86.4794 50.5795 86.4794 50.1506C86.4794 49.7812 86.5504 49.4773 86.6925 49.2386C86.8345 49 87.0263 48.8111 87.2678 48.6719C87.5092 48.5327 87.7791 48.4276 88.0774 48.3565C88.3757 48.2855 88.6797 48.2315 88.9893 48.1946C89.3814 48.1491 89.6996 48.1122 89.9439 48.0838C90.1882 48.0526 90.3658 48.0028 90.4766 47.9347C90.5874 47.8665 90.6428 47.7557 90.6428 47.6023V47.5724C90.6428 47.2003 90.5376 46.9119 90.3274 46.7074C90.12 46.5028 89.8104 46.4006 89.3984 46.4006C88.9695 46.4006 88.6314 46.4957 88.3842 46.6861C88.1399 46.8736 87.9709 47.0824 87.8771 47.3125L86.6797 47.0398C86.8217 46.642 87.0291 46.321 87.3018 46.0767C87.5774 45.8295 87.8942 45.6506 88.2521 45.5398C88.6101 45.4261 88.9865 45.3693 89.3814 45.3693C89.6428 45.3693 89.9197 45.4006 90.2124 45.4631C90.5078 45.5227 90.7834 45.6335 91.0391 45.7955C91.2976 45.9574 91.5092 46.1889 91.674 46.4901C91.8388 46.7884 91.9212 47.1761 91.9212 47.6534V52H90.6768V51.1051H90.6257C90.5433 51.2699 90.4197 51.4318 90.255 51.5909C90.0902 51.75 89.8786 51.8821 89.62 51.9872C89.3615 52.0923 89.0518 52.1449 88.6911 52.1449ZM88.968 51.1222C89.3203 51.1222 89.6214 51.0526 89.8714 50.9134C90.1243 50.7741 90.3161 50.5923 90.4467 50.3679C90.5803 50.1406 90.647 49.8977 90.647 49.6392V48.7955C90.6016 48.8409 90.5135 48.8835 90.3828 48.9233C90.255 48.9602 90.1087 48.9929 89.9439 49.0213C89.7791 49.0469 89.6186 49.071 89.4624 49.0938C89.3061 49.1136 89.1754 49.1307 89.0703 49.1449C88.8232 49.1761 88.5973 49.2287 88.3928 49.3026C88.1911 49.3764 88.0291 49.483 87.907 49.6222C87.7876 49.7585 87.728 49.9403 87.728 50.1676C87.728 50.483 87.8445 50.7216 88.0774 50.8835C88.3104 51.0426 88.6072 51.1222 88.968 51.1222ZM97.5217 52V46.5412H95.9535C95.5813 46.5412 95.2915 46.6278 95.0842 46.8011C94.8768 46.9744 94.7731 47.2017 94.7731 47.483C94.7731 47.7614 94.8683 47.9858 95.0586 48.1562C95.2518 48.3239 95.5217 48.4077 95.8683 48.4077H97.8924V49.4389H95.8683C95.3853 49.4389 94.9677 49.3594 94.6154 49.2003C94.266 49.0384 93.9961 48.8097 93.8058 48.5142C93.6183 48.2187 93.5245 47.8693 93.5245 47.4659C93.5245 47.054 93.6211 46.6989 93.8143 46.4006C94.0103 46.0994 94.2901 45.8665 94.6538 45.7017C95.0202 45.5369 95.4535 45.4545 95.9535 45.4545H98.7191V52H97.5217ZM93.2262 52L95.0714 48.6932H96.3754L94.5302 52H93.2262ZM102.952 53.8878V50.8963H103.484C103.621 50.7713 103.736 50.6222 103.83 50.4489C103.926 50.2756 104.007 50.0696 104.072 49.831C104.141 49.5923 104.197 49.3139 104.243 48.9957C104.288 48.6747 104.328 48.3082 104.362 47.8963L104.567 45.4545H109.016V50.8963H110.021V53.8878H108.777V52H104.213V53.8878H102.952ZM104.848 50.8963H107.771V46.5455H105.709L105.572 47.8963C105.507 48.5838 105.425 49.1804 105.325 49.6861C105.226 50.1889 105.067 50.5923 104.848 50.8963ZM114.024 52.1321C113.41 52.1321 112.875 51.9915 112.417 51.7102C111.96 51.429 111.605 51.0355 111.352 50.5298C111.099 50.0241 110.973 49.4332 110.973 48.7571C110.973 48.0781 111.099 47.4844 111.352 46.9759C111.605 46.4673 111.96 46.0724 112.417 45.7912C112.875 45.5099 113.41 45.3693 114.024 45.3693C114.637 45.3693 115.173 45.5099 115.63 45.7912C116.088 46.0724 116.443 46.4673 116.696 46.9759C116.949 47.4844 117.075 48.0781 117.075 48.7571C117.075 49.4332 116.949 50.0241 116.696 50.5298C116.443 51.0355 116.088 51.429 115.63 51.7102C115.173 51.9915 114.637 52.1321 114.024 52.1321ZM114.028 51.0625C114.426 51.0625 114.755 50.9574 115.017 50.7472C115.278 50.5369 115.471 50.2571 115.596 49.9077C115.724 49.5582 115.788 49.1733 115.788 48.7528C115.788 48.3352 115.724 47.9517 115.596 47.6023C115.471 47.25 115.278 46.9673 115.017 46.7543C114.755 46.5412 114.426 46.4347 114.028 46.4347C113.627 46.4347 113.295 46.5412 113.031 46.7543C112.77 46.9673 112.575 47.25 112.447 47.6023C112.322 47.9517 112.26 48.3352 112.26 48.7528C112.26 49.1733 112.322 49.5582 112.447 49.9077C112.575 50.2571 112.77 50.5369 113.031 50.7472C113.295 50.9574 113.627 51.0625 114.028 51.0625ZM121.254 52.1321C120.621 52.1321 120.075 51.9886 119.618 51.7017C119.163 51.4119 118.814 51.0128 118.57 50.5043C118.325 49.9957 118.203 49.4134 118.203 48.7571C118.203 48.0923 118.328 47.5057 118.578 46.9972C118.828 46.4858 119.18 46.0866 119.635 45.7997C120.089 45.5128 120.625 45.3693 121.241 45.3693C121.739 45.3693 122.182 45.4616 122.571 45.6463C122.96 45.8281 123.274 46.0838 123.513 46.4134C123.754 46.7429 123.898 47.1278 123.943 47.5682H122.703C122.635 47.2614 122.479 46.9972 122.234 46.7756C121.993 46.554 121.669 46.4432 121.263 46.4432C120.908 46.4432 120.597 46.5369 120.33 46.7244C120.065 46.9091 119.859 47.1733 119.712 47.517C119.564 47.858 119.49 48.2614 119.49 48.7273C119.49 49.2045 119.563 49.6165 119.707 49.9631C119.852 50.3097 120.057 50.5781 120.321 50.7685C120.588 50.9588 120.902 51.054 121.263 51.054C121.504 51.054 121.723 51.0099 121.919 50.9219C122.118 50.831 122.284 50.7017 122.418 50.5341C122.554 50.3665 122.649 50.1648 122.703 49.929H123.943C123.898 50.3523 123.76 50.7301 123.53 51.0625C123.3 51.3949 122.991 51.6562 122.605 51.8466C122.222 52.0369 121.771 52.1321 121.254 52.1321ZM125.306 52V45.4545H126.58V48.1989H127.194L129.354 45.4545H130.931L128.395 48.6378L130.961 52H129.38L127.407 49.3835H126.58V52H125.306ZM133.855 52.1449C133.44 52.1449 133.065 52.0682 132.73 51.9148C132.395 51.7585 132.129 51.5327 131.933 51.2372C131.74 50.9418 131.643 50.5795 131.643 50.1506C131.643 49.7812 131.714 49.4773 131.857 49.2386C131.999 49 132.19 48.8111 132.432 48.6719C132.673 48.5327 132.943 48.4276 133.241 48.3565C133.54 48.2855 133.844 48.2315 134.153 48.1946C134.545 48.1491 134.864 48.1122 135.108 48.0838C135.352 48.0526 135.53 48.0028 135.641 47.9347C135.751 47.8665 135.807 47.7557 135.807 47.6023V47.5724C135.807 47.2003 135.702 46.9119 135.491 46.7074C135.284 46.5028 134.974 46.4006 134.562 46.4006C134.134 46.4006 133.795 46.4957 133.548 46.6861C133.304 46.8736 133.135 47.0824 133.041 47.3125L131.844 47.0398C131.986 46.642 132.193 46.321 132.466 46.0767C132.741 45.8295 133.058 45.6506 133.416 45.5398C133.774 45.4261 134.151 45.3693 134.545 45.3693C134.807 45.3693 135.084 45.4006 135.376 45.4631C135.672 45.5227 135.947 45.6335 136.203 45.7955C136.462 45.9574 136.673 46.1889 136.838 46.4901C137.003 46.7884 137.085 47.1761 137.085 47.6534V52H135.841V51.1051H135.79C135.707 51.2699 135.584 51.4318 135.419 51.5909C135.254 51.75 135.043 51.8821 134.784 51.9872C134.526 52.0923 134.216 52.1449 133.855 52.1449ZM134.132 51.1222C134.484 51.1222 134.786 51.0526 135.036 50.9134C135.288 50.7741 135.48 50.5923 135.611 50.3679C135.744 50.1406 135.811 49.8977 135.811 49.6392V48.7955C135.766 48.8409 135.678 48.8835 135.547 48.9233C135.419 48.9602 135.273 48.9929 135.108 49.0213C134.943 49.0469 134.783 49.071 134.626 49.0938C134.47 49.1136 134.339 49.1307 134.234 49.1449C133.987 49.1761 133.761 49.2287 133.557 49.3026C133.355 49.3764 133.193 49.483 133.071 49.6222C132.952 49.7585 132.892 49.9403 132.892 50.1676C132.892 50.483 133.009 50.7216 133.241 50.8835C133.474 51.0426 133.771 51.1222 134.132 51.1222ZM146.394 48.1776V49.2812H142.849V48.1776H146.394ZM143.207 45.4545V52H141.958V45.4545H143.207ZM147.285 45.4545V52H146.04V45.4545H147.285ZM150.894 52.1449C150.479 52.1449 150.104 52.0682 149.769 51.9148C149.434 51.7585 149.168 51.5327 148.972 51.2372C148.779 50.9418 148.683 50.5795 148.683 50.1506C148.683 49.7812 148.754 49.4773 148.896 49.2386C149.038 49 149.229 48.8111 149.471 48.6719C149.712 48.5327 149.982 48.4276 150.281 48.3565C150.579 48.2855 150.883 48.2315 151.192 48.1946C151.585 48.1491 151.903 48.1122 152.147 48.0838C152.391 48.0526 152.569 48.0028 152.68 47.9347C152.79 47.8665 152.846 47.7557 152.846 47.6023V47.5724C152.846 47.2003 152.741 46.9119 152.531 46.7074C152.323 46.5028 152.013 46.4006 151.602 46.4006C151.173 46.4006 150.835 46.4957 150.587 46.6861C150.343 46.8736 150.174 47.0824 150.08 47.3125L148.883 47.0398C149.025 46.642 149.232 46.321 149.505 46.0767C149.781 45.8295 150.097 45.6506 150.455 45.5398C150.813 45.4261 151.19 45.3693 151.585 45.3693C151.846 45.3693 152.123 45.4006 152.415 45.4631C152.711 45.5227 152.987 45.6335 153.242 45.7955C153.501 45.9574 153.712 46.1889 153.877 46.4901C154.042 46.7884 154.124 47.1761 154.124 47.6534V52H152.88V51.1051H152.829C152.746 51.2699 152.623 51.4318 152.458 51.5909C152.293 51.75 152.082 51.8821 151.823 51.9872C151.565 52.0923 151.255 52.1449 150.894 52.1449ZM151.171 51.1222C151.523 51.1222 151.825 51.0526 152.075 50.9134C152.327 50.7741 152.519 50.5923 152.65 50.3679C152.783 50.1406 152.85 49.8977 152.85 49.6392V48.7955C152.805 48.8409 152.717 48.8835 152.586 48.9233C152.458 48.9602 152.312 48.9929 152.147 49.0213C151.982 49.0469 151.822 49.071 151.665 49.0938C151.509 49.1136 151.379 49.1307 151.273 49.1449C151.026 49.1761 150.8 49.2287 150.596 49.3026C150.394 49.3764 150.232 49.483 150.11 49.6222C149.991 49.7585 149.931 49.9403 149.931 50.1676C149.931 50.483 150.048 50.7216 150.281 50.8835C150.513 51.0426 150.81 51.1222 151.171 51.1222ZM158.439 52V50.858L158.695 50.8494C159.041 50.8409 159.314 50.723 159.513 50.4957C159.714 50.2685 159.861 49.902 159.952 49.3963C160.045 48.8906 160.108 48.2159 160.139 47.3722L160.288 43.2727H165.807V52H164.507V44.3892H161.528L161.392 47.7216C161.355 48.6562 161.261 49.4418 161.111 50.0781C160.96 50.7116 160.705 51.1903 160.344 51.5142C159.986 51.8381 159.476 52 158.814 52H158.439ZM170.443 52.1321C169.798 52.1321 169.243 51.9943 168.777 51.7188C168.314 51.4403 167.956 51.0497 167.703 50.5469C167.453 50.0412 167.328 49.4489 167.328 48.7699C167.328 48.0994 167.453 47.5085 167.703 46.9972C167.956 46.4858 168.308 46.0866 168.76 45.7997C169.214 45.5128 169.746 45.3693 170.354 45.3693C170.723 45.3693 171.081 45.4304 171.428 45.5526C171.774 45.6747 172.085 45.8665 172.361 46.1278C172.636 46.3892 172.854 46.7287 173.013 47.1463C173.172 47.5611 173.251 48.0653 173.251 48.6591V49.1108H168.048V48.1562H172.003C172.003 47.821 171.935 47.5241 171.798 47.2656C171.662 47.0043 171.47 46.7983 171.223 46.6477C170.979 46.4972 170.692 46.4219 170.362 46.4219C170.004 46.4219 169.692 46.5099 169.425 46.6861C169.161 46.8594 168.956 47.0866 168.811 47.3679C168.669 47.6463 168.598 47.9489 168.598 48.2756V49.0213C168.598 49.4588 168.675 49.831 168.828 50.1378C168.984 50.4446 169.202 50.679 169.48 50.8409C169.759 51 170.084 51.0795 170.456 51.0795C170.697 51.0795 170.918 51.0455 171.116 50.9773C171.315 50.9062 171.487 50.8011 171.632 50.6619C171.777 50.5227 171.888 50.3509 171.964 50.1463L173.17 50.3636C173.074 50.7187 172.901 51.0298 172.651 51.2969C172.403 51.5611 172.092 51.767 171.717 51.9148C171.345 52.0597 170.92 52.1321 170.443 52.1321ZM179.101 48.1776V49.2812H175.556V48.1776H179.101ZM175.914 45.4545V52H174.665V45.4545H175.914ZM179.992 45.4545V52H178.748V45.4545H179.992ZM182.945 50.2145L185.83 45.4545H187.202V52H185.953V47.2358L183.081 52H181.696V45.4545H182.945V50.2145ZM193.351 48.1776V49.2812H189.806V48.1776H193.351ZM190.164 45.4545V52H188.915V45.4545H190.164ZM194.242 45.4545V52H192.998V45.4545H194.242ZM198.703 52.1321C198.07 52.1321 197.525 51.9886 197.067 51.7017C196.613 51.4119 196.263 51.0128 196.019 50.5043C195.775 49.9957 195.652 49.4134 195.652 48.7571C195.652 48.0923 195.777 47.5057 196.027 46.9972C196.277 46.4858 196.63 46.0866 197.084 45.7997C197.539 45.5128 198.074 45.3693 198.691 45.3693C199.188 45.3693 199.631 45.4616 200.02 45.6463C200.409 45.8281 200.723 46.0838 200.962 46.4134C201.203 46.7429 201.347 47.1278 201.392 47.5682H200.152C200.084 47.2614 199.928 46.9972 199.684 46.7756C199.442 46.554 199.118 46.4432 198.712 46.4432C198.357 46.4432 198.046 46.5369 197.779 46.7244C197.515 46.9091 197.309 47.1733 197.161 47.517C197.013 47.858 196.939 48.2614 196.939 48.7273C196.939 49.2045 197.012 49.6165 197.157 49.9631C197.301 50.3097 197.506 50.5781 197.77 50.7685C198.037 50.9588 198.351 51.054 198.712 51.054C198.953 51.054 199.172 51.0099 199.368 50.9219C199.567 50.831 199.733 50.7017 199.867 50.5341C200.003 50.3665 200.098 50.1648 200.152 49.929H201.392C201.347 50.3523 201.209 50.7301 200.979 51.0625C200.749 51.3949 200.441 51.6562 200.054 51.8466C199.671 52.0369 199.221 52.1321 198.703 52.1321ZM202.755 52V45.4545H204.029V48.1989H204.643L206.803 45.4545H208.38L205.844 48.6378L208.41 52H206.829L204.856 49.3835H204.029V52H202.755ZM211.887 52.1321C211.273 52.1321 210.738 51.9915 210.281 51.7102C209.823 51.429 209.468 51.0355 209.215 50.5298C208.962 50.0241 208.836 49.4332 208.836 48.7571C208.836 48.0781 208.962 47.4844 209.215 46.9759C209.468 46.4673 209.823 46.0724 210.281 45.7912C210.738 45.5099 211.273 45.3693 211.887 45.3693C212.501 45.3693 213.036 45.5099 213.494 45.7912C213.951 46.0724 214.306 46.4673 214.559 46.9759C214.812 47.4844 214.938 48.0781 214.938 48.7571C214.938 49.4332 214.812 50.0241 214.559 50.5298C214.306 51.0355 213.951 51.429 213.494 51.7102C213.036 51.9915 212.501 52.1321 211.887 52.1321ZM211.891 51.0625C212.289 51.0625 212.619 50.9574 212.88 50.7472C213.141 50.5369 213.335 50.2571 213.46 49.9077C213.587 49.5582 213.651 49.1733 213.651 48.7528C213.651 48.3352 213.587 47.9517 213.46 47.6023C213.335 47.25 213.141 46.9673 212.88 46.7543C212.619 46.5412 212.289 46.4347 211.891 46.4347C211.491 46.4347 211.158 46.5412 210.894 46.7543C210.633 46.9673 210.438 47.25 210.31 47.6023C210.185 47.9517 210.123 48.3352 210.123 48.7528C210.123 49.1733 210.185 49.5582 210.31 49.9077C210.438 50.2571 210.633 50.5369 210.894 50.7472C211.158 50.9574 211.491 51.0625 211.891 51.0625ZM220.034 50.4233L222.147 45.4545H223.247L220.507 52H219.561L216.876 45.4545H217.963L220.034 50.4233ZM217.609 45.4545V52H216.36V45.4545H217.609ZM222.493 52V45.4545H223.733V52H222.493Z" fill="black"/>
</svg>
