<svg width="303" height="279" viewBox="0 0 303 279" fill="none" xmlns="http://www.w3.org/2000/svg">
<rect x="1.25" y="1.25" width="300.5" height="276.5" rx="18.75" fill="#FFFD00"/>
<rect x="1.25" y="1.25" width="300.5" height="276.5" rx="18.75" stroke="#FFFD00" stroke-width="1.5"/>
<path d="M18.2848 30V20.1818H22.3565C23.4645 20.1818 24.3423 20.4183 24.9901 20.8913C25.6378 21.3601 25.9616 21.9972 25.9616 22.8026C25.9616 23.3778 25.7784 23.8338 25.4119 24.1705C25.0455 24.5071 24.5597 24.733 23.9545 24.848C24.3935 24.8991 24.7962 25.0312 25.1626 25.2443C25.5291 25.4531 25.8232 25.7344 26.0447 26.0881C26.2706 26.4418 26.3835 26.8636 26.3835 27.3537C26.3835 27.8736 26.2493 28.3338 25.9808 28.7344C25.7124 29.1307 25.3224 29.4418 24.8111 29.6676C24.304 29.8892 23.6925 30 22.9766 30H18.2848ZM20.081 28.402H22.9766C23.4496 28.402 23.8203 28.2891 24.0888 28.0632C24.3572 27.8374 24.4915 27.5305 24.4915 27.1428C24.4915 26.6868 24.3572 26.3288 24.0888 26.0689C23.8203 25.8047 23.4496 25.6726 22.9766 25.6726H20.081V28.402ZM20.081 24.2727H22.3757C22.7337 24.2727 23.0405 24.2216 23.2962 24.1193C23.5561 24.017 23.7543 23.8722 23.8906 23.6847C24.0312 23.4929 24.1016 23.267 24.1016 23.0071C24.1016 22.6278 23.946 22.3317 23.6349 22.1186C23.3239 21.9055 22.8977 21.799 22.3565 21.799H20.081V24.2727ZM28.4801 30V20.1818H32.5518C33.6598 20.1818 34.5376 20.4183 35.1854 20.8913C35.8331 21.3601 36.157 21.9972 36.157 22.8026C36.157 23.3778 35.9737 23.8338 35.6072 24.1705C35.2408 24.5071 34.755 24.733 34.1499 24.848C34.5888 24.8991 34.9915 25.0312 35.358 25.2443C35.7244 25.4531 36.0185 25.7344 36.2401 26.0881C36.4659 26.4418 36.5788 26.8636 36.5788 27.3537C36.5788 27.8736 36.4446 28.3338 36.1761 28.7344C35.9077 29.1307 35.5178 29.4418 35.0064 29.6676C34.4993 29.8892 33.8878 30 33.1719 30H28.4801ZM30.2763 28.402H33.1719C33.6449 28.402 34.0156 28.2891 34.2841 28.0632C34.5526 27.8374 34.6868 27.5305 34.6868 27.1428C34.6868 26.6868 34.5526 26.3288 34.2841 26.0689C34.0156 25.8047 33.6449 25.6726 33.1719 25.6726H30.2763V28.402ZM30.2763 24.2727H32.571C32.929 24.2727 33.2358 24.2216 33.4915 24.1193C33.7514 24.017 33.9496 23.8722 34.0859 23.6847C34.2266 23.4929 34.2969 23.267 34.2969 23.0071C34.2969 22.6278 34.1413 22.3317 33.8303 22.1186C33.5192 21.9055 33.093 21.799 32.5518 21.799H30.2763V24.2727ZM42.907 30.1982C41.9396 30.1982 41.1065 29.9915 40.4077 29.5781C39.7131 29.1605 39.1761 28.5746 38.7969 27.8203C38.4219 27.0618 38.2344 26.1733 38.2344 25.1548C38.2344 24.1491 38.4219 23.2628 38.7969 22.4957C39.1761 21.7287 39.7045 21.13 40.3821 20.6996C41.0639 20.2692 41.8608 20.054 42.7727 20.054C43.3267 20.054 43.8636 20.1456 44.3835 20.3288C44.9034 20.5121 45.37 20.7997 45.7834 21.1918C46.1967 21.5838 46.5227 22.093 46.7614 22.7195C47 23.3416 47.1193 24.098 47.1193 24.9886V25.6662H39.3146V24.2344H45.2464C45.2464 23.7315 45.1442 23.2862 44.9396 22.8984C44.7351 22.5064 44.4474 22.1974 44.0767 21.9716C43.7102 21.7457 43.2798 21.6328 42.7855 21.6328C42.2486 21.6328 41.7798 21.7649 41.3793 22.0291C40.983 22.2891 40.6761 22.63 40.4588 23.0518C40.2457 23.4695 40.1392 23.9233 40.1392 24.4134V25.532C40.1392 26.1882 40.2543 26.7464 40.4844 27.2067C40.7188 27.6669 41.0447 28.0185 41.4624 28.2614C41.88 28.5 42.3679 28.6193 42.9261 28.6193C43.2884 28.6193 43.6186 28.5682 43.9169 28.4659C44.2152 28.3594 44.473 28.2017 44.6903 27.9929C44.9077 27.7841 45.0739 27.5263 45.1889 27.2195L46.9979 27.5455C46.853 28.0781 46.593 28.5447 46.218 28.9453C45.8473 29.3416 45.3807 29.6506 44.8182 29.8722C44.2599 30.0895 43.6229 30.1982 42.907 30.1982ZM48.2811 32.8317V28.3445H49.0801C49.2846 28.157 49.4572 27.9332 49.5978 27.6733C49.7427 27.4134 49.8642 27.1044 49.9622 26.7464C50.0645 26.3885 50.1497 25.9709 50.2179 25.4936C50.286 25.0121 50.3457 24.4624 50.3968 23.8445L50.7037 20.1818H57.377V28.3445H58.8855V32.8317H57.019V30H50.1731V32.8317H48.2811ZM51.1255 28.3445H55.5105V21.8182H52.4167L52.2122 23.8445C52.1142 24.8757 51.9906 25.7706 51.8414 26.5291C51.6923 27.2834 51.4537 27.8885 51.1255 28.3445ZM62.6264 27.3217L66.9538 20.1818H69.0121V30H67.1392V22.8537L62.831 30H60.7536V20.1818H62.6264V27.3217ZM70.364 21.831V20.1818H78.6481V21.831H75.4457V30H73.5792V21.831H70.364ZM84.4441 30.1982C83.4767 30.1982 82.6436 29.9915 81.9448 29.5781C81.2502 29.1605 80.7132 28.5746 80.334 27.8203C79.959 27.0618 79.7715 26.1733 79.7715 25.1548C79.7715 24.1491 79.959 23.2628 80.334 22.4957C80.7132 21.7287 81.2417 21.13 81.9192 20.6996C82.601 20.2692 83.3979 20.054 84.3098 20.054C84.8638 20.054 85.4007 20.1456 85.9206 20.3288C86.4405 20.5121 86.9071 20.7997 87.3205 21.1918C87.7338 21.5838 88.0598 22.093 88.2985 22.7195C88.5371 23.3416 88.6564 24.098 88.6564 24.9886V25.6662H80.8517V24.2344H86.7836C86.7836 23.7315 86.6813 23.2862 86.4767 22.8984C86.2722 22.5064 85.9846 22.1974 85.6138 21.9716C85.2473 21.7457 84.8169 21.6328 84.3226 21.6328C83.7857 21.6328 83.3169 21.7649 82.9164 22.0291C82.5201 22.2891 82.2132 22.63 81.9959 23.0518C81.7828 23.4695 81.6763 23.9233 81.6763 24.4134V25.532C81.6763 26.1882 81.7914 26.7464 82.0215 27.2067C82.2559 27.6669 82.5819 28.0185 82.9995 28.2614C83.4171 28.5 83.905 28.6193 84.4632 28.6193C84.8255 28.6193 85.1557 28.5682 85.454 28.4659C85.7523 28.3594 86.0101 28.2017 86.2275 27.9929C86.4448 27.7841 86.611 27.5263 86.726 27.2195L88.535 27.5455C88.3901 28.0781 88.1301 28.5447 87.7551 28.9453C87.3844 29.3416 86.9178 29.6506 86.3553 29.8722C85.7971 30.0895 85.16 30.1982 84.4441 30.1982ZM99.6763 30.1982C98.726 30.1982 97.9078 29.983 97.2218 29.5526C96.54 29.1179 96.0158 28.5192 95.6493 27.7564C95.2828 26.9936 95.0996 26.12 95.0996 25.1357C95.0996 24.1385 95.2871 23.2585 95.6621 22.4957C96.0371 21.7287 96.5655 21.13 97.2473 20.6996C97.9292 20.2692 98.7324 20.054 99.6571 20.054C100.403 20.054 101.068 20.1925 101.651 20.4695C102.235 20.7422 102.706 21.1257 103.064 21.62C103.426 22.1143 103.642 22.6918 103.71 23.3523H101.85C101.747 22.892 101.513 22.4957 101.146 22.1634C100.784 21.831 100.298 21.6648 99.6891 21.6648C99.1564 21.6648 98.6898 21.8054 98.2892 22.0866C97.8929 22.3636 97.584 22.7599 97.3624 23.2756C97.1408 23.7869 97.03 24.392 97.03 25.0909C97.03 25.8068 97.1387 26.4247 97.356 26.9446C97.5733 27.4645 97.8801 27.8672 98.2765 28.1527C98.677 28.4382 99.1479 28.581 99.6891 28.581C100.051 28.581 100.379 28.5149 100.673 28.3828C100.972 28.2464 101.221 28.0526 101.421 27.8011C101.626 27.5497 101.769 27.2472 101.85 26.8935H103.71C103.642 27.5284 103.435 28.0952 103.09 28.5938C102.744 29.0923 102.282 29.4844 101.703 29.7699C101.127 30.0554 100.452 30.1982 99.6763 30.1982ZM109.889 30.1982C108.969 30.1982 108.165 29.9872 107.479 29.5653C106.793 29.1435 106.261 28.5533 105.881 27.7947C105.502 27.0362 105.312 26.1499 105.312 25.1357C105.312 24.1172 105.502 23.2266 105.881 22.4638C106.261 21.701 106.793 21.1087 107.479 20.6868C108.165 20.2649 108.969 20.054 109.889 20.054C110.81 20.054 111.613 20.2649 112.299 20.6868C112.985 21.1087 113.518 21.701 113.897 22.4638C114.276 23.2266 114.466 24.1172 114.466 25.1357C114.466 26.1499 114.276 27.0362 113.897 27.7947C113.518 28.5533 112.985 29.1435 112.299 29.5653C111.613 29.9872 110.81 30.1982 109.889 30.1982ZM109.896 28.5938C110.492 28.5938 110.987 28.4361 111.379 28.1207C111.771 27.8054 112.06 27.3857 112.248 26.8615C112.44 26.3374 112.536 25.7599 112.536 25.1293C112.536 24.5028 112.44 23.9276 112.248 23.4034C112.06 22.875 111.771 22.451 111.379 22.1314C110.987 21.8118 110.492 21.652 109.896 21.652C109.295 21.652 108.796 21.8118 108.4 22.1314C108.008 22.451 107.716 22.875 107.524 23.4034C107.337 23.9276 107.243 24.5028 107.243 25.1293C107.243 25.7599 107.337 26.3374 107.524 26.8615C107.716 27.3857 108.008 27.8054 108.4 28.1207C108.796 28.4361 109.295 28.5938 109.896 28.5938ZM120.735 30.1982C119.814 30.1982 119.011 29.9872 118.325 29.5653C117.639 29.1435 117.106 28.5533 116.727 27.7947C116.348 27.0362 116.158 26.1499 116.158 25.1357C116.158 24.1172 116.348 23.2266 116.727 22.4638C117.106 21.701 117.639 21.1087 118.325 20.6868C119.011 20.2649 119.814 20.054 120.735 20.054C121.655 20.054 122.459 20.2649 123.145 20.6868C123.831 21.1087 124.363 21.701 124.743 22.4638C125.122 23.2266 125.312 24.1172 125.312 25.1357C125.312 26.1499 125.122 27.0362 124.743 27.7947C124.363 28.5533 123.831 29.1435 123.145 29.5653C122.459 29.9872 121.655 30.1982 120.735 30.1982ZM120.741 28.5938C121.338 28.5938 121.832 28.4361 122.224 28.1207C122.616 27.8054 122.906 27.3857 123.094 26.8615C123.285 26.3374 123.381 25.7599 123.381 25.1293C123.381 24.5028 123.285 23.9276 123.094 23.4034C122.906 22.875 122.616 22.451 122.224 22.1314C121.832 21.8118 121.338 21.652 120.741 21.652C120.14 21.652 119.642 21.8118 119.246 22.1314C118.854 22.451 118.562 22.875 118.37 23.4034C118.182 23.9276 118.089 24.5028 118.089 25.1293C118.089 25.7599 118.182 26.3374 118.37 26.8615C118.562 27.3857 118.854 27.8054 119.246 28.1207C119.642 28.4361 120.14 28.5938 120.741 28.5938ZM135.02 16.5256L135.812 17.7337C135.518 18.0021 135.184 18.1939 134.809 18.3089C134.438 18.4197 134.01 18.4901 133.524 18.5199C133.038 18.5455 132.482 18.5689 131.855 18.5902C131.148 18.6115 130.566 18.7649 130.11 19.0504C129.654 19.3317 129.303 19.7493 129.056 20.3033C128.813 20.853 128.655 21.5433 128.583 22.3743H128.704C129.024 21.7649 129.467 21.3089 130.034 21.0064C130.605 20.7038 131.246 20.5526 131.958 20.5526C132.75 20.5526 133.456 20.7337 134.074 21.0959C134.691 21.4581 135.177 21.9886 135.531 22.6875C135.889 23.3821 136.068 24.2322 136.068 25.2379C136.068 26.2564 135.88 27.1364 135.505 27.8778C135.135 28.6193 134.61 29.1925 133.933 29.5973C133.26 29.9979 132.465 30.1982 131.549 30.1982C130.632 30.1982 129.833 29.9915 129.152 29.5781C128.474 29.1605 127.948 28.5426 127.573 27.7244C127.202 26.9062 127.017 25.8963 127.017 24.6946V23.723C127.017 21.4773 127.417 19.7876 128.218 18.6541C129.02 17.5206 130.217 16.9389 131.811 16.9091C132.326 16.8963 132.787 16.8942 133.191 16.9027C133.596 16.907 133.95 16.8878 134.252 16.8452C134.559 16.7983 134.815 16.6918 135.02 16.5256ZM131.555 28.5938C132.088 28.5938 132.546 28.4595 132.929 28.1911C133.317 27.9183 133.615 27.5327 133.824 27.0341C134.033 26.5355 134.137 25.9474 134.137 25.2699C134.137 24.6051 134.033 24.0405 133.824 23.576C133.615 23.1115 133.317 22.7578 132.929 22.5149C132.542 22.2678 132.077 22.1442 131.536 22.1442C131.135 22.1442 130.777 22.2145 130.462 22.3551C130.147 22.4915 129.876 22.6939 129.65 22.9624C129.429 23.2308 129.256 23.5589 129.132 23.9467C129.013 24.3303 128.949 24.7713 128.941 25.2699C128.941 26.2841 129.173 27.0916 129.637 27.6925C130.106 28.2933 130.745 28.5938 131.555 28.5938ZM152.272 28.3509L152.093 32.8125H150.22V30H148.999V28.3509H152.272ZM138.203 20.1818H140.076V28.3445H143.47V20.1818H145.343V28.3445H148.737V20.1818H150.61V30H138.203V20.1818ZM158.413 30.1982C157.445 30.1982 156.612 29.9915 155.914 29.5781C155.219 29.1605 154.682 28.5746 154.303 27.8203C153.928 27.0618 153.74 26.1733 153.74 25.1548C153.74 24.1491 153.928 23.2628 154.303 22.4957C154.682 21.7287 155.21 21.13 155.888 20.6996C156.57 20.2692 157.367 20.054 158.279 20.054C158.833 20.054 159.369 20.1456 159.889 20.3288C160.409 20.5121 160.876 20.7997 161.289 21.1918C161.703 21.5838 162.029 22.093 162.267 22.7195C162.506 23.3416 162.625 24.098 162.625 24.9886V25.6662H154.82V24.2344H160.752C160.752 23.7315 160.65 23.2862 160.445 22.8984C160.241 22.5064 159.953 22.1974 159.583 21.9716C159.216 21.7457 158.786 21.6328 158.291 21.6328C157.754 21.6328 157.286 21.7649 156.885 22.0291C156.489 22.2891 156.182 22.63 155.965 23.0518C155.752 23.4695 155.645 23.9233 155.645 24.4134V25.532C155.645 26.1882 155.76 26.7464 155.99 27.2067C156.225 27.6669 156.551 28.0185 156.968 28.2614C157.386 28.5 157.874 28.6193 158.432 28.6193C158.794 28.6193 159.124 28.5682 159.423 28.4659C159.721 28.3594 159.979 28.2017 160.196 27.9929C160.414 27.7841 160.58 27.5263 160.695 27.2195L162.504 27.5455C162.359 28.0781 162.099 28.5447 161.724 28.9453C161.353 29.3416 160.887 29.6506 160.324 29.8722C159.766 30.0895 159.129 30.1982 158.413 30.1982ZM171.4 24.2663V25.9219H166.082V24.2663H171.4ZM166.619 20.1818V30H164.746V20.1818H166.619ZM172.736 20.1818V30H170.869V20.1818H172.736ZM177.165 27.3217L181.493 20.1818H183.551V30H181.678V22.8537L177.37 30H175.293V20.1818H177.165V27.3217ZM190.352 30.1982C189.385 30.1982 188.552 29.9915 187.853 29.5781C187.158 29.1605 186.621 28.5746 186.242 27.8203C185.867 27.0618 185.68 26.1733 185.68 25.1548C185.68 24.1491 185.867 23.2628 186.242 22.4957C186.621 21.7287 187.15 21.13 187.827 20.6996C188.509 20.2692 189.306 20.054 190.218 20.054C190.772 20.054 191.309 20.1456 191.829 20.3288C192.349 20.5121 192.815 20.7997 193.229 21.1918C193.642 21.5838 193.968 22.093 194.207 22.7195C194.445 23.3416 194.565 24.098 194.565 24.9886V25.6662H186.76V24.2344H192.692C192.692 23.7315 192.589 23.2862 192.385 22.8984C192.18 22.5064 191.893 22.1974 191.522 21.9716C191.156 21.7457 190.725 21.6328 190.231 21.6328C189.694 21.6328 189.225 21.7649 188.825 22.0291C188.428 22.2891 188.121 22.63 187.904 23.0518C187.691 23.4695 187.585 23.9233 187.585 24.4134V25.532C187.585 26.1882 187.7 26.7464 187.93 27.2067C188.164 27.6669 188.49 28.0185 188.908 28.2614C189.325 28.5 189.813 28.6193 190.371 28.6193C190.734 28.6193 191.064 28.5682 191.362 28.4659C191.661 28.3594 191.918 28.2017 192.136 27.9929C192.353 27.7841 192.519 27.5263 192.634 27.2195L194.443 27.5455C194.298 28.0781 194.038 28.5447 193.663 28.9453C193.293 29.3416 192.826 29.6506 192.263 29.8722C191.705 30.0895 191.068 30.1982 190.352 30.1982Z" fill="black"/>
<path d="M22.4205 204.198C21.5 204.198 20.6967 203.987 20.0107 203.565C19.3246 203.143 18.7919 202.553 18.4126 201.795C18.0334 201.036 17.8438 200.15 17.8438 199.136C17.8438 198.117 18.0334 197.227 18.4126 196.464C18.7919 195.701 19.3246 195.109 20.0107 194.687C20.6967 194.265 21.5 194.054 22.4205 194.054C23.3409 194.054 24.1442 194.265 24.8303 194.687C25.5163 195.109 26.049 195.701 26.4283 196.464C26.8075 197.227 26.9972 198.117 26.9972 199.136C26.9972 200.15 26.8075 201.036 26.4283 201.795C26.049 202.553 25.5163 203.143 24.8303 203.565C24.1442 203.987 23.3409 204.198 22.4205 204.198ZM22.4268 202.594C23.0234 202.594 23.5178 202.436 23.9098 202.121C24.3018 201.805 24.5916 201.386 24.7791 200.862C24.9709 200.337 25.0668 199.76 25.0668 199.129C25.0668 198.503 24.9709 197.928 24.7791 197.403C24.5916 196.875 24.3018 196.451 23.9098 196.131C23.5178 195.812 23.0234 195.652 22.4268 195.652C21.826 195.652 21.3274 195.812 20.9311 196.131C20.5391 196.451 20.2472 196.875 20.0554 197.403C19.8679 197.928 19.7741 198.503 19.7741 199.129C19.7741 199.76 19.8679 200.337 20.0554 200.862C20.2472 201.386 20.5391 201.805 20.9311 202.121C21.3274 202.436 21.826 202.594 22.4268 202.594ZM33.2662 204.198C32.3159 204.198 31.4977 203.983 30.8116 203.553C30.1298 203.118 29.6056 202.519 29.2392 201.756C28.8727 200.994 28.6895 200.12 28.6895 199.136C28.6895 198.138 28.877 197.259 29.252 196.496C29.627 195.729 30.1554 195.13 30.8372 194.7C31.519 194.269 32.3223 194.054 33.247 194.054C33.9927 194.054 34.6575 194.192 35.2413 194.469C35.8251 194.742 36.296 195.126 36.6539 195.62C37.0162 196.114 37.2314 196.692 37.2995 197.352H35.4395C35.3372 196.892 35.1028 196.496 34.7363 196.163C34.3741 195.831 33.8883 195.665 33.2789 195.665C32.7463 195.665 32.2797 195.805 31.8791 196.087C31.4828 196.364 31.1738 196.76 30.9522 197.276C30.7306 197.787 30.6199 198.392 30.6199 199.091C30.6199 199.807 30.7285 200.425 30.9458 200.945C31.1632 201.464 31.47 201.867 31.8663 202.153C32.2669 202.438 32.7377 202.581 33.2789 202.581C33.6412 202.581 33.9693 202.515 34.2633 202.383C34.5616 202.246 34.8109 202.053 35.0112 201.801C35.2157 201.55 35.3585 201.247 35.4395 200.893H37.2995C37.2314 201.528 37.0247 202.095 36.6795 202.594C36.3343 203.092 35.872 203.484 35.2924 203.77C34.7172 204.055 34.0417 204.198 33.2662 204.198ZM38.6003 195.831V194.182H46.8844V195.831H43.682V204H41.8155V195.831H38.6003ZM51.3061 204.217C50.6839 204.217 50.1214 204.102 49.6186 203.872C49.1158 203.638 48.7173 203.299 48.4233 202.856C48.1335 202.413 47.9886 201.869 47.9886 201.226C47.9886 200.672 48.0952 200.216 48.3082 199.858C48.5213 199.5 48.8089 199.217 49.1712 199.008C49.5334 198.799 49.9382 198.641 50.3857 198.535C50.8331 198.428 51.2891 198.347 51.7536 198.292C52.3416 198.224 52.8189 198.168 53.1854 198.126C53.5518 198.079 53.8182 198.004 53.9844 197.902C54.1506 197.8 54.2337 197.634 54.2337 197.403V197.359C54.2337 196.8 54.076 196.368 53.7607 196.061C53.4496 195.754 52.9851 195.601 52.3672 195.601C51.7237 195.601 51.2166 195.744 50.8459 196.029C50.4794 196.31 50.2259 196.624 50.0852 196.969L48.2891 196.56C48.5021 195.963 48.8132 195.482 49.2223 195.115C49.6357 194.744 50.1108 194.476 50.6477 194.31C51.1847 194.139 51.7493 194.054 52.3416 194.054C52.7337 194.054 53.1491 194.101 53.5881 194.195C54.0313 194.284 54.4446 194.45 54.8281 194.693C55.2159 194.936 55.5334 195.283 55.7805 195.735C56.0277 196.183 56.1513 196.764 56.1513 197.48V204H54.2848V202.658H54.2081C54.0845 202.905 53.8991 203.148 53.652 203.386C53.4048 203.625 53.0874 203.823 52.6996 203.981C52.3118 204.138 51.8473 204.217 51.3061 204.217ZM51.7216 202.683C52.25 202.683 52.7017 202.579 53.0767 202.37C53.456 202.161 53.7436 201.888 53.9396 201.552C54.1399 201.211 54.2401 200.847 54.2401 200.459V199.193C54.1719 199.261 54.0398 199.325 53.8438 199.385C53.652 199.44 53.4325 199.489 53.1854 199.532C52.9382 199.57 52.6974 199.607 52.4631 199.641C52.2287 199.67 52.0327 199.696 51.875 199.717C51.5043 199.764 51.1655 199.843 50.8587 199.954C50.5561 200.065 50.3132 200.224 50.13 200.433C49.951 200.638 49.8615 200.911 49.8615 201.251C49.8615 201.724 50.0362 202.082 50.3857 202.325C50.7351 202.564 51.1804 202.683 51.7216 202.683ZM58.6969 204V194.182H62.7686C63.8766 194.182 64.7544 194.418 65.4022 194.891C66.0499 195.36 66.3738 195.997 66.3738 196.803C66.3738 197.378 66.1905 197.834 65.824 198.17C65.4576 198.507 64.9718 198.733 64.3667 198.848C64.8056 198.899 65.2083 199.031 65.5748 199.244C65.9412 199.453 66.2353 199.734 66.4569 200.088C66.6827 200.442 66.7956 200.864 66.7956 201.354C66.7956 201.874 66.6614 202.334 66.3929 202.734C66.1245 203.131 65.7346 203.442 65.2232 203.668C64.7161 203.889 64.1046 204 63.3887 204H58.6969ZM60.4931 202.402H63.3887C63.8617 202.402 64.2324 202.289 64.5009 202.063C64.7694 201.837 64.9036 201.531 64.9036 201.143C64.9036 200.687 64.7694 200.329 64.5009 200.069C64.2324 199.805 63.8617 199.673 63.3887 199.673H60.4931V202.402ZM60.4931 198.273H62.7878C63.1458 198.273 63.4526 198.222 63.7083 198.119C63.9682 198.017 64.1664 197.872 64.3027 197.685C64.4434 197.493 64.5137 197.267 64.5137 197.007C64.5137 196.628 64.3581 196.332 64.0471 196.119C63.736 195.906 63.3098 195.799 62.7686 195.799H60.4931V198.273ZM70.3304 197.557H73.1813C74.383 197.557 75.3077 197.855 75.9554 198.452C76.6032 199.048 76.927 199.817 76.927 200.759C76.927 201.373 76.7821 201.925 76.4924 202.415C76.2026 202.905 75.7786 203.293 75.2203 203.578C74.6621 203.859 73.9824 204 73.1813 204H68.8922V194.182H70.7651V202.351H73.1813C73.731 202.351 74.1827 202.208 74.5364 201.923C74.8901 201.633 75.0669 201.264 75.0669 200.817C75.0669 200.344 74.8901 199.958 74.5364 199.66C74.1827 199.357 73.731 199.206 73.1813 199.206H70.3304V197.557ZM77.5007 195.831V194.182H85.7848V195.831H82.5824V204H80.7159V195.831H77.5007ZM91.5808 204.198C90.6135 204.198 89.7804 203.991 89.0815 203.578C88.3869 203.161 87.85 202.575 87.4707 201.82C87.0957 201.062 86.9082 200.173 86.9082 199.155C86.9082 198.149 87.0957 197.263 87.4707 196.496C87.85 195.729 88.3784 195.13 89.0559 194.7C89.7377 194.269 90.5346 194.054 91.4466 194.054C92.0005 194.054 92.5375 194.146 93.0574 194.329C93.5772 194.512 94.0439 194.8 94.4572 195.192C94.8706 195.584 95.1966 196.093 95.4352 196.719C95.6738 197.342 95.7931 198.098 95.7931 198.989V199.666H87.9885V198.234H93.9203C93.9203 197.732 93.818 197.286 93.6135 196.898C93.4089 196.506 93.1213 196.197 92.7505 195.972C92.3841 195.746 91.9537 195.633 91.4593 195.633C90.9224 195.633 90.4537 195.765 90.0531 196.029C89.6568 196.289 89.35 196.63 89.1326 197.052C88.9196 197.469 88.813 197.923 88.813 198.413V199.532C88.813 200.188 88.9281 200.746 89.1582 201.207C89.3926 201.667 89.7186 202.018 90.1362 202.261C90.5538 202.5 91.0417 202.619 91.6 202.619C91.9622 202.619 92.2924 202.568 92.5907 202.466C92.889 202.359 93.1468 202.202 93.3642 201.993C93.5815 201.784 93.7477 201.526 93.8627 201.219L95.6717 201.545C95.5268 202.078 95.2669 202.545 94.8919 202.945C94.5211 203.342 94.0545 203.651 93.492 203.872C92.9338 204.089 92.2967 204.198 91.5808 204.198ZM102.677 204V194.182H110.687V204H108.814V195.831H104.537V204H102.677ZM117.377 204.198C116.457 204.198 115.654 203.987 114.968 203.565C114.282 203.143 113.749 202.553 113.37 201.795C112.99 201.036 112.801 200.15 112.801 199.136C112.801 198.117 112.99 197.227 113.37 196.464C113.749 195.701 114.282 195.109 114.968 194.687C115.654 194.265 116.457 194.054 117.377 194.054C118.298 194.054 119.101 194.265 119.787 194.687C120.473 195.109 121.006 195.701 121.385 196.464C121.765 197.227 121.954 198.117 121.954 199.136C121.954 200.15 121.765 201.036 121.385 201.795C121.006 202.553 120.473 203.143 119.787 203.565C119.101 203.987 118.298 204.198 117.377 204.198ZM117.384 202.594C117.98 202.594 118.475 202.436 118.867 202.121C119.259 201.805 119.549 201.386 119.736 200.862C119.928 200.337 120.024 199.76 120.024 199.129C120.024 198.503 119.928 197.928 119.736 197.403C119.549 196.875 119.259 196.451 118.867 196.131C118.475 195.812 117.98 195.652 117.384 195.652C116.783 195.652 116.284 195.812 115.888 196.131C115.496 196.451 115.204 196.875 115.012 197.403C114.825 197.928 114.731 198.503 114.731 199.129C114.731 199.76 114.825 200.337 115.012 200.862C115.204 201.386 115.496 201.805 115.888 202.121C116.284 202.436 116.783 202.594 117.384 202.594ZM131.969 194.182V204H130.102V194.182H131.969ZM131.157 198.739V200.388C130.863 200.508 130.552 200.614 130.224 200.708C129.896 200.798 129.551 200.868 129.188 200.919C128.826 200.97 128.449 200.996 128.057 200.996C126.843 200.996 125.877 200.7 125.161 200.107C124.445 199.511 124.088 198.599 124.088 197.371V194.163H125.948V197.371C125.948 197.836 126.033 198.213 126.203 198.503C126.374 198.793 126.617 199.006 126.932 199.142C127.247 199.278 127.622 199.347 128.057 199.347C128.632 199.347 129.163 199.293 129.649 199.187C130.139 199.076 130.642 198.927 131.157 198.739ZM133.294 195.831V194.182H141.578V195.831H138.375V204H136.509V195.831H133.294ZM144.807 207.682C144.522 207.682 144.262 207.658 144.028 207.612C143.793 207.569 143.618 207.522 143.503 207.471L143.964 205.905C144.313 205.999 144.624 206.039 144.897 206.026C145.17 206.013 145.41 205.911 145.619 205.719C145.832 205.528 146.02 205.214 146.182 204.78L146.418 204.128L142.826 194.182H144.871L147.358 201.801H147.46L149.947 194.182H151.998L147.952 205.31C147.765 205.822 147.526 206.254 147.236 206.608C146.947 206.966 146.601 207.234 146.201 207.413C145.8 207.592 145.336 207.682 144.807 207.682Z" fill="black"/>
<rect x="17" y="45" width="269" height="131" rx="18" fill="white"/>
<path d="M32.326 75.8317V71.3445H33.125C33.3295 71.157 33.5021 70.9332 33.6428 70.6733C33.7876 70.4134 33.9091 70.1044 34.0071 69.7464C34.1094 69.3885 34.1946 68.9709 34.2628 68.4936C34.331 68.0121 34.3906 67.4624 34.4418 66.8445L34.7486 63.1818H41.4219V71.3445H42.9304V75.8317H41.0639V73H34.218V75.8317H32.326ZM35.1705 71.3445H39.5554V64.8182H36.4616L36.2571 66.8445C36.1591 67.8757 36.0355 68.7706 35.8864 69.5291C35.7372 70.2834 35.4986 70.8885 35.1705 71.3445ZM48.9341 73.1982C48.0137 73.1982 47.2104 72.9872 46.5243 72.5653C45.8382 72.1435 45.3056 71.5533 44.9263 70.7947C44.5471 70.0362 44.3574 69.1499 44.3574 68.1357C44.3574 67.1172 44.5471 66.2266 44.9263 65.4638C45.3056 64.701 45.8382 64.1087 46.5243 63.6868C47.2104 63.2649 48.0137 63.054 48.9341 63.054C49.8546 63.054 50.6578 63.2649 51.3439 63.6868C52.03 64.1087 52.5627 64.701 52.9419 65.4638C53.3212 66.2266 53.5108 67.1172 53.5108 68.1357C53.5108 69.1499 53.3212 70.0362 52.9419 70.7947C52.5627 71.5533 52.03 72.1435 51.3439 72.5653C50.6578 72.9872 49.8546 73.1982 48.9341 73.1982ZM48.9405 71.5938C49.5371 71.5938 50.0314 71.4361 50.4235 71.1207C50.8155 70.8054 51.1053 70.3857 51.2928 69.8615C51.4846 69.3374 51.5804 68.7599 51.5804 68.1293C51.5804 67.5028 51.4846 66.9276 51.2928 66.4034C51.1053 65.875 50.8155 65.451 50.4235 65.1314C50.0314 64.8118 49.5371 64.652 48.9405 64.652C48.3397 64.652 47.8411 64.8118 47.4448 65.1314C47.0527 65.451 46.7608 65.875 46.5691 66.4034C46.3816 66.9276 46.2878 67.5028 46.2878 68.1293C46.2878 68.7599 46.3816 69.3374 46.5691 69.8615C46.7608 70.3857 47.0527 70.8054 47.4448 71.1207C47.8411 71.4361 48.3397 71.5938 48.9405 71.5938ZM63.2188 59.5256L64.0114 60.7337C63.7173 61.0021 63.3828 61.1939 63.0078 61.3089C62.6371 61.4197 62.2088 61.4901 61.723 61.5199C61.2372 61.5455 60.6811 61.5689 60.0547 61.5902C59.3473 61.6115 58.7656 61.7649 58.3097 62.0504C57.8537 62.3317 57.5021 62.7493 57.255 63.3033C57.0121 63.853 56.8544 64.5433 56.782 65.3743H56.9034C57.223 64.7649 57.6662 64.3089 58.233 64.0064C58.804 63.7038 59.4453 63.5526 60.157 63.5526C60.9496 63.5526 61.6548 63.7337 62.2727 64.0959C62.8906 64.4581 63.3764 64.9886 63.7301 65.6875C64.0881 66.3821 64.267 67.2322 64.267 68.2379C64.267 69.2564 64.0795 70.1364 63.7045 70.8778C63.3338 71.6193 62.8097 72.1925 62.1321 72.5973C61.4588 72.9979 60.6641 73.1982 59.7479 73.1982C58.8317 73.1982 58.0327 72.9915 57.3509 72.5781C56.6733 72.1605 56.147 71.5426 55.772 70.7244C55.4013 69.9062 55.2159 68.8963 55.2159 67.6946V66.723C55.2159 64.4773 55.6165 62.7876 56.4176 61.6541C57.2188 60.5206 58.4162 59.9389 60.0099 59.9091C60.5256 59.8963 60.9858 59.8942 61.3906 59.9027C61.7955 59.907 62.1491 59.8878 62.4517 59.8452C62.7585 59.7983 63.0142 59.6918 63.2188 59.5256ZM59.7543 71.5938C60.2869 71.5938 60.745 71.4595 61.1286 71.1911C61.5163 70.9183 61.8146 70.5327 62.0234 70.0341C62.2322 69.5355 62.3366 68.9474 62.3366 68.2699C62.3366 67.6051 62.2322 67.0405 62.0234 66.576C61.8146 66.1115 61.5163 65.7578 61.1286 65.5149C60.7408 65.2678 60.2763 65.1442 59.7351 65.1442C59.3345 65.1442 58.9766 65.2145 58.6612 65.3551C58.3459 65.4915 58.0753 65.6939 57.8494 65.9624C57.6278 66.2308 57.4553 66.5589 57.3317 66.9467C57.2124 67.3303 57.1484 67.7713 57.1399 68.2699C57.1399 69.2841 57.3722 70.0916 57.8366 70.6925C58.3054 71.2933 58.9446 71.5938 59.7543 71.5938ZM66.402 76.6818V63.1818H68.2685V64.7734H68.4283C68.5391 64.5689 68.6989 64.3324 68.9077 64.0639C69.1165 63.7955 69.4063 63.5611 69.777 63.3608C70.1477 63.1562 70.6378 63.054 71.2472 63.054C72.0398 63.054 72.7472 63.2543 73.3693 63.6548C73.9915 64.0554 74.4794 64.6328 74.8331 65.3871C75.1911 66.1413 75.37 67.049 75.37 68.1101C75.37 69.1712 75.1932 70.081 74.8395 70.8395C74.4858 71.5937 74 72.1754 73.3821 72.5845C72.7642 72.9893 72.0589 73.1918 71.2663 73.1918C70.6697 73.1918 70.1818 73.0916 69.8026 72.8913C69.4276 72.6911 69.1335 72.4567 68.9205 72.1882C68.7074 71.9197 68.5433 71.6811 68.4283 71.4723H68.3132V76.6818H66.402ZM68.2749 68.0909C68.2749 68.7812 68.375 69.3864 68.5753 69.9062C68.7756 70.4261 69.0653 70.8331 69.4446 71.1271C69.8239 71.4169 70.2884 71.5618 70.8381 71.5618C71.4091 71.5618 71.8864 71.4105 72.2699 71.108C72.6534 70.8011 72.9432 70.3857 73.1392 69.8615C73.3395 69.3374 73.4396 68.7472 73.4396 68.0909C73.4396 67.4432 73.3416 66.8615 73.1456 66.3459C72.9538 65.8303 72.6641 65.4233 72.2763 65.125C71.8928 64.8267 71.4134 64.6776 70.8381 64.6776C70.2841 64.6776 69.8153 64.8203 69.4318 65.1058C69.0526 65.3913 68.7649 65.7898 68.5689 66.3011C68.3729 66.8125 68.2749 67.4091 68.2749 68.0909ZM78.9496 66.5568H81.8004C83.0021 66.5568 83.9268 66.8551 84.5746 67.4517C85.2223 68.0483 85.5462 68.8175 85.5462 69.7592C85.5462 70.3729 85.4013 70.9247 85.1115 71.4148C84.8217 71.9048 84.3977 72.2926 83.8395 72.5781C83.2813 72.8594 82.6016 73 81.8004 73H77.5114V63.1818H79.3842V71.3509H81.8004C82.3501 71.3509 82.8018 71.2081 83.1555 70.9226C83.5092 70.6328 83.6861 70.2642 83.6861 69.8168C83.6861 69.3437 83.5092 68.9581 83.1555 68.6598C82.8018 68.3572 82.3501 68.206 81.8004 68.206H78.9496V66.5568ZM86.9396 73V63.1818H88.8509V73H86.9396ZM93.2885 70.3217L97.6159 63.1818H99.6742V73H97.8013V65.8537L93.4931 73H91.4157V63.1818H93.2885V70.3217ZM96.7978 59.858H98.3702C98.3702 60.5781 98.1145 61.1641 97.6032 61.6158C97.0961 62.0632 96.41 62.2869 95.5449 62.2869C94.6841 62.2869 94.0002 62.0632 93.4931 61.6158C92.986 61.1641 92.7324 60.5781 92.7324 59.858H94.2985C94.2985 60.1776 94.3922 60.4609 94.5797 60.7081C94.7672 60.951 95.089 61.0724 95.5449 61.0724C95.9924 61.0724 96.312 60.951 96.5037 60.7081C96.6998 60.4652 96.7978 60.1818 96.7978 59.858ZM106.049 75.8317V71.3445H106.848C107.052 71.157 107.225 70.9332 107.365 70.6733C107.51 70.4134 107.632 70.1044 107.73 69.7464C107.832 69.3885 107.917 68.9709 107.985 68.4936C108.054 68.0121 108.113 67.4624 108.164 66.8445L108.471 63.1818H115.145V71.3445H116.653V75.8317H114.787V73H107.941V75.8317H106.049ZM108.893 71.3445H113.278V64.8182H110.184L109.98 66.8445C109.882 67.8757 109.758 68.7706 109.609 69.5291C109.46 70.2834 109.221 70.8885 108.893 71.3445ZM122.753 73.1982C121.785 73.1982 120.952 72.9915 120.253 72.5781C119.559 72.1605 119.022 71.5746 118.643 70.8203C118.268 70.0618 118.08 69.1733 118.08 68.1548C118.08 67.1491 118.268 66.2628 118.643 65.4957C119.022 64.7287 119.55 64.13 120.228 63.6996C120.91 63.2692 121.706 63.054 122.618 63.054C123.172 63.054 123.709 63.1456 124.229 63.3288C124.749 63.5121 125.216 63.7997 125.629 64.1918C126.042 64.5838 126.368 65.093 126.607 65.7195C126.846 66.3416 126.965 67.098 126.965 67.9886V68.6662H119.16V67.2344H125.092C125.092 66.7315 124.99 66.2862 124.785 65.8984C124.581 65.5064 124.293 65.1974 123.922 64.9716C123.556 64.7457 123.126 64.6328 122.631 64.6328C122.094 64.6328 121.626 64.7649 121.225 65.0291C120.829 65.2891 120.522 65.63 120.305 66.0518C120.091 66.4695 119.985 66.9233 119.985 67.4134V68.532C119.985 69.1882 120.1 69.7464 120.33 70.2067C120.564 70.6669 120.89 71.0185 121.308 71.2614C121.726 71.5 122.214 71.6193 122.772 71.6193C123.134 71.6193 123.464 71.5682 123.763 71.4659C124.061 71.3594 124.319 71.2017 124.536 70.9929C124.753 70.7841 124.92 70.5263 125.035 70.2195L126.844 70.5455C126.699 71.0781 126.439 71.5447 126.064 71.9453C125.693 72.3416 125.226 72.6506 124.664 72.8722C124.106 73.0895 123.469 73.1982 122.753 73.1982ZM135.74 67.2663V68.9219H130.422V67.2663H135.74ZM130.958 63.1818V73H129.086V63.1818H130.958ZM137.076 63.1818V73H135.209V63.1818H137.076ZM141.071 66.5568H143.922C145.123 66.5568 146.048 66.8551 146.696 67.4517C147.343 68.0483 147.667 68.8175 147.667 69.7592C147.667 70.3729 147.522 70.9247 147.233 71.4148C146.943 71.9048 146.519 72.2926 145.961 72.5781C145.402 72.8594 144.723 73 143.922 73H139.632V63.1818H141.505V71.3509H143.922C144.471 71.3509 144.923 71.2081 145.277 70.9226C145.63 70.6328 145.807 70.2642 145.807 69.8168C145.807 69.3437 145.63 68.9581 145.277 68.6598C144.923 68.3572 144.471 68.206 143.922 68.206H141.071V66.5568ZM154.727 59.9091H157.124L161.292 70.0852H161.445L165.613 59.9091H168.01V73H166.131V63.527H166.009L162.148 72.9808H160.589L156.728 63.5206H156.607V73H154.727V59.9091ZM173.585 73.2173C172.963 73.2173 172.401 73.1023 171.898 72.8722C171.395 72.6378 170.997 72.299 170.703 71.8558C170.413 71.4126 170.268 70.8693 170.268 70.2259C170.268 69.6719 170.374 69.2159 170.588 68.858C170.801 68.5 171.088 68.2166 171.45 68.0078C171.813 67.799 172.218 67.6413 172.665 67.5348C173.112 67.4283 173.568 67.3473 174.033 67.2919C174.621 67.2237 175.098 67.1683 175.465 67.1257C175.831 67.0788 176.097 67.0043 176.264 66.902C176.43 66.7997 176.513 66.6335 176.513 66.4034V66.3587C176.513 65.8004 176.355 65.3679 176.04 65.0611C175.729 64.7543 175.264 64.6009 174.646 64.6009C174.003 64.6009 173.496 64.7436 173.125 65.0291C172.759 65.3104 172.505 65.6236 172.365 65.9688L170.568 65.5597C170.781 64.9631 171.093 64.4815 171.502 64.1151C171.915 63.7443 172.39 63.4759 172.927 63.3097C173.464 63.1392 174.029 63.054 174.621 63.054C175.013 63.054 175.428 63.1009 175.867 63.1946C176.311 63.2841 176.724 63.4503 177.107 63.6932C177.495 63.9361 177.813 64.2834 178.06 64.7351C178.307 65.1825 178.431 65.7642 178.431 66.4801V73H176.564V71.6577H176.487C176.364 71.9048 176.178 72.1477 175.931 72.3864C175.684 72.625 175.367 72.8232 174.979 72.9808C174.591 73.1385 174.127 73.2173 173.585 73.2173ZM174.001 71.6832C174.529 71.6832 174.981 71.5788 175.356 71.37C175.735 71.1612 176.023 70.8885 176.219 70.5518C176.419 70.2109 176.519 69.8466 176.519 69.4588V68.1932C176.451 68.2614 176.319 68.3253 176.123 68.3849C175.931 68.4403 175.712 68.4893 175.465 68.532C175.218 68.5703 174.977 68.6065 174.742 68.6406C174.508 68.6705 174.312 68.696 174.154 68.7173C173.784 68.7642 173.445 68.843 173.138 68.9538C172.835 69.0646 172.593 69.2244 172.409 69.4332C172.23 69.6378 172.141 69.9105 172.141 70.2514C172.141 70.7244 172.316 71.0824 172.665 71.3253C173.014 71.5639 173.46 71.6832 174.001 71.6832ZM180.976 76.6818V63.1818H182.843V64.7734H183.002C183.113 64.5689 183.273 64.3324 183.482 64.0639C183.691 63.7955 183.98 63.5611 184.351 63.3608C184.722 63.1562 185.212 63.054 185.821 63.054C186.614 63.054 187.321 63.2543 187.944 63.6548C188.566 64.0554 189.054 64.6328 189.407 65.3871C189.765 66.1413 189.944 67.049 189.944 68.1101C189.944 69.1712 189.767 70.081 189.414 70.8395C189.06 71.5937 188.574 72.1754 187.956 72.5845C187.338 72.9893 186.633 73.1918 185.841 73.1918C185.244 73.1918 184.756 73.0916 184.377 72.8913C184.002 72.6911 183.708 72.4567 183.495 72.1882C183.282 71.9197 183.118 71.6811 183.002 71.4723H182.887V76.6818H180.976ZM182.849 68.0909C182.849 68.7812 182.949 69.3864 183.15 69.9062C183.35 70.4261 183.64 70.8331 184.019 71.1271C184.398 71.4169 184.863 71.5618 185.412 71.5618C185.983 71.5618 186.461 71.4105 186.844 71.108C187.228 70.8011 187.517 70.3857 187.713 69.8615C187.914 69.3374 188.014 68.7472 188.014 68.0909C188.014 67.4432 187.916 66.8615 187.72 66.3459C187.528 65.8303 187.238 65.4233 186.85 65.125C186.467 64.8267 185.988 64.6776 185.412 64.6776C184.858 64.6776 184.39 64.8203 184.006 65.1058C183.627 65.3913 183.339 65.7898 183.143 66.3011C182.947 66.8125 182.849 67.4091 182.849 68.0909ZM193.958 70.3217L198.286 63.1818H200.344V73H198.471V65.8537L194.163 73H192.086V63.1818H193.958V70.3217ZM208.769 73V64.8118H206.417C205.858 64.8118 205.424 64.9418 205.113 65.2017C204.801 65.4616 204.646 65.8026 204.646 66.2244C204.646 66.642 204.789 66.9787 205.074 67.2344C205.364 67.4858 205.769 67.6115 206.289 67.6115H209.325V69.1584H206.289C205.564 69.1584 204.938 69.0391 204.409 68.8004C203.885 68.5575 203.48 68.2145 203.195 67.7713C202.914 67.3281 202.773 66.804 202.773 66.1989C202.773 65.581 202.918 65.0483 203.208 64.6009C203.502 64.1491 203.922 63.7997 204.467 63.5526C205.017 63.3054 205.667 63.1818 206.417 63.1818H210.565V73H208.769ZM202.326 73L205.093 68.0398H207.049L204.282 73H202.326ZM215.519 59.9091L215.353 69.2351H213.582L213.416 59.9091H215.519ZM214.471 73.1214C214.117 73.1214 213.814 72.9979 213.563 72.7507C213.311 72.4993 213.188 72.1967 213.192 71.843C213.188 71.4936 213.311 71.1953 213.563 70.9482C213.814 70.6967 214.117 70.571 214.471 70.571C214.816 70.571 215.114 70.6967 215.365 70.9482C215.617 71.1953 215.745 71.4936 215.749 71.843C215.745 72.0774 215.683 72.2926 215.564 72.4886C215.449 72.6804 215.295 72.8338 215.103 72.9489C214.912 73.0639 214.701 73.1214 214.471 73.1214ZM39.9389 89.2663V90.9219H34.6207V89.2663H39.9389ZM35.1577 85.1818V95H33.2848V85.1818H35.1577ZM41.2749 85.1818V95H39.4084V85.1818H41.2749ZM46.6889 95.2173C46.0668 95.2173 45.5043 95.1023 45.0014 94.8722C44.4986 94.6378 44.1001 94.299 43.8061 93.8558C43.5163 93.4126 43.3714 92.8693 43.3714 92.2259C43.3714 91.6719 43.478 91.2159 43.6911 90.858C43.9041 90.5 44.1918 90.2166 44.554 90.0078C44.9162 89.799 45.321 89.6413 45.7685 89.5348C46.2159 89.4283 46.6719 89.3473 47.1364 89.2919C47.7244 89.2237 48.2017 89.1683 48.5682 89.1257C48.9347 89.0788 49.201 89.0043 49.3672 88.902C49.5334 88.7997 49.6165 88.6335 49.6165 88.4034V88.3587C49.6165 87.8004 49.4588 87.3679 49.1435 87.0611C48.8324 86.7543 48.3679 86.6009 47.75 86.6009C47.1065 86.6009 46.5994 86.7436 46.2287 87.0291C45.8622 87.3104 45.6087 87.6236 45.468 87.9688L43.6719 87.5597C43.8849 86.9631 44.196 86.4815 44.6051 86.1151C45.0185 85.7443 45.4936 85.4759 46.0305 85.3097C46.5675 85.1392 47.1321 85.054 47.7244 85.054C48.1165 85.054 48.532 85.1009 48.9709 85.1946C49.4141 85.2841 49.8274 85.4503 50.2109 85.6932C50.5987 85.9361 50.9162 86.2834 51.1634 86.7351C51.4105 87.1825 51.5341 87.7642 51.5341 88.4801V95H49.6676V93.6577H49.5909C49.4673 93.9048 49.282 94.1477 49.0348 94.3864C48.7876 94.625 48.4702 94.8232 48.0824 94.9808C47.6946 95.1385 47.2301 95.2173 46.6889 95.2173ZM47.1044 93.6832C47.6328 93.6832 48.0845 93.5788 48.4595 93.37C48.8388 93.1612 49.1264 92.8885 49.3224 92.5518C49.5227 92.2109 49.6229 91.8466 49.6229 91.4588V90.1932C49.5547 90.2614 49.4226 90.3253 49.2266 90.3849C49.0348 90.4403 48.8153 90.4893 48.5682 90.532C48.321 90.5703 48.0803 90.6065 47.8459 90.6406C47.6115 90.6705 47.4155 90.696 47.2578 90.7173C46.8871 90.7642 46.5483 90.843 46.2415 90.9538C45.9389 91.0646 45.696 91.2244 45.5128 91.4332C45.3338 91.6378 45.2443 91.9105 45.2443 92.2514C45.2443 92.7244 45.419 93.0824 45.7685 93.3253C46.1179 93.5639 46.5632 93.6832 47.1044 93.6832ZM59.5897 92.6349L62.7601 85.1818H64.4093L60.2992 95H58.8801L54.8532 85.1818H56.4831L59.5897 92.6349ZM55.9526 85.1818V95H54.0797V85.1818H55.9526ZM63.2779 95V85.1818H65.138V95H63.2779ZM76.5845 95.1982C75.6641 95.1982 74.8608 94.9872 74.1747 94.5653C73.4886 94.1435 72.956 93.5533 72.5767 92.7947C72.1974 92.0362 72.0078 91.1499 72.0078 90.1357C72.0078 89.1172 72.1974 88.2266 72.5767 87.4638C72.956 86.701 73.4886 86.1087 74.1747 85.6868C74.8608 85.2649 75.6641 85.054 76.5845 85.054C77.505 85.054 78.3082 85.2649 78.9943 85.6868C79.6804 86.1087 80.2131 86.701 80.5923 87.4638C80.9716 88.2266 81.1612 89.1172 81.1612 90.1357C81.1612 91.1499 80.9716 92.0362 80.5923 92.7947C80.2131 93.5533 79.6804 94.1435 78.9943 94.5653C78.3082 94.9872 77.505 95.1982 76.5845 95.1982ZM76.5909 93.5938C77.1875 93.5938 77.6818 93.4361 78.0739 93.1207C78.4659 92.8054 78.7557 92.3857 78.9432 91.8615C79.1349 91.3374 79.2308 90.7599 79.2308 90.1293C79.2308 89.5028 79.1349 88.9276 78.9432 88.4034C78.7557 87.875 78.4659 87.451 78.0739 87.1314C77.6818 86.8118 77.1875 86.652 76.5909 86.652C75.9901 86.652 75.4915 86.8118 75.0952 87.1314C74.7031 87.451 74.4112 87.875 74.2195 88.4034C74.032 88.9276 73.9382 89.5028 73.9382 90.1293C73.9382 90.7599 74.032 91.3374 74.2195 91.8615C74.4112 92.3857 74.7031 92.8054 75.0952 93.1207C75.4915 93.4361 75.9901 93.5938 76.5909 93.5938ZM91.176 85.1818V95H89.3095V85.1818H91.176ZM90.3642 89.7393V91.3885C90.0701 91.5078 89.7591 91.6143 89.4309 91.7081C89.1028 91.7976 88.7576 91.8679 88.3954 91.919C88.0332 91.9702 87.6561 91.9957 87.264 91.9957C86.0495 91.9957 85.0843 91.6996 84.3684 91.1072C83.6525 90.5107 83.2946 89.5987 83.2946 88.3714V85.1626H85.1547V88.3714C85.1547 88.8359 85.2399 89.2131 85.4103 89.5028C85.5808 89.7926 85.8237 90.0057 86.139 90.142C86.4544 90.2784 86.8294 90.3466 87.264 90.3466C87.8393 90.3466 88.3699 90.2933 88.8556 90.1868C89.3457 90.076 89.8485 89.9268 90.3642 89.7393ZM97.9499 95.1982C96.9826 95.1982 96.1495 94.9915 95.4506 94.5781C94.756 94.1605 94.2191 93.5746 93.8398 92.8203C93.4648 92.0618 93.2773 91.1733 93.2773 90.1548C93.2773 89.1491 93.4648 88.2628 93.8398 87.4957C94.2191 86.7287 94.7475 86.13 95.4251 85.6996C96.1069 85.2692 96.9038 85.054 97.8157 85.054C98.3697 85.054 98.9066 85.1456 99.4265 85.3288C99.9464 85.5121 100.413 85.7997 100.826 86.1918C101.24 86.5838 101.566 87.093 101.804 87.7195C102.043 88.3416 102.162 89.098 102.162 89.9886V90.6662H94.3576V89.2344H100.289C100.289 88.7315 100.187 88.2862 99.9826 87.8984C99.7781 87.5064 99.4904 87.1974 99.1197 86.9716C98.7532 86.7457 98.3228 86.6328 97.8285 86.6328C97.2915 86.6328 96.8228 86.7649 96.4222 87.0291C96.0259 87.2891 95.7191 87.63 95.5018 88.0518C95.2887 88.4695 95.1822 88.9233 95.1822 89.4134V90.532C95.1822 91.1882 95.2972 91.7464 95.5273 92.2067C95.7617 92.6669 96.0877 93.0185 96.5053 93.2614C96.9229 93.5 97.4109 93.6193 97.9691 93.6193C98.3313 93.6193 98.6616 93.5682 98.9599 93.4659C99.2582 93.3594 99.516 93.2017 99.7333 92.9929C99.9506 92.7841 100.117 92.5263 100.232 92.2195L102.041 92.5455C101.896 93.0781 101.636 93.5447 101.261 93.9453C100.89 94.3416 100.424 94.6506 99.8612 94.8722C99.3029 95.0895 98.6658 95.1982 97.9499 95.1982ZM110.937 89.2663V90.9219H105.619V89.2663H110.937ZM106.156 85.1818V95H104.283V85.1818H106.156ZM112.273 85.1818V95H110.406V85.1818H112.273ZM116.268 88.5568H119.119C120.32 88.5568 121.245 88.8551 121.893 89.4517C122.541 90.0483 122.865 90.8175 122.865 91.7592C122.865 92.3729 122.72 92.9247 122.43 93.4148C122.14 93.9048 121.716 94.2926 121.158 94.5781C120.6 94.8594 119.92 95 119.119 95H114.83V85.1818H116.703V93.3509H119.119C119.669 93.3509 120.12 93.2081 120.474 92.9226C120.828 92.6328 121.004 92.2642 121.004 91.8168C121.004 91.3437 120.828 90.9581 120.474 90.6598C120.12 90.3572 119.669 90.206 119.119 90.206H116.268V88.5568ZM136.425 89.2663V90.9219H131.107V89.2663H136.425ZM131.644 85.1818V95H129.771V85.1818H131.644ZM137.761 85.1818V95H135.895V85.1818H137.761ZM141.175 98.6818C140.889 98.6818 140.629 98.6584 140.395 98.6115C140.16 98.5689 139.986 98.522 139.871 98.4709L140.331 96.9048C140.68 96.9986 140.991 97.0391 141.264 97.0263C141.537 97.0135 141.778 96.9112 141.986 96.7195C142.199 96.5277 142.387 96.2145 142.549 95.7798L142.785 95.1278L139.193 85.1818H141.238L143.725 92.8011H143.827L146.314 85.1818H148.366L144.319 96.3104C144.132 96.8217 143.893 97.2543 143.604 97.608C143.314 97.9659 142.969 98.2344 142.568 98.4134C142.167 98.5923 141.703 98.6818 141.175 98.6818ZM149.535 95L153.339 89.9759L149.58 85.1818H151.805L154.841 89.2599H155.525V85.1818H157.436V89.2599H158.101L161.137 85.1818H163.361L159.622 89.9759L163.406 95H161.137L158.075 90.9091H157.436V95H155.525V90.9091H154.885L151.805 95H149.535ZM169.194 95.1982C168.227 95.1982 167.394 94.9915 166.695 94.5781C166 94.1605 165.463 93.5746 165.084 92.8203C164.709 92.0618 164.521 91.1733 164.521 90.1548C164.521 89.1491 164.709 88.2628 165.084 87.4957C165.463 86.7287 165.992 86.13 166.669 85.6996C167.351 85.2692 168.148 85.054 169.06 85.054C169.614 85.054 170.151 85.1456 170.671 85.3288C171.191 85.5121 171.657 85.7997 172.07 86.1918C172.484 86.5838 172.81 87.093 173.048 87.7195C173.287 88.3416 173.406 89.098 173.406 89.9886V90.6662H165.602V89.2344H171.534C171.534 88.7315 171.431 88.2862 171.227 87.8984C171.022 87.5064 170.735 87.1974 170.364 86.9716C169.997 86.7457 169.567 86.6328 169.073 86.6328C168.536 86.6328 168.067 86.7649 167.666 87.0291C167.27 87.2891 166.963 87.63 166.746 88.0518C166.533 88.4695 166.426 88.9233 166.426 89.4134V90.532C166.426 91.1882 166.541 91.7464 166.771 92.2067C167.006 92.6669 167.332 93.0185 167.749 93.2614C168.167 93.5 168.655 93.6193 169.213 93.6193C169.575 93.6193 169.906 93.5682 170.204 93.4659C170.502 93.3594 170.76 93.2017 170.977 92.9929C171.195 92.7841 171.361 92.5263 171.476 92.2195L173.285 92.5455C173.14 93.0781 172.88 93.5447 172.505 93.9453C172.134 94.3416 171.668 94.6506 171.105 94.8722C170.547 95.0895 169.91 95.1982 169.194 95.1982ZM182.181 89.2663V90.9219H176.863V89.2663H182.181ZM177.4 85.1818V95H175.527V85.1818H177.4ZM183.517 85.1818V95H181.651V85.1818H183.517ZM190.288 86.831V85.1818H198.572V86.831H195.369V95H193.503V86.831H190.288ZM202.994 95.2173C202.371 95.2173 201.809 95.1023 201.306 94.8722C200.803 94.6378 200.405 94.299 200.111 93.8558C199.821 93.4126 199.676 92.8693 199.676 92.2259C199.676 91.6719 199.783 91.2159 199.996 90.858C200.209 90.5 200.496 90.2166 200.859 90.0078C201.221 89.799 201.626 89.6413 202.073 89.5348C202.521 89.4283 202.977 89.3473 203.441 89.2919C204.029 89.2237 204.506 89.1683 204.873 89.1257C205.239 89.0788 205.506 89.0043 205.672 88.902C205.838 88.7997 205.921 88.6335 205.921 88.4034V88.3587C205.921 87.8004 205.763 87.3679 205.448 87.0611C205.137 86.7543 204.673 86.6009 204.055 86.6009C203.411 86.6009 202.904 86.7436 202.533 87.0291C202.167 87.3104 201.913 87.6236 201.773 87.9688L199.977 87.5597C200.19 86.9631 200.501 86.4815 200.91 86.1151C201.323 85.7443 201.798 85.4759 202.335 85.3097C202.872 85.1392 203.437 85.054 204.029 85.054C204.421 85.054 204.837 85.1009 205.276 85.1946C205.719 85.2841 206.132 85.4503 206.516 85.6932C206.903 85.9361 207.221 86.2834 207.468 86.7351C207.715 87.1825 207.839 87.7642 207.839 88.4801V95H205.972V93.6577H205.896C205.772 93.9048 205.587 94.1477 205.339 94.3864C205.092 94.625 204.775 94.8232 204.387 94.9808C203.999 95.1385 203.535 95.2173 202.994 95.2173ZM203.409 93.6832C203.938 93.6832 204.389 93.5788 204.764 93.37C205.143 93.1612 205.431 92.8885 205.627 92.5518C205.827 92.2109 205.928 91.8466 205.928 91.4588V90.1932C205.859 90.2614 205.727 90.3253 205.531 90.3849C205.339 90.4403 205.12 90.4893 204.873 90.532C204.626 90.5703 204.385 90.6065 204.151 90.6406C203.916 90.6705 203.72 90.696 203.562 90.7173C203.192 90.7642 202.853 90.843 202.546 90.9538C202.244 91.0646 202.001 91.2244 201.817 91.4332C201.638 91.6378 201.549 91.9105 201.549 92.2514C201.549 92.7244 201.724 93.0824 202.073 93.3253C202.423 93.5639 202.868 93.6832 203.409 93.6832ZM210.384 95V85.1818H212.296V89.2983H213.216L216.457 85.1818H218.822L215.019 89.9567L218.867 95H216.495L213.536 91.0753H212.296V95H210.384ZM224.083 95.1982C223.162 95.1982 222.359 94.9872 221.673 94.5653C220.987 94.1435 220.454 93.5533 220.075 92.7947C219.695 92.0362 219.506 91.1499 219.506 90.1357C219.506 89.1172 219.695 88.2266 220.075 87.4638C220.454 86.701 220.987 86.1087 221.673 85.6868C222.359 85.2649 223.162 85.054 224.083 85.054C225.003 85.054 225.806 85.2649 226.492 85.6868C227.178 86.1087 227.711 86.701 228.09 87.4638C228.47 88.2266 228.659 89.1172 228.659 90.1357C228.659 91.1499 228.47 92.0362 228.09 92.7947C227.711 93.5533 227.178 94.1435 226.492 94.5653C225.806 94.9872 225.003 95.1982 224.083 95.1982ZM224.089 93.5938C224.686 93.5938 225.18 93.4361 225.572 93.1207C225.964 92.8054 226.254 92.3857 226.441 91.8615C226.633 91.3374 226.729 90.7599 226.729 90.1293C226.729 89.5028 226.633 88.9276 226.441 88.4034C226.254 87.875 225.964 87.451 225.572 87.1314C225.18 86.8118 224.686 86.652 224.089 86.652C223.488 86.652 222.99 86.8118 222.593 87.1314C222.201 87.451 221.909 87.875 221.718 88.4034C221.53 88.9276 221.436 89.5028 221.436 90.1293C221.436 90.7599 221.53 91.3374 221.718 91.8615C221.909 92.3857 222.201 92.8054 222.593 93.1207C222.99 93.4361 223.488 93.5938 224.089 93.5938ZM232.665 92.3217L236.993 85.1818H239.051V95H237.178V87.8537L232.87 95H230.793V85.1818H232.665V92.3217ZM236.175 81.858H237.747C237.747 82.5781 237.491 83.1641 236.98 83.6158C236.473 84.0632 235.787 84.2869 234.922 84.2869C234.061 84.2869 233.377 84.0632 232.87 83.6158C232.363 83.1641 232.109 82.5781 232.109 81.858H233.675C233.675 82.1776 233.769 82.4609 233.957 82.7081C234.144 82.951 234.466 83.0724 234.922 83.0724C235.369 83.0724 235.689 82.951 235.881 82.7081C236.077 82.4652 236.175 82.1818 236.175 81.858ZM32.7351 108.831V107.182H41.0192V108.831H37.8168V117H35.9503V108.831H32.7351ZM45.4409 117.217C44.8187 117.217 44.2562 117.102 43.7534 116.872C43.2505 116.638 42.8521 116.299 42.5581 115.856C42.2683 115.413 42.1234 114.869 42.1234 114.226C42.1234 113.672 42.2299 113.216 42.443 112.858C42.6561 112.5 42.9437 112.217 43.3059 112.008C43.6681 111.799 44.073 111.641 44.5204 111.535C44.9679 111.428 45.4238 111.347 45.8883 111.292C46.4764 111.224 46.9537 111.168 47.3201 111.126C47.6866 111.079 47.9529 111.004 48.1191 110.902C48.2853 110.8 48.3684 110.634 48.3684 110.403V110.359C48.3684 109.8 48.2108 109.368 47.8954 109.061C47.5843 108.754 47.1199 108.601 46.502 108.601C45.8585 108.601 45.3514 108.744 44.9806 109.029C44.6142 109.31 44.3606 109.624 44.22 109.969L42.4238 109.56C42.6369 108.963 42.948 108.482 43.3571 108.115C43.7704 107.744 44.2456 107.476 44.7825 107.31C45.3194 107.139 45.8841 107.054 46.4764 107.054C46.8684 107.054 47.2839 107.101 47.7228 107.195C48.166 107.284 48.5794 107.45 48.9629 107.693C49.3507 107.936 49.6681 108.283 49.9153 108.735C50.1625 109.183 50.286 109.764 50.286 110.48V117H48.4196V115.658H48.3429C48.2193 115.905 48.0339 116.148 47.7868 116.386C47.5396 116.625 47.2221 116.823 46.8343 116.981C46.4466 117.138 45.9821 117.217 45.4409 117.217ZM45.8564 115.683C46.3848 115.683 46.8365 115.579 47.2115 115.37C47.5907 115.161 47.8784 114.888 48.0744 114.552C48.2747 114.211 48.3748 113.847 48.3748 113.459V112.193C48.3066 112.261 48.1745 112.325 47.9785 112.385C47.7868 112.44 47.5673 112.489 47.3201 112.532C47.073 112.57 46.8322 112.607 46.5978 112.641C46.3635 112.67 46.1674 112.696 46.0098 112.717C45.639 112.764 45.3002 112.843 44.9934 112.954C44.6909 113.065 44.448 113.224 44.2647 113.433C44.0858 113.638 43.9963 113.911 43.9963 114.251C43.9963 114.724 44.171 115.082 44.5204 115.325C44.8699 115.564 45.3152 115.683 45.8564 115.683ZM52.0582 117L52.0518 115.344H52.4034C52.6761 115.344 52.9041 115.287 53.0874 115.172C53.2749 115.053 53.4283 114.852 53.5476 114.571C53.6669 114.29 53.7585 113.902 53.8224 113.408C53.8864 112.909 53.9332 112.283 53.9631 111.528L54.1357 107.182H60.9879V117H59.1151V108.831H55.9062L55.7528 112.168C55.7145 112.977 55.6314 113.685 55.5036 114.29C55.38 114.895 55.1989 115.4 54.9602 115.805C54.7216 116.205 54.4148 116.506 54.0398 116.706C53.6648 116.902 53.2088 117 52.6719 117H52.0582ZM66.394 117.217C65.7718 117.217 65.2093 117.102 64.7065 116.872C64.2037 116.638 63.8052 116.299 63.5112 115.856C63.2214 115.413 63.0765 114.869 63.0765 114.226C63.0765 113.672 63.1831 113.216 63.3961 112.858C63.6092 112.5 63.8968 112.217 64.2591 112.008C64.6213 111.799 65.0261 111.641 65.4735 111.535C65.921 111.428 66.377 111.347 66.8414 111.292C67.4295 111.224 67.9068 111.168 68.2733 111.126C68.6397 111.079 68.9061 111.004 69.0723 110.902C69.2385 110.8 69.3216 110.634 69.3216 110.403V110.359C69.3216 109.8 69.1639 109.368 68.8485 109.061C68.5375 108.754 68.073 108.601 67.4551 108.601C66.8116 108.601 66.3045 108.744 65.9338 109.029C65.5673 109.31 65.3137 109.624 65.1731 109.969L63.377 109.56C63.59 108.963 63.9011 108.482 64.3102 108.115C64.7235 107.744 65.1987 107.476 65.7356 107.31C66.2725 107.139 66.8372 107.054 67.4295 107.054C67.8216 107.054 68.237 107.101 68.676 107.195C69.1191 107.284 69.5325 107.45 69.916 107.693C70.3038 107.936 70.6213 108.283 70.8684 108.735C71.1156 109.183 71.2392 109.764 71.2392 110.48V117H69.3727V115.658H69.296C69.1724 115.905 68.987 116.148 68.7399 116.386C68.4927 116.625 68.1752 116.823 67.7875 116.981C67.3997 117.138 66.9352 117.217 66.394 117.217ZM66.8095 115.683C67.3379 115.683 67.7896 115.579 68.1646 115.37C68.5439 115.161 68.8315 114.888 69.0275 114.552C69.2278 114.211 69.3279 113.847 69.3279 113.459V112.193C69.2598 112.261 69.1277 112.325 68.9316 112.385C68.7399 112.44 68.5204 112.489 68.2733 112.532C68.0261 112.57 67.7853 112.607 67.551 112.641C67.3166 112.67 67.1206 112.696 66.9629 112.717C66.5922 112.764 66.2534 112.843 65.9466 112.954C65.644 113.065 65.4011 113.224 65.2179 113.433C65.0389 113.638 64.9494 113.911 64.9494 114.251C64.9494 114.724 65.1241 115.082 65.4735 115.325C65.823 115.564 66.2683 115.683 66.8095 115.683ZM80.4389 111.266V112.922H75.1207V111.266H80.4389ZM75.6577 107.182V117H73.7848V107.182H75.6577ZM81.7749 107.182V117H79.9084V107.182H81.7749ZM83.114 108.831V107.182H91.3981V108.831H88.1957V117H86.3292V108.831H83.114ZM91.8375 117L91.8311 115.344H92.1827C92.4554 115.344 92.6834 115.287 92.8667 115.172C93.0542 115.053 93.2076 114.852 93.3269 114.571C93.4462 114.29 93.5378 113.902 93.6017 113.408C93.6657 112.909 93.7125 112.283 93.7424 111.528L93.915 107.182H100.767V117H98.8944V108.831H95.6855L95.5321 112.168C95.4938 112.977 95.4107 113.685 95.2828 114.29C95.1593 114.895 94.9782 115.4 94.7395 115.805C94.5009 116.205 94.1941 116.506 93.8191 116.706C93.4441 116.902 92.9881 117 92.4512 117H91.8375ZM105.189 114.322L109.516 107.182H111.575V117H109.702V109.854L105.393 117H103.316V107.182H105.189V114.322ZM114.144 117V107.182H118.216C119.324 107.182 120.202 107.418 120.849 107.891C121.497 108.36 121.821 108.997 121.821 109.803C121.821 110.378 121.638 110.834 121.271 111.17C120.905 111.507 120.419 111.733 119.814 111.848C120.253 111.899 120.656 112.031 121.022 112.244C121.388 112.453 121.683 112.734 121.904 113.088C122.13 113.442 122.243 113.864 122.243 114.354C122.243 114.874 122.109 115.334 121.84 115.734C121.572 116.131 121.182 116.442 120.67 116.668C120.163 116.889 119.552 117 118.836 117H114.144ZM115.94 115.402H118.836C119.309 115.402 119.68 115.289 119.948 115.063C120.217 114.837 120.351 114.531 120.351 114.143C120.351 113.687 120.217 113.329 119.948 113.069C119.68 112.805 119.309 112.673 118.836 112.673H115.94V115.402ZM115.94 111.273H118.235C118.593 111.273 118.9 111.222 119.156 111.119C119.415 111.017 119.614 110.872 119.75 110.685C119.891 110.493 119.961 110.267 119.961 110.007C119.961 109.628 119.805 109.332 119.494 109.119C119.183 108.906 118.757 108.799 118.216 108.799H115.94V111.273ZM125.778 110.557H128.629C129.83 110.557 130.755 110.855 131.403 111.452C132.05 112.048 132.374 112.817 132.374 113.759C132.374 114.373 132.229 114.925 131.94 115.415C131.65 115.905 131.226 116.293 130.668 116.578C130.109 116.859 129.43 117 128.629 117H124.339V107.182H126.212V115.351H128.629C129.178 115.351 129.63 115.208 129.984 114.923C130.337 114.633 130.514 114.264 130.514 113.817C130.514 113.344 130.337 112.958 129.984 112.66C129.63 112.357 129.178 112.206 128.629 112.206H125.778V110.557ZM133.768 117V107.182H135.679V117H133.768ZM140.117 114.322L144.444 107.182H146.502V117H144.629V109.854L140.321 117H138.244V107.182H140.117V114.322ZM143.626 103.858H145.198C145.198 104.578 144.943 105.164 144.431 105.616C143.924 106.063 143.238 106.287 142.373 106.287C141.512 106.287 140.828 106.063 140.321 105.616C139.814 105.164 139.561 104.578 139.561 103.858H141.127C141.127 104.178 141.22 104.461 141.408 104.708C141.595 104.951 141.917 105.072 142.373 105.072C142.82 105.072 143.14 104.951 143.332 104.708C143.528 104.465 143.626 104.182 143.626 103.858ZM152.877 119.832V115.344H153.676C153.88 115.157 154.053 114.933 154.194 114.673C154.338 114.413 154.46 114.104 154.558 113.746C154.66 113.388 154.745 112.971 154.814 112.494C154.882 112.012 154.941 111.462 154.993 110.844L155.299 107.182H161.973V115.344H163.481V119.832H161.615V117H154.769V119.832H152.877ZM155.721 115.344H160.106V108.818H157.012L156.808 110.844C156.71 111.876 156.586 112.771 156.437 113.529C156.288 114.283 156.049 114.888 155.721 115.344ZM167.222 114.322L171.55 107.182H173.608V117H171.735V109.854L167.427 117H165.349V107.182H167.222V114.322ZM175.596 114.405H177.552C177.577 114.805 177.758 115.114 178.095 115.332C178.436 115.549 178.877 115.658 179.418 115.658C179.968 115.658 180.437 115.54 180.824 115.306C181.212 115.067 181.406 114.699 181.406 114.2C181.406 113.902 181.331 113.642 181.182 113.42C181.037 113.195 180.831 113.02 180.562 112.896C180.298 112.773 179.985 112.711 179.623 112.711H178.025V111.209H179.623C180.164 111.209 180.569 111.085 180.837 110.838C181.106 110.591 181.24 110.282 181.24 109.911C181.24 109.511 181.095 109.189 180.805 108.946C180.52 108.699 180.121 108.575 179.61 108.575C179.09 108.575 178.657 108.692 178.312 108.927C177.967 109.157 177.786 109.455 177.769 109.822H175.839C175.851 109.272 176.018 108.79 176.337 108.377C176.661 107.96 177.096 107.636 177.641 107.406C178.191 107.171 178.815 107.054 179.514 107.054C180.243 107.054 180.873 107.171 181.406 107.406C181.939 107.64 182.35 107.964 182.64 108.377C182.934 108.79 183.081 109.266 183.081 109.803C183.081 110.344 182.919 110.787 182.595 111.132C182.275 111.473 181.858 111.718 181.342 111.867V111.969C181.721 111.995 182.058 112.11 182.352 112.315C182.646 112.519 182.876 112.79 183.042 113.126C183.209 113.463 183.292 113.844 183.292 114.271C183.292 114.871 183.126 115.391 182.793 115.83C182.465 116.269 182.009 116.608 181.425 116.847C180.846 117.081 180.183 117.198 179.437 117.198C178.713 117.198 178.063 117.085 177.488 116.859C176.917 116.629 176.463 116.305 176.126 115.888C175.794 115.47 175.617 114.976 175.596 114.405ZM188.123 117.217C187.5 117.217 186.938 117.102 186.435 116.872C185.932 116.638 185.534 116.299 185.24 115.856C184.95 115.413 184.805 114.869 184.805 114.226C184.805 113.672 184.912 113.216 185.125 112.858C185.338 112.5 185.625 112.217 185.988 112.008C186.35 111.799 186.755 111.641 187.202 111.535C187.65 111.428 188.105 111.347 188.57 111.292C189.158 111.224 189.635 111.168 190.002 111.126C190.368 111.079 190.635 111.004 190.801 110.902C190.967 110.8 191.05 110.634 191.05 110.403V110.359C191.05 109.8 190.892 109.368 190.577 109.061C190.266 108.754 189.801 108.601 189.184 108.601C188.54 108.601 188.033 108.744 187.662 109.029C187.296 109.31 187.042 109.624 186.902 109.969L185.105 109.56C185.319 108.963 185.63 108.482 186.039 108.115C186.452 107.744 186.927 107.476 187.464 107.31C188.001 107.139 188.566 107.054 189.158 107.054C189.55 107.054 189.966 107.101 190.404 107.195C190.848 107.284 191.261 107.45 191.645 107.693C192.032 107.936 192.35 108.283 192.597 108.735C192.844 109.183 192.968 109.764 192.968 110.48V117H191.101V115.658H191.025C190.901 115.905 190.716 116.148 190.468 116.386C190.221 116.625 189.904 116.823 189.516 116.981C189.128 117.138 188.664 117.217 188.123 117.217ZM188.538 115.683C189.066 115.683 189.518 115.579 189.893 115.37C190.272 115.161 190.56 114.888 190.756 114.552C190.956 114.211 191.056 113.847 191.056 113.459V112.193C190.988 112.261 190.856 112.325 190.66 112.385C190.468 112.44 190.249 112.489 190.002 112.532C189.755 112.57 189.514 112.607 189.279 112.641C189.045 112.67 188.849 112.696 188.691 112.717C188.321 112.764 187.982 112.843 187.675 112.954C187.373 113.065 187.13 113.224 186.946 113.433C186.767 113.638 186.678 113.911 186.678 114.251C186.678 114.724 186.853 115.082 187.202 115.325C187.551 115.564 187.997 115.683 188.538 115.683ZM197.386 114.322L201.714 107.182H203.772V117H201.899V109.854L197.591 117H195.513V107.182H197.386V114.322ZM200.895 103.858H202.468C202.468 104.578 202.212 105.164 201.701 105.616C201.194 106.063 200.508 106.287 199.643 106.287C198.782 106.287 198.098 106.063 197.591 105.616C197.084 105.164 196.83 104.578 196.83 103.858H198.396C198.396 104.178 198.49 104.461 198.677 104.708C198.865 104.951 199.187 105.072 199.643 105.072C200.09 105.072 200.41 104.951 200.601 104.708C200.797 104.465 200.895 104.182 200.895 103.858ZM212.996 111.266V112.922H207.677V111.266H212.996ZM208.214 107.182V117H206.341V107.182H208.214ZM214.331 107.182V117H212.465V107.182H214.331ZM221.12 117.198C220.153 117.198 219.319 116.991 218.621 116.578C217.926 116.161 217.389 115.575 217.01 114.82C216.635 114.062 216.447 113.173 216.447 112.155C216.447 111.149 216.635 110.263 217.01 109.496C217.389 108.729 217.917 108.13 218.595 107.7C219.277 107.269 220.074 107.054 220.986 107.054C221.54 107.054 222.077 107.146 222.596 107.329C223.116 107.512 223.583 107.8 223.996 108.192C224.41 108.584 224.736 109.093 224.974 109.719C225.213 110.342 225.332 111.098 225.332 111.989V112.666H217.528V111.234H223.459C223.459 110.732 223.357 110.286 223.153 109.898C222.948 109.506 222.66 109.197 222.29 108.972C221.923 108.746 221.493 108.633 220.998 108.633C220.461 108.633 219.993 108.765 219.592 109.029C219.196 109.289 218.889 109.63 218.672 110.052C218.459 110.469 218.352 110.923 218.352 111.413V112.532C218.352 113.188 218.467 113.746 218.697 114.207C218.932 114.667 219.258 115.018 219.675 115.261C220.093 115.5 220.581 115.619 221.139 115.619C221.501 115.619 221.831 115.568 222.13 115.466C222.428 115.359 222.686 115.202 222.903 114.993C223.121 114.784 223.287 114.526 223.402 114.219L225.211 114.545C225.066 115.078 224.806 115.545 224.431 115.945C224.06 116.342 223.594 116.651 223.031 116.872C222.473 117.089 221.836 117.198 221.12 117.198ZM227.453 120.682V107.182H229.319V108.773H229.479C229.59 108.569 229.75 108.332 229.958 108.064C230.167 107.795 230.457 107.561 230.828 107.361C231.199 107.156 231.689 107.054 232.298 107.054C233.091 107.054 233.798 107.254 234.42 107.655C235.042 108.055 235.53 108.633 235.884 109.387C236.242 110.141 236.421 111.049 236.421 112.11C236.421 113.171 236.244 114.081 235.89 114.839C235.537 115.594 235.051 116.175 234.433 116.585C233.815 116.989 233.11 117.192 232.317 117.192C231.721 117.192 231.233 117.092 230.853 116.891C230.478 116.691 230.184 116.457 229.971 116.188C229.758 115.92 229.594 115.681 229.479 115.472H229.364V120.682H227.453ZM229.326 112.091C229.326 112.781 229.426 113.386 229.626 113.906C229.826 114.426 230.116 114.833 230.495 115.127C230.875 115.417 231.339 115.562 231.889 115.562C232.46 115.562 232.937 115.411 233.321 115.108C233.704 114.801 233.994 114.386 234.19 113.862C234.39 113.337 234.49 112.747 234.49 112.091C234.49 111.443 234.392 110.862 234.196 110.346C234.005 109.83 233.715 109.423 233.327 109.125C232.944 108.827 232.464 108.678 231.889 108.678C231.335 108.678 230.866 108.82 230.483 109.106C230.103 109.391 229.816 109.79 229.62 110.301C229.424 110.812 229.326 111.409 229.326 112.091ZM33.2848 139V129.182H35.196V133.298H36.1165L39.3572 129.182H41.7223L37.919 133.957L41.767 139H39.3956L36.4361 135.075H35.196V139H33.2848ZM46.1088 139.217C45.4867 139.217 44.9242 139.102 44.4213 138.872C43.9185 138.638 43.5201 138.299 43.226 137.856C42.9363 137.413 42.7914 136.869 42.7914 136.226C42.7914 135.672 42.8979 135.216 43.111 134.858C43.324 134.5 43.6117 134.217 43.9739 134.008C44.3361 133.799 44.7409 133.641 45.1884 133.535C45.6358 133.428 46.0918 133.347 46.5563 133.292C47.1444 133.224 47.6216 133.168 47.9881 133.126C48.3546 133.079 48.6209 133.004 48.7871 132.902C48.9533 132.8 49.0364 132.634 49.0364 132.403V132.359C49.0364 131.8 48.8787 131.368 48.5634 131.061C48.2523 130.754 47.7878 130.601 47.1699 130.601C46.5265 130.601 46.0194 130.744 45.6486 131.029C45.2821 131.31 45.0286 131.624 44.888 131.969L43.0918 131.56C43.3049 130.963 43.6159 130.482 44.025 130.115C44.4384 129.744 44.9135 129.476 45.4505 129.31C45.9874 129.139 46.552 129.054 47.1444 129.054C47.5364 129.054 47.9519 129.101 48.3908 129.195C48.834 129.284 49.2473 129.45 49.6309 129.693C50.0186 129.936 50.3361 130.283 50.5833 130.735C50.8304 131.183 50.954 131.764 50.954 132.48V139H49.0875V137.658H49.0108C48.8873 137.905 48.7019 138.148 48.4547 138.386C48.2076 138.625 47.8901 138.823 47.5023 138.981C47.1145 139.138 46.65 139.217 46.1088 139.217ZM46.5243 137.683C47.0527 137.683 47.5044 137.579 47.8794 137.37C48.2587 137.161 48.5463 136.888 48.7424 136.552C48.9426 136.211 49.0428 135.847 49.0428 135.459V134.193C48.9746 134.261 48.8425 134.325 48.6465 134.385C48.4547 134.44 48.2353 134.489 47.9881 134.532C47.7409 134.57 47.5002 134.607 47.2658 134.641C47.0314 134.67 46.8354 134.696 46.6777 134.717C46.307 134.764 45.9682 134.843 45.6614 134.954C45.3588 135.065 45.1159 135.224 44.9327 135.433C44.7537 135.638 44.6642 135.911 44.6642 136.251C44.6642 136.724 44.839 137.082 45.1884 137.325C45.5378 137.564 45.9831 137.683 46.5243 137.683ZM53.4996 139V129.182H55.4109V133.298H56.3313L59.5721 129.182H61.9371L58.1339 133.957L61.9819 139H59.6104L56.6509 135.075H55.4109V139H53.4996ZM68.2301 139V129.182H72.3018C73.4098 129.182 74.2876 129.418 74.9354 129.891C75.5831 130.36 75.907 130.997 75.907 131.803C75.907 132.378 75.7237 132.834 75.3572 133.17C74.9908 133.507 74.505 133.733 73.8999 133.848C74.3388 133.899 74.7415 134.031 75.108 134.244C75.4744 134.453 75.7685 134.734 75.9901 135.088C76.2159 135.442 76.3288 135.864 76.3288 136.354C76.3288 136.874 76.1946 137.334 75.9261 137.734C75.6577 138.131 75.2678 138.442 74.7564 138.668C74.2493 138.889 73.6378 139 72.9219 139H68.2301ZM70.0263 137.402H72.9219C73.3949 137.402 73.7656 137.289 74.0341 137.063C74.3026 136.837 74.4368 136.531 74.4368 136.143C74.4368 135.687 74.3026 135.329 74.0341 135.069C73.7656 134.805 73.3949 134.673 72.9219 134.673H70.0263V137.402ZM70.0263 133.273H72.321C72.679 133.273 72.9858 133.222 73.2415 133.119C73.5014 133.017 73.6996 132.872 73.8359 132.685C73.9766 132.493 74.0469 132.267 74.0469 132.007C74.0469 131.628 73.8913 131.332 73.5803 131.119C73.2692 130.906 72.843 130.799 72.3018 130.799H70.0263V133.273ZM79.8636 132.557H82.7145C83.9162 132.557 84.8409 132.855 85.4886 133.452C86.1364 134.048 86.4602 134.817 86.4602 135.759C86.4602 136.373 86.3153 136.925 86.0256 137.415C85.7358 137.905 85.3118 138.293 84.7536 138.578C84.1953 138.859 83.5156 139 82.7145 139H78.4254V129.182H80.2983V137.351H82.7145C83.2642 137.351 83.7159 137.208 84.0696 136.923C84.4233 136.633 84.6001 136.264 84.6001 135.817C84.6001 135.344 84.4233 134.958 84.0696 134.66C83.7159 134.357 83.2642 134.206 82.7145 134.206H79.8636V132.557ZM87.8537 139V129.182H89.7649V139H87.8537ZM93.589 139.121C93.2395 139.121 92.9391 138.998 92.6877 138.751C92.4363 138.499 92.3105 138.197 92.3105 137.843C92.3105 137.494 92.4363 137.195 92.6877 136.948C92.9391 136.697 93.2395 136.571 93.589 136.571C93.9384 136.571 94.2388 136.697 94.4902 136.948C94.7417 137.195 94.8674 137.494 94.8674 137.843C94.8674 138.077 94.8077 138.293 94.6884 138.489C94.5733 138.68 94.4199 138.834 94.2282 138.949C94.0364 139.064 93.8233 139.121 93.589 139.121ZM98.6866 139.121C98.3372 139.121 98.0368 138.998 97.7853 138.751C97.5339 138.499 97.4082 138.197 97.4082 137.843C97.4082 137.494 97.5339 137.195 97.7853 136.948C98.0368 136.697 98.3372 136.571 98.6866 136.571C99.036 136.571 99.3365 136.697 99.5879 136.948C99.8393 137.195 99.965 137.494 99.965 137.843C99.965 138.077 99.9054 138.293 99.786 138.489C99.671 138.68 99.5176 138.834 99.3258 138.949C99.1341 139.064 98.921 139.121 98.6866 139.121ZM103.784 139.121C103.435 139.121 103.134 138.998 102.883 138.751C102.632 138.499 102.506 138.197 102.506 137.843C102.506 137.494 102.632 137.195 102.883 136.948C103.134 136.697 103.435 136.571 103.784 136.571C104.134 136.571 104.434 136.697 104.686 136.948C104.937 137.195 105.063 137.494 105.063 137.843C105.063 138.077 105.003 138.293 104.884 138.489C104.769 138.68 104.615 138.834 104.423 138.949C104.232 139.064 104.019 139.121 103.784 139.121Z" fill="black" fill-opacity="0.2"/>
<rect x="17" y="219" width="269" height="43" rx="18" fill="white"/>
<path d="M38.7947 244.635L41.9652 237.182H43.6143L39.5043 247H38.0852L34.0582 237.182H35.6882L38.7947 244.635ZM35.1577 237.182V247H33.2848V237.182H35.1577ZM42.483 247V237.182H44.343V247H42.483ZM51.0259 247.198C50.1055 247.198 49.3022 246.987 48.6161 246.565C47.93 246.143 47.3974 245.553 47.0181 244.795C46.6388 244.036 46.4492 243.15 46.4492 242.136C46.4492 241.117 46.6388 240.227 47.0181 239.464C47.3974 238.701 47.93 238.109 48.6161 237.687C49.3022 237.265 50.1055 237.054 51.0259 237.054C51.9464 237.054 52.7496 237.265 53.4357 237.687C54.1218 238.109 54.6545 238.701 55.0337 239.464C55.413 240.227 55.6026 241.117 55.6026 242.136C55.6026 243.15 55.413 244.036 55.0337 244.795C54.6545 245.553 54.1218 246.143 53.4357 246.565C52.7496 246.987 51.9464 247.198 51.0259 247.198ZM51.0323 245.594C51.6289 245.594 52.1232 245.436 52.5153 245.121C52.9073 244.805 53.1971 244.386 53.3846 243.862C53.5763 243.337 53.6722 242.76 53.6722 242.129C53.6722 241.503 53.5763 240.928 53.3846 240.403C53.1971 239.875 52.9073 239.451 52.5153 239.131C52.1232 238.812 51.6289 238.652 51.0323 238.652C50.4315 238.652 49.9329 238.812 49.5366 239.131C49.1445 239.451 48.8526 239.875 48.6609 240.403C48.4734 240.928 48.3796 241.503 48.3796 242.129C48.3796 242.76 48.4734 243.337 48.6609 243.862C48.8526 244.386 49.1445 244.805 49.5366 245.121C49.9329 245.436 50.4315 245.594 51.0323 245.594ZM59.6088 244.322L63.9363 237.182H65.9945V247H64.1216V239.854L59.8134 247H57.736V237.182H59.6088V244.322ZM63.1181 233.858H64.6905C64.6905 234.578 64.4348 235.164 63.9235 235.616C63.4164 236.063 62.7303 236.287 61.8652 236.287C61.0044 236.287 60.3205 236.063 59.8134 235.616C59.3063 235.164 59.0527 234.578 59.0527 233.858H60.6188C60.6188 234.178 60.7125 234.461 60.9 234.708C61.0875 234.951 61.4093 235.072 61.8652 235.072C62.3127 235.072 62.6323 234.951 62.824 234.708C63.0201 234.465 63.1181 234.182 63.1181 233.858ZM70.437 244.322L74.7644 237.182H76.8226V247H74.9498V239.854L70.6415 247H68.5641V237.182H70.437V244.322ZM84.9022 244.635L88.0726 237.182H89.7218L85.6117 247H84.1926L80.1657 237.182H81.7956L84.9022 244.635ZM81.2651 237.182V247H79.3922V237.182H81.2651ZM88.5904 247V237.182H90.4505V247H88.5904ZM96.3727 238.71C96.0403 238.714 95.7207 238.793 95.4139 238.946C95.1071 239.099 94.8535 239.304 94.6532 239.56C94.4572 239.815 94.3592 240.105 94.3592 240.429H92.5566C92.5566 239.969 92.6589 239.534 92.8635 239.125C93.068 238.716 93.3471 238.356 93.7008 238.045C94.0545 237.734 94.4615 237.489 94.9217 237.31C95.3819 237.131 95.8656 237.041 96.3727 237.041C97.2974 237.041 98.0794 237.267 98.7186 237.719C99.362 238.166 99.85 238.763 100.182 239.509C100.515 240.25 100.681 241.064 100.681 241.95V242.27C100.681 243.156 100.515 243.972 100.182 244.718C99.85 245.464 99.362 246.06 98.7186 246.508C98.0794 246.955 97.2974 247.179 96.3727 247.179C95.6312 247.179 94.9728 247.021 94.3975 246.706C93.8223 246.391 93.3706 245.96 93.0424 245.415C92.7186 244.865 92.5566 244.239 92.5566 243.536H94.3592C94.3592 243.885 94.4508 244.209 94.6341 244.507C94.8173 244.805 95.0602 245.046 95.3627 245.229C95.6696 245.408 96.0062 245.5 96.3727 245.504C96.9224 245.5 97.3762 245.334 97.7342 245.006C98.0964 244.678 98.3649 244.266 98.5396 243.772C98.7186 243.273 98.8081 242.773 98.8081 242.27V241.95C98.8081 241.426 98.7186 240.917 98.5396 240.423C98.3649 239.928 98.0964 239.521 97.7342 239.202C97.3762 238.878 96.9224 238.714 96.3727 238.71ZM99.4792 241.33V242.8H95.4586V241.33H99.4792ZM104.679 244.322L109.007 237.182H111.065V247H109.192V239.854L104.884 247H102.806V237.182H104.679V244.322ZM112.861 247L112.855 245.344H113.206C113.479 245.344 113.707 245.287 113.89 245.172C114.078 245.053 114.231 244.852 114.35 244.571C114.47 244.29 114.561 243.902 114.625 243.408C114.689 242.909 114.736 242.283 114.766 241.528L114.938 237.182H121.791V247H119.918V238.831H116.709L116.556 242.168C116.517 242.977 116.434 243.685 116.306 244.29C116.183 244.895 116.002 245.4 115.763 245.805C115.524 246.205 115.218 246.506 114.843 246.706C114.468 246.902 114.012 247 113.475 247H112.861ZM125.599 247.121C125.249 247.121 124.949 246.998 124.697 246.751C124.446 246.499 124.32 246.197 124.32 245.843C124.32 245.494 124.446 245.195 124.697 244.948C124.949 244.697 125.249 244.571 125.599 244.571C125.948 244.571 126.249 244.697 126.5 244.948C126.751 245.195 126.877 245.494 126.877 245.843C126.877 246.077 126.817 246.293 126.698 246.489C126.583 246.68 126.43 246.834 126.238 246.949C126.046 247.064 125.833 247.121 125.599 247.121ZM129.437 250.682V237.182H131.304V238.773H131.463C131.574 238.569 131.734 238.332 131.943 238.064C132.152 237.795 132.441 237.561 132.812 237.361C133.183 237.156 133.673 237.054 134.282 237.054C135.075 237.054 135.782 237.254 136.404 237.655C137.027 238.055 137.515 238.633 137.868 239.387C138.226 240.141 138.405 241.049 138.405 242.11C138.405 243.171 138.228 244.081 137.875 244.839C137.521 245.594 137.035 246.175 136.417 246.585C135.799 246.989 135.094 247.192 134.301 247.192C133.705 247.192 133.217 247.092 132.838 246.891C132.463 246.691 132.169 246.457 131.956 246.188C131.743 245.92 131.578 245.681 131.463 245.472H131.348V250.682H129.437ZM131.31 242.091C131.31 242.781 131.41 243.386 131.61 243.906C131.811 244.426 132.1 244.833 132.48 245.127C132.859 245.417 133.324 245.562 133.873 245.562C134.444 245.562 134.922 245.411 135.305 245.108C135.689 244.801 135.978 244.386 136.174 243.862C136.375 243.337 136.475 242.747 136.475 242.091C136.475 241.443 136.377 240.862 136.181 240.346C135.989 239.83 135.699 239.423 135.311 239.125C134.928 238.827 134.449 238.678 133.873 238.678C133.319 238.678 132.85 238.82 132.467 239.106C132.088 239.391 131.8 239.79 131.604 240.301C131.408 240.812 131.31 241.409 131.31 242.091ZM141.421 250.682C141.135 250.682 140.875 250.658 140.641 250.612C140.406 250.569 140.232 250.522 140.117 250.471L140.577 248.905C140.926 248.999 141.237 249.039 141.51 249.026C141.783 249.013 142.024 248.911 142.232 248.719C142.445 248.528 142.633 248.214 142.795 247.78L143.031 247.128L139.439 237.182H141.485L143.971 244.801H144.073L146.56 237.182H148.612L144.566 248.31C144.378 248.822 144.139 249.254 143.85 249.608C143.56 249.966 143.215 250.234 142.814 250.413C142.414 250.592 141.949 250.682 141.421 250.682Z" fill="black" fill-opacity="0.2"/>
<path d="M286.213 31.2129L272.071 17.0708" stroke="black" stroke-width="1.5"/>
<path d="M272.071 31.2129L286.213 17.0708" stroke="black" stroke-width="1.5"/>
</svg>
